<svg id="圖層_1" data-name="圖層 1" xmlns="http://www.w3.org/2000/svg" viewBox="0 0 369 40"><defs><style>.cls-1{fill:#656c73;}.cls-2{fill:#e84335;}.cls-3{fill:#4283f2;}.cls-4{fill:#f9ba04;}.cls-5{fill:#0f9b58;}</style></defs><title>GDG_logo</title><path class="cls-1" d="M72,26.7a10.34,10.34,0,0,1-3.51-3.51,9.27,9.27,0,0,1-1.24-5,10.5,10.5,0,0,1,1.24-5A9.53,9.53,0,0,1,72,9.72,8.9,8.9,0,0,1,76.9,8.47a10.63,10.63,0,0,1,3.85.68,7,7,0,0,1,2.94,2l-1.58,1.59a7,7,0,0,0-2.27-1.7,8.45,8.45,0,0,0-2.94-.57,7.74,7.74,0,0,0-3.62.91,7.53,7.53,0,0,0-3.74,6.68,7.63,7.63,0,0,0,1,4,7.79,7.79,0,0,0,2.72,2.72,6.86,6.86,0,0,0,3.62.9,8.85,8.85,0,0,0,3.17-.56,6,6,0,0,0,2.15-1.59,7.08,7.08,0,0,0,1.13-1.81,7.21,7.21,0,0,0,.46-2.26H76.9v-2h8.94A5.18,5.18,0,0,1,86,18.78a11.81,11.81,0,0,1-.57,3.39A6.43,6.43,0,0,1,83.69,25a9.34,9.34,0,0,1-6.9,2.84A7.83,7.83,0,0,1,72,26.7Z"/><path class="cls-1" d="M90.94,27a6.27,6.27,0,0,1-2.38-2.49A7.22,7.22,0,0,1,87.77,21a7.25,7.25,0,0,1,.79-3.51A6.34,6.34,0,0,1,90.94,15a6.85,6.85,0,0,1,6.79,0,6.34,6.34,0,0,1,2.38,2.49A7.25,7.25,0,0,1,100.9,21a7.22,7.22,0,0,1-.79,3.51A6.27,6.27,0,0,1,97.73,27a6.87,6.87,0,0,1-3.39.91A5.66,5.66,0,0,1,90.94,27Zm5.55-1.7a4.47,4.47,0,0,0,1.58-1.69A5,5,0,0,0,98.64,21a6.25,6.25,0,0,0-.57-2.6,3.86,3.86,0,0,0-1.58-1.7,3.65,3.65,0,0,0-2.15-.57,4.7,4.7,0,0,0-2.16.57,4.58,4.58,0,0,0-1.58,1.7A4.92,4.92,0,0,0,90,21a6.34,6.34,0,0,0,.57,2.61,3.89,3.89,0,0,0,1.58,1.69,3.59,3.59,0,0,0,2.16.57A3,3,0,0,0,96.49,25.34Z"/><path class="cls-1" d="M105.66,27a6.27,6.27,0,0,1-2.38-2.49,7.22,7.22,0,0,1-.79-3.51,7.25,7.25,0,0,1,.79-3.51A6.34,6.34,0,0,1,105.66,15a6.85,6.85,0,0,1,6.79,0,6.34,6.34,0,0,1,2.38,2.49,7.25,7.25,0,0,1,.79,3.51,7.22,7.22,0,0,1-.79,3.51A6.27,6.27,0,0,1,112.45,27a6.87,6.87,0,0,1-3.39.91A5.9,5.9,0,0,1,105.66,27Zm5.66-1.7a4.47,4.47,0,0,0,1.58-1.69,4.88,4.88,0,0,0,.57-2.61,6.25,6.25,0,0,0-.57-2.6,3.86,3.86,0,0,0-1.58-1.7,3.65,3.65,0,0,0-2.15-.57,4.69,4.69,0,0,0-2.15.57,4.53,4.53,0,0,0-1.59,1.7,4.91,4.91,0,0,0-.56,2.6,6.33,6.33,0,0,0,.56,2.61A3.85,3.85,0,0,0,107,25.34a3.58,3.58,0,0,0,2.15.57A3.09,3.09,0,0,0,111.32,25.34Z"/><path class="cls-1" d="M119.81,32.48a5.51,5.51,0,0,1-2-2.61l2-.9a3.14,3.14,0,0,0,1.36,1.81,4.59,4.59,0,0,0,5.55-.57,4.57,4.57,0,0,0,1.13-3.39V25.46h-.11a5.39,5.39,0,0,1-1.81,1.7,5.32,5.32,0,0,1-2.61.68,5.69,5.69,0,0,1-3.06-.91A6.18,6.18,0,0,1,118,24.44a7.25,7.25,0,0,1-.79-3.51,6.83,6.83,0,0,1,3.05-6,5.69,5.69,0,0,1,3.06-.91,4.73,4.73,0,0,1,2.61.68,5.29,5.29,0,0,1,1.81,1.7h.11V14.48H130V26.93a7.1,7.1,0,0,1-.79,3.62,6.25,6.25,0,0,1-2.27,2.27,7.73,7.73,0,0,1-3.28.68A5.39,5.39,0,0,1,119.81,32.48Zm6-7.14a3.91,3.91,0,0,0,1.59-1.69A5.93,5.93,0,0,0,128,21a6.25,6.25,0,0,0-.56-2.6,3.35,3.35,0,0,0-1.59-1.7,4.34,4.34,0,0,0-4.3,0,3.93,3.93,0,0,0-1.59,1.7,5.88,5.88,0,0,0-.56,2.6,6.33,6.33,0,0,0,.56,2.61,4.5,4.5,0,0,0,1.59,1.69,4.69,4.69,0,0,0,2.15.57A3,3,0,0,0,125.81,25.34Z"/><path class="cls-1" d="M135,8.93h-2.26V27.61H135Z"/><path class="cls-1" d="M140.08,27a5.41,5.41,0,0,1-2.27-2.49A7.34,7.34,0,0,1,137,21a7.67,7.67,0,0,1,.79-3.51A6.07,6.07,0,0,1,140.08,15a6.56,6.56,0,0,1,3.28-.9,6.07,6.07,0,0,1,3.28.79,5.48,5.48,0,0,1,2.16,2.38,8.44,8.44,0,0,1,.79,3.51v.56h-10.3a4.32,4.32,0,0,0,.67,2.49,4.87,4.87,0,0,0,1.59,1.47,4.45,4.45,0,0,0,2,.46,4,4,0,0,0,3.73-2.38l1.93.91A7,7,0,0,1,147,26.82a6,6,0,0,1-3.51.9A4.43,4.43,0,0,1,140.08,27Zm7.13-7.36a4.29,4.29,0,0,0-.45-1.58,2.88,2.88,0,0,0-1.25-1.36,4.44,4.44,0,0,0-2.26-.57,3.71,3.71,0,0,0-2.49.91,4.91,4.91,0,0,0-1.36,2.49h7.81Z"/><path class="cls-1" d="M158,8.93h5.66a11.16,11.16,0,0,1,5,1.13,8.28,8.28,0,0,1,3.28,3.28A9.61,9.61,0,0,1,173,18.21a9.89,9.89,0,0,1-1.14,4.87,8.28,8.28,0,0,1-3.28,3.28,10,10,0,0,1-5,1.14H158Zm5.66,16.53a7.19,7.19,0,0,0,5.21-1.93,7.28,7.28,0,0,0,1.92-5.32,7.32,7.32,0,0,0-1.92-5.32A7.18,7.18,0,0,0,163.63,11h-3.4V25.46Z"/><path class="cls-1" d="M178.12,27a5.34,5.34,0,0,1-2.26-2.49,7.23,7.23,0,0,1-.8-3.51,7.55,7.55,0,0,1,.8-3.51A6,6,0,0,1,178.12,15a6.56,6.56,0,0,1,3.28-.9,6.13,6.13,0,0,1,3.29.79,5.46,5.46,0,0,1,2.15,2.38,8.44,8.44,0,0,1,.79,3.51v.56h-10.3a4.25,4.25,0,0,0,.68,2.49,4.84,4.84,0,0,0,1.58,1.47,4.45,4.45,0,0,0,2,.46,4.05,4.05,0,0,0,3.74-2.38l1.92.91A7,7,0,0,1,185,26.82a6,6,0,0,1-3.51.9A4.45,4.45,0,0,1,178.12,27Zm7.13-7.36a4.11,4.11,0,0,0-.45-1.58,2.9,2.9,0,0,0-1.24-1.36,4.48,4.48,0,0,0-2.27-.57,3.71,3.71,0,0,0-2.49.91,4.91,4.91,0,0,0-1.36,2.49h7.81Z"/><path class="cls-1" d="M188.08,14.59h2.38l4,10.41h.11l4-10.41h2.38l-5.32,13h-2.27Z"/><path class="cls-1" d="M205,27a5.41,5.41,0,0,1-2.27-2.49A7.22,7.22,0,0,1,201.9,21a7.54,7.54,0,0,1,.79-3.51A6.07,6.07,0,0,1,205,15a6.5,6.5,0,0,1,3.28-.9,6.09,6.09,0,0,1,3.28.79,5.4,5.4,0,0,1,2.15,2.38,8.29,8.29,0,0,1,.8,3.51v.56H204.05a4.32,4.32,0,0,0,.68,2.49,4.84,4.84,0,0,0,1.58,1.47,4.45,4.45,0,0,0,2,.46,4,4,0,0,0,3.74-2.38l1.92.91a7,7,0,0,1-2.26,2.49,6,6,0,0,1-3.51.9A4.06,4.06,0,0,1,205,27Zm7-7.36a4.13,4.13,0,0,0-.46-1.58,2.85,2.85,0,0,0-1.24-1.36,4.48,4.48,0,0,0-2.27-.57,3.71,3.71,0,0,0-2.49.91,4.91,4.91,0,0,0-1.36,2.49H212Z"/><path class="cls-1" d="M218.88,8.93h-2.26V27.61h2.26Z"/><path class="cls-1" d="M224.09,27a6.27,6.27,0,0,1-2.38-2.49,7.34,7.34,0,0,1-.79-3.51,7.36,7.36,0,0,1,.79-3.51A6.34,6.34,0,0,1,224.09,15a6.85,6.85,0,0,1,6.79,0,6.34,6.34,0,0,1,2.38,2.49,7.25,7.25,0,0,1,.79,3.51,7.22,7.22,0,0,1-.79,3.51A6.27,6.27,0,0,1,230.88,27a6.87,6.87,0,0,1-3.39.91A5.9,5.9,0,0,1,224.09,27Zm5.66-1.7a4.5,4.5,0,0,0,1.59-1.69A5,5,0,0,0,231.9,21a6.25,6.25,0,0,0-.56-2.6,3.93,3.93,0,0,0-1.59-1.7,3.65,3.65,0,0,0-2.15-.57,4.69,4.69,0,0,0-2.15.57,4.53,4.53,0,0,0-1.59,1.7,4.91,4.91,0,0,0-.56,2.6,6.33,6.33,0,0,0,.56,2.61,3.91,3.91,0,0,0,1.59,1.69,3.58,3.58,0,0,0,2.15.57A3.09,3.09,0,0,0,229.75,25.34Z"/><path class="cls-1" d="M236.21,14.59h2.15v1.92h.11a5.3,5.3,0,0,1,1.81-1.7,5.4,5.4,0,0,1,2.72-.67,5.77,5.77,0,0,1,3.06.9,7,7,0,0,1,2.26,2.49,7.25,7.25,0,0,1,.79,3.51,7,7,0,0,1-.79,3.51A8.06,8.06,0,0,1,246.06,27,5.69,5.69,0,0,1,243,28a5.41,5.41,0,0,1-2.72-.68,5.2,5.2,0,0,1-1.81-1.7h-.11l.11,1.81v5.78h-2.26Zm8.49,10.75a5.55,5.55,0,0,0,1.58-1.69,6.34,6.34,0,0,0,.57-2.61,6.25,6.25,0,0,0-.57-2.6,3.33,3.33,0,0,0-1.58-1.7,3.65,3.65,0,0,0-2.15-.57,4.7,4.7,0,0,0-2.16.57,3.86,3.86,0,0,0-1.58,1.7,6.25,6.25,0,0,0-.57,2.6,6.34,6.34,0,0,0,.57,2.61,3.31,3.31,0,0,0,1.58,1.69,4.7,4.7,0,0,0,2.16.57A3,3,0,0,0,244.7,25.34Z"/><path class="cls-1" d="M254.21,27a5.41,5.41,0,0,1-2.27-2.49,7.34,7.34,0,0,1-.79-3.51,7.67,7.67,0,0,1,.79-3.51A6.07,6.07,0,0,1,254.21,15a6.56,6.56,0,0,1,3.28-.9,6.07,6.07,0,0,1,3.28.79,5.48,5.48,0,0,1,2.16,2.38,8.44,8.44,0,0,1,.79,3.51v.56h-10.3a4.32,4.32,0,0,0,.67,2.49,4.87,4.87,0,0,0,1.59,1.47,4.45,4.45,0,0,0,2,.46,4,4,0,0,0,3.73-2.38l1.93.91a7,7,0,0,1-2.27,2.49,6,6,0,0,1-3.51.9A4.43,4.43,0,0,1,254.21,27Zm7.13-7.36a4.29,4.29,0,0,0-.45-1.58,2.88,2.88,0,0,0-1.25-1.36,4.44,4.44,0,0,0-2.26-.57,3.71,3.71,0,0,0-2.49.91,4.84,4.84,0,0,0-1.36,2.49h7.81Z"/><path class="cls-1" d="M265.87,14.59H268v2.15h.11a3.78,3.78,0,0,1,1.48-1.81,4.38,4.38,0,0,1,2.26-.68,5.39,5.39,0,0,1,1.47.23v2.37a4.39,4.39,0,0,0-1.81-.34,3.41,3.41,0,0,0-1.7.57,3.25,3.25,0,0,0-1.24,1.47,3.75,3.75,0,0,0-.46,1.93v7.24h-2.26V14.59Z"/><path class="cls-1" d="M284.78,26.7a10.25,10.25,0,0,1-3.51-3.51,9.28,9.28,0,0,1-1.25-5,10.51,10.51,0,0,1,1.25-5,9.46,9.46,0,0,1,3.51-3.51,8.9,8.9,0,0,1,4.87-1.25,10.67,10.67,0,0,1,3.85.68,7,7,0,0,1,2.94,2l-1.59,1.59a6.83,6.83,0,0,0-2.26-1.7,8.45,8.45,0,0,0-2.94-.57,7.81,7.81,0,0,0-3.63.91,7.76,7.76,0,0,0-2.71,2.72,7.63,7.63,0,0,0-1,4,7.63,7.63,0,0,0,1,4A7.84,7.84,0,0,0,286,24.78a6.92,6.92,0,0,0,3.63.9,8.85,8.85,0,0,0,3.17-.56A6,6,0,0,0,295,23.53a7.08,7.08,0,0,0,1.13-1.81,7.21,7.21,0,0,0,.45-2.26h-6.9v-2h8.94a5.64,5.64,0,0,1,.11,1.36,11.79,11.79,0,0,1-.56,3.39,6.52,6.52,0,0,1-1.7,2.83,9.37,9.37,0,0,1-6.91,2.84A8,8,0,0,1,284.78,26.7Z"/><path class="cls-1" d="M301.31,14.59h2.15v2.15h.11A3.81,3.81,0,0,1,305,14.93a4.44,4.44,0,0,1,2.27-.68,5.39,5.39,0,0,1,1.47.23v2.37a4.39,4.39,0,0,0-1.81-.34,3.38,3.38,0,0,0-1.7.57A3.25,3.25,0,0,0,304,18.55a3.75,3.75,0,0,0-.46,1.93v7.24h-2.26V14.59Z"/><path class="cls-1" d="M312.29,27a6.27,6.27,0,0,1-2.38-2.49,7.34,7.34,0,0,1-.79-3.51,7.36,7.36,0,0,1,.79-3.51A6.34,6.34,0,0,1,312.29,15a6.85,6.85,0,0,1,6.79,0,6.27,6.27,0,0,1,2.38,2.49,7.26,7.26,0,0,1,.8,3.51,7.23,7.23,0,0,1-.8,3.51A6.2,6.2,0,0,1,319.08,27a6.84,6.84,0,0,1-3.39.91A5.9,5.9,0,0,1,312.29,27Zm5.66-1.7a4.5,4.5,0,0,0,1.59-1.69A5,5,0,0,0,320.1,21a6.25,6.25,0,0,0-.56-2.6,3.93,3.93,0,0,0-1.59-1.7,3.65,3.65,0,0,0-2.15-.57,4.69,4.69,0,0,0-2.15.57,4.42,4.42,0,0,0-1.58,1.7,4.82,4.82,0,0,0-.57,2.6,6.34,6.34,0,0,0,.57,2.61,3.83,3.83,0,0,0,1.58,1.69,3.58,3.58,0,0,0,2.15.57A3.09,3.09,0,0,0,318,25.34Z"/><path class="cls-1" d="M325.65,26.59a5.63,5.63,0,0,1-1.24-3.85V14.59h2.26V22.4c0,2.38,1,3.62,3.17,3.62a3.84,3.84,0,0,0,1.93-.56,4.62,4.62,0,0,0,1.35-1.59,4.45,4.45,0,0,0,.46-2V14.7h2.15V27.61h-2V25.68h-.11a4.09,4.09,0,0,1-1.7,1.7,4.79,4.79,0,0,1-2.49.68A5.15,5.15,0,0,1,325.65,26.59Z"/><path class="cls-1" d="M338.56,14.59h2.15v1.92h.11a5.25,5.25,0,0,1,4.53-2.37,5.77,5.77,0,0,1,3.06.9,6.81,6.81,0,0,1,2.26,2.49,7.26,7.26,0,0,1,.8,3.51,7,7,0,0,1-.8,3.51A7.82,7.82,0,0,1,348.41,27a5.69,5.69,0,0,1-3.06.91,5.37,5.37,0,0,1-2.71-.68,5.24,5.24,0,0,1-1.82-1.7h-.11l.11,1.81v5.78h-2.26Zm8.49,10.75a5.71,5.71,0,0,0,1.59-1.69A6.33,6.33,0,0,0,349.2,21a6.25,6.25,0,0,0-.56-2.6,3.35,3.35,0,0,0-1.59-1.7,3.65,3.65,0,0,0-2.15-.57,4.69,4.69,0,0,0-2.15.57,3.93,3.93,0,0,0-1.59,1.7,6.25,6.25,0,0,0-.56,2.6,6.33,6.33,0,0,0,.56,2.61,3.33,3.33,0,0,0,1.59,1.69,4.69,4.69,0,0,0,2.15.57A2.83,2.83,0,0,0,347.05,25.34Z"/><path class="cls-1" d="M354.64,26.93a6.54,6.54,0,0,1-2-2.6l1.92-.91A4.2,4.2,0,0,0,356,25.34a3.55,3.55,0,0,0,2,.68,3.88,3.88,0,0,0,2-.56,1.47,1.47,0,0,0,.79-1.36,1.83,1.83,0,0,0-.56-1.25,8,8,0,0,0-2.15-.9l-1.81-.46a5.67,5.67,0,0,1-2.5-1.24,3,3,0,0,1-1-2.38,3.14,3.14,0,0,1,.68-2,4.38,4.38,0,0,1,1.81-1.35,6.07,6.07,0,0,1,2.49-.46,5.63,5.63,0,0,1,3.05.79A4.41,4.41,0,0,1,362.79,17l-1.93.79a2.11,2.11,0,0,0-1.24-1.36,3.74,3.74,0,0,0-1.93-.45,3.34,3.34,0,0,0-1.81.45,1.45,1.45,0,0,0-.79,1.25,1.17,1.17,0,0,0,.57,1,6.09,6.09,0,0,0,1.69.68l1.93.46a5.61,5.61,0,0,1,2.83,1.47,3.48,3.48,0,0,1,.23,4.41,4.74,4.74,0,0,1-1.82,1.48,6.66,6.66,0,0,1-2.6.56A4.22,4.22,0,0,1,354.64,26.93Z"/><path class="cls-2" d="M16.44,18.55l8.38-4.87a4.14,4.14,0,0,0-4.19-7.13L6.13,14.93Z"/><path class="cls-3" d="M22.67,30.89a4,4,0,0,0,3.51-2,4.2,4.2,0,0,0-1.48-5.66L10.21,14.81A4.14,4.14,0,0,0,6,22l14.49,8.38A4.15,4.15,0,0,0,22.67,30.89Z"/><path class="cls-4" d="M37,30.89a4.61,4.61,0,0,0,2-.56L53.58,22,43.5,18.21,35,23.08a4.17,4.17,0,0,0-1.48,5.66A3.94,3.94,0,0,0,37,30.89Z"/><path class="cls-5" d="M51.54,22.63a4,4,0,0,0,3.51-2,4.21,4.21,0,0,0-1.47-5.66L39.08,6.55A4.21,4.21,0,0,0,33.42,8a4.21,4.21,0,0,0,1.47,5.66l14.5,8.38A5.08,5.08,0,0,0,51.54,22.63Z"/></svg>