<svg id="圖層_1" data-name="圖層 1" xmlns="http://www.w3.org/2000/svg" viewBox="0 0 200 213"><defs><style>.cls-1{fill:#fff;}</style></defs><title>iwd22wtm</title><path class="cls-1" d="M5.16,64.17l9.73,3.93-.59,1.47L4.57,65.65Z"/><path class="cls-1" d="M14.2,58.39l4.22,2-.67,1.4-4.11-2a1.66,1.66,0,0,0-2.52.77,1.64,1.64,0,0,0-.07,1.25,2.24,2.24,0,0,0,1,1.2l4.12,2-.68,1.4L8.68,63.16l.68-1.4.85.41a2.81,2.81,0,0,1-.33-1.29,2.59,2.59,0,0,1,.28-1.28C11,57.91,12.31,57.49,14.2,58.39Z"/><path class="cls-1" d="M13.77,53.27l.86-1.51,1.13.64-.87,1.51,3.83,2.19a.71.71,0,0,0,.46.11.59.59,0,0,0,.33-.29l.5-.86,1.12.64-.62,1.08a1.8,1.8,0,0,1-1.16,1,1.94,1.94,0,0,1-1.41-.31l-3.82-2.19-.7,1.22-1.12-.64.7-1.22-1.57-.9.22-1.67Z"/><path class="cls-1" d="M19.69,46a5.16,5.16,0,0,1,3.14,1l-3.2,4.78a2.85,2.85,0,0,0,1.75.45,1.92,1.92,0,0,0,1.3-.88A2.17,2.17,0,0,0,23.09,50a2.64,2.64,0,0,0-.43-1.12l.87-1.29a3.35,3.35,0,0,1,.89,1.85A3.66,3.66,0,0,1,23.74,52a3.46,3.46,0,0,1-2.34,1.63,4.1,4.1,0,0,1-3-.78,4.12,4.12,0,0,1-1.8-2.4,3.29,3.29,0,0,1,.52-2.86A3.33,3.33,0,0,1,19.69,46ZM17.8,49.72a2.52,2.52,0,0,0,.87,1.34L21,47.66a1.92,1.92,0,0,0-2.8.62A1.9,1.9,0,0,0,17.8,49.72Z"/><path class="cls-1" d="M23.15,39.69l1.23,1a3.73,3.73,0,0,0-.81.77,1.73,1.73,0,0,0-.32,1.35,2.26,2.26,0,0,0,.91,1.46l3.17,2.48-1,1.22-6-4.68,1-1.22.9.7A2.32,2.32,0,0,1,22,41.58a1.89,1.89,0,0,1,.43-1.23A2.27,2.27,0,0,1,23.15,39.69Z"/><path class="cls-1" d="M30.63,35.68l3.47,3.15-1,1.15-3.37-3.06a1.65,1.65,0,0,0-2.63,0,1.53,1.53,0,0,0-.43,1.17,2.27,2.27,0,0,0,.65,1.45l3.38,3.06-1,1.16L24,38.68,25,37.53l.7.63a3,3,0,0,1,0-1.33,2.77,2.77,0,0,1,.64-1.14C27.69,34.3,29.09,34.28,30.63,35.68Z"/><path class="cls-1" d="M34.77,28.63a3,3,0,0,1,1.94,1.08L40,33.27l-1.06,1-.73-.79A3.13,3.13,0,0,1,38,34.88a4.11,4.11,0,0,1-1,1.46,2.67,2.67,0,0,1-1.76.82,1.9,1.9,0,0,1-1.58-.64,2.23,2.23,0,0,1-.59-2.14A4.71,4.71,0,0,1,34.5,32.1l1.22-1.19-.21-.22a1.45,1.45,0,0,0-2.33,0,2.3,2.3,0,0,0-.69,1,1.36,1.36,0,0,0,.16,1.14l-1.22,1a2.6,2.6,0,0,1-.35-2.16,4.24,4.24,0,0,1,1.31-1.92A3.3,3.3,0,0,1,34.77,28.63Zm.58,4.23c-1,1-1.2,1.84-.57,2.53a.87.87,0,0,0,.76.27,1.48,1.48,0,0,0,.9-.43,2.48,2.48,0,0,0,.83-1.59,1.88,1.88,0,0,0-.48-1.58l-.3-.32Z"/><path class="cls-1" d="M38.31,24.89l1.35-1.08.81,1L39.12,25.9l2.76,3.44a.62.62,0,0,0,.38.27.53.53,0,0,0,.42-.14l.78-.62.8,1-1,.79a1.77,1.77,0,0,1-1.43.48,2,2,0,0,1-1.2-.81L37.9,26.88l-1.1.88-.8-1,1.1-.88L36,24.46,36.78,23Z"/><path class="cls-1" d="M40.77,19.61a1,1,0,0,1,.69.43,1.05,1.05,0,0,1,.19.8,1.11,1.11,0,0,1-.45.69,1.1,1.1,0,0,1-.79.21,1.06,1.06,0,0,1-.7-.44,1,1,0,0,1-.19-.79,1.17,1.17,0,0,1,1.25-.9Zm1.61,2.22L46.84,28l-1.26.91-4.46-6.14Z"/><path class="cls-1" d="M50.14,17.86a4.15,4.15,0,0,1,2.4,1.88,4,4,0,0,1,.65,2.94,3.64,3.64,0,0,1-1.73,2.46,3.59,3.59,0,0,1-3,.49,4,4,0,0,1-2.37-1.86,4,4,0,0,1-.65-3,3.57,3.57,0,0,1,1.73-2.44A3.53,3.53,0,0,1,50.14,17.86Zm-3.23,3.2a3.12,3.12,0,0,0,.57,1.86,3.1,3.1,0,0,0,1.42,1.31,2,2,0,0,0,1.88-.17,2,2,0,0,0,1-1.62,3.56,3.56,0,0,0-2-3.17,2.08,2.08,0,0,0-2.85,1.79Z"/><path class="cls-1" d="M59.5,15.15l2.12,4.17L60.23,20,58.17,16a1.75,1.75,0,0,0-3.28,0A2.3,2.3,0,0,0,55,17.57l2.07,4.07-1.39.71-3.44-6.77,1.39-.7.43.83a2.92,2.92,0,0,1,.52-1.22,2.68,2.68,0,0,1,1-.84C57.24,12.8,58.55,13.29,59.5,15.15Z"/><path class="cls-1" d="M65.92,10a3,3,0,0,1,1.42,1.71l1.81,4.5-1.34.54-.4-1A3.22,3.22,0,0,1,66.73,17a4.18,4.18,0,0,1-1.51,1,2.61,2.61,0,0,1-1.94.13A1.91,1.91,0,0,1,62,17a2.23,2.23,0,0,1,.21-2.21,4.64,4.64,0,0,1,2.17-1.61L66,12.5l-.12-.28a1.46,1.46,0,0,0-2.18-.84,2.28,2.28,0,0,0-1,.69,1.34,1.34,0,0,0-.26,1.12L61,13.64a2.58,2.58,0,0,1,.45-2.15,4.31,4.31,0,0,1,1.91-1.32A3.3,3.3,0,0,1,65.92,10Zm-1,4.16c-1.32.56-1.78,1.28-1.43,2.16a.87.87,0,0,0,.6.53,1.54,1.54,0,0,0,1-.08,2.6,2.6,0,0,0,1.35-1.19A1.92,1.92,0,0,0,66.57,14l-.16-.41Z"/><path class="cls-1" d="M69,5.05l3.33,10.17-1.48.48L67.53,5.54Z"/><path class="cls-1" d="M77.68,2.79l3.41,7.69h.06l.71-8.41,1.65-.29L87,9.45h.06l.61-8.39L89.47.74,88.29,11.58l-1.68.3L83.12,4.27h-.05l-.71,8.34-1.69.29L75.9,3.1Z"/><path class="cls-1" d="M97.85,4.21A4.12,4.12,0,0,1,99,7a4,4,0,0,1-.86,2.88,3.89,3.89,0,0,1-5.54.3,4.08,4.08,0,0,1-1.17-2.78,4,4,0,0,1,.88-2.91,3.91,3.91,0,0,1,5.51-.3ZM93.48,5.43a3.09,3.09,0,0,0-.42,1.9,3,3,0,0,0,.62,1.84,1.91,1.91,0,0,0,1.71.76A2,2,0,0,0,97,9a3.11,3.11,0,0,0,.43-1.89,3.2,3.2,0,0,0-.62-1.85,2,2,0,0,0-1.74-.76A1.9,1.9,0,0,0,93.48,5.43Z"/><path class="cls-1" d="M106.84,4.54A3.08,3.08,0,0,1,108,3.61a2.66,2.66,0,0,1,1.31-.21,2.63,2.63,0,0,1,1.89.89,2.83,2.83,0,0,1,.64,2.09l-.29,5L110,11.26l.27-4.71a1.88,1.88,0,0,0-.32-1.37,1.62,1.62,0,0,0-1.26-.5,1.36,1.36,0,0,0-1.11.42A1.87,1.87,0,0,0,107,6.41l-.27,4.66L105.21,11l.28-4.69c.07-1.21-.43-1.82-1.45-1.88a1.44,1.44,0,0,0-1.24.5,2,2,0,0,0-.55,1.32L102,10.79l-1.56-.09.44-7.58,1.56.09-.05.84a2.7,2.7,0,0,1,2.14-.92A2.5,2.5,0,0,1,106.84,4.54Z"/><path class="cls-1" d="M120,6.22a5.15,5.15,0,0,1,.36,3.28l-5.67-1a2.82,2.82,0,0,0,.3,1.78,1.92,1.92,0,0,0,1.34.83,2.19,2.19,0,0,0,1.37-.16,2.71,2.71,0,0,0,.84-.85l1.54.26A3.49,3.49,0,0,1,118.79,12a3.72,3.72,0,0,1-2.62.43,3.5,3.5,0,0,1-2.45-1.48,4.09,4.09,0,0,1-.54-3.1,4.14,4.14,0,0,1,1.46-2.63,3.27,3.27,0,0,1,2.82-.69A3.33,3.33,0,0,1,120,6.22ZM115.82,6A2.55,2.55,0,0,0,115,7.38l4,.69a2.09,2.09,0,0,0-3.17-2Z"/><path class="cls-1" d="M128.59,10.25l-1.2,4.53-1.51-.4,1.17-4.4c.33-1.25-.09-2-1.22-2.33a1.62,1.62,0,0,0-1.25.16,2.32,2.32,0,0,0-1,1.24l-1.17,4.42-1.5-.4,1.94-7.34,1.5.39-.24.91a3,3,0,0,1,1.2-.56,2.65,2.65,0,0,1,1.31,0C128.46,7,129.12,8.23,128.59,10.25Z"/><path class="cls-1" d="M134.94,4.87a1.89,1.89,0,0,1,0,1.28,3.12,3.12,0,0,1-1.26,1.63,3.38,3.38,0,0,1-2,.5l.3-.86a2.12,2.12,0,0,0,1.15-.34,1.63,1.63,0,0,0,.7-.85.73.73,0,0,1-.35-.06,1,1,0,0,1-.61-.54,1,1,0,0,1-.05-.84,1.06,1.06,0,0,1,.55-.65,1.19,1.19,0,0,1,.91,0A1.12,1.12,0,0,1,134.94,4.87Z"/><path class="cls-1" d="M141.47,14.37l-1.4-.59a1.42,1.42,0,0,0-.17-1,2.13,2.13,0,0,0-1-.71,2.05,2.05,0,0,0-1.06-.23.73.73,0,0,0-.64.47c-.1.24,0,.52.31.86a10.19,10.19,0,0,0,1.23,1,6.63,6.63,0,0,1,1.49,1.42,1.8,1.8,0,0,1,.22,1.81c-.62,1.48-2,1.78-4,.91s-2.6-2.07-2.08-3.77l1.41.6a1.65,1.65,0,0,0,.08,1.21,2.08,2.08,0,0,0,1.05.76c1.1.47,1.81.39,2.07-.23a1,1,0,0,0-.28-1.07,8.69,8.69,0,0,0-1.24-1,6.3,6.3,0,0,1-1.47-1.34,1.72,1.72,0,0,1-.22-1.75,1.84,1.84,0,0,1,1.41-1.16,3.92,3.92,0,0,1,2.29.33C141.24,11.67,141.93,12.82,141.47,14.37Z"/><path class="cls-1" d="M153.67,15.15a4.94,4.94,0,0,1,2.54,3.22,5.43,5.43,0,0,1-.93,3.9,5.46,5.46,0,0,1-3.08,2.62,5,5,0,0,1-4-.8l-3.23-2,5.45-9ZM147,21.78l1.62,1a4,4,0,0,0,3,.71,4.08,4.08,0,0,0,2.3-2,4.1,4.1,0,0,0,.77-3,3.94,3.94,0,0,0-2-2.32l-1.64-1Z"/><path class="cls-1" d="M162.41,25.47a2.94,2.94,0,0,1-.72,2.11l-2.91,3.87-1.15-.87.64-.85a3.27,3.27,0,0,1-1.43.06,4.09,4.09,0,0,1-1.63-.77,2.64,2.64,0,0,1-1.11-1.59,1.9,1.9,0,0,1,.35-1.67,2.24,2.24,0,0,1,2-1,4.69,4.69,0,0,1,2.5,1l1.39,1,.18-.24a1.47,1.47,0,0,0-.42-2.31,2.27,2.27,0,0,0-1.09-.49,1.37,1.37,0,0,0-1.1.35l-1.15-1a2.56,2.56,0,0,1,2.07-.72,4.16,4.16,0,0,1,2.12.95A3.22,3.22,0,0,1,162.41,25.47Zm-4.06,1.32c-1.15-.83-2-.86-2.58-.11a.84.84,0,0,0-.14.8,1.51,1.51,0,0,0,.58.81,2.59,2.59,0,0,0,1.71.53,1.86,1.86,0,0,0,1.47-.75l.27-.35Z"/><path class="cls-1" d="M165.69,27.37l-2.14,5.52,5.18-2.79L170,31.23l-10.08,5.08-1.24-1.1,3-1.42,2.7-7.54Z"/><path class="cls-1" d="M180.26,39.2a2.94,2.94,0,0,1-1.11,2.19,3.62,3.62,0,0,1-2.55.82,14.48,14.48,0,0,1-2.7-.56,5.14,5.14,0,0,0-2.82-.27l3.39,4-1.08.92-4.67-5.51a4,4,0,0,1,2.77-1,13.8,13.8,0,0,1,3,.57,11.09,11.09,0,0,0,1.89.36,2.54,2.54,0,0,0,1.78-.56,1.67,1.67,0,0,0,.69-1.23,2,2,0,0,0-.58-1.37,1.75,1.75,0,0,0-1.49-.7,3.16,3.16,0,0,0-1.83.82l-1-1.22a4.06,4.06,0,0,1,2.8-1.06,3.46,3.46,0,0,1,2.61,1.33A3.54,3.54,0,0,1,180.26,39.2Z"/><path class="cls-1" d="M185.41,47.4A8.69,8.69,0,0,1,179,51.87a3.41,3.41,0,0,1-3.29-4.69,8.64,8.64,0,0,1,6.37-4.47,3.41,3.41,0,0,1,3.29,4.69Zm-3.69-3.14a9.7,9.7,0,0,0-4.38,3.07,1.88,1.88,0,0,0,2.1,3,7.92,7.92,0,0,0,2.4-1.23,7.43,7.43,0,0,0,2-1.85,1.87,1.87,0,0,0-2.09-3Z"/><path class="cls-1" d="M190.72,55a3,3,0,0,1-1.49,1.95,3.61,3.61,0,0,1-2.66.34,14.26,14.26,0,0,1-2.55-1,5.17,5.17,0,0,0-2.72-.78L183.9,60l-1.22.7-3.59-6.27a4,4,0,0,1,2.9-.46,13.34,13.34,0,0,1,2.83,1.11,10.8,10.8,0,0,0,1.79.7,2.63,2.63,0,0,0,1.85-.23,1.66,1.66,0,0,0,.9-1.08A2,2,0,0,0,189,53a1.75,1.75,0,0,0-1.33-1,3.29,3.29,0,0,0-2,.47l-.8-1.38a4,4,0,0,1,3-.53,3.47,3.47,0,0,1,2.32,1.79A3.56,3.56,0,0,1,190.72,55Z"/><path class="cls-1" d="M194.83,63.52a3,3,0,0,1-1.67,1.8,3.63,3.63,0,0,1-2.68.1A15,15,0,0,1,188,64.13a5.17,5.17,0,0,0-2.64-1l2.17,4.77-1.28.58-3-6.57a4,4,0,0,1,2.93-.19,13.48,13.48,0,0,1,2.71,1.36,11,11,0,0,0,1.72.87,2.58,2.58,0,0,0,1.86,0,1.73,1.73,0,0,0,1-1,2,2,0,0,0-.19-1.48,1.75,1.75,0,0,0-1.23-1.09,3.29,3.29,0,0,0-2,.29l-.66-1.46a4,4,0,0,1,3-.24,3.43,3.43,0,0,1,2.15,2A3.61,3.61,0,0,1,194.83,63.52Z"/><path class="cls-1" d="M94.11,212.81H88.38a.42.42,0,0,1-.42-.42V192.2a.42.42,0,0,1,.42-.42h5.73a.42.42,0,0,1,.43.42V194a.42.42,0,0,1-.43.42H91a.42.42,0,0,0-.42.42v14.91a.42.42,0,0,0,.42.42h3.1a.42.42,0,0,1,.43.42v1.81A.42.42,0,0,1,94.11,212.81Z"/><path class="cls-1" d="M106.87,191.78h5.71a.42.42,0,0,1,.42.42v20.19a.42.42,0,0,1-.42.42h-5.71a.42.42,0,0,1-.42-.42V210.6a.42.42,0,0,1,.42-.42H110a.42.42,0,0,0,.42-.42V194.84a.42.42,0,0,0-.42-.42h-3.09a.42.42,0,0,1-.42-.42v-1.8A.42.42,0,0,1,106.87,191.78Z"/><path class="cls-1" d="M103.82,202.07l-1-1.53a1.06,1.06,0,0,1-.09.25h0l-2,3,3.14,4.72a.59.59,0,0,0,.59.36h2.68a.64.64,0,0,0,.63-.64v-.33l-3.94-5.83Z"/><path class="cls-1" d="M107.76,196.36a.64.64,0,0,0-.63-.64h-2.68a.64.64,0,0,0-.63.64v5.24l3.94,5.83Z"/><path class="cls-1" d="M97.24,196.36a.64.64,0,0,0-.63-.64H93.93a.64.64,0,0,0-.63.64v11.13l3.94-5.82Z"/><path class="cls-1" d="M102.44,200a.71.71,0,0,0-.1-.14.68.68,0,0,0-.48-.2H99.28a.72.72,0,0,0-.61.36l-1.37,2-4,5.91v.27a.48.48,0,0,0,.06.24.64.64,0,0,0,.62.4h2.69a.72.72,0,0,0,.61-.37l3.28-5h0l1.91-2.88A.69.69,0,0,0,102.44,200Z"/></svg>