<svg id="圖層_1" data-name="圖層 1" xmlns="http://www.w3.org/2000/svg" viewBox="0 0 799 481"><defs><style>.cls-1{fill:#242020;}</style></defs><title>vi10</title><path class="cls-1" d="M597.77,382c.11-.12,0-.18-.37,0l-.16.3Z"/><path class="cls-1" d="M595.16,383c-.38.31-.79.71-.43.73.33-.39.47-.37.82-.8.35-.21.66-.27.64-.17.1-.11.58-.25.72-.46a4.42,4.42,0,0,0-1.71.83C595,383.11,595.15,383,595.16,383Z"/><path class="cls-1" d="M558.6,398.35l.25-.06Z"/><path class="cls-1" d="M534.94,405c.18,0,.25-.08.25-.1C535,405,534.89,405,534.94,405Z"/><path class="cls-1" d="M530.79,405.68l.24,0A1.19,1.19,0,0,0,530.79,405.68Z"/><path class="cls-1" d="M558.6,398.35l-.65.14C557.93,398.57,558.29,398.43,558.6,398.35Z"/><path class="cls-1" d="M590.49,385.87a2.77,2.77,0,0,0,.29-.21l-.29.17Z"/><path class="cls-1" d="M568.72,394.48l.19-.07.12-.14Z"/><path class="cls-1" d="M576.41,391.33c-.18.07-.17.25-.21.34a1,1,0,0,1,.33-.27S576.49,391.35,576.41,391.33Z"/><path class="cls-1" d="M588.52,386.1l.2-.13Z"/><path class="cls-1" d="M563.14,396.56a.12.12,0,0,0-.09,0S563.09,396.56,563.14,396.56Z"/><path class="cls-1" d="M335.34,386.31s0,0,0,0S335.29,386.29,335.34,386.31Z"/><path class="cls-1" d="M326.83,381.65l.13.05.06-.07Z"/><path class="cls-1" d="M523.23,407h0C523.46,407,523.35,407,523.23,407Z"/><path class="cls-1" d="M453.1,411.49c.79.2-1.3.11-.11.35C452.88,411.77,454.09,411.65,453.1,411.49Z"/><path class="cls-1" d="M590.29,385.94l-.31.16A2.77,2.77,0,0,0,590.29,385.94Z"/><path class="cls-1" d="M453,411.84h0l.12,0Z"/><path class="cls-1" d="M505.78,409.79a.43.43,0,0,0,.19,0S505.92,409.81,505.78,409.79Z"/><path class="cls-1" d="M518.85,408.13l-.33,0Z"/><path class="cls-1" d="M499,410.8a1.66,1.66,0,0,0-.48,0h.07A1.06,1.06,0,0,1,499,410.8Z"/><path class="cls-1" d="M491.91,411.39l.13,0,.23,0Z"/><path class="cls-1" d="M355.73,393.86a1.73,1.73,0,0,1-.27-.25C355.53,393.76,354.52,393.45,355.73,393.86Z"/><path class="cls-1" d="M590.44,385.78a.28.28,0,0,1-.15.16l.2-.11S590.5,385.77,590.44,385.78Z"/><path class="cls-1" d="M498.85,412.15l-1.14.07Z"/><path class="cls-1" d="M405.28,407l-.26,0Z"/><path class="cls-1" d="M494.35,412.53a3.41,3.41,0,0,0-.65-.07.52.52,0,0,0-.13.06Z"/><path class="cls-1" d="M355.46,393.6h0Z"/><path class="cls-1" d="M348.27,391.5c1,.38.55,0,.81-.07,1.24.38.51.36.88.61.78.23,1.43.24,2,.44,0,0,.14.1,0,.1.87.11,2.4.82,3.41.93a.3.3,0,0,1,.1.09c-.11-.15-.1-.27,0-.33.46.15.89.16,1,.35a.84.84,0,0,0-.47-.05l.5.1c.37.35-.68-.15-.73,0,1,.27,2.11.46,2.82.75.08.24-1.71-.48-.81,0l-1.09-.44c.75.6-.67-.26,0,.34,1.45.54,1.68.44,3.13,1,.37,0-.06-.19.31-.19,2.15.48,1.48,1,3.1,1.26a2.59,2.59,0,0,1,1.73.26l-.44.11c1.42.45.91-.07,2.37.53-.3,0-1.15-.27-.94-.18.92.47.72.09,1.47.31l.1.25c1.53.42,3.25.81,5,1.24-.11,0-.42,0,0,.18,2.18.5,4.57,1.33,6.61,2l.84,0c.19.05.33.17.12.15.79.27.07-.1.48-.06s.58.25.27.23a32.41,32.41,0,0,1,5.62,1.31l-.31,0c1.16.38,1.42,0,2.47.39h-.22c2.55.67,5.41,1.18,7.31,1.88.43-.17,2.53.65,2.77.34a28.42,28.42,0,0,0,3,1c.55.13.87,0,1.56.06l0,.18h1l.45.32.65.07c-.25-.06-.53-.18-.48-.23a7.55,7.55,0,0,1,2.44.67l2.41.28c-.06.07-.47,0-.79,0,1.3.05.19.23,1.39.28-.15-.07.1-.1.14-.13a16.24,16.24,0,0,0,2.87.59l-.21.09c1.76.37,3.75.54,5.74.86-.71-.17-.51-.36.08-.29l.2.23c.4-.06-.6-.17.2-.2.74.14.47.3,0,.3l.92.07c0,.07-.18.06-.24.13.39-.06,1.53.44,2.1.31l0,.07c2,.32,2.91.35,4.54.55.05-.17.69-.05,1.19-.13,1.19.21,2.5.51,3.94.67,1,.05.32-.1.78-.14.06.16,1.5.33.74.34,1.74.2,2.22.2,4.43.3-.23-.09-.5-.14-.35-.18.4,0,.9.15.83.22h-.1c2.48,0,5.65,1,7.64.83h-.11l2.05,0c.94.09-.57.08.12.22,2.22-.12,3.48.26,5.3.2a10.73,10.73,0,0,0,3.25.37,23.18,23.18,0,0,1,3.62.18l-.1-.11c.49-.09.59.08.95.11-.05-.08-.53-.11-.22-.16,2.08,0,4.22.11,6.38.22l6.46.17c1.56,0,.88-.56,2.85-.31l-.56.2c.79-.06,1.58-.1,2.38-.12l2.4-.11c1.6-.06,3.19-.12,4.73-.29a1.48,1.48,0,0,1-.49.13,6.55,6.55,0,0,0,2.41-.22c.48,0,.12.1.42.15.65.05,1.62-.26,2-.13.06,0-.18.05-.3.07.42-.07,2-.14,1.56-.26,1.16,0,2.2-.26,3.12-.24.59-.23,2-.07,2.15-.35-.06.28,2,.05,2.76-.14-.24.1.64,0,.36.17.83-.07,1.59-.19,1.43-.31,1.57.19,3-.63,4-.31,2.44-.46,4.7-.84,6.9-1.18,0,.28-2.44.33-2.31.6,2.08-.4,3.27-.7,5.34-1,.55-.05-.28.17-.46.25,2.07-.47,4-.66,5.86-1.12a1.7,1.7,0,0,1-.38.14c.37-.07.86-.11.8-.22l-.35.09c-.62-.08,1.38-.61,1.43-.72-.56.45,1.84-.22.94.38.24-.06.53-.17.46-.24.36,0,.48,0,.13.14,1.3-.28.81-.33,2-.53,0,.06-.23.12-.34.21a10.62,10.62,0,0,1,2.15-.62s.08.06-.22.13c1.7-.39,2.84-.94,4.73-1.23-.49.37.66-.06.8.14l1-.29h-.42c.88-.19,1.62-.52,2.39-.61l-.63.23,1.64-.4-.95.12c.86-.31-.16-.26,1-.45-.23.07.88-.18,1.37-.17h0a5.61,5.61,0,0,1,1.49-.5c.18,0-.08.28,0,.3.37-.3,2-.6,2.51-.94-.17.1-.15.21-.08.22l.31-.24c.42-.06.48-.06.44.05,1.22-.3-.46-.17,1-.44a1.67,1.67,0,0,1-.28.14c1.47-.33,2.77-.84,4.12-1.13.45.11-1.15.37-.65.43,1-.28,1.93-.61,2.9-.92s1.9-.72,2.82-1l-.35.08c.16-.39,1.41-.29,2.29-.73-.22.1-.25.27-.2.21,1.27-.35,2.54-.9,4.4-1.6l-.21.15c.76-.17,2-.58,2.76-.8.21-.16.67-.29.36-.31,2.58-.44,4.51-2,6.78-2.41-.25.09-.58.3-.38.22l1.8-.76c-.2-.08-.27,0-.69.05a5.11,5.11,0,0,1,1.14-.59c-.78.4.09.21.47.15-.07,0,0-.11,0-.14,1.05-.13.06-.32,1.42-.66l0,.09a15.35,15.35,0,0,1,1.41-.65c.28.06-.49.26-.47.4a17.23,17.23,0,0,1,2-1c-.29.17-.72.37-1,.54a5,5,0,0,0,1.39-.42l0,0,1.25-.46-.33.09c.74-.79,1.81-.88,2.91-1.67-1.07.76-.13.22-.15.43.33-.09.82-.25.71-.14.51-.39,1-.32,1.73-.87.06,0,.62-.27.55-.08.73-.37-.22,0-.19-.11,1.07-.69,2.81-1,4.35-1.95,1.35-.8,1.51-1.12,2.76-1.86.48-.13-.26.38-.26.38a10.15,10.15,0,0,0,1.89-1c-.11.11.05.08.28,0,.52-.29.26-.37,1-.65a2.35,2.35,0,0,1-.43.48c.61-.37,1.18-.78,1.8-1.16.22,0-.32.34-.52.51a10.29,10.29,0,0,0,2-1.3l-.5.19c.27-.14.2.05,0,.18-.56.43-.92.41-1,.37l.45-.26c-.63-.07-1.83,1-2.77,1.44l.28-.42-.86.67c-.23,0-.44,0,0-.28-.72.23-.55.38-1.19.55-.07,0,0,0,0,0l-.62.4c.11-.12-.18-.11.23-.28-1.23.46-1.8,1.13-2.32,1.18l.09-.07c-1.6.87-.07.26-1.22,1l-1,0-.09.24c-.17.07-.52.21-.48.12-.59.39.14,0-.18.29-.9.21-2.24,1.08-2.55.89-.24.26.83-.25,0,.23-.38-.18-1,.5-1.81.7.17-.25.92-.49.11-.29-.35.45-1.49.59-2.11.92.06.22-1.34.7-2.38,1.23A8,8,0,0,0,573,393l-2,.64,0-.05c-.12.28-1.18.64-1.92,1,0-.13.1-.23.49-.44l-.71.27a3.21,3.21,0,0,1-.81.45l.12-.22c-1,.36-1.85.9-3.11,1.27,0,.17,1.12,0-.14.62-.08-.06-.17-.18.15-.34a2.67,2.67,0,0,1-.6.27l.46-.33c-.57.15-.25.22-.7.38,0-.12-.36,0-.32-.07a3.37,3.37,0,0,0,.56-.21,6,6,0,0,1-1.38.33c.07,0,.06.15-.31.3-1,.37-.37,0-1,.15-.2.16-.83.31-.79.48a.82.82,0,0,1-.49,0c-.48.24-2.33.78-1.71.77l.13,0-.08,0h0c-1.58.7-3.44,1-5.05,1.6l0-.06c-1,.38-2.15.74-2.81,1.09-.29.09-.71.11-.61,0a7.18,7.18,0,0,1-1.9.61c.72-.31-.29,0,.75-.3a9.79,9.79,0,0,0-2.25.64c.32-.24-.79,0-1.25.18l.72-.08c-.52.16-1,.27-1.45.39l.2-.26c-2.07.3-3.51,1.37-5.14,1.38-.5.28,1.11-.2.68.09-.93.22-2,.2-2.25.28-1.3.21-1.11.63-2.46.84.18,0,.39.19-.6.47s-1.21,0-.64-.23c.23-.05.34-.05.33,0,.3-.09.69-.2.3-.2l-.1.1c-.48,0-1.77.32-1.49.14-.69.22-.28.18.25.1-1.22.16-1.87.4-3.12.6.21,0,.41,0,.21.08-1.83.31-.77.31-2,.61-.72,0,.2-.31-1,.05-.77.09-.2-.15.09-.28a14.69,14.69,0,0,1-2.76.49l.58-.19c-.35.11-.64.17-.93.24l.36.07c-.35.05-.65.11-.65.05-.34.16.32.19-.37.44-.48,0-1.41.32-1.61.16,1.48-.19-.2-.16,1-.4a6.61,6.61,0,0,1-.88.15c-.06,0,0-.05.13-.08-1.43.08-.6.32-2.06.57.16-.14-.38-.14-.61-.08.59-.1.31.13-.21.3a8,8,0,0,0-1.5.31l.57-.06a5.06,5.06,0,0,1-1.29.35c-.07-.07.58-.16.34-.16-.69.31-1.67.09-2.66.39-.48,0-.07-.19-.49-.17-1.11.33-1.25.06-2.42.38.36.08.42.05-.4.3.65-.11,1.29-.28,1.94-.41l-1.22.42c.59-.1,1.23-.31,1.59-.34-.58.22-.53.17-.23.24-.84-.08-1.58.42-2.54.37l0-.35c-1.44,0-2.49.49-4.33.64l.59,0a9.86,9.86,0,0,1-1.71.3c0-.13-.34-.12-.6-.17,0,.09-1.35.17-1.49.42l-.83-.05c-1.49.11-1.65.57-3.09.67.42-.17-.24-.19.71-.38-.48.06-.91.06-.91.15-.28,0-1.31.27-1.76.19a1.53,1.53,0,0,1-.78.23c-.07,0,0-.06,0-.06s-.83.15-.35.25c-1.5-.25-4.11.37-5.42.16-1,.11-2.29.29-3.24.33.06,0,0-.06.18-.05-1.31-.06-.78.37-2.28.31-.77-.15.78-.13.3-.19-.22-.38-1.79.14-2.8-.05l.24,0c-.77-.1-1.86.23-3.12.26,0,0,.06,0,0-.06a24.82,24.82,0,0,1-3.67.47c.37-.15.54-.1.31-.24-.54,0,.16.25-.91.3-.36-.08-1.14-.15-1.24-.31l1,0a6.73,6.73,0,0,0-1.85,0l.07-.09c-1.56,0-1.58.27-3.26.27l.18.07c-.92.24-.77-.13-1.68.05l-.28-.24c-.6.07-2.12.25-3.2.3a25.43,25.43,0,0,1,2.67-.39,13.29,13.29,0,0,0-2.35.15,4.14,4.14,0,0,1,.78-.05,9.69,9.69,0,0,1-2.89.24c.21-.46-3.11-.21-4-.59-2.11.09-4.18-.16-6.64-.28.86.41-.71,0-.58.34a3.28,3.28,0,0,1-.84-.06l-1.72-.32c-.41-.14.55,0,.5-.14-1.25-.1-.52-.19-1.34-.33.16.14-.44.16-1.15.06l1,.23c-1.76.09-1.49-.4-3.27-.32l.57-.08a35.28,35.28,0,0,0-4.24,0c-.16-.05-.36-.17,0-.16-2.15-.25-4.83-.15-6.49-.49l.18-.07a3.92,3.92,0,0,1-1.22,0s.18-.07,0-.09a8.46,8.46,0,0,1-1.61-.05l.46-.06a46.29,46.29,0,0,0-5-.3c0-.27-1.6-.56-2.42-.7l0,0c-1.22-.17-2.26-.24-3.29-.3s-2-.15-3.15-.27c-1.36-.5-4.72-.85-6.93-1.37.33.11-.09.2-.5.15s-1.48-.08-1.35-.31l.18,0a7,7,0,0,0-2.28-.6l-.2.29c-2.11-.86-5.8-.87-6.92-1.56-.54,0-1.19-.17-1.73-.2l.06-.16c-1.46-.35-2.18-.52-4-.86l.39,0c-1-.23-1.39.21-2.34,0l-.22-.31a45.19,45.19,0,0,0-5.33-1.24s.11-.09.4,0c-.83-.2-3.19-.92-3-.51,0-.22-1.81-.49-2.79-.64l.19-.12a6.75,6.75,0,0,1-2-.18c-.26-.09-.2-.19.14-.06-.86-.31-.73,0-1.78-.39h.43a3.34,3.34,0,0,0-1.39-.18,4.39,4.39,0,0,1-1.81-.69,2.31,2.31,0,0,1-1.2-.15c-.06-.08.15-.06.25-.05-1.49-.53-2.31-.44-3.31-.9,0-.06-.06-.1-.15-.14,1.21.34,2.17.62,2.08.61s-.92-.45-.09-.44a16.68,16.68,0,0,1-3.15-.57l-.11-.09h.11a2.53,2.53,0,0,0-.61-.14c-.3-.11-.48-.19-.77-.27a6.35,6.35,0,0,0-1.57-.55c0,.17-.63,0-.08.27-.08,0,.09,0,.42.09a1,1,0,0,0,.21.05h0l1.2.35a3.19,3.19,0,0,1-1.33-.33l-.75.06c-.59-.43-1.83-.94-2-1.13a29.72,29.72,0,0,0-4.5-1,1.06,1.06,0,0,1-.6-.34,5.91,5.91,0,0,0,.68.14,12.58,12.58,0,0,0-2.74-.62c-1-.44.65,0-.8-.44h.22c-2.73-1.23-4.78-1-7.76-2.51.21.1.31.15.34.2-3.48-1.44-7.37-2.47-10.72-4.11a5.45,5.45,0,0,0-1.76-.5l-.14-.25-1.1-.22c-1.52-.43-2.34-1.43-4.28-1.93l.19.21c-.65-.29-2.1-.82-1.93-.9a.79.79,0,0,1-.5-.15l0-.09-1.67-.56c-1.2-.61.35-.25-1.44-1.08-.68-.27-2-.63-1.78-.46s.66.38.64.47l-.63-.24c-.23.19-.83.23.59,1.12l1.12.33.29.27-.89-.39a2.52,2.52,0,0,0,1.2.48,1,1,0,0,0,.38.33l1.14.22c.09.15-.55,0,.12.35.54.1-.36-.43.47-.15.46.34.27.37.91.53,0,.1-.09.09-.34,0a10.8,10.8,0,0,0,1.75.55c.47.37,1.81.71,1.65.94a7.85,7.85,0,0,1,1.52.38c-1-.06,1.83.76,1.46,1,.77,0,2.45.85,3.69,1.15a.84.84,0,0,1-.32-.07,10,10,0,0,1,1.23.65c.17-.19,1.23.16,1.84.24.74.52-.59.07-.41.37,0-.2,1.48.36,1.26.1.58.37.52.27.77.57.22-.24.61.16,1.19.18.86.47.14.35,1.17.63C349.19,391.73,348.27,391.5,348.27,391.5Zm24.2,7.32h0l-.5-.13Zm2,.57-.89-.26c-.05-.07,0-.11.24-.05C373.75,399.09,374.22,399.25,374.52,399.39Zm-4-2.35a.93.93,0,0,1,.46.18l-.57-.15h0A.3.3,0,0,1,370.53,397Z"/><path class="cls-1" d="M369.89,397.07l-.14,0,.18.09.13,0Z"/><path class="cls-1" d="M558.89,398.28h0s.07,0,.09,0Z"/><polygon class="cls-1" points="402.95 406.57 402.95 406.52 402.76 406.52 402.95 406.57"/><path class="cls-1" d="M570.05,394.8l.16,0A.37.37,0,0,0,570.05,394.8Z"/><path class="cls-1" d="M574.76,393l.68-.23C575.14,392.83,574.93,392.91,574.76,393Z"/><path class="cls-1" d="M578.35,391.48a.49.49,0,0,0,0-.1h0Z"/><path class="cls-1" d="M519.3,409.2l-.14,0C518.81,409.32,519.05,409.27,519.3,409.2Z"/><path class="cls-1" d="M537.24,405.15a5.37,5.37,0,0,1-.56.21C537,405.31,537.25,405.25,537.24,405.15Z"/><path class="cls-1" d="M499,412.14Z"/><path class="cls-1" d="M535.84,405.54a3.63,3.63,0,0,0,.84-.18A8.39,8.39,0,0,0,535.84,405.54Z"/><path class="cls-1" d="M593.59,384.31l.17-.08a0,0,0,0,1,0,0Z"/><path class="cls-1" d="M593.76,384.2l.18-.12A.67.67,0,0,0,593.76,384.2Z"/><path class="cls-1" d="M594.31,383.85l-.37.23A1,1,0,0,0,594.31,383.85Z"/><path class="cls-1" d="M589,386.57l0,.08A.08.08,0,0,0,589,386.57Z"/><path class="cls-1" d="M587.58,387.29a10.44,10.44,0,0,0,1.34-.57l0-.07C588.76,386.84,587.85,387,587.58,387.29Z"/><path class="cls-1" d="M581.34,389.34l1.22-.48c-.24,0-.55.07,0-.18C581,389.17,582.92,388.68,581.34,389.34Z"/><path class="cls-1" d="M577.6,390.89c.63-.31,0-.08,0-.13C577.19,391,577.1,391.05,577.6,390.89Z"/><path class="cls-1" d="M550.15,401l0-.17C549.67,401,550.19,400.85,550.15,401Z"/><polygon class="cls-1" points="544.98 403.23 545.52 403.19 545.72 402.99 544.98 403.23"/><polygon class="cls-1" points="541.5 403.03 541.72 402.95 540.87 403.24 541.5 403.03"/><path class="cls-1" d="M493.16,411.14l.18.17C493.7,411.25,493.76,411,493.16,411.14Z"/><path class="cls-1" d="M472,412.19a2.55,2.55,0,0,0-1.19-.06C471.27,412.14,471.74,412.22,472,412.19Z"/><polygon class="cls-1" points="408.77 406.12 409.2 406.14 408.4 406.04 408.77 406.12"/><path class="cls-1" d="M599.63,385.17s.11,0,.09,0h-.12Z"/><path class="cls-1" d="M599.86,385.06a.75.75,0,0,0-.28,0l.21,0s0,0-.08,0,0,0,0,0,.1,0,0-.07Z"/><path class="cls-1" d="M600.06,383.47h0Z"/><path class="cls-1" d="M600.12,382.48h0Z"/><path class="cls-1" d="M600.26,382.31h0Z"/><path class="cls-1" d="M600.06,383.47l0,0S600.06,383.45,600.06,383.47Z"/><path class="cls-1" d="M599.56,384.84h0Z"/><path class="cls-1" d="M600.16,383.9h.05Z"/><path class="cls-1" d="M600.17,384.23H600l.07,0Z"/><path class="cls-1" d="M600,384.76h0Z"/><path class="cls-1" d="M600.18,383.66h0Z"/><path class="cls-1" d="M594.38,380.26h0Z"/><polygon class="cls-1" points="594 379.74 594 379.73 594 379.67 594 379.74"/><path class="cls-1" d="M600.4,382h0Z"/><path class="cls-1" d="M599.23,379.38c0,.09-.05.12,0,.23C599.22,379.56,599.27,379.44,599.23,379.38Z"/><path class="cls-1" d="M599.58,384.83h0Z"/><polygon class="cls-1" points="599.23 379.61 599.23 379.61 599.23 379.62 599.23 379.61"/><path class="cls-1" d="M600.33,381.29h0Z"/><path class="cls-1" d="M600.18,381.82h0Z"/><path class="cls-1" d="M600.18,381s0,0,0,0h0S600.2,381,600.18,381Z"/><polygon class="cls-1" points="600.18 380.73 600.16 380.74 600.17 380.75 600.18 380.73"/><path class="cls-1" d="M595.25,380.22s0-.06,0-.09S595.2,380.23,595.25,380.22Z"/><path class="cls-1" d="M599.62,384.84h0Z"/><path class="cls-1" d="M599.35,381l0-.05A.08.08,0,0,0,599.35,381Z"/><path class="cls-1" d="M597.3,380.23h0Z"/><path class="cls-1" d="M599.35,380.82a.1.1,0,0,0,.07,0h0Z"/><path class="cls-1" d="M594.93,380.37c.05,0,0-.13,0-.21s0,.1,0,.17.06-.16.09-.16v.06c0-.11.1,0,.14-.14v-.15s0-.09,0,0,0,0,0,.06l0,0c0,.13,0,.05,0,.14s.08-.15.11-.11-.07,0,0,.16l-.05,0c0,.2,0,0,0,.2.06,0,.07-.07.13,0a1,1,0,0,1,0-.17c.09-.13.07.32.13.15s0-.25.07-.16v.14s0-.2.09-.11,0,.05,0,.07,0-.08.07-.08v.12c.06,0,.14-.11.21-.13a.17.17,0,0,0,0,.12c.09-.06.19,0,.27.09l0-.11a.16.16,0,0,1,0,.07c0,.05,0-.07,0-.11s0,.06,0,.1.17-.2.23-.08v0s.06-.23.1-.12v0c.11,0,.22-.06.3.11,0-.16.11.07.12-.15.05.11,0,.15.12.23s0-.14.06-.16v.11l0-.12,0,.14,0,0a.17.17,0,0,1,0-.09s.1.09.1.15l.1-.1a.25.25,0,0,1,0,.09c.06-.12,0,.12.06,0a.15.15,0,0,1,0-.09c0,.07.07.07.11,0v.08c.08,0,.16,0,.24,0a.25.25,0,0,1,0-.19v.12c0-.07,0,0,0-.14s0,.14,0,.18l0,0a.17.17,0,0,1,0,.1c0-.07.07.13.09,0v0c.08,0,.12,0,.18,0s0-.09.05-.17.1.12.16.11,0-.09,0-.15.06.08,0,.15a.3.3,0,0,0,.18-.09s0-.06,0-.09,0,0,0,.08h0c.1-.14.22.29.3.09h0l.08-.11s0,.08,0,.14c.09-.16.14,0,.21-.09,0,.15.07.14.07.12s0,0,0,.05l0-.07c0-.07,0,0,0,.05a.39.39,0,0,1,0-.09c.06-.06.07,0,0,.08l-.08.07s.35-.22.19-.1l-.12.07c.14,0,0,0,.12.06l-.07,0c-.09,0,0,.1.07.1s-.07,0-.1,0,.11.07,0,.08a0,0,0,0,1,0,0s0,.08.09.06c-.05.05,0,.09,0,.13.12,0,0,.08.11.09-.17,0-.14.08-.06.11s-.05,0-.12,0,0,.06.12.06c-.2.06.16.12-.1.16a.92.92,0,0,1,.2.28c-.17,0,0-.1-.2-.1.07.09.22.13.18.22s-.08,0-.11,0,0,.16.08.24l0,0s0,0,0,0h0c.11,0,.23.06.29.06-.22,0-.06.08-.34,0l.11,0h-.11s.13,0,.13.08h-.1c.07,0,.15,0,.11.09h-.05c0,.07.2.12.13.19s-.06,0-.2,0l0,0h.07s.1.07.06.1l-.06,0,0,.07,0,0c.07,0,.18,0,.14,0s0,0-.09.06h0s.09,0,.06.06h-.19c.12,0,0,.08.16.11h-.12l.1,0h-.11c0,.05.18,0,.11.05l0,0c0,.06.06.12,0,.17s0,0-.15,0c0,.08.17.17.14.25v0c.2,0-.1.06,0,.1h-.09c0,.05,0,.1.11.18h-.05s0,.09,0,.12,0,0,.12,0c-.3.1.15.19-.09.29,0,0,0,0,0,0l0,.08a.35.35,0,0,0,.12,0c.05,0,.09,0,.09.05a.22.22,0,0,0-.18,0h.08c-.16,0,.17,0,.07.06h-.05s.09,0,.07.06,0,0-.13,0,.19.06.09.09,0,0,0-.05-.09,0-.11.06h0l0,.05h0c.27,0,0,.08.22.13-.16-.05-.09,0-.21,0l-.09,0c.09,0-.08,0,.06.07,0,0,0,0-.1,0s.07,0,.11,0-.15.12,0,.19.2.07.26.13a.25.25,0,0,1-.14,0s0,.05,0,.08a.18.18,0,0,0-.1,0s.13,0,.08.05a.8.8,0,0,1-.15,0s.11.06.14.09a.29.29,0,0,1-.14,0,.22.22,0,0,0,.16.1l0,0s-.09,0-.11,0,0,0,.07,0l0,0c.21,0,0-.08,0-.12h.16l-.13,0s.13,0,.15,0,0,0,0-.06h0l0,0s.11,0,.09,0-.12-.09,0-.11h0c0-.07-.11,0-.25-.06l.28,0H600s0,0,.06,0,0,0-.13,0c.11,0,0-.1.14-.11-.09,0-.07,0-.13,0,.2,0,0,0,.06-.08s0,0,.14,0c-.18,0,0-.06,0-.09s-.06-.06-.1-.11.07-.09.12-.13h0c-.14,0-.12-.05-.15-.09a.45.45,0,0,1,.16,0v0a.15.15,0,0,1-.09,0h.11s-.13-.08-.06-.13c-.09,0-.26,0-.33,0H600s0,0,0,0l.09,0s-.07,0-.06,0,0,0,.11,0,0,0,0,0a.22.22,0,0,1,.12-.06h-.11s.09,0,.13,0,0,0-.11,0l.08,0s0-.1-.13-.07h0c-.11-.07.06-.14,0-.21h0s0-.09-.11-.12.07,0,.11,0-.06,0,0-.08,0,0,0,0,.1-.05,0-.1c.1,0,.12,0,.1-.05l-.07,0s0,0,0-.06h.12c.16-.08-.25-.15,0-.21-.09,0-.06,0-.16,0s.19-.08.19-.09-.18-.05-.13-.1-.17,0-.21,0,.19-.05.23,0h0a.07.07,0,0,0,.08,0h0s0-.07.11-.06a.06.06,0,0,0-.09,0c.06-.05,0-.08,0-.13h-.07c.05-.08-.09,0-.11-.09s.16,0,.11,0,.11,0,.15,0,.06-.09.07-.11l0,0s0,0,0,0l-.09,0s0,0,0,0a1,1,0,0,1-.23,0c.05,0,0-.06.07-.06,0,.06.12,0,.14,0a0,0,0,0,1,0,0h0c.1-.06-.14,0-.14-.08s.13,0,.12,0-.11,0-.17,0,0,0,0-.06l0,0c-.07,0-.06,0-.08,0s0,0,.06,0,.12-.07,0-.11.12,0,.16,0,.09-.05,0-.1a.17.17,0,0,1-.15,0l.06.08-.13-.05s.06.05,0,.07,0,0-.12,0c.13,0-.08-.07,0-.11h.22c.1-.05-.11-.1,0-.17l0,0c-.09,0,0,0-.05-.07l.15,0c-.06,0,0-.06-.15-.06l.1,0c0-.06-.21-.06-.19-.12s.14,0,.2,0,0,0,0,0-.1-.05,0-.07-.11,0-.11,0h0s-.05,0-.13,0c.23-.06,0-.16.18-.21a.55.55,0,0,1,0-.13h0c.07-.05-.22,0-.14-.09s.06,0,.11,0c.24,0,0-.07.11-.11h0c.09-.05-.09-.11-.07-.18h0a.27.27,0,0,1-.2-.13c.09,0,0,0,.14-.05s-.15.07-.18,0a.92.92,0,0,1,.2-.17V380c.13-.1,0-.07,0-.12l0,0c0-.09-.16,0-.15-.08l-.05.05c-.14.07.09-.11,0-.07l.15-.15h0l-.25.13a1.58,1.58,0,0,1,.33-.22h0a.35.35,0,0,0-.21.08s.07-.05.07,0-.24.17-.3.16c.22-.28-.11-.07,0-.29-.18.1-.27-.05-.45,0,0,.23,0,0,0,.24h0l-.07-.14c0-.07,0-.05,0-.1s0-.1,0-.16,0,.11,0,.08l0,.11c-.07.12-.06-.19-.13-.07l0-.08c0,.05-.13,0-.17.19a.2.2,0,0,1,0-.11c-.08,0-.19.19-.26.08v-.06s0,.11-.05,0v-.06s0,.1-.07.07l0-.06c-.08-.08-.13.15-.2.19a.29.29,0,0,0-.1-.25v0c-.1,0-.17.13-.26.2,0-.19-.19-.08-.28-.18s0,.13,0,.14-.06.12-.06,0h0c0-.15-.06-.11-.09-.12v.2c-.09-.29-.24.11-.28-.15,0,.05-.05,0-.07.09v-.1a.2.2,0,0,0-.17,0l0-.07s-.06.3-.09.31v-.16c-.08,0-.15-.14-.22,0,0,0,0-.07,0-.07s-.13-.11-.12.11c0-.14-.08,0-.12,0v-.1c0,.13,0,.17-.08.21s0-.09,0-.06,0,.1-.07,0l0-.06s0,0-.06.1-.07,0-.07-.12,0,.13,0,.11,0-.06,0-.07-.1.12-.14,0,0,0,0-.06l.09,0c0-.1,0-.11,0-.25,0,.07-.09.23-.13.19v0h0s0,0,0,0,0,0,0,0,0-.05-.06-.05,0,.09,0,.18,0,0,0,0a0,0,0,0,0,0,0h0c0,.06,0,.1,0,0a.75.75,0,0,0,0,.17c0-.15-.08-.23-.09-.32s-.15,0-.19.24c0,0,0-.06,0-.09s0,0,0-.05-.11,0-.12.16c0-.06,0-.13,0-.1v-.05c-.12-.22-.2.36-.33.07a.09.09,0,0,1,0,.05c-.15-.13-.31.11-.46-.09,0,0,0,.05-.07.12v-.11l0,.13c-.07.09-.11-.28-.19-.1v.07s-.09,0-.09,0,0,.08,0,0v-.06l-.07.1s0-.23-.07-.25a.44.44,0,0,0-.07.22s0,0,0,.09l0,0a.92.92,0,0,0,0,.48l0-.11,0,.09h0c0,.08,0,0,.05,0a.22.22,0,0,0,0,.1l0-.17c0,.07,0,.14,0,.17s0-.15,0-.2,0,.14,0,.08a.13.13,0,0,1,0,.09c0-.05.06,0,.07-.11,0,.09.08,0,.08.14a.26.26,0,0,1,.06-.14c0,.2.08,0,.07.22,0-.17.1-.07.15-.17v0s0,.07.05.1a.79.79,0,0,1,.08-.27c0,.15,0,.18,0,.31,0-.12.06-.12.05-.22a.65.65,0,0,1,0,.17c0-.18,0,0,0-.14,0,.09,0,.17.05.11A.15.15,0,0,1,594.93,380.37Zm1-.3Zm.08,0h0a.14.14,0,0,1,0-.07S596,380,596,380.06Zm-.17-.73s0,0,0,0h0Z"/><polygon class="cls-1" points="595.83 379.47 595.83 379.48 595.84 379.5 595.84 379.47 595.83 379.47"/><path class="cls-1" d="M600,383.48Z"/><polygon class="cls-1" points="597.2 380.28 597.2 380.25 597.2 380.27 597.2 380.28"/><path class="cls-1" d="M599.68,384h0Z"/><path class="cls-1" d="M599.65,384.15l0,0S599.65,384.16,599.65,384.15Z"/><path class="cls-1" d="M599.6,384.3h0Z"/><path class="cls-1" d="M599.48,381.83h0S599.46,381.82,599.48,381.83Z"/><path class="cls-1" d="M599.72,382.57l-.05,0S599.66,382.57,599.72,382.57Z"/><polygon class="cls-1" points="599.35 381.01 599.35 381.01 599.35 381 599.35 381.01"/><path class="cls-1" d="M599.67,382.51s0,0,0,0S599.69,382.52,599.67,382.51Z"/><path class="cls-1" d="M599.55,385h0Z"/><path class="cls-1" d="M599.56,385h0Z"/><path class="cls-1" d="M599.6,385l0,0S599.57,385,599.6,385Z"/><path class="cls-1" d="M599.6,384.77h0Z"/><path class="cls-1" d="M599.59,384.71s-.08,0-.06.06h0C599.5,384.76,599.65,384.72,599.59,384.71Z"/><path class="cls-1" d="M600.06,384.45l0,.05s.1,0,.11,0S600.05,384.52,600.06,384.45Z"/><path class="cls-1" d="M600.12,384.29s.06,0,.08,0S600.16,384.26,600.12,384.29Z"/><path class="cls-1" d="M600.12,383.11h.1S600.18,383.11,600.12,383.11Z"/><polygon class="cls-1" points="599.63 382.89 599.57 382.91 599.65 382.92 599.63 382.89"/><polygon class="cls-1" points="600.31 382.75 600.32 382.76 600.29 382.73 600.31 382.75"/><path class="cls-1" d="M600.28,380.78h-.12S600.31,380.81,600.28,380.78Z"/><path class="cls-1" d="M600.16,379.71c.05-.06.09-.14,0-.11S600.14,379.71,600.16,379.71Z"/><polygon class="cls-1" points="597.44 379.33 597.46 379.29 597.42 379.32 597.44 379.33"/></svg>