<svg id="圖層_1" data-name="圖層 1" xmlns="http://www.w3.org/2000/svg" viewBox="0 0 799 481"><defs><style>.cls-1{fill:#202020;}</style></defs><title>vi11</title><path class="cls-1" d="M329.53,162.5h-.47Z"/><path class="cls-1" d="M327.51,162.5c-.35,0-.76.08-.53.11s.44,0,.81-.09a2.91,2.91,0,0,1,.47,0l.63,0c-.39,0-.88,0-1.4,0C327.38,162.52,327.49,162.51,327.51,162.5Z"/><path class="cls-1" d="M298.26,161.86l.18,0A.35.35,0,0,0,298.26,161.86Z"/><path class="cls-1" d="M280.13,161.6c.14,0,.19-.06.2-.09S280.1,161.56,280.13,161.6Z"/><path class="cls-1" d="M277,161.12l.19,0A.2.2,0,0,0,277,161.12Z"/><path class="cls-1" d="M298.26,161.86l-.49-.14C297.74,161.86,298,161.83,298.26,161.86Z"/><path class="cls-1" d="M323.48,162.78l.26,0-.25,0S323.49,162.78,323.48,162.78Z"/><path class="cls-1" d="M306.25,161.6h.14a1,1,0,0,0,.13-.16Z"/><path class="cls-1" d="M312.38,161.77c-.14,0-.19.24-.24.35a.46.46,0,0,1,.3-.17A.31.31,0,0,0,312.38,161.77Z"/><path class="cls-1" d="M322.1,162.37h0Z"/><path class="cls-1" d="M301.86,161.41a.26.26,0,0,0-.06-.13A.18.18,0,0,0,301.86,161.41Z"/><path class="cls-1" d="M130.32,162.77a0,0,0,0,0,0,0S130.27,162.76,130.32,162.77Z"/><polygon class="cls-1" points="123.21 162.21 123.31 162.21 123.33 162.21 123.21 162.21"/><path class="cls-1" d="M271.37,160.65h0C271.54,160.61,271.46,160.62,271.37,160.65Z"/><path class="cls-1" d="M219.37,160.84c.59.33-1,.42-.07.78C219.21,161.48,220.1,161.06,219.37,160.84Z"/><path class="cls-1" d="M323.32,162.78h0Z"/><path class="cls-1" d="M219.3,161.62h0l.09,0Z"/><path class="cls-1" d="M258.32,160.85a.48.48,0,0,0,.13.16S258.42,160.92,258.32,160.85Z"/><path class="cls-1" d="M268,161.38l-.24,0Z"/><path class="cls-1" d="M253.27,161.35a.66.66,0,0,0-.35,0,.12.12,0,0,0,.05.05A.29.29,0,0,1,253.27,161.35Z"/><path class="cls-1" d="M248,161.35l.1.07.17,0Z"/><path class="cls-1" d="M146.29,163.65a.84.84,0,0,1-.24-.31C146.13,163.58,145.36,163.62,146.29,163.65Z"/><path class="cls-1" d="M323.47,162.73a.32.32,0,0,1-.15.05l.17,0S323.51,162.74,323.47,162.73Z"/><path class="cls-1" d="M253.05,164.22l-.83-.06A5.13,5.13,0,0,0,253.05,164.22Z"/><path class="cls-1" d="M184,163.78l-.19,0A.24.24,0,0,0,184,163.78Z"/><path class="cls-1" d="M249.74,164.21a1.43,1.43,0,0,0-.47-.25.47.47,0,0,0-.1.1Z"/><path class="cls-1" d="M146,163.34h0Z"/><path class="cls-1" d="M140.55,163.72c.79.07.37-.32.54-.51.95-.05.44.29.76.5.59-.06,1.05-.38,1.49-.35,0,.07.12.1,0,.17.63-.28,1.86.09,2.59-.3a.22.22,0,0,1,.09.11,1.1,1.1,0,0,1-.11-.6c.36,0,.67-.27.8,0-.22,0-.24.11-.34.19l.37-.11c.34.43-.51.13-.51.43a7.28,7.28,0,0,1,2.14-.3c.12.44-1.31.1-.56.51l-.87-.2c.66.69-.52-.07.09.66,1.13.19,1.27-.13,2.4,0,.26-.24-.08-.37.17-.61,1.62-.44,1.27,1.13,2.46.51.3-.3.42-.86,1.27-.57l-.29.5c1.1.05.63-.71,1.78-.38-.21.2-.87.16-.7.22.75.4.53-.28,1.1-.28l.12.44c1.17-.06,2.46-.38,3.76-.46-.07.13-.29.27,0,.4a17.89,17.89,0,0,1,5.07.33l.61-.38c.14,0,.26.17.11.24.61.15,0-.24.32-.39s.47.22.24.34a8.48,8.48,0,0,1,4.24-.29l-.22.12c.89.15,1-.78,1.83-.42l-.16.06c1.94.17,4.07-.17,5.55.4.28-.55,1.91.25,2-.52a7.76,7.76,0,0,0,2.34.78c.41,0,.62-.48,1.13-.56v.4l.7-.42.37.48.48-.1c-.19,0-.4-.18-.38-.3.76-.17,1.84.28,1.86.49l1.78-.34c0,.16-.34.22-.58.32.95-.4.17.42,1.05,0-.12-.09.06-.24.08-.32a4.33,4.33,0,0,0,2.15.15l-.14.27c1.32.07,2.78-.13,4.27-.12-.54-.13-.41-.6,0-.65l.17.42c.29-.26-.45-.16.13-.48.55.05.37.48.05.62l.67-.15c0,.13-.12.2-.16.36.28-.26,1.16.42,1.56,0l0,.12c1.48,0,2.15-.14,3.36-.15,0-.37.5-.29.86-.58a17,17,0,0,0,2.93.37c.75-.18.22-.3.56-.52.06.33,1.12.3.57.54a19.29,19.29,0,0,0,3.26-.33c-.18-.14-.37-.2-.27-.31.29-.05.67.14.62.3l-.07,0c1.82-.49,4.2,1,5.65.29l-.09,0,1.51-.36c.69.06-.42.25.09.46,1.63-.55,2.57.08,3.9-.28,1,1,3.67-.07,5.06.56l-.08-.23c.36-.23.44.13.7.18,0-.18-.39-.2-.16-.33,3.05-.27,6.3.35,9.43.56,1.15.06.65-1.19,2.09-.64l-.41.43c2.32-.51,4.73,0,7-.41-.13.1-.14.23-.36.22.48.31,1.77,0,1.78-.23.35,0,.08.23.3.36.48.18,1.2-.4,1.45-.09.05.05-.13.1-.22.12.31-.14,1.46.05,1.16-.31.85.17,1.62-.16,2.3.05.44-.4,1.45.2,1.59-.37-.06.59,1.49.48,2,.2-.18.18.47.18.25.43.62,0,1.18-.12,1.07-.42,1.13.7,2.27-.56,2.91.34,1.82-.31,3.5-.52,5.14-.66-.06.59-1.81.06-1.74.67,1.55-.24,2.45-.73,4-.59.4.08-.23.25-.36.35,1.55-.24,3,.06,4.38-.26,0,.06-.16.12-.3.16.28,0,.64.09.61-.18l-.27.07c-.43-.38,1.08-.8,1.13-1-.46.76,1.37.19.63,1.15.18,0,.4-.18.36-.35.27.05.35.15.08.35,1-.14.63-.42,1.52-.41,0,.12-.19.17-.28.32a2.35,2.35,0,0,1,1.65-.39c-.05.08,0,.18-.19.18,1.29,0,2.19-.66,3.59-.42-.41.56.48.18.56.67l.75-.15-.3-.23c.66,0,1.25-.34,1.82-.18l-.5.2,1.25-.09-.71-.19c.67-.25-.07-.61.81-.47-.18.05.67,0,1,.29h0a1.6,1.6,0,0,1,1.15-.19c.13.15-.1.53,0,.63.33-.4,1.55-.11,2-.54a.41.41,0,0,0-.1.41L285,163c.3.11.35.16.3.36.92.06-.29-.61.8-.35-.09,0,0,.08-.22.13,1.1.14,2.12-.21,3.13,0,.3.49-.88.12-.54.53a34.16,34.16,0,0,1,4.43-.46l-.26-.05c.19-.69,1,.34,1.76,0-.18.06-.23.39-.18.31a14.94,14.94,0,0,0,3.43-.38l-.18.18a20.45,20.45,0,0,0,2.12.17c.18-.18.53-.15.32-.4,1.89,1,3.61-.51,5.3.26-.21,0-.48.16-.32.16l1.43-.19c-.11-.27-.19-.16-.49-.38a1.62,1.62,0,0,1,.94-.29c-.64.18,0,.44.28.57,0-.08.05-.17,0-.25.75.45.13-.52,1.15-.22l-.06.13a4.08,4.08,0,0,1,1.15-.2c.17.27-.41.13-.43.36.58,0,1.14-.53,1.66-.26-.24.07-.6.08-.84.16a1.76,1.76,0,0,0,1.06.26h0l1,.11-.25-.07c.72-.66,1.47-.16,2.45-.56-.95.37-.16.21-.23.46.25.07.63.13.52.2.46-.21.77.12,1.42-.18,0,.07.5,0,.39.17.6-.08-.14-.11-.09-.21.93-.24,2.17.19,3.51-.14,1.14-.14,1.36-.3,2.42-.37.36.07-.29.16-.29.16a9,9,0,0,0,1.56,0c-.11,0,0,0,.17.09.44,0,.29-.13.87-.09a3.15,3.15,0,0,1-.44.13c.52-.05,1-.12,1.56-.15.14,0-.32.07-.51.11.6,0,1.56-.1,1.74-.14l-.38,0c.22,0,.11.05,0,.06a1.68,1.68,0,0,1-.77,0l.38,0a11.48,11.48,0,0,0-2.3.05l.32-.14-.78.12c-.17,0-.29-.13.09-.15-.55-.08-.48.06-1,0-.05,0,0,0,0,0l-.53,0c.1,0-.09-.14.24-.1-1-.14-1.56.12-1.92,0H320c-1.34.05-.13.16-1.13.36-.23-.14-.45-.29-.68-.46l-.13.19c-.14,0-.41,0-.36-.1-.51.13.09.08-.21.21-.66-.2-1.83.09-2-.28-.24.18.64.14-.07.26-.21-.4-.82.06-1.43-.13.19-.22.76-.09.15-.3-.36.37-1.18-.11-1.69-.06,0,.33-1.11.11-2,.22a20.34,20.34,0,0,0-2.41-.41l0-.06c-.15.4-1,.31-1.58.38,0-.25.13-.35.46-.46h-.57a1,1,0,0,1-.67.24l.14-.32a8.3,8.3,0,0,1-2.48.09c-.05.34.77.93-.25,1.16,0-.18-.08-.5.19-.57-.09,0-.31.15-.49.07l.41-.3c-.44-.14-.23.25-.58.22,0-.26-.26-.19-.21-.39.09,0,.31.11.44,0a1.92,1.92,0,0,1-1-.41.3.3,0,0,1-.29.39c-.75,0-.26-.31-.7-.44-.18.19-.66,0-.67.39-.22,0-.26-.18-.35-.29-.38.17-1.81,0-1.37.46l.1,0-.07,0h0c-1.27.38-2.64-.22-3.91-.06v-.13a11,11,0,0,0-2.22.36c-.22,0-.53-.23-.43-.38a2.42,2.42,0,0,1-1.48,0c.58-.22-.2-.2.6-.16-.75-.11-.92-.32-1.72,0,.27-.32-.57-.41-.92-.31l.52.23a5.12,5.12,0,0,1-1.11,0l.2-.43c-1.53-.52-2.77.89-3.93,0-.41.3.83.21.47.56-.71-.05-1.44-.67-1.66-.67-1-.24-.91.62-1.92.46.13.15.25.56-.5.7-.71-.05-.87-.64-.42-.76.17,0,.25,0,.24.09.23-.06.53-.12.25-.29l-.09.15c-.35-.16-1.32-.14-1.1-.39-.53.14-.22.25.17.33-.9-.22-1.41,0-2.34-.16.14.09.28.27.13.26-1.36-.19-.6.29-1.53.36-.52-.23.19-.56-.74-.36-.57-.16-.12-.41.11-.54-.85.3-1.59-.19-2.07-.25l.44-.12a2.55,2.55,0,0,1-.71.07l.26.31c-.26-.06-.49-.06-.48-.19-.27.2.21.51-.33.79-.35-.16-1.07.16-1.19-.24,1.1.14-.12-.41.81-.48a1.46,1.46,0,0,1-.66,0s0-.09.11-.11c-1.05-.37-.48.46-1.58.45.14-.23-.25-.44-.43-.39.44,0,.21.38-.19.56-.7-.18-.76.13-1.13.11l.42.08c-.14.23-.49.2-1,.27,0-.18.44-.12.27-.2-.54.4-1.23-.42-2-.15-.35-.15,0-.43-.34-.53-.85.29-.92-.32-1.81-.07.26.3.3.23-.33.53l1.47-.22-.94.45c.44,0,.93-.19,1.19-.14-.44.25-.4.18-.19.43-.6-.46-1.19.27-1.89,0l0-.77c-1.05-.34-1.87.39-3.23.2l.44.13c-.19.3-.84,0-1.29.16.05-.25-.23-.34-.42-.5,0,.19-1,0-1.12.49l-.61-.34c-1.1-.14-1.26.73-2.32.64.32-.28-.16-.46.55-.66-.35,0-.67,0-.68.13-.2-.16-1,.34-1.3.1-.15.11-.2.38-.6.36a.12.12,0,0,1,0-.13c0,.13-.62.17-.28.45-1.09-.79-3,.06-4-.63-.77.09-1.7.17-2.4.18,0-.07,0-.12.14-.1-1-.23-.6.74-1.7.47-.56-.41.59-.22.24-.38-.16-.84-1.33.11-2.07-.38l.18-.05c-.57-.28-1.38.32-2.3.26,0,0,0-.08,0-.13a7.26,7.26,0,0,1-2.72.69c.28-.33.41-.18.24-.51-.4.05.12.53-.68.63-.26-.18-.83-.34-.91-.7l.75,0c-.38-.46-1,0-1.36-.06l0-.2c-1.15.06-1.17.57-2.4.53l.12.15c-.67.5-.56-.28-1.23.09l-.21-.51a18.3,18.3,0,0,1-2.36.59,8.22,8.22,0,0,1,2-.8c-.44,0-1.5,0-1.73.29.18-.05.4-.17.58-.09a3.47,3.47,0,0,1-2.14.58c.16-1-2.29-.25-2.93-1-1.56.36-3.09-.16-4.9-.1.64.77-.53,0-.42.81-.42.05-.58,0-.62,0l-1.28-.47c-.3-.23.4-.17.36-.35-.92-.06-.38-.34-1-.55.13.29-.32.41-.85.3l.75.36c-1.3.42-1.12-.66-2.42-.25l.41-.24c-.67.14-2.47,0-3.12.62-.12-.09-.28-.31,0-.36-1.6-.1-3.56.67-4.8.27l.12-.19c-.3.06-.52.36-.89.17,0-.08.12-.19,0-.21a2.21,2.21,0,0,1-1.19.23l.34-.22c-1.56-.25-2.39.53-3.7.66,0-.57-1.22-.76-1.83-.85l0-.08c-1.81-.07-3.08.47-4.76.69-1.05-.62-3.54-.27-5.21-.61.25.1,0,.44-.34.5-.4-.12-1.09.39-1-.13H189c-.29-.51-1.1-.38-1.73-.39l-.11.68c-1.65-1-4.32.36-5.22-.53-.4.17-.9.16-1.29.33l0-.36a16.4,16.4,0,0,0-3-.06l.28-.26c-.77,0-1,1-1.68,1.07l-.22-.54c-1.34,0-2.7-.48-4,0a.31.31,0,0,1,.28-.26c-.63,0-2.44-.38-2.21.37,0-.48-1.39-.05-2.11.17l.11-.36a2.31,2.31,0,0,1-1.49.71c-.2,0-.18-.29.09-.2-.67-.19-.52.34-1.34.15l.3-.23c-.69,0-.64.1-1,.36s-1.32-.09-1.42-.41a.83.83,0,0,1-.88.36c-.06-.12.09-.2.17-.23-1.16-.25-1.73.41-2.53.06a.27.27,0,0,0-.13-.22,14,14,0,0,1,1.59.06c0-.33-.74-.39-.15-.85a4.79,4.79,0,0,1-2.35.64.54.54,0,0,1-.09-.12l.07,0a.81.81,0,0,0-.46.06,2.15,2.15,0,0,0-.6-.1c-.08-.28-.85-.15-1.22-.17,0,.37-.46.31,0,.61-.06,0,.07,0,.31-.06a.62.62,0,0,0,.16,0l0,0,.92,0a.93.93,0,0,1-1,.14,7.11,7.11,0,0,1-.52.58c-.51-.5-1.49-.78-1.63-1.09-1.13.21-2.67.12-3.38.8-.33.09-.37-.2-.49-.32.18-.06.4,0,.51-.15-.65.16-1.92.06-2.07.55-.81-.2.46-.45-.66-.35l.15-.15a4.68,4.68,0,0,0-2.91.28,4.89,4.89,0,0,1-3.1.12c.17.05.25.07.29.13a27.5,27.5,0,0,0-4.25.07,28.29,28.29,0,0,1-4.22,0,3.23,3.23,0,0,0-1.34.23l-.16-.17-.82.21c-1.15.13-2-.27-3.45,0l.18.07a10.76,10.76,0,0,1-1.57,0,.79.79,0,0,1-.38,0v0l-1.29.09c-1,0,.16-.11-1.3,0-.54.05-1.54.09-1.34.08s.56,0,.58,0h-.5a5.44,5.44,0,1,0,.75.06l.84,0,.28,0-.72,0a5.58,5.58,0,0,0,1,0l.36.06.83,0c.1,0-.38,0,.18.11.39,0-.37-.11.27-.11a2.07,2.07,0,0,0,.77.09c.06,0,0,.05-.23.05a9.6,9.6,0,0,0,1.34,0c.43.12,1.43,0,1.39.23a5.87,5.87,0,0,1,1.14-.1c-.72.21,1.45.1,1.26.39a22.92,22.92,0,0,1,2.83-.11.34.34,0,0,1-.23,0,4.85,4.85,0,0,1,1,.26c.07-.28.88-.31,1.32-.48.65.33-.39.34-.18.63,0-.24,1.11-.18.89-.41.49.22.43.11.68.41.09-.42.46,0,.87-.29.71.25.18.43,1,.34C141.24,163.6,140.55,163.72,140.55,163.72Zm18.58-.49h0l-.39,0Zm1.56,0c-.19,0-.43,0-.68,0a.17.17,0,0,1,.16-.25C160.09,163.05,160.45,163.12,160.69,163.23Zm-3.3-2.53c.24,0,.33,0,.36.1l-.43,0,0,0A.44.44,0,0,1,157.39,160.7Z"/><path class="cls-1" d="M156.94,161.18l-.1,0,.15.08.09-.11Z"/><path class="cls-1" d="M298.48,161.92h0a.13.13,0,0,1,.07.05Z"/><polygon class="cls-1" points="182.25 163.95 182.24 163.86 182.11 163.94 182.25 163.95"/><path class="cls-1" d="M307.07,163.09a.19.19,0,0,0,.12.08A.34.34,0,0,0,307.07,163.09Z"/><path class="cls-1" d="M310.79,163.07l.52.08A3.51,3.51,0,0,0,310.79,163.07Z"/><path class="cls-1" d="M313.65,163.11a.48.48,0,0,0,.05-.11h0Z"/><path class="cls-1" d="M268.23,163.81l-.11,0C267.87,163.9,268,163.87,268.23,163.81Z"/><path class="cls-1" d="M281.75,163a2.35,2.35,0,0,1-.44.17C281.55,163.18,281.74,163.19,281.75,163Z"/><polygon class="cls-1" points="253.14 164.23 253.15 164.22 253.05 164.22 253.14 164.23"/><path class="cls-1" d="M280.69,163.14a1,1,0,0,0,.62,0A1.84,1.84,0,0,0,280.69,163.14Z"/><path class="cls-1" d="M326,162.67h0Z"/><path class="cls-1" d="M326.18,162.66h0Z"/><path class="cls-1" d="M326.65,162.62l-.32,0A2.5,2.5,0,0,0,326.65,162.62Z"/><path class="cls-1" d="M322.24,162.8l0,0S322.24,162.82,322.24,162.8Z"/><path class="cls-1" d="M321.09,162.85a7.34,7.34,0,0,0,1.07,0l0,0C322,162.91,321.35,162.77,321.09,162.85Z"/><path class="cls-1" d="M316.3,162.14l1,.08c-.17-.08-.39-.19.05-.19C316.1,161.77,317.56,162.2,316.3,162.14Z"/><path class="cls-1" d="M313.31,161.93c.52,0,0-.14,0-.19C313,161.81,312.93,161.83,313.31,161.93Z"/><path class="cls-1" d="M291.74,161.62l.05-.33C291.4,161.33,291.79,161.41,291.74,161.62Z"/><polygon class="cls-1" points="287.62 163.32 288 163.53 288.19 163.22 287.62 163.32"/><polygon class="cls-1" points="285.18 160.96 285.36 160.91 284.69 161.03 285.18 160.96"/><path class="cls-1" d="M249,161l.12.41C249.34,161.36,249.4,160.91,249,161Z"/><path class="cls-1" d="M233.31,161.42a.72.72,0,0,0-.88-.13C232.78,161.31,233.13,161.47,233.31,161.42Z"/><polygon class="cls-1" points="186.4 160.69 186.71 160.56 186.12 160.67 186.4 160.69"/></svg>