<svg id="圖層_1" data-name="圖層 1" xmlns="http://www.w3.org/2000/svg" viewBox="0 0 799 481"><defs><style>.cls-1{fill:#202020;}</style></defs><title>vi12</title><path class="cls-1" d="M361.66,99.64c.67-.08.29-.29-1.54-.21l-1.3.36Z"/><path class="cls-1" d="M349.3,99.38c-2.15.29-4.61.73-3.2,1,2.11-.45,2.64-.35,4.92-.88,1.83-.11,3.21,0,2.9.15.65-.09,2.85,0,3.84-.21-1.2-.1-2.56-.14-4-.12-.73,0-1.48,0-2.24.08s-1.54.16-2.33.26S349.15,99.45,349.3,99.38Z"/><path class="cls-1" d="M192.55,175.83l.74-.89C193.08,175.18,192.83,175.48,192.55,175.83Z"/><path class="cls-1" d="M162.43,280.62a5.7,5.7,0,0,0-.17-1.24A4.68,4.68,0,0,0,162.43,280.62Z"/><path class="cls-1" d="M165,299.54c-.09-.4-.16-.74-.23-1.1A6.5,6.5,0,0,0,165,299.54Z"/><path class="cls-1" d="M192.55,175.83l-1.91,2.3A17.09,17.09,0,0,0,192.55,175.83Z"/><path class="cls-1" d="M324.79,102.7c.61-.11,1.12-.21,1.58-.32l-1.49.26Z"/><path class="cls-1" d="M227.3,141.15l.74-.53c.19-.18.37-.37.53-.55Z"/><path class="cls-1" d="M259.49,121.42a2.79,2.79,0,0,0-1.16,1,9.69,9.69,0,0,1,1.6-1C259.92,121.38,259.79,121.37,259.49,121.42Z"/><path class="cls-1" d="M316.29,103l1-.24Z"/><path class="cls-1" d="M206.86,158.87a.79.79,0,0,0-.31.18S206.69,159,206.86,158.87Z"/><path class="cls-1" d="M369,84.68s0,0,0-.05C368.75,84.67,368.68,84.69,369,84.68Z"/><path class="cls-1" d="M325.49,87.43l.59-.1c.06-.07.12-.13.11-.18Z"/><path class="cls-1" d="M175.63,332.87a.94.94,0,0,0-.06-.15C175.16,331.9,175.38,332.37,175.63,332.87Z"/><path class="cls-1" d="M456.23,426.28c-3.53.89,5.52-2.14.24-.71C457,425.55,451.85,427.43,456.23,426.28Z"/><path class="cls-1" d="M323.82,102.81l-1.52.22C323,102.94,323.46,102.87,323.82,102.81Z"/><path class="cls-1" d="M456.47,425.57h0l-.54.15Z"/><path class="cls-1" d="M226,395a7.28,7.28,0,0,0-.58-.6A3.26,3.26,0,0,0,226,395Z"/><path class="cls-1" d="M185.84,350.73l.74,1.3C186.29,351.51,186.06,351.09,185.84,350.73Z"/><path class="cls-1" d="M252.47,411.35a13.12,13.12,0,0,0,1.94,1l-.29-.17A9.12,9.12,0,0,1,252.47,411.35Z"/><path class="cls-1" d="M282.26,424l-.55-.24-1-.3Z"/><path class="cls-1" d="M465,99.15a12,12,0,0,1-1.31-.73C464.06,98.77,459.58,97.27,465,99.15Z"/><path class="cls-1" d="M324.75,102.55a3.18,3.18,0,0,1-.93.26l1.06-.17C325,102.58,325,102.54,324.75,102.55Z"/><path class="cls-1" d="M254.65,410l4.56,2.27C258,411.6,256.29,410.78,254.65,410Z"/><path class="cls-1" d="M588.85,272v-1.16A11.12,11.12,0,0,0,588.85,272Z"/><path class="cls-1" d="M273.07,418.29c.81.41,1.69.8,2.62,1.18.2,0,.43.12.58.14Z"/><path class="cls-1" d="M463.65,98.41h0Z"/><path class="cls-1" d="M431.07,90.23c4.75,1,2.31.12,3.36.12,5.71,1.1,2.58.79,4.46,1.44,3.52.8,6.3,1.16,8.92,1.84.18.11.68.26.07.18,1.9.31,4.6,1.21,7.41,2L459.46,97c1.34.4,2.58.82,3.67,1.09a3.53,3.53,0,0,1,.52.28c-.63-.41-.67-.63-.49-.71,2.07.73,3.91,1.14,4.6,1.64a9.64,9.64,0,0,0-2-.54l2.19.66c1.83,1-3-.92-3.07-.68,2.12.7,4.45,1.36,6.6,2.12s4.17,1.56,5.73,2.25c.54.58-7.45-2.9-3.33-.91-1.62-.69-3.23-1.43-4.89-2,3.62,1.85-3-1.1.29.67,3.24,1.24,5,2,6.85,2.67l2.89,1.12c1.08.42,2.34.92,3.89,1.69,1.5.48-.35-.47,1.14,0a46.63,46.63,0,0,1,7.61,3.76,28.73,28.73,0,0,0,5.73,3.13c.89.33,1.54.48,2.53.88a25.32,25.32,0,0,1,4.53,2.39l-1.72-.53c5.84,3.33,3.64,1.39,9.56,5.22-1.15-.52-4.61-2.6-3.76-2,3.77,2.6,2.9,1.44,5.87,3.33l.43.67a183.11,183.11,0,0,1,18.78,13.21c-.41-.2-1.52-1-.16.28a127.21,127.21,0,0,1,21.46,22.16c.83.9,1.71,1.77,2.49,2.71.51.69.84,1.36.24.65,2.13,3.08.27,0,1.43,1.43,1.29,1.7,1.51,2.38.66,1.33,1,1.31,2.16,3,3.44,4.73l1.86,2.84c.64,1,1.28,2,1.87,3l1.79,3.07c.57,1,1.09,2.06,1.61,3.06,1.05,2,1.87,3.88,2.55,5.49l-.66-1.2c.55,1.24,1,2.19,1.45,3s.76,1.48,1.12,2.14a25.22,25.22,0,0,1,2.16,5l-.4-.89a177.63,177.63,0,0,1,5.63,17.08c.37,1.42.73,2.82,1.09,4.19s.59,2.73.87,4c.6,2.61.93,5.1,1.27,7.33.4.79.78,3.7,1.2,6.47s.68,5.45,1,5.79c.29,3.37.23,4.59.31,6.13s.16,3.44.36,8.19c.14,2.53.54,3.76.74,6.9l-.31.09c.19,1.41.28,2.83.42,4.25l-.34,2.28c0,1,.1,2,.07,2.94a8.76,8.76,0,0,1,.24-2.31,35,35,0,0,1,0,3.68c0,1.27-.13,2.52-.21,3.64,0,.55-.08,1.08-.12,1.55s-.14.88-.19,1.23a5.9,5.9,0,0,1-.25,1.15c-.13,1.8-.22,3.6-.39,5.4l-.68,5.38a30.44,30.44,0,0,1,.28-3.49c-.28,2.88-.4,3.13-.51,3.31a1.29,1.29,0,0,0-.18.56c-.08.38-.13,1.08-.36,2.38.22-.68.1.41.14.54-.37,1.28-.86,3.38-1.36,5.72s-1.31,4.83-1.85,7l0-.89A154.93,154.93,0,0,1,574,329.88c.81-1.4,1.11-1.95,1.18-1.79a5.59,5.59,0,0,1-.8,2.15l-.78.8c-.61,1.6,1.4-2.4,0,.82-1.6,3-1.38,1.84-.57.08l-1.81,3.69c-.19.16.21-.72.21-1a12.59,12.59,0,0,1-.83,1.66c-.41.66-.9,1.42-1.4,2.21a34.2,34.2,0,0,0-2.51,4.36l-.2.15-3.27,5-1.39,2.12c-.48.65-.93,1.28-1.38,1.9-1.82,2.47-3.42,4.85-5.81,7.65.13.29-1.74,2.48-3,4.32l-5.9,6.2c-2.17,2.07-4.39,4.27-6.73,6.54-3.3,3.17-.83,1.07-2.25,2.58-.42,0-5.24,4.42-2.85,2-5.93,5.1-7.59,6.5-15.46,12.53.93-.55,1.93-1.24,1.47-.79a11.49,11.49,0,0,1-3.26,2l.37-.29c-2.26,1.62-4.72,3.34-7.33,4.94s-5.37,3.12-8.06,4.6-5.4,2.75-7.86,4.05-4.8,2.35-6.73,3.45l.44-.24c-1.37.69-2.7,1.46-4.1,2.09l-4.16,1.94c-3.91,1.62,2.25-1.18-.69-.09-9,4.25-14.6,5.62-22.27,8.39-1.55.35-3.7.8-6.14,1.45l-3.88,1.05-2.05.58-2.13.52-8.51,2c-2.75.56-5.33,1-7.44,1.25l.51.08a25.77,25.77,0,0,1-4.24.65c.25.09,2.38-.28,1.05.06-18.38,3.46-38.37,4.2-57.48,3.68-7-.19-4,.94-12.82,0l2.52-.18c-14.14-.3-28.81-2.37-42.42-4.79a13.16,13.16,0,0,1,2.19.22c-.7-.19-1.72-.4-2.85-.62s-2.35-.53-3.5-.76a29.21,29.21,0,0,0-4.3-.7c-2.09-.5-.44-.29-1.71-.67-2.82-.8-7.18-1.6-8.63-2.22a7.11,7.11,0,0,1,1.34.26c-.93-.2-3.09-.76-4.77-1.25s-2.91-.88-2.08-.47c-2.45-.86-4.82-1.59-7.07-2.28s-4.3-1.54-6.21-2.33c-.66-.16-1.51-.45-2.43-.78l-1.4-.53-1.39-.61a17.66,17.66,0,0,0-3.92-1.47c.27-.14-1.8-1.09-4.29-2.22s-5.34-2.52-6.86-3.15c1,.36-2.5-1.37-1.26-1-3.28-1.78-6.32-3.37-5.86-2.85-2.93-1.82-5.86-3.65-8.55-5.17a37.83,37.83,0,0,1-3.64-2.28,21.39,21.39,0,0,1-2.69-2.16,164.15,164.15,0,0,1-24.34-19.73,35.72,35.72,0,0,1,4.21,3.71c1,.92,1.92,1.81,2.62,2.44s1.23.93,1.22.77c-.93-.73-1.74-1.5-2.53-2.22l-2.3-2.08c-1.49-1.32-2.9-2.55-4.18-3.9l-4-4.08c-1.36-1.44-2.68-3.09-4.19-4.89s1,.93,1.63,1.51l-2.31-2.66-1.13-1.32L197,363.45l-4.08-5.4c-1.25-1.83-2.48-3.65-3.7-5.43l-.92-1.33-.85-1.36c-.57-.91-1.13-1.8-1.7-2.69a13.67,13.67,0,0,1,1,1.47c-.87-1.42-1.93-3.34-2-3.08l.88,1.36c.56,1.21-.43-.12-1.59-1.78-.6-.83-1.16-1.78-1.62-2.52a12.18,12.18,0,0,0-.87-1.33c1.85,2.22-3.78-7.44-1-3.82-.57-.93-1.2-2.15-1.23-1.86-.65-1.49-.79-2,0-.56-1.3-2.68-1.78-3.51-2.21-4.29a24.91,24.91,0,0,1-1.85-4,14.19,14.19,0,0,1,.86,1.44c-.6-1.23-1.2-2.46-1.85-3.92-.33-.73-.67-1.52-1-2.39s-.65-1.85-1-2.94c.14.24,0-.28.48,1-.64-1.85-1.26-3.55-1.87-5.19l-.45-1.23c-.14-.41-.27-.82-.4-1.23l-.77-2.45c-.5-1.64-1.08-3.29-1.53-5.09s-.86-3.71-1.3-5.82c1,2.39-.52-2.88-.16-3.41l-.91-4.53.14,1.86c-.78-4-1.36-7.51-1.7-11l.53,3-.51-3.76c-.13-1.26-.22-2.52-.33-3.78.08,1.43.08,2.87.22,4.29-.58-4.06-.46.49-.78-4.91a10,10,0,0,0-.09-1.88c0-.71-.07-1.52-.11-2.28s0-1.49.07-2v0a60.89,60.89,0,0,1-.3-7.08c.14-.77.39.63.49.12a57.49,57.49,0,0,1,0-5.79c0-2.44.29-4.93.21-6.2,0,.84.19.9.26.63l-.1-1.67c.25-1.87.32-2.14.44-1.81.13-1.41.19-2,.19-2.2s-.09,0-.16.13c-.15.3-.26.47.35-2.83-.06.52,0,.28-.11,1.37.58-3.32.95-6.55,1.67-9.66.32-1.56.64-3.1,1-4.63s.84-3,1.28-4.49c.85-1.65-1.36,5.23-.5,3.3a129.73,129.73,0,0,1,8.87-25.53l-.73,1.44c.07-1.3,2.91-5.75,4.88-9.63-.48,1-.41,1.37-.33,1.09.73-1.29,1.45-2.6,2.18-4s1.62-2.71,2.47-4.17,1.73-3.05,2.83-4.64l3.46-5.19-.53,1c1-1.43,2.48-3.19,3.9-5l2.12-2.72c.71-.87,1.43-1.65,2-2.36.63-.93,2-2.55,1-1.69q1.5-1.57,3-3.11c1-1,2-2,2.94-3l2.84-3,2.88-2.86,2.83-2.82c1-.91,2-1.77,3-2.64a59.55,59.55,0,0,1,6.08-4.85c-1,.76-2.22,1.91-1.45,1.3,2.27-1.83,4.51-3.71,6.82-5.5a12.11,12.11,0,0,0-2.56,1.57c.4-.39,1.05-1,1.85-1.67s1.75-1.33,2.63-2c-3.12,2.43.25.28,1.71-.61-.27.11.16-.29,0-.27,2-1.16,2.07-1.37,2.32-1.71s.68-.81,3.38-2.41l-.21.28c1.95-1.3,3.63-2.69,5.83-3.94.53-.15,0,.19-.65.6a5.94,5.94,0,0,0-1.42,1.09,94.88,94.88,0,0,1,8.65-5.44l-4.39,2.76c3.18-1.49,3.46-1.82,5.77-3l-.23.11,5.37-2.69-1.39.65a29,29,0,0,1,2.84-1.87c1-.58,2.07-1.07,3.18-1.6s2.26-1.09,3.47-1.67l1.84-.94,2-1c-2.6,1.32-2.76,1.55-2.36,1.39s1.43-.56,1.29-.33c1.44-.52,3.61-1.34,3-1,2.52-1.3,4.38-1.73,8-3.42.21,0,2.84-1,2.33-.59,3.41-1.36-.88.14-.63-.08,1.3-.57,2.73-1.14,4.28-1.68l5-1.52c3.47-1.11,7.3-2.05,11.16-3.38,1.67-.54,3-.9,4.19-1.24l3.12-.92a67.55,67.55,0,0,1,7-1.85c2.19-.26-1.71.68-1.71.68,3.53-.5,6.13-1.1,9.42-1.74-.65.18.05.15,1.08.11,2.65-.42,1.72-.61,5.25-1a24.54,24.54,0,0,1-2.6.78l4.66-.87c1.57-.26,3.16-.48,4.78-.7.89.08-1.94.46-3.07.7,3.65-.45,9.46-1.2,10.59-1.46-.79,0-1.58,0-2.37.07,1.34-.11.71.15-.27.31-3.12.54-4.54.38-4.73.3l2.32-.3a30.07,30.07,0,0,0-6.17.47c-2.61.41-5.47,1-7.8,1.35l1.88-.69-4.72,1c-1,.09-1.76,0,.52-.49-3.36.39-2.91.69-5.81,1-.32,0-.18,0,.11-.09l-3.22.74c.62-.21-.6-.19,1.41-.51a54,54,0,0,0-7.11,1.58,28.56,28.56,0,0,1-4.4,1l.47-.13c-7.91,2.25-.7.48-6.54,2.46l-4.2.41-.68.54c-.81.26-2.41.75-2.16.54-2.93,1.18.56,0-1.13.72-4,.9-10.55,3.87-11.59,3.73-1.29.73,3.72-1.2-.3.48-1.38-.11-4.63,2-8.16,3.21.95-.7,4.26-2,.73-.71-1.92,1.23-6.67,2.9-9.48,4.34,0,.32-6.05,3.22-10.62,5.88.12-.14-2.05,1.08-4.79,2.63l-2.13,1.21c-.72.41-1.43.88-2.13,1.32l-3.78,2.35.09-.13a26.09,26.09,0,0,1-3,2.38l-4.74,3.49c0-.26.47-.72,2-2l-2.82,2c-.61.56-1.42,1.28-3.16,2.71l.52-.75c-1.81,1.44-3.61,2.93-5.5,4.55s-3.84,3.44-6.15,5.33c0,.2,1-.44,1.42-.6.22-.09.3-.05,0,.28s-.89.91-2,2c-.26.06-.59,0,.56-1.13-.38.38-1.31,1.41-2.14,2.11l1.66-1.9c-2,1.79-.89,1.12-2.47,2.6-.11-.18-1.26,1-1.14.67.39-.39,1.42-1.24,2-1.87-1.78,1.67-4,3.6-4.8,4.21.22-.08.18.18-1,1.5-3.17,3.36-1.26,1-3.19,2.87-.33.46-1.06,1.18-1.62,1.87s-1,1.28-1,1.41a9,9,0,0,1-1.55,1.47c-.37.47-1,1.24-1.72,2.1-.36.43-.75.88-1.11,1.34l-1,1.36c-1.3,1.73-2.19,3-1.24,2l.4-.47-.23.32v0L191.83,177l-.9,1.19-.86,1.24c-1.17,1.65-2.34,3.31-3.52,5s-2.21,3.41-3.31,5.09L181.65,192c-.49.86-.94,1.73-1.4,2.59l-.08-.06-1.69,3.22-.87,1.64c-.28.55-.52,1.12-.78,1.66-1,2.2-2,4.25-2.56,5.79-.55,1.26-1.4,2.93-1.3,2.33l-1.4,3.7c-.22.55-.46,1.14-.77,1.89l-1.08,2.9c1-3.44-.57,1.1,1.1-3.5-.84,2.15-1.32,3.48-1.82,4.86-.25.69-.49,1.39-.75,2.22-.12.41-.27.85-.4,1.35s-.24,1.05-.38,1.65c.21-1.7-1.24,3.27-1.76,5.41l1-3.08c-.32,1.2-.63,2.31-.92,3.4s-.5,2.15-.76,3.22L165,232c-.6,2.3-1.09,4.5-1.51,6.62s-.53,4.2-.77,6.18-.36,3.91-.53,5.77-.43,3.68-.69,5.47c.09,1.26.11,0,.29-1.33s.34-2.66.37-1.53c-.28,2.16-.42,4.38-.61,6.22s-.35,3.32-.37,4a35.75,35.75,0,0,0,.27,5.8c.18,1.42.27,2.87.48,6,.06-.8.32-1.56.77,3.06.07,1.08.1,2,.1,2.62a8.47,8.47,0,0,1,0,1.34c-.07.46-.27.05-.47-1.31a5.75,5.75,0,0,1-.05-1.51c-.14-1.4-.33-3.24-.33-1.51l.16.56c-.07,2.17.8,8.11.4,6.74.52,3.26.37,1.37.13-1.05.45,5.58,1.22,8.64,2.16,14.32-.16-.9-.13-1.77,0-.87,1.74,8.25,1,3.58,2.4,9.11.72,3.17-.73-1,1,4.49.84,3.41-.1.8-.58-.52.42,1.25.78,2.47,1.12,3.63s.74,2.25,1.05,3.29c.65,2.08,1.11,3.92,1.65,5.33-.39-.84-.68-1.72-1-2.58l.8,2.16.79,1.94-.37-1.55a18.09,18.09,0,0,1,1,2.81c.76,1.49-.11-1.34,1.32,1.66.62,2.09,2.77,6,2.79,6.78-2.76-6.22,0,.82-2.43-4.4.47,1,1.06,2.23,1.7,3.73.08.23-.15-.19-.36-.58,2.53,6,1.48,2.62,4.63,8.59-.55-.68.44,1.54,1,2.5-1.27-2.41-.35-1.29.94.84,2.09,3.79,2.5,4,3.65,5.93l-1.27-2.24a16.09,16.09,0,0,1,1.27,1.82c.54.87,1.21,2,2.1,3.19,0,.29-1.61-2.21-1.06-1.29a43.23,43.23,0,0,1,3.13,4.66c.54.88,1.07,1.81,1.71,2.71s1.33,1.8,2.08,2.7c1.21,1.8-.14.37.94,1.94,1.65,2,2.54,3.14,3.43,4.29s1.79,2.33,3.64,4.37c-.42-.68-.69-1.07-.52-.93s.77.82,2.2,2.13c-1.08-1.06-2.06-2.2-3.05-3.33l-3-3.4,4,4.2c-1.75-2.08-3.83-4.29-4.84-5.57,1.92,2,1.7,1.81,1,.69,2.15,3.06,4.84,5.57,7.68,8.8l-.52.31c1.06,1.23,2.1,2.35,3.15,3.45s2.22,2,3.38,3.1,2.36,2.15,3.68,3.31,2.79,2.35,4.37,3.75l-2-1.84a22.12,22.12,0,0,1,2.63,2.1c.56.48,1.16,1,1.76,1.52s1.23.94,1.78,1.34c-.32,0,1,1.09,1.83,1.9a26.83,26.83,0,0,1,2.54,1.83,13.77,13.77,0,0,0,3.26,2l2.94,2.35a42.18,42.18,0,0,0,6.21,3.73c.85.43,1.69.87,2.67,1.41l1.57.9,1.93,1.07c-.91-.38-.74-.19-.82-.14s-.15,0-.49-.14a12.65,12.65,0,0,1-1.86-1c.91.6,1.82,1.1,2.5,1.46a4,4,0,0,0,1.17.53c.53.36,1.89,1,3.32,1.75s2.93,1.51,3.8,2a18.41,18.41,0,0,1,3.42,1.35c.22.16-.05.09-.05.09s3.49,1.55,1.67.42c2.84,1.83,7.21,3.54,11.41,5.36,2.12.85,4.26,1.58,6.17,2.34s3.62,1.47,5,2l7.23,2.22c2.43.81,4.89,1.35,7,1.94-.28,0,0,.09-.82-.14a24.51,24.51,0,0,0,4.78,1.1c.51.06,1,.15,1.85.31s1.92.38,3.56.8c3.3,1.07-3.55-.62-1.47,0,.38.42,2.38.85,4.83,1.34l3.86.78c1.31.23,2.6.49,3.7.79l-1.09-.16c3.39.81,8.39,1.35,14,2.08,0,0-.28,0,0,.09,1,.05,2.16.15,3.48.27s2.76.29,4.26.37l8.93.68c-1.72.09-2.49-.1-1.48.25,2.45.18-.68-.43,4.2-.13,1.58.23,5.09.55,5.54.85l-4.61-.24c2.34.49,6,.32,8.4.52l-.32.14,2.35.1,1.88,0,3-.1c1.86-.06,3.78-.12,7.58,0l-.78-.14c4.15-.38,3.48.18,7.62-.17l1.26.37c1.37-.1,3.77-.17,6.43-.42s5.6-.51,8.05-.7c-1.38.23-3.5.47-5.73.7l-3.32.33-3,.2,2.61-.06,3.2-.21c2.14-.16,4.12-.34,4.82-.48-1.09.1-2.46.28-3.55.29,3.31-.54,7.69-.82,13.06-1.44-.44.43,3.08.12,7.21-.27,4.1-.55,8.81-1.23,10.8-1.21l14.26-2.73,7.44-1.63,1.93-.43,1.93-.52,4-1.1c-4,.49,3.14-.89,2.31-1.29,2.5-.71,3.44-1,3.67-1.07l7.61-2.1c1.84-.41-2.31.9-2,.95,5.44-1.74,2.38-.45,6-1.61-.8.07,1.75-1,4.83-2.07l-4.39,1.36a54.81,54.81,0,0,1,7-2.54,51.59,51.59,0,0,0,6.93-2.86l-2.26,1.19c1.87-.88,5.41-2.31,8.78-4.08,1.7-.85,3.39-1.71,4.87-2.49a35.93,35.93,0,0,0,3.53-2.18c.67-.29,1.6-.6,0,.31,2.16-1.18,4.48-2.39,6.73-3.77l6.71-4.23c2.18-1.42,4.23-2.92,6.2-4.24,1-.67,1.94-1.28,2.82-1.9s1.72-1.23,2.51-1.77l-.51.56a50.59,50.59,0,0,1,4.34-3.39c0,.12-.5.56.19.06s3.64-3.28,5.59-4.74l-1.5,1.45,2.66-2.14c.85-.67,1.62-1.34,2.33-2,1.44-1.34,2.73-2.59,4-3.82.62-.61,1.26-1.2,1.85-1.83l1.77-1.93c1.21-1.29,2.46-2.63,3.87-4.07.18.18,1.54-1.13,3.21-2.81s3.64-3.72,4.83-5.2l0,.14c7.26-8.58,11.43-15.32,16.51-24.35.45-.67,1-1.45,1.54-2.36l1.7-3,1.9-3.52c.64-1.25,1.22-2.59,1.86-3.94s1.28-2.72,1.88-4.12,1.13-2.84,1.69-4.23c1.19-2.77,2.07-5.55,3-8-.58,1.48-.24-.35.29-2.11.77-2.32,1.48-6.57,1.78-6.09l-.24.83c1-1.65,1.86-6.6,2.66-10.43l-.43-.73a81.42,81.42,0,0,0,2-17.79c0-1.53.07-3,.06-4.44s-.05-2.76-.07-4c0-2.48,0-4.56.08-6-.11-1.23-.2-2.6-.28-4s-.25-2.74-.4-3.95l.29.12a171.34,171.34,0,0,0-2-18.55l.47,1.67c-.74-4.71-1.71-5.81-2.58-10.1l.17-1.38c-1.66-8.11-3.52-16.36-6.65-24,.11.11.3.3.75,1.57-.59-1.87-1.89-5.43-3-8.32s-2.26-5.1-2.25-4.33c.17-.12-.75-2.06-2-4.48-.58-1.21-1.35-2.48-2-3.73s-1.38-2.44-2-3.38l.59.47c-2.19-3.11-2.28-3.2-5.17-7.61-.63-1.08-.39-1.05.43.4a20.76,20.76,0,0,0-2.14-3.16c-.59-.72-1.17-1.57-2.6-3.65.42.47.85.93,1.24,1.43a34.74,34.74,0,0,0-4-4.93c-.88-1-2.13-2.62-3.19-4a21.85,21.85,0,0,1-2.12-2.94,12,12,0,0,1-1.47-1.36c-.71-.67-1.56-1.54-2.39-2.49-.16-.32.51.32.84.64-4.75-5.39-7.68-7.38-11.16-10.87a1.88,1.88,0,0,0-.52-.67c4.29,3.75,7.5,7,7.18,6.75.09-.09-.67-1-1.1-1.52s-.53-.79.89.38c-1.38-1.23-3.33-2.83-5.32-4.51s-4.11-3.36-5.83-4.81a5,5,0,0,1-.4-.44l.38.27c-.79-.67-1.52-1.25-2.23-1.76-1.11-.91-1.81-1.48-2.9-2.32-.27-.53-4.19-3.23-6.05-4.57,0,.34-2.47-1.38-.27.38A12.14,12.14,0,0,1,524,126.9c.28.19.61.42.81.54l-.14-.07c1.23.87,2.83,2,4.59,3.38-.77-.49-1.54-1-2.36-1.6s-1.74-1.22-2.72-2l-2.88-1.47c-1.19-1-3-2.47-4.61-3.64s-3-2.21-3.32-2.54l-4.85-2.8c-1.7-1-3.44-1.88-5.11-2.78-3.39-1.71-6.55-3.18-8.61-4a12.73,12.73,0,0,1-2.59-1.59c1.05.46,2.25,1.11,2.84,1.32-.9-.42-2-1-3.18-1.53l-3.63-1.61a32.13,32.13,0,0,0-4.87-1.91c-2.24-1.11-1.57-.9-1.12-.76s.7.16-2.5-1.09l.9.24c-3.08-1.4-5.92-2.57-8.66-3.62s-5.46-1.78-8.17-2.64c-1.36-.4-2.71-.88-4.13-1.26s-2.86-.79-4.35-1.23l-9.76-3a12.66,12.66,0,0,1,1.68.56c-16.46-4.77-34.53-7-51.31-8.68a34.11,34.11,0,0,0-4.82-.23l-3.42.12-1-.34c-1.67.07-3.34.07-5,.18-3.55.13-6.61-.06-9.93-.22A98.49,98.49,0,0,0,360.4,83l1.16.16c-1.61,0-4.15.26-6.23.41s-3.69.27-3.43.13a8.86,8.86,0,0,1-2.3.28l-.11-.15c-2.63.29-5.24.74-7.85,1.1-3.06.28-2.84.1-3,0s-.62-.28-5.05.38c-3.3.54-9.33,1.83-8.07,1.75a16.25,16.25,0,0,1,3.53-.26l-3,.53c-.47.54-2.69,1.34,4.72.59l5.09-1c.57,0,1.12,0,1.69,0-1.45.18-2.88.42-4.32.63a42.85,42.85,0,0,0,5.74-.88,10.06,10.06,0,0,0,2.19,0l5-1c.63.11-2.23.61,1.17.33,2.35-.46-2.32-.17,1.6-.7a18,18,0,0,0,4.68-.15c.42.09-.19.21-1.34.35,2.57-.32,6.83-.59,8.16-.89,2.59.16,8.74-.4,8.5,0,.4,0,1.54-.22,2.88-.29s2.87-.14,4.06-.15c-4.35.55,8.91,0,7.75.65a68.78,68.78,0,0,1,7.72,0l2.46.08,2.47.18c1.63.11,3.22.2,4.65.25a10.3,10.3,0,0,1-1.45,0c3.19.3,4.11.48,6.15.79.45-.34,5.42.18,8.13.26,3.85.85-2.44.17-1.26.68-.07-.17,1.63,0,3.19.07s3,.34,2.33.1a22.48,22.48,0,0,1,4,1.1c.6-.39,2.77.37,5.28.49,4.22,1.13,1,.68,5.72,1.51C435.26,90.93,431.07,90.23,431.07,90.23Zm102.6,46.1h0l-1.83-1.47Zm7.16,6.31c-.85-.79-1.88-1.81-3.05-2.8-.19-.29.15-.13.87.51A31.57,31.57,0,0,0,540.83,142.64Zm-14.4-14.44a7.72,7.72,0,0,1,1.76,1.4c-.57-.44-1.25-.94-2.16-1.56l-.17-.08A2.51,2.51,0,0,1,526.43,128.2Z"/><path class="cls-1" d="M524,126.9l-.52-.35.7.58.49.24Z"/><path class="cls-1" d="M193.42,174.78l-.13.16c.12-.13.22-.24.3-.31A1.65,1.65,0,0,1,193.42,174.78Z"/><polygon class="cls-1" points="588.63 261.42 588.7 261.41 588.61 260.58 588.63 261.42"/><path class="cls-1" d="M232.2,139.21a3.32,3.32,0,0,0,.6-.34S232.51,139,232.2,139.21Z"/><path class="cls-1" d="M251.48,127.16l2.89-1.42Z"/><path class="cls-1" d="M267.18,119.47a1.18,1.18,0,0,0,.27-.24h0Z"/><path class="cls-1" d="M186.82,348.71l.36.57C188,350.6,187.47,349.7,186.82,348.71Z"/><path class="cls-1" d="M162.85,270.6c.08.87.11,1.74.23,2.65C163,271.78,163,270.63,162.85,270.6Z"/><path class="cls-1" d="M254.15,409.73h0l.51.25Z"/><path class="cls-1" d="M163.36,277.08c-.05-1.47-.15-2.69-.28-3.83C163.15,274.45,163.23,275.87,163.36,277.08Z"/><path class="cls-1" d="M340.26,100.82l.84-.08s0,0,.09,0Z"/><path class="cls-1" d="M341.19,100.69c.31,0,.62-.07.93-.1A5.31,5.31,0,0,0,341.19,100.69Z"/><path class="cls-1" d="M344.08,100.39l-2,.2A13.68,13.68,0,0,0,344.08,100.39Z"/><path class="cls-1" d="M317.33,103.88l-.24.15C317.22,104,317.31,103.94,317.33,103.88Z"/><path class="cls-1" d="M310.44,105.3c1.63-.41,4.17-.63,6.45-1.15l.2-.12a27,27,0,0,1-3.15.56l-2,.31A12,12,0,0,0,310.44,105.3Z"/><path class="cls-1" d="M281.83,112.26c1.85-.7,3.74-1.26,5.63-1.85-1,.22-2.36.5.19-.36-3.6,1-3.22,1-2.86.93.19,0,.36,0,0,.14-.17.08-.46.19-.94.36Z"/><path class="cls-1" d="M264.76,119.07c2.86-1.42-.1-.13,0-.26C263,119.77,262.57,120,264.76,119.07Z"/><path class="cls-1" d="M172.38,210.41l-.12-.39C171.36,212.31,172.34,210.08,172.38,210.41Z"/><polygon class="cls-1" points="166.1 234.95 166.75 232.66 166.76 231.51 166.1 234.95"/><polygon class="cls-1" points="161.93 249.45 161.99 248.37 161.71 252.48 161.93 249.45"/><path class="cls-1" d="M276.75,422.29l-.58-.55C274.59,421.21,274.14,421.42,276.75,422.29Z"/><path class="cls-1" d="M371.41,437.71a24.81,24.81,0,0,0,5.43,0C374.67,437.76,372.51,437.72,371.41,437.71Z"/><polygon class="cls-1" points="590.1 286.98 589.91 288.92 590.38 285.27 590.1 286.98"/></svg>