<svg id="圖層_1" data-name="圖層 1" xmlns="http://www.w3.org/2000/svg" viewBox="0 0 799 481"><defs><style>.cls-1{fill:#202020;}</style></defs><title>vi2</title><path class="cls-1" d="M58.27,176.24c0,.16.3.21.42-.13l-.27-.42Z"/><path class="cls-1" d="M60.06,174.43c0-.47-.1-1.07-.58-1,.18.56,0,.57.22,1.19-.12.35-.4.5-.52.38,0,.16-.33.46-.18.75a1.64,1.64,0,0,0,.82-1.47C60,174.2,60,174.37,60.06,174.43Z"/><path class="cls-1" d="M48.23,147.25l.13.2A.76.76,0,0,0,48.23,147.25Z"/><path class="cls-1" d="M35.63,132.9c-.06.08-.05.13,0,.15S35.68,132.91,35.63,132.9Z"/><path class="cls-1" d="M38.53,130.68l-.18.13C38.44,130.78,38.52,130.74,38.53,130.68Z"/><path class="cls-1" d="M48.23,147.25l-.32-.5C47.78,146.82,48.05,147,48.23,147.25Z"/><path class="cls-1" d="M61.31,169.64a.77.77,0,0,0,0,.33l.09-.29Z"/><path class="cls-1" d="M55.3,153.75l.13.12a.86.86,0,0,0,.22,0Z"/><path class="cls-1" d="M60.59,158.88c-.11-.13-.41.09-.56.15a.52.52,0,0,1,.43.08A.61.61,0,0,0,60.59,158.88Z"/><path class="cls-1" d="M63.36,168.82l0,.21Z"/><path class="cls-1" d="M51.61,150a.43.43,0,0,0,0-.14A.2.2,0,0,0,51.61,150Z"/><path class="cls-1" d="M54.21,169.38l-.05.05C54.22,169.43,54.25,169.42,54.21,169.38Z"/><path class="cls-1" d="M59,176.69l-.1-.07-.16.13Z"/><path class="cls-1" d="M43.68,126.21l0,0C43.56,126.38,43.62,126.31,43.68,126.21Z"/><path class="cls-1" d="M56.33,93.91c.73-.27-.51,1.11.49.61C56.65,94.49,57.11,93.44,56.33,93.91Z"/><path class="cls-1" d="M61.44,169.49c0-.09.08-.18.13-.27A1.06,1.06,0,0,0,61.44,169.49Z"/><path class="cls-1" d="M56.82,94.52h0l.1-.06Z"/><path class="cls-1" d="M54.64,115a.59.59,0,0,0-.23,0S54.5,115,54.64,115Z"/><path class="cls-1" d="M46,122.87l.24-.17A1.91,1.91,0,0,0,46,122.87Z"/><path class="cls-1" d="M58.57,110.36c.13-.09.21-.09.32-.28l-.07,0C58.8,110.19,58.74,110.28,58.57,110.36Z"/><path class="cls-1" d="M63,105.91l-.13,0-.13.16Z"/><path class="cls-1" d="M40.52,156a1,1,0,0,1,0,.43C40.61,156.13,41.33,156.72,40.52,156Z"/><path class="cls-1" d="M61.49,169.73a.24.24,0,0,1-.05-.24l-.08.19S61.44,169.75,61.49,169.73Z"/><path class="cls-1" d="M56.73,108.15l.75-.67C57.26,107.65,57,107.9,56.73,108.15Z"/><path class="cls-1" d="M28.4,126.06l-.13.2A.32.32,0,0,0,28.4,126.06Z"/><path class="cls-1" d="M59.55,105.35a1.75,1.75,0,0,0,.58-.22.38.38,0,0,0,0-.15Z"/><path class="cls-1" d="M40.5,156.39h0Z"/><path class="cls-1" d="M45.78,160.45c-.67-.69-.65,0-1,.06-.9-.71-.12-.62-.22-1.07-.6-.41-1.29-.49-1.65-.88,0-.08,0-.18.13-.16-.8-.26-1.6-1.57-2.55-1.85a.21.21,0,0,1,0-.16,1,1,0,0,1-.37.55c-.31-.29-.77-.34-.67-.68.18.19.29.12.44.14l-.41-.22c0-.61.54.32.78.09a9.36,9.36,0,0,1-2.09-1.54c.21-.41,1.21,1,.85.09l.62.86c-.07-1.06.41.48.42-.56-.88-1.06-1.24-.93-2.11-2-.39,0-.19.33-.58.28-1.67-1.06-.29-1.85-1.71-2.45-.47-.05-1,.24-1.47-.68l.59-.11c-.9-1-1,0-1.78-1.24.31,0,.85.61.75.43-.35-.91-.64-.25-1.13-.74l.21-.41c-1.05-.94-2.37-1.82-3.52-2.86.15,0,.44.06.27-.29a26.05,26.05,0,0,1-4.08-4.53l-.78-.25c-.12-.12-.1-.34.08-.26-.42-.63-.2.14-.56,0s-.23-.54,0-.43a12.11,12.11,0,0,1-3.8-3.4l.27.11a1.51,1.51,0,0,0-1-.59c-.17-.06-.23,0-.34-.07a.25.25,0,0,1-.17-.26l.13,0A4,4,0,0,0,19,135l.47-.47.76-.75a9.32,9.32,0,0,1,2-1.53c-.15-.62,1.79-1.45,1.36-2.1a10.74,10.74,0,0,0,2.53-1.44c.38-.33.19-.86.57-1.36l.29.27.3-.88.65,0,.34-.48c-.18.14-.47.22-.53.11.51-.76,1.75-1.36,1.91-1.23l1.28-1.75c.08.15-.14.44-.27.71.52-1.09.45.15.92-.85-.16,0-.11-.22-.15-.3a6.09,6.09,0,0,0,1.93-1.72l.07.31c1.17-1.07,2.27-2.46,3.53-3.71-.54.36-.77-.08-.44-.48l.45.15c.05-.42-.5.27-.24-.44.51-.44.66,0,.49.39l.46-.68c.13.06,0,.24.12.39.05-.42,1.28-.69,1.3-1.35l.12.06c1.26-1.26,1.73-1.93,2.74-3-.24-.28.22-.62.32-1.13A24.65,24.65,0,0,0,45,109.53c.51-.76,0-.4.11-.84.28.19,1.16-.74.86-.1a29.13,29.13,0,0,0,2.53-3c-.25.06-.46.18-.45,0,.21-.29.67-.47.75-.33l0,.09c1.2-1.89,4.25-2.88,5-4.6l0,.09,1-1.53c.63-.54-.17.53.4.24,1-1.76,2.24-2.12,3.11-3.51,1.57-.19,3.07-3.16,4.69-3.91l-.23-.09c.15-.47.46-.28.73-.46-.16-.1-.48.18-.38-.1l.59-.66.47-.49A2.2,2.2,0,0,1,64.5,90a3.36,3.36,0,0,1,.29.47s0,0,0,.08l.15.18.31.38.61.76c.81,1,1.62,2,2.45,3a1.24,1.24,0,0,0,.62.42,1.26,1.26,0,0,0,.27,0l.16-.1c.2-.13.52,0,.4.23a2,2,0,0,0-.56,0,.79.79,0,0,1,.26.08c0,.07-.05.18-.14.28l-1.23,1.21a22.73,22.73,0,0,0-2.48,2.73c0-.18,0-.28.15-.46-.62.18-1.51,1.48-1.34,1.67-.32.28-.23-.09-.51,0-.54.27-.74,1.3-1.18,1.29-.07,0,0-.18.1-.27-.16.37-1.26,1.2-.76,1.2-.84.6-1.27,1.49-2,1.92-.1.65-1.37,1.09-1.1,1.61-.36-.47-1.59.93-1.86,1.58,0-.28-.52.26-.52-.09-.51.52-.91,1.08-.61,1.2-1.46.46-1.54,2.32-2.71,2.22-1.33,1.77-2.61,3.34-3.91,4.83-.36-.47,1.5-1.58,1-2-1.15,1.49-1.56,2.6-3,3.8-.4.28,0-.37.06-.55-1.16,1.48-2.59,2.5-3.55,3.9,0-.05.05-.21.14-.37-.22.25-.6.48-.38.64l.17-.27c.64-.1-.35,1.48-.25,1.67-.14-.93-1.3,1-1.35-.29-.12.19-.22.47-.06.56-.26.19-.41.19-.32-.18-.73.92-.23.83-1,1.57-.09-.09,0-.27,0-.46a3.23,3.23,0,0,1-1.12,1.67c0-.09-.16-.09,0-.28-1.06,1.11-1.39,2.32-2.76,3.34,0-.74-.53.28-.94,0l-.54.74.42-.09c-.57.56-.82,1.3-1.41,1.67l.28-.56-1.26,1.38,1-.72c-.55.89.54.32-.44,1.1.11-.17-.52.51-1.24.89a.25.25,0,0,1,0,.08h0a4.09,4.09,0,0,1,1.42,1.13c0,.21-.61.15-.61.29.88.31,1.6,1.42,2.28,1.49a.33.33,0,0,0-.37.2h.46c.19.33.19.41,0,.51.74.82.18-.68.93.43-.09-.06-.09,0-.28-.1.84,1,2,1.64,2.71,2.61-.09.6-.84-.66-.83-.08a51.18,51.18,0,0,1,4.11,3.4l-.19-.26c.65-.32.66,1.13,1.5,1.5-.19-.11-.47.08-.37.07a21.31,21.31,0,0,0,3.2,2.62l-.27,0c.37.59,1.21,1.32,1.68,1.9.28,0,.56.35.56,0,.91,2.32,3.47,2.67,4.32,4.69-.18-.17-.52-.3-.39-.16l1.34,1.09c.12-.31,0-.29-.12-.71a2.08,2.08,0,0,1,1,.57c-.69-.4-.33.35-.21.7,0-.1.17-.09.22-.18.27,1,.53-.32,1.15.8l-.16.06a5.33,5.33,0,0,1,1.16.8c-.1.39-.47-.23-.69,0,.51.47,1.44.5,1.64,1.19-.27-.14-.58-.44-.85-.58a2.17,2.17,0,0,0,.64,1.16l0,0,.7,1-.13-.29c1.25,0,1.37,1.13,2.62,1.54-1.2-.41-.36.09-.7.31.14.29.38.69.21.68.62.17.48.83,1.36,1.05-.06.11.42.43.11.56.58.44,0-.27.18-.34a2.63,2.63,0,0,1,1,.91,7.26,7.26,0,0,0,.47.73.94.94,0,0,0-.09.64l0,.16,0,.21c0,.15-.05.28-.07.4a6,6,0,0,0-.07.68,5.78,5.78,0,0,1-.25,1.46c-.38.29-.26-.52-.26-.52a3.63,3.63,0,0,0-.84,1.67c0-.17-.19-.09-.4,0-.21.48.25.52-.23,1.06a1.93,1.93,0,0,1-.21-.7c-.18.61-.24,1.26-.43,1.88-.27.06-.12-.49-.15-.76-.23.69-.66,1.76-.45,2.12l.32-.36c-.1.24-.33,0-.3-.21,0-.68.51-.75.64-.72l-.13.44c.87-.09.71-1.69,1.16-2.5l.31.59,0-1c.21-.11.54-.1.41.34.53-.47.09-.61.61-1,.07,0,.08,0,.07.06l.15-.65c0,.17.39.08.14.4.79-.9.47-1.85,1-2.06v.1a3.41,3.41,0,0,0,.22-.77c0-.13,0-.15-.12-.16s-.31-.06-.32-.54a6.37,6.37,0,0,0,1-.53,1.66,1.66,0,0,0,.15-.33H65c-.12-.13-.36-.41-.17-.44-.75-.37-.07.16-.57,0-.33-.83-1.69-1.43-1.38-2-.41,0,.38.7-.37.25.3-.65-.78-.61-1.08-1.34.4-.09.76.53.46-.21-.72.11-.91-1.09-1.43-1.44-.35.32-1.09-.8-1.93-1.41a19.86,19.86,0,0,0-1.76-2.34l.07,0c-.46.21-1.11-.55-1.69-1,.22-.18.39-.17.76,0l-.48-.48a1.28,1.28,0,0,1-.78-.36l.37-.14c-.66-.62-1.59-1-2.24-2-.28.19,0,1.31-1,.6.09-.16.27-.41.55-.23-.09-.06-.37-.16-.47-.37l.56.13c-.28-.46-.37,0-.65-.33.19-.17-.09-.35.09-.45.1.06.19.34.38.38a2.49,2.49,0,0,1-.61-1.15c-.08.13-.25.24-.52,0-.65-.62,0-.43-.28-.9-.28,0-.56-.56-.84-.3-.19-.19-.1-.35-.1-.49-.45-.21-1.58-1.5-1.49-.84l.06.1-.06,0h0c-1.36-.8-2.11-2.38-3.3-3.33l.09-.09A14.74,14.74,0,0,0,43,142.5c-.19-.19-.29-.61-.1-.64a3.35,3.35,0,0,1-1.28-1.22c.65.33,0-.31.62.39-.56-.71-.56-1-1.49-1.43.46,0-.19-.77-.57-1l.29.61a7.58,7.58,0,0,1-.94-.94l.46-.15c-.94-1.66-3-1.7-3.36-3.3-.56-.13.56.85,0,.79A3.67,3.67,0,0,1,36,134.5a.42.42,0,0,1,0-.35c0-.07,0-.11,0-.12,0-.24-.45-.15-.9-.34,0-.07,0-.18.21-.31-.22,0-.87.07-.44-.57.61-.52,1.06-.14.91.18-.06.08-.14.09-.18.06-.07.15-.11.28.16.25l-.11-.11a1,1,0,0,0,.22-.09l.1,0,.2-.15c.25-.19.45-.3.44-.12.35-.55,0-.37-.37-.09.92-.61,1.21-1.19,2.1-1.88-.18.07-.43.06-.3-.07,1.3-1,.31-.71,1.05-1.55.61-.27.23.56.89-.37.59-.37.39.19.28.47.52-.93,1.49-1.21,1.94-1.58l-.29.47a3,3,0,0,1,.55-.65H42c.26-.18.45-.37.54-.27.08-.37-.54-.19-.28-.84.41-.18.79-1,1.18-.83-1,.83.39.18-.35,1a2,2,0,0,1,.57-.56c.06,0,0,.09,0,.17,1.15-.63.09-.74,1-1.65,0,.28.53.09.64-.09-.38.36-.45-.1-.23-.56.73-.47.56-.74.88-1l-.41.3c0-.29.28-.56.64-1,.16.09-.29.47-.09.37.18-.74,1.34-.74,1.79-1.57.41-.19.34.28.67.09.51-.93,1-.55,1.59-1.48-.44,0-.42.09-.1-.65L49,120.29l.48-1.11c-.38.37-.66.92-.92,1.11.2-.56.22-.46-.14-.47.84-.18.83-1.2,1.64-1.57l.52.56c1.14-.65,1.32-1.86,2.61-2.88l-.46.28c-.06-.37.68-.75,1-1.21.15.22.45,0,.72,0-.15-.11.86-.83.61-1.3l.75-.27c1-.84.56-1.58,1.52-2.42-.07.47.46.19,0,.93.3-.3.61-.53.49-.66.28-.07.59-1.08,1-1.18,0-.21-.1-.44.25-.76.07,0,.09.09.09.09s.4-.65-.09-.55c1.49-.36,2.55-2.62,3.84-2.94.59-.71,1.33-1.56,1.91-2.16,0,.09.09.09,0,.18,1-.65,0-1,1.11-1.76.77-.19-.34.65.07.46.72.47,1.05-1.2,2-1.48l-.12.19c.69-.28,1-1.4,1.78-2.14,0,0,0,.09.09.1a9.77,9.77,0,0,1,2-2.94c.06.4-.27.51.26.46.22-.25,0-.27-.08-.34s-.21-.2.12-.58c.16-.08.37-.2.6-.34-.08-.25-.18-.58,0-.7l.7.71-.23.24a2.38,2.38,0,0,0,.45-.24,3,3,0,0,0-.77-.8,4.72,4.72,0,0,1-.82-.73l.26,0c-.2-.2-.38-.36-.54-.5a3.71,3.71,0,0,0-.41-.32,4.6,4.6,0,0,0-.53-.28,3.78,3.78,0,0,1-1.2-.91v.21c-.92-.23-.27-.68-1.1-1l.2-.53a23.81,23.81,0,0,1-2.39-1.64,11,11,0,0,1,2.22,1.16c-.37-.39-1.28-1.28-1.65-1.3.18.12.46.23.55.43a3.28,3.28,0,0,1-1.15-.54,8.6,8.6,0,0,1-1.27-1.13c.1-.3-.06-.67-.4-1.14a21.37,21.37,0,0,0-1.71,1.54l-.48.42a2.35,2.35,0,0,1-.36.26,1.21,1.21,0,0,1-.61.21c-1.07,1.59-2.74,2.52-4.23,4.1,1.09,0-.44.46.21.93-.32.39-.46.52-.53.51l-1.42.76c-.42.09.21-.47.06-.56-.83.74-.57.09-1.24.46.31.1,0,.56-.51.94l.89-.38c-.8,1.4-1.42.48-2.23,1.88l.17-.52c-.46.67-2.09,2.09-2.2,3.09-.17,0-.45,0-.24-.27-1.43,1.29-2.54,3.5-3.87,4.27l0-.24c-.21.3-.18.7-.64.88,0-.07,0-.24-.16-.13a3.11,3.11,0,0,1-.84,1.17l.13-.44c-1.5,1.14-1.66,2.4-2.67,3.61-.4-.41-1.57.5-2.16,1l0-.08c-1.59,1.49-2.28,3-3.55,4.54-1.32.45-3.18,2.81-4.85,4,.29-.14.28.35.06.65-.41.25-.64,1.2-1,.78l.13-.12c-.61-.11-1.2.68-1.75,1.2l.39.57c-2.1.7-3.41,3.94-4.81,4.07-.21.46-.63.88-.85,1.33l-.24-.27a24,24,0,0,0-2.6,2.52l.05-.42c-.67.64-.08,1.57-.67,2.19l-.56-.2c-.54.54-1.15,1-1.73,1.5-.1.08-.41.37-.64.59l-.72.72A13.65,13.65,0,0,0,15.3,135l.44.33a1.35,1.35,0,0,1-.69-.33l.06-.07L15,135c.47.49,1.3,1.44,2.08,2.21.19.19.39.38.54.51a1.75,1.75,0,0,0,.28.17.27.27,0,0,0,.39-.14c-.33.36,1.14,1.21,1.91,1.68l-.35.15a3.11,3.11,0,0,1,1.77.76c.14.21-.06.36-.22.06.44.71.69.21,1.25,1l-.42-.1a1.42,1.42,0,0,0,1.12.61c.47.27,1.06,1.19.91,1.5a1.11,1.11,0,0,1,1,.49c0,.14-.22.06-.31,0,.82,1.15,1.77,1.17,2.19,2.09a.27.27,0,0,0,0,.27,18.41,18.41,0,0,1-1.32-1.39c-.23.23.36.91-.47.73a6.47,6.47,0,0,1,2.44,1.54.29.29,0,0,1,0,.16l-.09,0a1.22,1.22,0,0,0,.43.36,5.19,5.19,0,0,0,.44.58c-.12.26.62.83.93,1.15.23-.28.6.17.43-.43,0,.07-.09,0-.31-.22a.93.93,0,0,0-.16-.11h0l-.8-.77a1.3,1.3,0,0,1,1,.76c.33,0,.68,0,.86,0,.07.79.71,1.81.61,2.15,1.1.82,2.36,2.17,3.45,2.3.34.21.18.45.2.63-.2-.11-.38-.31-.54-.32.67.42,1.67,1.57,2.14,1.37.54.84-.7-.08.3.81l-.23,0c1.33,2.4,3.9,2.17,5.27,4.93-.1-.19-.15-.28-.12-.36,2,2.66,5.15,4.57,7,7.38.56.76.85.62,1.42.86l-.13.42,1,.37c1.22.75,1,2.37,2.7,3.17l0-.35c.41.49,1.52,1.3,1.23,1.44.08,0,.34,0,.42.23l-.14.16,1.35.84c.74,1-.71.44.5,1.71.51.4,1.73.89,1.65.62s-.38-.57-.25-.73l.49.35c.51-.35,1.27-.46.53-1.79l-1-.46,0-.44.61.59c-.15-.53-.53-.58-.9-.71a.62.62,0,0,0-.07-.52l-1.11-.3c.08-.26.64,0,.26-.58-.52-.15,0,.69-.73.26-.15-.53.11-.59-.46-.83.06-.17.21-.15.42,0-.49-.23-1-.89-1.42-.85-.12-.6-1.28-1.16-.84-1.52a3.36,3.36,0,0,1-1.29-.63c1.08.12-1.21-1.27-.54-1.63-.88,0-1.8-1.42-2.83-2,.08,0,.23,0,.28.12a4,4,0,0,1-.61-1.11c-.42.3-1.19-.31-1.79-.46-.2-.89.76-.09.92-.59-.27.32-1.24-.66-1.3-.23-.2-.63-.25-.47-.17-1-.52.38-.47-.31-1.09-.38-.38-.83.27-.58-.53-1.1C45,160,45.78,160.45,45.78,160.45Zm-16.55-15h0l.34.31Zm-1.33-1.32c.15.17.35.38.56.59,0,.13-.18.17-.31,0C28.28,144.76,28,144.39,27.9,144.12Zm1,4.59c-.24-.18-.26-.3-.24-.38.1.1.23.2.4.34h.05A.5.5,0,0,1,28.92,148.71Z"/><path class="cls-1" d="M29.64,148.75l.1.06a1.34,1.34,0,0,0-.07-.18h-.15Z"/><path class="cls-1" d="M48.38,147.48l0,0a.29.29,0,0,1,0,.09S48.38,147.5,48.38,147.48Z"/><polygon class="cls-1" points="27.05 127.67 26.98 127.61 26.92 127.78 27.05 127.67"/><path class="cls-1" d="M54.85,155.62a.2.2,0,0,0,0,.16A.44.44,0,0,0,54.85,155.62Z"/><path class="cls-1" d="M58,158.82l.36.53A3.91,3.91,0,0,0,58,158.82Z"/><path class="cls-1" d="M60.28,161.35a.36.36,0,0,0,.15-.06h0Z"/><path class="cls-1" d="M44.11,121.31a.39.39,0,0,0,.08-.1C44.36,120.94,44.23,121.11,44.11,121.31Z"/><path class="cls-1" d="M33,133.77l-.12-.08a2.08,2.08,0,0,1,.22-.41c-.21.18-.38.34-.38.41A.57.57,0,0,0,33,133.77Z"/><polygon class="cls-1" points="56.65 108.22 56.65 108.23 56.73 108.15 56.65 108.22"/><path class="cls-1" d="M33.77,132.56a3,3,0,0,0-.72.72A4.08,4.08,0,0,0,33.77,132.56Z"/><path class="cls-1" d="M59.91,172.36l-.09.14s0,0,0,0Z"/><path class="cls-1" d="M59.86,172.54l0,.18C59.86,172.65,59.89,172.58,59.86,172.54Z"/><path class="cls-1" d="M59.73,173.11l.09-.39C59.76,172.84,59.68,173,59.73,173.11Z"/><path class="cls-1" d="M62.09,168.37l-.09-.1A.2.2,0,0,0,62.09,168.37Z"/><path class="cls-1" d="M62.67,167.12c-.17.28-.62.61-.75,1.06l.08.09C61.92,168,62.73,167.5,62.67,167.12Z"/><path class="cls-1" d="M63.66,162.46l.78.91a.7.7,0,0,1,0-.35c0-.06.09-.1.38.17l-.28-.42a1,1,0,0,0-.11-.15s-.06,0-.08.09S64.18,163,63.66,162.46Z"/><path class="cls-1" d="M61.26,159.8c.48.39.13-.15.21-.19C61.1,159.43,61,159.38,61.26,159.8Z"/><path class="cls-1" d="M42.83,141.59l.27-.19C42.73,141.1,43,141.49,42.83,141.59Z"/><polygon class="cls-1" points="38.1 139.32 38.29 139.8 38.66 139.74 38.1 139.32"/><polygon class="cls-1" points="37.68 135.59 37.86 135.71 37.21 135.23 37.68 135.59"/><path class="cls-1" d="M62.47,106.93l-.39-.19C61.91,107,62.18,107.4,62.47,106.93Z"/><path class="cls-1" d="M69.82,92a1,1,0,0,0-.64-.86C69.45,91.47,69.63,91.88,69.82,92Z"/><polygon class="cls-1" points="28.26 121.84 28.43 121.47 28.01 122.06 28.26 121.84"/></svg>