<svg id="圖層_1" data-name="圖層 1" xmlns="http://www.w3.org/2000/svg" viewBox="0 0 799 481"><defs><style>.cls-1{fill:#202020;}</style></defs><title>vi5</title><path class="cls-1" d="M583.15,445.46c-.06-.16-.33-.17-.4.18l.32.38Z"/><path class="cls-1" d="M581.59,447.47c.06.46.24,1,.7.92-.25-.53,0-.57-.36-1.16.07-.35.34-.54.47-.43-.07-.16.27-.5.08-.77a1.65,1.65,0,0,0-.63,1.56C581.72,447.68,581.66,447.52,581.59,447.47Z"/><path class="cls-1" d="M554.7,443.72l.11.15A.83.83,0,0,0,554.7,443.72Z"/><path class="cls-1" d="M550.17,426.1c.07.15.14.2.18.19S550.19,426.06,550.17,426.1Z"/><path class="cls-1" d="M546.82,423.32l.2.1C547,423.35,546.88,423.3,546.82,423.32Z"/><path class="cls-1" d="M554.7,443.72c-.11-.13-.15-.22-.27-.37C554.33,443.45,554.56,443.58,554.7,443.72Z"/><path class="cls-1" d="M579,451.9a1.28,1.28,0,0,0,.31-.15l-.3.08A.17.17,0,0,1,579,451.9Z"/><path class="cls-1" d="M563.45,440.63l.24.1a1,1,0,0,0,.2-.11A2,2,0,0,1,563.45,440.63Z"/><path class="cls-1" d="M568.68,446.25c0-.16-.4-.1-.58-.1a.5.5,0,0,1,.36.26A.58.58,0,0,0,568.68,446.25Z"/><path class="cls-1" d="M577.16,450.59l.2-.06Z"/><path class="cls-1" d="M557.92,442.29a.24.24,0,0,0-.12-.09A.19.19,0,0,0,557.92,442.29Z"/><path class="cls-1" d="M591,445s0,0,0-.06S591,445,591,445Z"/><path class="cls-1" d="M583.91,442.46l.1-.06a1.17,1.17,0,0,0,0-.2Z"/><path class="cls-1" d="M542.85,421v0C542.91,421.23,542.89,421.14,542.85,421Z"/><path class="cls-1" d="M570.7,384.92c-.24-.13-.14-.25.12-.39s.4-.27-.13-.39c.06.06-.2.24-.2.39S570.45,384.85,570.7,384.92Z"/><path class="cls-1" d="M578.75,451.88a3,3,0,0,1-.31,0A1.19,1.19,0,0,0,578.75,451.88Z"/><path class="cls-1" d="M570.69,384.14h0l-.12,0Z"/><path class="cls-1" d="M547.4,411a.63.63,0,0,0-.2-.1S547.26,410.92,547.4,411Z"/><path class="cls-1" d="M541.87,417.27l0-.28A2.43,2.43,0,0,0,541.87,417.27Z"/><path class="cls-1" d="M551.47,405.25a1.07,1.07,0,0,0,0-.63l0,.1A.63.63,0,0,1,551.47,405.25Z"/><path class="cls-1" d="M549,398.91a.66.66,0,0,0,0,.14l.1.17Z"/><path class="cls-1" d="M601.67,431.61a1.24,1.24,0,0,1-.17.4C601.69,431.81,602.17,432.61,601.67,431.61Z"/><path class="cls-1" d="M578.92,451.7a.24.24,0,0,1-.17.18l.21-.05A.1.1,0,0,0,578.92,451.7Z"/><path class="cls-1" d="M548.61,404.86a.18.18,0,0,0,0-.13s0,0,0-.06a.31.31,0,0,0,0,.07S548.62,404.82,548.61,404.86Z"/><path class="cls-1" d="M603,399.23c0,.1,0,.2,0,.3A.53.53,0,0,0,603,399.23Z"/><path class="cls-1" d="M547.29,402a1.77,1.77,0,0,0,0-.61.33.33,0,0,0-.13-.07Z"/><path class="cls-1" d="M601.49,432h0Z"/><path class="cls-1" d="M602.85,439.66c.63-.79-.08-.66-.16-1,.46-.75.64-.9.81-.91s.31.15.55-.15a2.15,2.15,0,0,0-.3-1.66c-.13-.23-.3-.43-.43-.63l-.18-.27a.75.75,0,0,1-.1-.17c.05-.07,0-.18.17-.11-.66-.52-1-2-1.77-2.59a.43.43,0,0,1,0-.16.94.94,0,0,1-.53.41c-.19-.38-.61-.59-.4-.87.1.24.23.21.37.28l-.32-.35c.23-.56.4.49.7.34a14.5,14.5,0,0,1-1.36-1.9.83.83,0,0,1,0-.15.22.22,0,0,1,.28,0c.23.28.47.94.45.25l.29,1c.29-1,.23.59.58-.38a4.71,4.71,0,0,0-.6-1.19.15.15,0,0,1-.07-.26c-.21-.15-.37-.06-.55-.26a1.66,1.66,0,0,1,.93-1.42,1.43,1.43,0,0,0,.47-.33.57.57,0,0,0,.08-.13l0-.08v0a.86.86,0,0,0-.07-.14,1.06,1.06,0,0,1-.22-.48.25.25,0,0,1,.09-.22l.13,0,.33,0a3.2,3.2,0,0,0-.13.58c1.21-.38.45-.92,1.86-1.07-.17.27-.92.51-.72.49,1,.07.5-.47,1.15-.7l.28.36c.53-.21,1.06-.48,1.61-.75l.82-.42.42-.21.11,0,.17-.07.33-.15a2.43,2.43,0,0,0,1-.77c0,.17-.17.59.33.23a2.8,2.8,0,0,0,.42-1.14l.12-1.07c.07-.53.15-1.07.22-1.61.15-1.07.31-2.15.42-3.14l-.39-.75c0-.18.15-.33.24-.15.1-.77-.25,0-.41-.39s.18-.59.31-.31l-.35-1.28c-.06-.24-.12-.48-.19-.73l-.09-.39-.11-.58a2.29,2.29,0,0,0-1-1.57c-.46-.31-1.17-.55-1.34-.73h.29c-1-.5-1.39.33-2.2-.34h.2c-1.2-.52-2.56-.93-3.72-1.37a.69.69,0,0,1-.42-.45s0-.08,0-.15l-.07-.31a4.58,4.58,0,0,1-.08-.62c-.35-.05-.53-.77-.72-1.29-.05-.17-.08-.3-.41-.38a.68.68,0,0,1,.33-.28,3.59,3.59,0,0,0,.36-.32,7.06,7.06,0,0,0,1-1.3c.25-.44-.11-.88.08-1.47l.37.16,0-.93c.21-.09.44-.21.66-.33a6.88,6.88,0,0,0,.13-.77c-.1.3-.36.56-.45.48.1-.56.29-1.21.42-1.77s.24-1,.34-1a6.42,6.42,0,0,0-1.27-2.51c.17,0,.46.34.71.64-.52-.59-.49-.67-.42-.79s.15-.22-.44-.66c0,.2-.25.07-.33.1a5.65,5.65,0,0,0-1.73-2.06l.32-.07a15.77,15.77,0,0,0-1.94-1.76l-1.09-.83a5.15,5.15,0,0,0-1.85-.9c.93.44.47.78-.19.63a4,4,0,0,0-.21-.47c-.51.18.72.28-.27.44-.87-.09-.65-.51,0-.62a4.38,4.38,0,0,0-1.21.2c-.1-.12.18-.23.24-.39a10.7,10.7,0,0,1-1.38.3l-.34.1-.25.1a.64.64,0,0,0-.33.34l-.1-.1c-1.6.76-2.27,1.24-3.56,1.88a.3.3,0,0,1-.1.34,1.49,1.49,0,0,1-.18.17.67.67,0,0,0-.06.12l-.07.2a.41.41,0,0,1-.32-.12l-.13-.12-.36-.22a11.06,11.06,0,0,0-1.65-.83c-.1,0-.17,0-.17,0-.23,0-.15.23-.4.31.12-.29-.1-.6.21-.56a.76.76,0,0,1-.08-.11l-.16-.41-.32-.75c-.22-.49-.49-1-.94-1.9-.06.25,0,.49-.18.41-.17-.31-.14-.8,0-.81l.06.08a5.22,5.22,0,0,1-.64-1.61c-.15-.39-.23-1.73-.95-2.38a2.61,2.61,0,0,0-1.3-.66l-.67-.15-.43-.09a3.53,3.53,0,0,0-1.56,0l.1,0c-.63.08-1.26.17-1.88.28-.86-.08.52-.25-.12-.46-2,.53-3.22,0-4.85.54a1,1,0,0,0-.35-.13,4.09,4.09,0,0,0-.63,0,2.36,2.36,0,0,0-1.92,1,4.28,4.28,0,0,0-.51,1.21c-.08.25-.16.51-.23.76a7.51,7.51,0,0,1-1.07,2.5l.25,0c.06.48-.3.45-.46.73.18,0,.35-.37.38-.08-.18.66-.41,1.36-.63,2a.48.48,0,0,1-.18.24,2.54,2.54,0,0,1-.5.19c-.64.22-1.35.46-2,.65a.31.31,0,0,1-.21-.09l0,0,0,0-.14-.08-.54-.32c-.73-.42-1.46-.84-2.2-1.24a1.19,1.19,0,0,0-1.22,0,.86.86,0,0,1-.53,0,8.36,8.36,0,0,1-1.08-.54,3.62,3.62,0,0,1,.82-.18,6,6,0,0,0-3.13-.05,5.6,5.6,0,0,0-1.43.59,4.83,4.83,0,0,0-.64.44l-.44.35a15.47,15.47,0,0,0-3,3.13c0-.19,0-.28.15-.48-.65.21-1.51,1.64-1.31,1.81-.3.32-.24-.07-.51.06a.69.69,0,0,0-.18.16,2.59,2.59,0,0,0-.21.3,3.43,3.43,0,0,0-.3.72,3,3,0,0,1-.4,1.09c-.07.07,0-.26,0-.43a9.63,9.63,0,0,0-.17,1.49c0,.53.12.9.26.61a3.18,3.18,0,0,0,.19,1.08,3.64,3.64,0,0,0,.22.49l.17.3a3.94,3.94,0,0,1,.52,1.2c.59.3.57,1.65,1.16,1.56-.42.12,0,1.08.39,1.69l.22.15c-.18,0-.18.15-.43.08.1-.14-.21.83.15.77a2.05,2.05,0,0,0-.59.84,2.79,2.79,0,0,0-.14.47c0,.14-.1.37-.07.37.06.21-.15.46-.39.06l0,0-.09,0-.18.1-.36.18-.71.37-1.41.69c-.94.45-1.8.85-2.76,1.27-.07-.6,2-.79,1.77-1.34-.42.21-.78.41-1.12.62s-.56.36-1.18.66a2.44,2.44,0,0,0-1.21,1.18,3.78,3.78,0,0,0-.23.88c0,.16,0,.33-.07.49l-.06.37c-.07.24-.13.16-.17,0a4.39,4.39,0,0,1-.12-.57l0,.8c0,.24,0,.47,0,.71l-.09,1.38a10.08,10.08,0,0,0,.12,2.64c-.06,0-.12-.18-.17-.36,0,.34-.06.79.2.75l-.08-.33c.36-.54.84,1.3,1.07,1.34-.81-.52-.07,1.67-1.09.85.06.22.22.49.39.42,0,.33-.11.45-.35.13a2.71,2.71,0,0,0,.3.83,2.49,2.49,0,0,1,.28.66c.05.14.09.38.21.68-.12.07-.26-.2-.44-.31a2.57,2.57,0,0,0,.88.92,14.75,14.75,0,0,0,1.44.62.53.53,0,0,0-.06.1s-.06,0-.26,0l.33.1.27.07.52.11,1,.15a6.42,6.42,0,0,1,2.12.63c-.66.36.47.37.4.85l.9.17-.27-.34a4.25,4.25,0,0,0,.56.15,1.87,1.87,0,0,1,.35,0,.55.55,0,0,1,.44.45,1,1,0,0,0-.35-.16,1.1,1.1,0,0,1,.25.31l.32.65c0-.27-.12-.61-.14-.8.5.55.52-.34.8.66-.13-.18.29.74.19,1.23h0l.28.3a.73.73,0,0,1,.17.78c-.16.1-.52-.13-.63-.07a.32.32,0,0,1,.13.3.46.46,0,0,1-.05.21l-.12.33a2.2,2.2,0,0,0-.27,1.21c0-.19-.25-.31-.32-.28l.16.44c-.25.28-.32.31-.48.17-.53,1,.71-.06-.09,1,0-.11,0-.09,0-.3a9.47,9.47,0,0,0-.75,1.62c-.1.27-.21.54-.31.8a8.21,8.21,0,0,1-.42.85l-.16.31c-.28.16-.26-.09-.14-.4a2.58,2.58,0,0,0,.18-.5c0-.09,0-.14-.17-.08s-.15.34-.22.52a1.94,1.94,0,0,0,0,1.74,8.54,8.54,0,0,0,1.07,1.24,20.57,20.57,0,0,1,1.71,1.81l-.18-.28c.67-.28.62,1.18,1.48,1.57-.19-.11-.47.07-.38.06a13.67,13.67,0,0,0,3.41,2.5h-.28a3.26,3.26,0,0,0,.46.46c.23.17.48.38.74.54a1.66,1.66,0,0,0,.9.16,2.92,2.92,0,0,0,.81-.22,4.18,4.18,0,0,1,.39-.37c.07-.09.08-.16-.09-.22a5.64,5.64,0,0,0,3-1.21,11.62,11.62,0,0,1,1.33-.82,3.41,3.41,0,0,1,.71-.29l.37-.09a1.1,1.1,0,0,1,.26,0c-.12.06-.28.31-.14.24a1.29,1.29,0,0,1,.43-.24,1,1,0,0,1,.5.06c0-.32-.06-.24-.3-.56.18-.15.65-.08,1.06.08-.79-.11-.18.45.06.73,0-.11.13-.16.14-.25.62.83.37-.5,1.36.3l-.12.12a5.3,5.3,0,0,1,.64.11.92.92,0,0,1,.53.4c-.16.34-.41-.24-.63,0a4.18,4.18,0,0,1,.72.49,1.13,1.13,0,0,1,.34.9c-.19-.23-.35-.68-.52-.86a2,2,0,0,0,.07,1.29V445l.22,1.17v-.32c1.17.51.69,1.62,1.75,2.5-1-.84-.39,0-.77.05,0,.37.23.89.06.82a1.92,1.92,0,0,1,.59.72,1.41,1.41,0,0,0,.93.67c-.06.13.56.42.26.6.81.38-.07-.29.1-.39.65.19,1.25.62,2,.93a3.82,3.82,0,0,0,2.45.09c1.41-.2,1.66-.65,2.92-.92.44.17-.33.47-.33.47a3.35,3.35,0,0,0,1.89-.14c-.12.12,0,.2.24.32.54-.1.26-.48,1.13-.43a1.25,1.25,0,0,1-.57.6,3.7,3.7,0,0,0,1.18-.48,1.69,1.69,0,0,0,.64-1c.28-.08.1.68-.11,1a3,3,0,0,0,.65-1.59,1.4,1.4,0,0,0-.06-.93l-.27.39c.07-.25.33,0,.32.18a1,1,0,0,1,0,.41,1.47,1.47,0,0,1-.19.34.37.37,0,0,1-.35.14l.11-.54a.64.64,0,0,0-.44.37,2.24,2.24,0,0,1-.37.64,1.86,1.86,0,0,1-.74.42,2.91,2.91,0,0,1-.8.2l.32-.58-.89.55c-.21-.12-.38-.4.06-.53-.67-.2-.56.25-1.14,0-.07,0,0-.07,0-.1l-.63.2c.12-.12-.13-.37.27-.32-1.14-.24-1.83.47-2.26,0l.09,0c-1.58.13-.15.39-1.37.81-.25-.33-.51-.66-.75-1l-.17.38c-.16,0-.45-.11-.37-.26-.61.14.07.2-.32.37a10.12,10.12,0,0,0-1.23-.63c-.41-.22-.68-.5-.54-.79-.41.06.42.65-.35.28.14-.33,0-.46-.29-.63a1.13,1.13,0,0,1-.58-.78c.4,0,.58.6.49-.09-.35,0-.48-.33-.5-.67a2.88,2.88,0,0,0-.19-1.07c-.45.13-.63-1.19-1.12-2.11,0,0,0-.12,0-.31a3.9,3.9,0,0,0-.22-.85,2.69,2.69,0,0,0-.76-1,3.83,3.83,0,0,0-.53-.33l-.35-.21.06-.06c-.35.36-1.23-.1-1.93-.28.13-.25.3-.31.7-.28l-.62-.25a6.63,6.63,0,0,1-1.11,0,1.59,1.59,0,0,1,.25-.33,1.63,1.63,0,0,0-1,.15c-.28.15-.62.38-.78.49a4.51,4.51,0,0,1-1.43.67c.08.33,1.22.44.21,1.16-.11-.14-.29-.39,0-.6-.08.07-.27.3-.5.32l.32-.48c-.54.1-.14.34-.54.5-.1-.24-.36,0-.39-.24s.38-.06.48-.22a2.53,2.53,0,0,1-1.28.18c.09.11.14.31-.16.48-.8.41-.41-.14-.94,0-.12.25-.71.33-.56.68a.43.43,0,0,1-.48-.09.88.88,0,0,1-.6.34c-.25,0-.42-.1-.35.23l.07.07h-.06a4.73,4.73,0,0,1-1.7-1.29,17.86,17.86,0,0,0-1.64-1.62l.09-.09a26,26,0,0,0-2.06-1.65c-.18-.2-.23-.62,0-.63a3,3,0,0,1-1.1-1.31c.56.36,0-.31.54.43l-.27-.49c-.06-.13-.06-.17-.1-.25s-.24-.2-.41-.49c.24.12.38-.13.49-.28a1,1,0,0,0,.07-.24c-.12.13-.17.11-.27.19l-.11.07,0-.1c0-.1.08-.2.18-.4l.27-.49.29.39c1.26-1.43.62-3.37,2-4.26-.07-.56-.62.81-.75.27a3.61,3.61,0,0,1,.84-.94,2.13,2.13,0,0,0,.65-1.06,1.7,1.7,0,0,0-.36-1.61,1.71,1.71,0,0,1-.8-1.07c-.09.2-.41.49-.89-.29-.23-.73.08-1.42.52-.76.09.18.08.29,0,.3.15.23.35.54.38.17l-.19,0a1.92,1.92,0,0,0-.07-.42,3,3,0,0,0-.26-.67c-.22-.44-.47-.72-.22-.65-.43-.33-.58-.31-.51-.21s.28.36.47.67a2.52,2.52,0,0,0-.79-.83,3.68,3.68,0,0,0-.83-.36,10.09,10.09,0,0,1-1.31-.52c.13.14.23.36.06.3-1.48-.73-.77,0-1.84-.28-.52-.43.4-.45-.72-.64-.59-.37,0-.43.3-.45a2.78,2.78,0,0,1-1.33-.47,2.54,2.54,0,0,1-.45-.32.71.71,0,0,0,0-.12.53.53,0,0,0,.11-.09c0,.06-.09,0-.11,0a.85.85,0,0,0-.15.28c0-.07-.09-.12,0-.21a1.57,1.57,0,0,0-.32.24.4.4,0,0,1-.44.14.71.71,0,0,0,0-.29c0-.12-.16-.62.11-.72,0,.65.09.51.21.49s.27-.07.32,0h0a.07.07,0,0,1,0-.06,1.85,1.85,0,0,1,0-.34c0-.05.08,0,.12.11.23-1.23-.53-.5-.62-1.75.24.14.41-.32.36-.52,0,.5-.37.27-.57-.19.14-.82-.16-.88-.15-1.31l-.08.49c-.23-.16-.21-.57-.27-1.14.18-.05.12.52.2.31-.4-.64.44-1.41.24-2.29.18-.4.43,0,.56-.35a1.47,1.47,0,0,1,.12-1l.09-.2c0-.07,0-.14.06-.13s0-.07,0-.15c-.28-.08-.29.06-.44-.43-.06.33.06.43,0,1.13l-.16-.57c-.05-.14-.12-.22-.17-.37,0,.22.07.93,0,1.2-.19-.54-.12-.48-.4-.26a1.05,1.05,0,0,0,.19-.94,1.13,1.13,0,0,1,0-.45.35.35,0,0,1,.35-.26l.54.61a.8.8,0,0,0,.21,0,.31.31,0,0,0,.13-.05,2.6,2.6,0,0,0,.34-.16l.68-.39a5.53,5.53,0,0,1,1.66-.7l-.53.05c.1-.36.93-.38,1.39-.67,0,.25.38.23.65.3-.09-.16,1.13-.38,1.1-.91a1.71,1.71,0,0,0,.5,0,3,3,0,0,0,.57-.14,1.94,1.94,0,0,0,.83-1,1.71,1.71,0,0,0,.12-.47,1.91,1.91,0,0,0,0-.34,2.3,2.3,0,0,1,.21-1.4c.11.46.49,0,.35.86.17-.39.36-.72.2-.8.12-.1.13-.34.21-.74s.08-.93.18-1.22c-.14-.26-.36-.31-.57-.9,0-.08.12,0,.12,0s-.06,0-.11-.08-.39-.45-.46-.07c.16-1.52-1.61-3.26-1.48-4.58-.13-.23-.22-.36-.29-.52a2.33,2.33,0,0,1-.16-.53,2.29,2.29,0,0,1,.08-1.05c.06.07.11.05.06.15a.75.75,0,0,0,.1-.77c-.07-.22-.07-.51.45-.92.74-.24-.27.67.12.45.74.41.92-1.25,1.88-1.53l-.11.18c.65-.27.89-1.36,1.74-2,0,0,0,.09.08.1a4.22,4.22,0,0,1,.82-1.3,2.64,2.64,0,0,1,1.25-.81c-.22.38-.34.27-.11.55.35-.12-.28-.54.58-.71.3.15.84.43.78.8a2.3,2.3,0,0,0-.64-.09c.3.47.72.09,1.15.39l-.14.16c1.27.53,1.51.08,2.83.75l-.07-.21c.94-.1.49.55,1.38.56v.56l.42.09a3.47,3.47,0,0,0,.72.13,2.73,2.73,0,0,0,1.59-.38l.51-.3a2.12,2.12,0,0,1-1.63,1,3.28,3.28,0,0,1-1.28-.11,3,3,0,0,0,1.27.33,2.4,2.4,0,0,0,1.33-.36.72.72,0,0,0,.25-.25c-.09.06-.15.13-.27.21a1,1,0,0,1-.54.17,4.76,4.76,0,0,0,.47-.35,5.28,5.28,0,0,1,1.87-1.19.34.34,0,0,0,.24.27.93.93,0,0,0,.59-.09,2.59,2.59,0,0,0,1.37-1.5,2.56,2.56,0,0,1,.9-1.32,10,10,0,0,1,.88-2.68l.61-1.35.07-.18,0-.05.05-.09a.3.3,0,0,1,.12-.17c-.35-.26-.34-.28-.24-.36s.24-.08,0-.45l.11,0,.28-.05a.24.24,0,0,1,.15,0c.52.09,1,.2,1.53.32s-.44.21-.38.38c1,0,.47.3,1.17.46-.16-.27.34-.43.94-.33l-.86-.33c1.48-.48,1.29.61,2.77.22l-.47.23c.76-.15,2.77.15,3.59-.36,0,.09,0,.31-.07.36.12,0,.22,0,.34.05a.91.91,0,0,1,.16.13l0,0,.09.17.17.34a7.55,7.55,0,0,1,.94,2.55l-.23-.07c.17.31.55.46.52.95-.09,0-.23-.08-.19.08a3,3,0,0,1,.69,1.27l-.34-.31a5.53,5.53,0,0,0,.19.68,3,3,0,0,0,.52.95,2.87,2.87,0,0,0,1.63,1,10.93,10.93,0,0,1,2,.36.41.41,0,0,0,.07.39,1,1,0,0,0,.16.21,4.37,4.37,0,0,0,.4.28,2.41,2.41,0,0,0,2.21.17l.29-.11,0,.09.45-.2.35-.17.64-.36c.42-.25.8-.51,1.17-.77l1.12-.8.59-.41.56-.37a4.37,4.37,0,0,1,1.44.48l.52.44.62.56a8.59,8.59,0,0,1,1,1.17c-.14-.28.34-.29.63-.09.24.4,1.16.62.74.93l-.11-.12a1.12,1.12,0,0,0,.3.88c.21.28.55.61.65.76.2-.11.4-.22.61-.32,0,.89.33,1.63.33,2.51a2.33,2.33,0,0,1-.24,1.16,1.9,1.9,0,0,1-.79.91c0,.5-.3,1-.35,1.54l-.32-.18c-.3.53-.52.92-.75,1.37a3.45,3.45,0,0,0-.08,3l.16.35c-.12-.08-.24-.13-.37-.23.34.89,1.42.68,1.77,1.47l-.41.44a5.89,5.89,0,0,0,.29.63,4.62,4.62,0,0,0,.45.64,3.63,3.63,0,0,0,1.29.92,7.58,7.58,0,0,0,2.87.87.33.33,0,0,1-.4.13c.7.27,2.63,1.33,2.62.53,0,.12,0,.21.2.29a1.26,1.26,0,0,0,.28.11l.16,0h.06a1.78,1.78,0,0,1,.35,0,.4.4,0,0,1,.3.16,2.3,2.3,0,0,0-.34.12,1.12,1.12,0,0,1,.27,0c.26.05.4.32.58,1.07,0,.24-.27.23-.21-.09-.11.8.4.58.27,1.55l-.25-.34a1.45,1.45,0,0,0,.42,1.18c.17.51-.07,1.55-.41,1.65a1,1,0,0,1,.34,1.05c-.13.05-.2-.12-.23-.21a4.54,4.54,0,0,0,0,1.63,4.93,4.93,0,0,1,0,.66,1,1,0,0,1-.18.57.33.33,0,0,0-.22,0c.06-.46.12-.87.16-1.16a1.75,1.75,0,0,1,.08-.49c-.33,0-.47.81-.86.1.09.35.24.83.33,1.32.12.19.21.52,0,.57a.31.31,0,0,1-.12-.07v0c-.08,0-.11.05-.14.12h0l-.12,0-.29.08c-.19-.22-1,.2-1.44.34.16.33-.41.47.2.57-.07,0,.07-.07.34-.18l.17-.1,0,0,1-.39a1.29,1.29,0,0,1-1.09.53c-.14.3-.3.61-.39.76-.74-.27-1.94-.14-2.2-.38-.3.17-.64.32-1,.48l-1.09.51a2.56,2.56,0,0,0-1.15,1.1,1.49,1.49,0,0,0-.17,1.11c-.07.39-.35.34-.51.43,0-.23.14-.48.09-.62a13.75,13.75,0,0,1-.41,1.4,3.93,3.93,0,0,0-.14.66c0,.19,0,.43.1.5-.25.58-.3.43-.36.28s0-.13-.08,0a1.9,1.9,0,0,0,0,.79l-.17-.25a2.43,2.43,0,0,0,.16,1.31,8.93,8.93,0,0,0,1.71,2.54,7.64,7.64,0,0,1,.87,1.31,5.66,5.66,0,0,1,.32.79,2.51,2.51,0,0,1,.14.82.44.44,0,0,1,0-.27c.06.3.21.52.16.79s-.28.42-.44.67c-.5.66-1,1.33-1.54,2a12.35,12.35,0,0,1-3.72,3.24,1.69,1.69,0,0,0-.67.61c-.12.21-.07.34-.21.59a3.76,3.76,0,0,1-.25-.31.81.81,0,0,1-.55.53.89.89,0,0,1-.28-.07,2.62,2.62,0,0,1-.67-.45l-.66-.61a3.07,3.07,0,0,0-1.83-.87l.09.33c-.55-.31-1.86-.71-1.64-.94-.08,0-.3.16-.47-.07l.08-.19-.39-.09-.47-.12a1.59,1.59,0,0,0-.94,0,1.42,1.42,0,0,1-.59,0c-.19-.05-.16-.24-.3-.33s-.39-.1-1,.14-1.48,1.26-1.21,1.29.67-.14.77,0l-.51.33c.13.6,0,1.34,1.45,1.17l.8-.73.41.15-.78.34a.77.77,0,0,0,.61-.14c.14-.11.3-.29.29-.38l.05.09a.87.87,0,0,0,.13.19.71.71,0,0,1,.39-.51c-.06.23-.25.4-.16.58.54,0-.17-.66.6-.49.32.45.1.59.71.63,0,.17-.14.21-.38.17.54,0,1.25.51,1.62.33.31.52,1.59.66,1.3,1.15a3.39,3.39,0,0,1,1.43.16c-.31.07-.31.17-.17.28l.29.18.62.31c.69.38,1.42.35,1.28.67a7.39,7.39,0,0,0,1-.6c.18-.15.37-.31.57-.46s.21-.15.31-.24l.2-.18a6.76,6.76,0,0,0,1.38-1.4c0,.08-.05.24-.15.28a5.09,5.09,0,0,1,1.19-.58c-.28-.43.38-1.21.53-1.82.91-.22.08.77.59.92-.31-.26.68-1.29.24-1.33.64-.24.46-.29,1-.24-.4-.5.31-.5.33-1.14.81-.48.61.2,1.07-.68C603.22,438.83,602.85,439.66,602.85,439.66Zm6.07-16.44h0a1.72,1.72,0,0,1-.47.45A1.8,1.8,0,0,0,608.92,423.22Zm.56-2.32c0,.25-.08.56-.12.89-.14.08-.25-.07-.22-.29C609.21,421.62,609.34,421.18,609.48,420.9ZM605.75,422c.26-.15.38-.11.44-.06-.13.06-.28.12-.47.22l0,.05A.5.5,0,0,1,605.75,422Z"/><path class="cls-1" d="M605.41,422.61a.54.54,0,0,1-.11.06l.2,0,.06-.14Z"/><path class="cls-1" d="M554.83,443.9l0,0a.32.32,0,0,1,0,.09A.15.15,0,0,1,554.83,443.9Z"/><polygon class="cls-1" points="602.28 401.6 602.2 401.56 602.2 401.74 602.28 401.6"/><path class="cls-1" d="M563.81,442.57a.34.34,0,0,0,.09.14S563.86,442.63,563.81,442.57Z"/><path class="cls-1" d="M566.34,445.06l.09.64A3.6,3.6,0,0,0,566.34,445.06Z"/><path class="cls-1" d="M567.37,448.41a.32.32,0,0,0,.17,0h-.17Z"/><path class="cls-1" d="M539.44,417.53a.66.66,0,0,0,0-.14C539.35,417.07,539.38,417.29,539.44,417.53Z"/><path class="cls-1" d="M549.64,428.43a4.71,4.71,0,0,1-.36-.42C549.36,428.29,549.44,428.5,549.64,428.43Z"/><path class="cls-1" d="M548.61,404.88h0v0Z"/><path class="cls-1" d="M549,427.31a1.49,1.49,0,0,0,.28.7A2.5,2.5,0,0,0,549,427.31Z"/><path class="cls-1" d="M582,449.5l.07-.15a.07.07,0,0,1-.05,0Z"/><path class="cls-1" d="M582,449.31l0-.18C582,449.21,582,449.28,582,449.31Z"/><path class="cls-1" d="M582.09,448.73l-.05.4A.52.52,0,0,0,582.09,448.73Z"/><path class="cls-1" d="M577.42,451.91l0,.14A.18.18,0,0,0,577.42,451.91Z"/><path class="cls-1" d="M576,452a4.2,4.2,0,0,0,1.33.13l0-.11C577.17,452.26,576.32,451.8,576,452Z"/><path class="cls-1" d="M570.66,449.78a5.2,5.2,0,0,0,.89.5c-.13-.2-.27-.44.15-.34-.49-.37-.44-.31-.45-.16S571.23,450.12,570.66,449.78Z"/><path class="cls-1" d="M568.88,447.36c.25.46.19-.08.27-.07C568.91,447,568.84,446.89,568.88,447.36Z"/><path class="cls-1" d="M549.42,438.4l.29-.17C549.38,437.91,549.61,438.31,549.42,438.4Z"/><polygon class="cls-1" points="547.33 434.31 546.95 434.64 547.13 434.97 547.33 434.31"/><polygon class="cls-1" points="550.71 432.68 550.67 432.89 550.9 432.12 550.71 432.68"/><path class="cls-1" d="M549.75,399.79l-.3.3C549.65,400.35,550.09,400.22,549.75,399.79Z"/><path class="cls-1" d="M559.19,392.44a1,1,0,0,0,.89.58A6.4,6.4,0,0,0,559.19,392.44Z"/><path class="cls-1" d="M599.75,396.77l-.23-.16a3.65,3.65,0,0,1,.29.37Z"/><path class="cls-1" d="M579.33,404.9c.08-.09.15-.33,0-.32l-.22.37Z"/><path class="cls-1" d="M578.87,403.91a1.29,1.29,0,0,0-.47.87c.24-.36.22-.19.5-.61.13,0,.15.19.08.33.07-.09.13.14.28-.09,0-.36-.21-.43-.48-.23A.58.58,0,0,1,578.87,403.91Z"/><path class="cls-1" d="M567.59,404.54h.1A.17.17,0,0,0,567.59,404.54Z"/><path class="cls-1" d="M562.19,409.51a.1.1,0,0,0,0-.12C562.16,409.45,562.15,409.5,562.19,409.51Z"/><path class="cls-1" d="M561.16,410.42l.06-.06C561.17,410.37,561.14,410.39,561.16,410.42Z"/><path class="cls-1" d="M567.59,404.54h-.23C567.42,404.66,567.5,404.56,567.59,404.54Z"/><path class="cls-1" d="M577.17,404.55a.33.33,0,0,0,.11-.1.17.17,0,0,1-.1,0Z"/><path class="cls-1" d="M570.47,402.93l0,0a.54.54,0,0,0,0-.18Z"/><path class="cls-1" d="M573,402.34c-.06,0,0,.35,0,.51,0-.15.05-.23.1-.26A1.76,1.76,0,0,0,573,402.34Z"/><path class="cls-1" d="M576.9,403l.07,0Z"/><path class="cls-1" d="M568.73,403.49l-.08-.1A.39.39,0,0,0,568.73,403.49Z"/><path class="cls-1" d="M585.38,411.11l0,0S585.37,411.09,585.38,411.11Z"/><polygon class="cls-1" points="585.34 407.95 585.38 407.96 585.53 407.84 585.34 407.95"/><path class="cls-1" d="M559.82,412.52h0C559.81,412.44,559.81,412.48,559.82,412.52Z"/><path class="cls-1" d="M568.65,431.2c-.1-.4.53-.22.33-.7C569,430.64,568.45,430.88,568.65,431.2Z"/><path class="cls-1" d="M577.12,404.49H577A.1.1,0,0,0,577.12,404.49Z"/><path class="cls-1" d="M569,430.5h0l0,0Z"/><path class="cls-1" d="M559.4,418.16a.52.52,0,0,0,.15-.07A.45.45,0,0,0,559.4,418.16Z"/><path class="cls-1" d="M560.18,414.09l-.07.08A.23.23,0,0,0,560.18,414.09Z"/><path class="cls-1" d="M560.2,420.21c0,.06-.06.09,0,.15l0,0S560.16,420.29,560.2,420.21Z"/><path class="cls-1" d="M560.8,422.33l.06-.07,0-.06Z"/><path class="cls-1" d="M587.1,416.27a1.73,1.73,0,0,1,.32-.11C587.16,416.2,587.06,416,587.1,416.27Z"/><path class="cls-1" d="M577.2,404.35c0,.08-.05.13-.08.14h.06A.22.22,0,0,0,577.2,404.35Z"/><path class="cls-1" d="M563,419.69V420A.71.71,0,0,0,563,419.69Z"/><path class="cls-1" d="M581.58,427.45l0-.07S581.57,427.41,581.58,427.45Z"/><path class="cls-1" d="M563.31,420.77a.54.54,0,0,0-.19.23h.1Z"/><path class="cls-1" d="M587.42,416.16Z"/><path class="cls-1" d="M586.29,414.42c0,.26.48,0,.76,0,.2.3-.31.22-.53.38.17.17.62.25.63.41a.35.35,0,0,1-.21,0c.42.17.1.64.6.85a.31.31,0,0,1-.12.05,2.87,2.87,0,0,1,.65-.09c0,.13.32.23,0,.29,0-.08-.12-.08-.22-.11l.14.13c-.44.15-.16-.18-.49-.15.16.24.55.55.42.76-.44,0-.16-.47-.54-.2l.15-.31c-.68.26,0-.19-.69.06-.11.39.24.43.11.82.24.09.36,0,.6.07.42.61-1.11.39-.58.83.28.13.83.24.5.51l-.48-.17c-.09.37.7.33.29.68-.17-.11-.1-.33-.17-.28-.43.19.24.22.2.43l-.44,0a8.49,8.49,0,0,1,.14,1.39c-.12-.06-.23-.18-.39-.11.07.62-.46,1.13-.9,1.51l.25.35s-.2,0-.24-.08c-.23.12.21.12.29.28s-.26,0-.33-.08c.14.48.06,1.3-.5,1.42l-.05-.13c-.28.17.44.74,0,.77l0-.08c-.52.46-.79,1.26-1.56,1.24.31.46-.65.27-.17.87-.54,0-.55-.2-1.13-.07-.13.06.12.51,0,.69L582,427c0,.16,0,.33.05.49l-.38-.32-.08.17c.07,0,.22.07.27.17-.12.3-.69.12-.8-.05-.1.21-.24.4-.36.6-.07-.15,0-.25,0-.38-.09.51-.26-.34-.34.13.08.06.09.22.12.29-.24-.14-.53,0-.73.21l-.07-.27c-.43.11-.81.5-1.3.63.21.07.32.53.19.62l-.19-.38c0,.28.2.1.1.47-.2,0-.26-.42-.2-.58l-.18.21a3,3,0,0,1,0-.36c0,.29-.48-.3-.5.16l0-.12c-.49.1-.68.31-1.08.37,0,.36-.13.3-.22.61-.33-.06-.69-.33-1.06-.3-.26.19-.07.31-.18.53,0-.33-.4-.29-.21-.54a4.58,4.58,0,0,0-1.15.29c.05.14.11.2.07.31s-.23-.16-.2-.31l0,0c-.35.23-.7,0-1-.34s-.57-.53-.9-.25l0,0-.6.19c-.22-.13.21-.19.1-.44-.71.36-.81-.34-1.37-.2,0-.52-.25-.62-.57-.71s-.67-.19-.71-.57l-.1.21c-.22.13-.06-.19-.11-.28-.08.16,0,.24-.12.31a2.66,2.66,0,0,1-1.26-1c-.3-.49-.59-1-.84-1.43-.2-.32-1,.62-1-.11l.43-.17c-.9-.3-1-1.28-1.69-1.74.11,0,.22-.07.26,0,.19-.29-.3-.52-.51-.42,0-.13.19-.13.28-.26s-.52-.2-.28-.41c0,0,.11,0,.15,0-.18,0-.17-.47-.46-.24,0-.32-.35-.47-.22-.76-.43,0,0-.54-.53-.42.56-.15.31-.61,0-.74.19,0,.15-.2.4-.18a.34.34,0,0,0-.48-.28c.6-.48-.68-.71.19-1a6.8,6.8,0,0,1-.47-.88,7.87,7.87,0,0,1-.24-.89c.58,0,0,.64.65.62-.21-.52-.75-.89-.53-1.42.09-.13.24.1.33.16-.17-.57.17-1,0-1.55.06,0,.1.07.14.13,0-.1.13-.2-.13-.25l0,.11c-.41.08-.7-.56-.89-.64.68.35.31-.44,1.16.08a.36.36,0,0,0-.3-.22c.08-.08.19-.08.36.07,0-.36-.34-.33-.24-.63.12,0,.15.11.28.19-.18-.22-.39-.47-.18-.68.06,0,.17,0,.14.12.15-.42-.33-1,.13-1.36.43.38.25-.08.69.12v-.3l-.26,0c.12-.2-.1-.57.16-.67a1.29,1.29,0,0,0,.08.26,3.16,3.16,0,0,1,.16-.43l-.3.12c-.08-.34-.53-.29-.24-.5,0,.08.15-.22.45-.17h0c-.06-.19-.13-.4.08-.48s.41.34.52.38c-.26-.33.25-.51,0-.9a.94.94,0,0,0,.29.28l-.19-.28c.15,0,.2,0,.34.14.26-.23-.54-.32-.07-.45,0,0,0,.06,0,.14.38-.21.38-.73.76-.89.41.27-.15.32.23.52.31-.41.39-1.2.89-1.42l-.11,0c-.37-.58.52,0,.53-.39,0,.08.16.36.13.29.33-.14.49-.54.84-1l0,.19c.25,0,.52-.19.76-.23,0-.18.11-.22-.08-.41.54.27.76,0,1-.24s.47-.57.91-.25c-.07,0-.12.2-.06.18l.45-.31c-.13-.27-.12-.15-.3-.34a.46.46,0,0,1,.25-.41c-.18.26.14.46.28.59,0-.08,0-.19-.07-.28.41.43-.11-.6.36-.34l0,.15c.12-.1.21-.33.38-.32.13.32-.12.19-.07.47.2-.07.3-.74.56-.44-.08.11-.21.14-.28.26.28.35.29.24.45.27h0l.39.14-.11-.1c.14-.93.52-.23.83-.86-.31.6,0,.32,0,.72.1.09.25.21.21.32.15-.33.29.23.51-.24,0,.13.18,0,.14.33.22-.1,0-.22,0-.38.35-.44.78.52,1.28,0,.44-.21.57-.62,1-.77.11.22-.17.44-.17.44a.43.43,0,0,0,.58.1.42.42,0,0,0,0,.35c.16,0,.19-.44.37-.21a3,3,0,0,1-.26.46c.2-.07.44-.27.66-.33,0,.23-.19.3-.29.42.23-.05.59-.05.76-.37l-.11-.16c.08,0,0,.3-.11.35-.25.21-.24-.18-.22-.31l.16-.05c0-.75-.6,0-.87-.11l.23-.5-.38.38c0-.15,0-.45.12-.51-.17-.3-.22.16-.35-.16a.07.07,0,0,1,0-.09l-.24.13c.06-.11,0-.38.14-.29-.35-.36-.66.33-.77-.09l0,0c-.55.14-.09.39-.51.82l-.22-1-.07.39s-.16,0-.13-.2c-.21.26,0,.17-.1.42-.26-.37-.71.17-.78-.45-.09.3.25.22,0,.44-.11-.68-.31.13-.57-.17.05-.35.3-.18,0-.47-.1.59-.49-.08-.69.06,0,.47-.43.24-.74.46,0-.16-.69-.12-1-.21v-.08c0,.46-.29.47-.49.64a.59.59,0,0,1,0-.56l-.23.07a.4.4,0,0,1-.18.36l-.05-.36c-.3.12-.46.58-.91.52.11.31.62.74.34,1.1-.08-.16-.21-.44-.14-.55s-.06.18-.15.14l0-.34c-.21,0,0,.27-.13.3-.09-.24-.16-.13-.22-.33,0,0,.15.05.16-.06a.66.66,0,0,1-.54-.2c.07.13.13.32,0,.39-.27.14-.23-.23-.45-.27,0,.2-.24.12-.08.47-.08,0-.17-.11-.25-.19-.07.22-.65.39-.29.66h0v0h0c-.24.59-1,.37-1.36.81l-.07-.11c-.16.31-.49.49-.49.83-.07.06-.32-.05-.38-.19-.12.24,0,.36-.43.43,0-.32-.19-.09.07-.29-.3.13-.5,0-.5.51a.25.25,0,0,0-.49,0h.32a1.12,1.12,0,0,1-.32.33l-.26-.36c-.41.06-.45.44-.5.75s-.08.6-.58.53c.14.32.38-.15.57.19-.22.19-.91.07-1,.14-.44.21.3.68-.06.94.16,0,.53.22.49.55-.2.2-.74,0-.75-.26a.08.08,0,0,1,.13,0c0-.11,0-.25-.19-.24l.11.11c-.21,0-.42.4-.58.2,0,.27.17.21.32.1-.37.23-.29.52-.6.8.1,0,.29,0,.26.07-.43.42.14.35,0,.72-.3.1-.48-.3-.45.14-.24.16-.4-.11-.47-.25.13.45-.45.55-.58.74a1.85,1.85,0,0,1,0-.23.63.63,0,0,1,0,.32h.32c-.08.09-.12.18-.24.14.16.17.51.08.7.39-.19.09,0,.47-.38.4.28-.41-.4-.07-.34-.48a.31.31,0,0,1-.1.28s-.07,0-.09-.08c-.48.34.37.33.24.78-.2-.12-.44,0-.41.09.05-.19.39,0,.52.21-.23.25.06.34,0,.49l.12-.16c.21.11.15.24.18.45-.18,0-.08-.2-.17-.15.34.29-.52.43-.28.79-.18.13-.43,0-.55.08.25.39-.37.36-.16.77.31-.09.23-.11.52.18-.07-.21-.1-.42-.15-.64l.39.44c0-.18-.14-.41-.07-.51.22.21.15.18.41.12-.49.2.2.51-.1.77l-.77-.06c-.35.44.38.81.17,1.38l.14-.19c.29.07,0,.35.18.53-.25,0-.33.11-.49.2.19,0,0,.43.53.43l-.31.29c-.1.49.78.43.78.86-.3-.08-.44.15-.7-.11,0,.14,0,.29.19.26-.14.11.41.33.2.51.12,0,.39,0,.4.16a.27.27,0,0,1-.12,0c.12,0,.21.21.46,0-.67.64.41,1.15-.12,1.74a8.74,8.74,0,0,1,.56.84c-.08,0-.12,0-.11,0-.06.47.76-.08.7.43-.27.4-.3-.11-.38.09-.74.44.36.42.08.93l-.08-.05c-.12.36.56.35.71.71a.3.3,0,0,0-.11.06,2,2,0,0,1,1.22.51c-.33.11-.24,0-.46.23.13.1.4-.36.66-.17-.09.2-.07.48-.31.73a1.51,1.51,0,0,1-.21-.23c-.28.42.27.3.31.47l-.16.12c.37.32.75,0,1.06.38l.08-.15c.53-.15,0,.37.42.29l-.29.43a4.36,4.36,0,0,1,1.1.2,2.53,2.53,0,0,1-1.12.06c.13.12.49.39.73.26-.09,0-.24,0-.24-.08a1,1,0,0,1,1,.1c-.65.75.6.74.4,1.54.77,0,1,.84,1.8,1.09.07-.8.21.08.5-.66.18,0,.23.06.23.11l.3.65c0,.27-.22.1-.27.27.35.21,0,.39.21.67a.26.26,0,0,1,.46-.16l-.18-.44c.66-.23.24.77.92.55l-.25.18a6,6,0,0,1,.7.08.88.88,0,0,0,.77-.35c0,.1.06.32-.08.35a2.26,2.26,0,0,0,1.12,0c.38-.1.72-.17,1,.05l-.06.19c.13-.05.24-.34.39-.14,0,.08-.06.19,0,.21s.35-.31.52-.21l-.15.22c.68.24,1-.55,1.55-.69,0,.58.58.69.86.75v.08c.82,0,1.26-.7,1.89-1.06.59.46,1.52-.19,2.31-.18-.14-.05-.16-.42-.07-.52s.26-.53.46-.06l-.06,0c.33.41.59.12.84,0l-.28-.62c.55.28.92,0,1.21-.37s.53-.62,1-.39c0-.24.2-.37.23-.61l.22.29a2.35,2.35,0,0,0,1-.82l.09.27c.27-.22-.42-1-.23-1.26l.45.31c.37-.43,1.16-.55,1.1-1.33.06.06.18.17.14.26.17-.21,1-.64.26-1,.41.27.36-.48.33-.84l.29.23c-.26-.47-.35-.52-.3-.9.08-.05.28.07.15.13.3-.16-.2-.36.12-.57l.15.22c.16-.24,0-.28-.13-.54s.31-.44.62-.36c-.17-.11-.35-.36-.2-.48a.28.28,0,0,1,.19.15c.41-.36-.11-.8.31-1a.34.34,0,0,0,.22,0,2.07,2.07,0,0,1-.27.62c.31.12.48-.17.82.23-.12-.33-.54-.92-.29-1.17h.12l0,0c.06-.06,0-.13,0-.21a.57.57,0,0,0,.17-.22c.29,0,.23-.32.28-.48-.36-.06-.26-.25-.59-.13,0,0,0,0,0,.14a.11.11,0,0,0,0,.08l0,0a2.22,2.22,0,0,1-.07.38c-.14-.16-.26-.32,0-.44l-.53-.34c.54-.09.89-.44,1.21-.45-.11-.51,0-1.17-.64-1.51-.07-.14.22-.14.32-.18s0,.17.14.22c-.14-.28,0-.8-.5-.87.22-.33.44.19.36-.27l.15.06c.38-.46.06-.85-.24-1.2s-.59-.7-.19-1.27c0,.08-.07.12-.15.15a2.91,2.91,0,0,0-.32-1.71,3,3,0,0,1-.35-1.72c0-.35-.3-.26-.58-.34l.32-.23-.55-.1c-.49-.25.47-1.19-.39-1.4l-.19.21c-.06-.22-.49-.48-.22-.62,0,0-.26.09-.2-.05l.17-.12c-.2-.08-.39-.16-.59-.22-.13-.41.69-.44.34-.95-.21-.13-.87-.11-.91,0a.35.35,0,0,1-.11.4l-.2-.09c-.49.37-1,.68-1.08,1.27h.48l-.18.26-.16-.18c-.13.27.11.19.31.17a.76.76,0,0,0-.19.3l.64-.11c-.17.16-.45.17-.45.4.3,0,.36-.42.63-.33-.14.28-.35.37-.06.38a.36.36,0,0,1-.31.11c.24,0,.28.28.59.18-.21.3.34.39-.17.66a.85.85,0,0,1,.61.13c-.72.09.19.47-.5.73.64-.1.52.48,1,.65,0,0-.16,0-.14,0,0,.19-.14.3-.2.45.48-.16.69.08,1,.13-.4.37-.61.05-1,.27.38-.14.5.24.81.07-.24.25-.1.19-.48.38.62-.14.14.13.55.17-.24.31-.55.2-.31.42C586.56,414.6,586.29,414.42,586.29,414.42Zm.84,6.4h0c0-.05,0-.1,0-.13S587.14,420.74,587.13,420.82Zm-.15.54a1,1,0,0,0,.08-.23c.13,0,.24.08.22.13S587.1,421.31,587,421.36Zm2.78-.54c0,.12,0,.14-.13.13a.6.6,0,0,0,0-.19l0,0A.54.54,0,0,1,589.76,420.82Z"/><path class="cls-1" d="M589.34,420.52a.05.05,0,0,1,0,0,.19.19,0,0,0-.09,0l.1.06Z"/><path class="cls-1" d="M567.7,404.55h0l0,0Z"/><polygon class="cls-1" points="581.97 426.97 582.02 427.04 582.01 426.95 581.97 426.97"/><path class="cls-1" d="M571.24,404.42a.27.27,0,0,0,.07.08S571.27,404.45,571.24,404.42Z"/><path class="cls-1" d="M572.59,404.19l.21.11A1.08,1.08,0,0,0,572.59,404.19Z"/><path class="cls-1" d="M573.64,404.25a1,1,0,0,0,0-.16h0Z"/><path class="cls-1" d="M562.58,414.51s0,0,0,0S562.62,414.59,562.58,414.51Z"/><path class="cls-1" d="M563.7,409.72a1.12,1.12,0,0,1,.06.23C563.83,409.89,563.87,409.83,563.7,409.72Z"/><polygon class="cls-1" points="563.02 419.66 563.01 419.66 563.02 419.69 563.02 419.66"/><path class="cls-1" d="M563.63,410.14a.18.18,0,0,0,.13-.19C563.7,410,563.62,410.05,563.63,410.14Z"/><path class="cls-1" d="M578.05,404.78l0,0,0-.06Z"/><path class="cls-1" d="M578.11,404.75l.06,0S578.13,404.72,578.11,404.75Z"/><path class="cls-1" d="M578.31,404.67l-.14.06S578.26,404.76,578.31,404.67Z"/><path class="cls-1" d="M576.75,404.34l0,.13A.33.33,0,0,0,576.75,404.34Z"/><path class="cls-1" d="M576.33,404.32c.1,0,.21.31.36.25l0-.1C576.63,404.65,576.46,404.11,576.33,404.32Z"/><path class="cls-1" d="M574.58,402.6l.39.11c-.06-.15-.15-.34,0-.37C574.5,401.92,575.1,402.66,574.58,402.6Z"/><path class="cls-1" d="M573.35,402.47c.21-.09,0-.2,0-.28C573.21,402.33,573.18,402.37,573.35,402.47Z"/><path class="cls-1" d="M565.29,405.89l-.2-.27C565,405.77,565.17,405.72,565.29,405.89Z"/><polygon class="cls-1" points="565.31 408.23 565.55 408.27 565.38 408.01 565.31 408.23"/><polygon class="cls-1" points="562.9 407.4 562.91 407.31 562.83 407.62 562.9 407.4"/><path class="cls-1" d="M560.38,422.06l.37-.18C560.65,421.79,560.2,421.91,560.38,422.06Z"/><path class="cls-1" d="M564.14,427.42c-.1.19-.07.42.16.35C564.21,427.66,564.23,427.43,564.14,427.42Z"/><polygon class="cls-1" points="582.39 430.58 582.34 430.76 582.51 430.54 582.39 430.58"/></svg>