<svg id="圖層_1" data-name="圖層 1" xmlns="http://www.w3.org/2000/svg" viewBox="0 0 799 481"><defs><style>.cls-1{fill:#202020;}</style></defs><title>vi6</title><path class="cls-1" d="M708,368.58c0-.16-.31-.2-.41.15l.29.41Z"/><path class="cls-1" d="M706.32,370.47c0,.47.15,1.07.62,1-.21-.55,0-.58-.27-1.19.1-.35.38-.52.5-.4,0-.16.31-.47.14-.76a1.67,1.67,0,0,0-.74,1.51C706.43,370.7,706.38,370.53,706.32,370.47Z"/><path class="cls-1" d="M719.46,397.05l-.14-.19A1,1,0,0,0,719.46,397.05Z"/><path class="cls-1" d="M732.74,410.77c.06-.08,0-.13,0-.16S732.69,410.76,732.74,410.77Z"/><path class="cls-1" d="M730,413.13l.17-.15C730,413,730,413.07,730,413.13Z"/><path class="cls-1" d="M719.46,397.05l.34.48C719.92,397.46,719.65,397.26,719.46,397.05Z"/><path class="cls-1" d="M705.3,375.32a1,1,0,0,0,0-.33l-.08.29Z"/><path class="cls-1" d="M712.08,390.9l-.13-.12a1.81,1.81,0,0,0-.23,0Z"/><path class="cls-1" d="M706.55,386c.11.12.4-.11.55-.19a.51.51,0,0,1-.44-.06A.66.66,0,0,0,706.55,386Z"/><path class="cls-1" d="M703.29,376.24l0-.21C703.32,376.08,703.3,376.17,703.29,376.24Z"/><path class="cls-1" d="M716,394.48a.25.25,0,0,0,0,.14A.23.23,0,0,0,716,394.48Z"/><path class="cls-1" d="M712.41,375.23s0,0,0-.05S712.37,375.19,712.41,375.23Z"/><path class="cls-1" d="M707.29,368.17l.1.06.16-.13Z"/><path class="cls-1" d="M725,417.84l0,0C725.14,417.66,725.08,417.74,725,417.84Z"/><path class="cls-1" d="M714,450.71c-.72.31.46-1.13-.52-.58C713.61,450.15,713.21,451.23,714,450.71Z"/><path class="cls-1" d="M705.18,375.48a2.14,2.14,0,0,1-.12.28A1,1,0,0,0,705.18,375.48Z"/><path class="cls-1" d="M713.44,450.13h0l-.1.05Z"/><path class="cls-1" d="M714.63,429.57a.55.55,0,0,0,.22,0S714.76,429.53,714.63,429.57Z"/><path class="cls-1" d="M722.88,421.29l-.23.18A1.68,1.68,0,0,0,722.88,421.29Z"/><path class="cls-1" d="M710.92,434.39c-.12.1-.2.11-.3.3l.07,0A.43.43,0,0,1,710.92,434.39Z"/><path class="cls-1" d="M706.67,439.06l.14,0,.12-.16Z"/><path class="cls-1" d="M726.73,388a1.08,1.08,0,0,1,0-.44C726.63,387.81,725.88,387.25,726.73,388Z"/><path class="cls-1" d="M705.12,375.24a.23.23,0,0,1,.06.24c0-.07.05-.14.07-.2A.12.12,0,0,0,705.12,375.24Z"/><path class="cls-1" d="M712.87,436.51l-.72.71A7.93,7.93,0,0,0,712.87,436.51Z"/><path class="cls-1" d="M740.29,417.24l.13-.2A.35.35,0,0,0,740.29,417.24Z"/><path class="cls-1" d="M710.19,439.45a1.73,1.73,0,0,0-.57.25.76.76,0,0,0,0,.15Z"/><path class="cls-1" d="M726.73,387.54h0Z"/><path class="cls-1" d="M721.26,383.75c.7.65.65-.05,1-.11.94.66.16.61.28,1.05.61.39,1.31.43,1.69.8,0,.08,0,.18-.12.17.81.22,1.67,1.48,2.64,1.72a.21.21,0,0,1,0,.16,1,1,0,0,1,.34-.57c.33.28.79.31.7.65-.18-.18-.28-.11-.44-.12l.42.2c0,.61-.56-.29-.78-.05a9.1,9.1,0,0,1,2.16,1.44c-.19.42-1.26-.95-.86-.06l-.65-.82c.12,1.05-.44-.46-.39.58.92,1,1.28.86,2.2,1.87.39,0,.17-.33.56-.31,1.73,1,.38,1.84,1.83,2.37.47,0,.95-.29,1.5.61l-.59.14c.95.92,1,0,1.84,1.15-.31,0-.88-.57-.77-.4.4.9.66.22,1.17.68l-.19.43c1.09.89,2.45,1.7,3.66,2.68-.15,0-.44,0-.26.31a25.9,25.9,0,0,1,4.3,4.33l.79.2c.12.12.12.34-.07.27.45.6.19-.15.56,0s.26.53,0,.44a12,12,0,0,1,4,3.2l-.28-.09a1.58,1.58,0,0,0,1,.54c.18.05.24,0,.35.05a.26.26,0,0,1,.18.25l-.13,0a5.11,5.11,0,0,0,.39.42l-.44.49-.72.79a9.33,9.33,0,0,1-1.93,1.62c.18.62-1.72,1.54-1.26,2.16a10.82,10.82,0,0,0-2.46,1.57c-.36.35-.15.87-.5,1.38l-.31-.26-.25.9h-.65l-.31.5c.17-.15.46-.24.52-.14-.47.79-1.69,1.45-1.85,1.33L737.9,420c-.09-.15.11-.45.23-.73-.47,1.12-.45-.13-.88.9.16,0,.13.21.17.29a6.05,6.05,0,0,0-1.84,1.82l-.09-.31c-1.12,1.12-2.15,2.56-3.35,3.87.53-.38.78.05.46.46l-.45-.13c0,.43.49-.29.26.43-.48.46-.66,0-.5-.36l-.44.69c-.12,0,0-.23-.13-.37,0,.42-1.25.75-1.23,1.4L730,428c-1.19,1.32-1.63,2-2.59,3.1.25.27-.19.63-.26,1.15a25,25,0,0,0-2.65,2.36c-.47.79.06.41-.06.85-.29-.17-1.12.8-.85.15a26.4,26.4,0,0,0-2.38,3.12c.24-.07.44-.2.44,0-.19.3-.64.51-.72.36l0-.09c-1.1,1.95-4.1,3.09-4.76,4.84l0-.1-.94,1.58c-.6.58.15-.53-.42-.22-.9,1.82-2.12,2.23-2.93,3.66-1.56.27-2.91,3.31-4.49,4.13l.23.09c-.12.47-.45.3-.7.5.16.08.47-.21.38.07l-.56.69-.44.52a3.67,3.67,0,0,1-.36.34,3.53,3.53,0,0,1-.32-.46s0,0,0-.07l-.16-.18-.33-.36-.65-.73c-.86-1-1.72-1.94-2.59-2.86a1.25,1.25,0,0,0-.64-.4,1.23,1.23,0,0,0-.27,0l-.16.1c-.19.14-.52.08-.41-.2a2,2,0,0,0,.56-.05.9.9,0,0,1-.27-.07c0-.07,0-.19.14-.29l1.16-1.27a21.51,21.51,0,0,0,2.34-2.84c0,.19.06.27-.12.47.62-.22,1.44-1.56,1.26-1.74.31-.29.24.09.51,0,.52-.3.68-1.33,1.11-1.35.07,0,0,.18-.09.28.14-.38,1.21-1.27.7-1.24.82-.64,1.2-1.55,1.9-2,.06-.66,1.32-1.16,1-1.67.38.45,1.55-1,1.78-1.66,0,.28.51-.29.52.06.49-.55.87-1.12.56-1.23,1.43-.53,1.42-2.39,2.6-2.35,1.23-1.83,2.44-3.46,3.66-5,.39.45-1.42,1.65-.91,2,1.08-1.54,1.44-2.68,2.79-3.95.38-.3,0,.37,0,.56,1.08-1.54,2.47-2.63,3.35-4.07,0,0,0,.22-.12.37.21-.25.58-.5.36-.65l-.17.28c-.63.13.29-1.5.17-1.68.19.92,1.25-1.08,1.36.21.11-.19.2-.47,0-.55.25-.21.4-.21.33.16.68-1,.19-.84.91-1.62.09.09,0,.28,0,.46a3.31,3.31,0,0,1,1-1.72c0,.09.17.08,0,.28,1-1.16,1.28-2.39,2.59-3.47.08.74.53-.3.94,0l.51-.77-.42.11c.54-.58.76-1.34,1.33-1.74l-.25.57,1.19-1.43-1,.77c.5-.92-.56-.3.38-1.13-.1.18.5-.53,1.2-1a.25.25,0,0,1,0-.07h0a4.16,4.16,0,0,1-1.48-1.06c0-.21.6-.18.6-.32-.9-.26-1.67-1.34-2.35-1.38a.34.34,0,0,0,.36-.22l-.46,0c-.21-.33-.22-.4,0-.51-.78-.79-.14.69-1-.39.1.05.09,0,.29.09-.89-1-2-1.55-2.84-2.48.06-.6.87.62.84,0a46.56,46.56,0,0,1-4.27-3.2l.2.25c-.64.36-.72-1.09-1.57-1.42.19.1.46-.1.36-.08a20.35,20.35,0,0,0-3.33-2.47H721c-.4-.57-1.28-1.26-1.77-1.82-.28,0-.58-.31-.56.05-1-2.27-3.59-2.5-4.54-4.47.18.16.53.27.39.14l-1.39-1c-.1.32.05.29.16.7a2,2,0,0,1-1-.52c.71.37.32-.36.18-.7,0,.1-.17.1-.21.19-.32-1-.52.34-1.19-.74l.15-.07a5.26,5.26,0,0,1-1.19-.74c.08-.4.47.2.69,0-.53-.45-1.46-.43-1.7-1.1.28.12.6.41.88.53a2.08,2.08,0,0,0-.7-1.12l0,0-.75-.92.15.28c-1.25.09-1.43-1.06-2.7-1.4,1.22.34.36-.12.68-.35-.15-.28-.41-.68-.24-.67-.62-.14-.52-.81-1.41-1,.06-.12-.43-.41-.13-.56-.6-.41,0,.28-.17.35a2.65,2.65,0,0,1-1-.86,6,6,0,0,0-.51-.71,1,1,0,0,0,.07-.64c0-.06,0-.11,0-.16a2.07,2.07,0,0,0,0-.22,3,3,0,0,0,.06-.4c0-.25,0-.46,0-.68a5.82,5.82,0,0,1,.18-1.47c.36-.31.27.51.27.51a3.58,3.58,0,0,0,.77-1.71c0,.16.18.08.4-.05.18-.49-.28-.51.17-1.07a2,2,0,0,1,.25.69c.14-.62.17-1.27.33-1.9.27-.07.15.48.19.75.2-.7.57-1.79.34-2.14l-.3.38c.09-.25.33,0,.31.2,0,.67-.47.76-.6.75l.11-.46c-.87.14-.63,1.73-1,2.56l-.34-.57,0,1c-.21.13-.54.14-.43-.31-.51.49-.06.61-.56,1-.07,0-.08,0-.08-.06l-.11.65c-.06-.16-.39-.05-.16-.38-.75.93-.39,1.87-.94,2.1v-.1a3.2,3.2,0,0,0-.18.78c0,.13.05.15.12.16s.32,0,.36.52a6.27,6.27,0,0,0-.95.57,1.71,1.71,0,0,0-.13.34,5.24,5.24,0,0,0,.57,0c.12.13.38.4.18.44.77.32.07-.17.58-.06.37.81,1.75,1.34,1.47,1.94.41,0-.41-.69.36-.27-.27.66.81.57,1.15,1.28-.4.12-.79-.48-.46.24.72-.15,1,1,1.5,1.36.34-.33,1.13.75,2,1.32-.15.08,1.28,1.49,1.88,2.25l-.08,0c.46-.23,1.13.5,1.74.91-.21.19-.39.19-.76,0l.51.45a1.36,1.36,0,0,1,.79.33l-.36.15a11,11,0,0,1,2.33,1.85c.27-.2-.07-1.3,1-.65-.08.17-.25.43-.54.27.09,0,.38.13.48.33l-.56-.1c.3.45.37,0,.67.3-.18.18.11.34-.07.45-.1,0-.21-.32-.39-.35a2.49,2.49,0,0,1,.66,1.12c.07-.14.23-.26.51-.05.69.59,0,.43.33.88.28,0,.59.54.85.26.2.18.12.34.12.49.46.18,1.66,1.42,1.54.76l-.07-.1.06,0h0c1.4.74,2.23,2.28,3.46,3.17l-.08.1a15.65,15.65,0,0,0,2.22,1.51c.2.17.32.59.13.63a3.35,3.35,0,0,1,1.34,1.16c-.67-.3,0,.3-.64-.36.59.68.61,1,1.56,1.36-.46,0,.23.76.62,1l-.32-.6a7.17,7.17,0,0,1,1,.9l-.45.16c1,1.62,3.06,1.56,3.52,3.14.57.1-.6-.82,0-.79a3.73,3.73,0,0,1,.66,1.07.42.42,0,0,1,.06.35c0,.07,0,.12,0,.13,0,.23.45.13.91.29,0,.07,0,.18-.19.32.22,0,.86-.11.46.54-.58.56-1,.21-.91-.13a.14.14,0,0,1,.18-.07c0-.14.09-.28-.18-.23l.12.1a1.07,1.07,0,0,0-.22.1l-.1.06-.19.16c-.24.19-.44.32-.44.13-.32.57,0,.37.38.08-.89.65-1.15,1.25-2,2,.18-.07.43-.07.31.06-1.25,1.08-.28.73-1,1.6-.6.3-.26-.55-.87.41-.58.4-.4-.17-.31-.45-.47.95-1.43,1.28-1.86,1.67l.27-.48a3.47,3.47,0,0,1-.52.68l.43,0c-.25.19-.43.39-.52.3-.07.38.54.16.31.82-.4.21-.74,1.06-1.14.89,1-.88-.4-.16.31-1a2.07,2.07,0,0,1-.54.59c-.07,0,0-.09,0-.17-1.13.69-.06.74-.95,1.7-.05-.28-.52-.07-.63.12.36-.38.45.07.26.55-.7.5-.52.77-.83,1.08l.4-.32c.05.28-.25.57-.59,1.06-.17-.09.26-.48.06-.38-.14.75-1.3.81-1.71,1.66-.39.21-.34-.26-.67-.06-.46.95-1,.6-1.51,1.56.43,0,.41-.11.13.65l1-1.45-.43,1.14c.37-.39.62-1,.87-1.16-.18.57-.2.47.16.46-.83.22-.77,1.24-1.56,1.65l-.55-.53c-1.1.7-1.22,1.92-2.47,3l.46-.3c.07.37-.65.78-.92,1.25-.15-.21-.45,0-.72,0,.16.1-.82.87-.54,1.32l-.74.32c-1,.88-.48,1.6-1.4,2.48.05-.47-.47-.16,0-.92-.29.31-.58.56-.46.68-.28.08-.54,1.1-1,1.23,0,.21.12.43-.21.77-.08,0-.1-.09-.1-.09s-.37.67.12.55c-1.47.43-2.42,2.74-3.69,3.12-.56.74-1.26,1.62-1.81,2.26,0-.09-.09-.09,0-.19-1,.7.06,1-1,1.82-.76.22.31-.67-.09-.47-.74-.43-1,1.26-1.95,1.58l.11-.19c-.67.31-.88,1.44-1.67,2.22,0,0,0-.09-.09-.09a10.19,10.19,0,0,1-1.83,3c-.08-.4.24-.53-.28-.45-.21.27,0,.27.1.34s.21.19-.09.59a6.77,6.77,0,0,0-.59.36c.09.25.21.57,0,.7l-.73-.67.22-.25a2.3,2.3,0,0,0-.44.25,2.88,2.88,0,0,0,.81.77,5.58,5.58,0,0,1,.85.68l-.25,0c.2.19.39.34.56.48a2.69,2.69,0,0,0,.42.29c.2.11.38.18.55.26a3.78,3.78,0,0,1,1.24.85V453c.93.19.3.67,1.14,1l-.17.54A22.7,22.7,0,0,1,704.3,456,11.83,11.83,0,0,1,702,455c.38.36,1.34,1.21,1.71,1.21-.19-.11-.47-.2-.57-.4a3.37,3.37,0,0,1,1.17.48,9.45,9.45,0,0,1,1.33,1.07c-.09.31.09.67.45,1.11.41-.31,1-1,1.64-1.61.15-.15.31-.3.45-.45a2.57,2.57,0,0,1,.35-.27,1.17,1.17,0,0,1,.6-.25c1-1.63,2.61-2.64,4-4.29-1.09.05.41-.49-.27-.92.31-.41.45-.54.52-.54l1.38-.82c.41-.12-.2.47,0,.56.79-.79.56-.12,1.21-.53-.31-.08,0-.56.46-.95l-.87.41c.73-1.43,1.39-.54,2.14-2l-.15.53c.43-.69,2-2.19,2-3.2.16,0,.45,0,.25.26,1.36-1.35,2.37-3.61,3.66-4.46l.05.24c.2-.3.15-.7.59-.9.05.07.05.23.17.12a3.1,3.1,0,0,1,.79-1.21l-.11.45c1.44-1.22,1.54-2.49,2.49-3.74.42.39,1.55-.58,2.11-1.06l0,.07c1.52-1.57,2.14-3.06,3.33-4.7,1.3-.51,3-3,4.65-4.23-.28.16-.29-.33-.1-.64.41-.27.59-1.23.92-.82l-.12.11c.62.08,1.17-.73,1.69-1.28l-.42-.55c2.07-.8,3.22-4.09,4.61-4.3.19-.47.59-.9.79-1.37l.25.27a22.62,22.62,0,0,0,2.47-2.66l0,.43c.64-.67,0-1.58.56-2.22l.58.17c.51-.56,1.1-1.06,1.65-1.58.1-.08.39-.39.61-.62l.69-.75a12.56,12.56,0,0,0,1.14-1.48l-.45-.31a1.26,1.26,0,0,1,.7.3l-.05.07.06-.07c-.49-.47-1.37-1.38-2.18-2.12l-.56-.47a1.44,1.44,0,0,0-.29-.16.28.28,0,0,0-.39.16c.32-.38-1.2-1.15-2-1.58l.35-.18a3,3,0,0,1-1.81-.67c-.14-.2,0-.35.22-.07-.48-.68-.7-.17-1.3-1l.43.07c-.6-.58-.64-.44-1.16-.55s-1.11-1.13-1-1.46a1.06,1.06,0,0,1-1-.43c0-.14.21-.08.3,0-.86-1.12-1.81-1.09-2.29-2a.27.27,0,0,0,0-.27,17.21,17.21,0,0,1,1.38,1.33c.23-.25-.4-.89.44-.75a6.5,6.5,0,0,1-2.52-1.43.42.42,0,0,1,0-.16l.09,0a1.16,1.16,0,0,0-.44-.33,4.22,4.22,0,0,0-.47-.56c.11-.27-.66-.79-1-1.1-.22.29-.61-.15-.41.44,0-.06.09,0,.32.22l.17.1h0l.83.73a1.33,1.33,0,0,1-1-.72c-.32,0-.67,0-.85,0-.11-.79-.8-1.78-.71-2.12-1.15-.77-2.47-2.06-3.56-2.13-.35-.19-.2-.44-.24-.62.21.1.4.29.56.3-.69-.4-1.75-1.5-2.2-1.27-.58-.81.7.05-.35-.8l.23,0c-1.44-2.34-4-2-5.5-4.67.11.18.16.26.14.35-2.18-2.56-5.36-4.32-7.34-7-.6-.74-.88-.58-1.46-.79l.11-.43-1-.32c-1.25-.68-1.13-2.32-2.85-3v.34c-.43-.46-1.58-1.22-1.3-1.37-.08,0-.34.06-.43-.21l.13-.16-1.39-.78c-.78-.92.69-.48-.58-1.68-.53-.38-1.77-.8-1.68-.54s.41.55.29.71l-.52-.32c-.48.37-1.23.52-.43,1.81l1,.42,0,.43-.64-.56c.17.53.56.56.93.66a.69.69,0,0,0,.1.53l1.13.24c-.07.26-.65.05-.24.6.53.11,0-.7.71-.31.18.53-.07.6.51.81,0,.17-.21.16-.42.06.5.21,1,.85,1.46.79.15.59,1.33,1.09.91,1.47a3.57,3.57,0,0,1,1.33.57c-1.09-.07,1.26,1.21.61,1.6.88,0,1.87,1.33,2.92,1.83-.07,0-.23,0-.28-.11a4.17,4.17,0,0,1,.66,1.08c.4-.32,1.21.25,1.81.37.24.88-.75.13-.89.64.25-.33,1.27.6,1.31.17.23.62.28.45.22,1,.5-.4.48.29,1.1.33.43.81-.23.59.59,1.08C722,384.14,721.26,383.75,721.26,383.75Zm17.26,14.18h0l-.36-.29Zm1.4,1.25c-.16-.16-.37-.36-.6-.56,0-.13.18-.18.31-.05C739.5,398.56,739.78,398.91,739.92,399.18Zm-1.25-4.53c.25.16.28.28.26.37-.11-.09-.24-.2-.41-.32h-.06A.56.56,0,0,1,738.67,394.65Z"/><path class="cls-1" d="M738,394.65s-.06,0-.1-.07a.75.75,0,0,0,.07.18h.16Z"/><path class="cls-1" d="M719.3,396.82l0,0a.54.54,0,0,1,0-.1S719.29,396.8,719.3,396.82Z"/><polygon class="cls-1" points="741.56 415.57 741.63 415.63 741.68 415.46 741.56 415.57"/><path class="cls-1" d="M712.44,389a.28.28,0,0,0,0-.16A.34.34,0,0,0,712.44,389Z"/><path class="cls-1" d="M709.17,386l-.38-.52A4.45,4.45,0,0,0,709.17,386Z"/><path class="cls-1" d="M706.74,383.55a.3.3,0,0,0-.16.07h0Z"/><path class="cls-1" d="M724.83,422.75a.76.76,0,0,0-.08.11C724.6,423.14,724.72,423,724.83,422.75Z"/><path class="cls-1" d="M735.38,409.77l.12.07a2.62,2.62,0,0,1-.2.42c.2-.19.36-.35.36-.43A.57.57,0,0,0,735.38,409.77Z"/><polygon class="cls-1" points="712.95 436.44 712.94 436.43 712.87 436.51 712.95 436.44"/><path class="cls-1" d="M734.61,411a2.72,2.72,0,0,0,.69-.75A4.75,4.75,0,0,0,734.61,411Z"/><path class="cls-1" d="M706.57,372.54l.08-.15a.07.07,0,0,1,0,0Z"/><path class="cls-1" d="M706.6,372.35l0-.18A.22.22,0,0,0,706.6,372.35Z"/><path class="cls-1" d="M706.71,371.78l-.07.39C706.69,372,706.77,371.9,706.71,371.78Z"/><path class="cls-1" d="M704.58,376.62l.1.11A.17.17,0,0,0,704.58,376.62Z"/><path class="cls-1" d="M704.06,377.9c.16-.29.59-.64.7-1.09l-.08-.08C704.77,377,704,377.53,704.06,377.9Z"/><path class="cls-1" d="M703.3,382.61l-.82-.88c0,.14.1.29.06.35s-.08.1-.38-.15c.17.22.25.34.3.41a.45.45,0,0,0,.12.14s.06,0,.07-.1S702.75,382.08,703.3,382.61Z"/><path class="cls-1" d="M705.83,385.15c-.5-.37-.13.16-.2.19C706,385.51,706.1,385.55,705.83,385.15Z"/><path class="cls-1" d="M725.13,402.44l-.27.2C725.25,402.93,725,402.55,725.13,402.44Z"/><polygon class="cls-1" points="729.96 404.47 729.75 404 729.38 404.08 729.96 404.47"/><polygon class="cls-1" points="730.57 408.18 730.38 408.07 731.05 408.51 730.57 408.18"/><path class="cls-1" d="M707.19,438l.4.17C707.76,437.89,707.46,437.53,707.19,438Z"/><path class="cls-1" d="M700.59,453.28a1,1,0,0,0,.67.83C701,453.8,700.78,453.39,700.59,453.28Z"/><polygon class="cls-1" points="740.64 421.46 740.48 421.83 740.88 421.23 740.64 421.46"/></svg>