<svg id="圖層_1" data-name="圖層 1" xmlns="http://www.w3.org/2000/svg" viewBox="0 0 799 481"><defs><style>.cls-1{fill:#202020;}</style></defs><title>vi7</title><path class="cls-1" d="M389.31,226.3c.17-.13.06-.38-.42-.28l-.31.45Z"/><path class="cls-1" d="M386,225.79c-.54.26-1.15.67-.74,1,.51-.45.66-.3,1.21-.84.48-.09.85.07.78.23.16-.12.75,0,1-.26a2.81,2.81,0,0,0-2.24.13C385.84,226,386,225.87,386,225.79Z"/><path class="cls-1" d="M340.43,236l.3.06A1.22,1.22,0,0,0,340.43,236Z"/><path class="cls-1" d="M311.87,230.65c.22,0,.32,0,.34,0C312,230.61,311.83,230.6,311.87,230.65Z"/><path class="cls-1" d="M307.07,229.11l.29.09A.46.46,0,0,0,307.07,229.11Z"/><path class="cls-1" d="M340.43,236l-.77-.14C339.6,236,340.05,236,340.43,236Z"/><path class="cls-1" d="M379.8,227.72a1.57,1.57,0,0,0,.39-.19l-.38.12S379.8,227.7,379.8,227.72Z"/><path class="cls-1" d="M353,234.29l.23-.06a1.64,1.64,0,0,0,.14-.22Z"/><path class="cls-1" d="M362.18,231.07c-.22.07-.16.44-.18.61a.76.76,0,0,1,.36-.41A.45.45,0,0,0,362.18,231.07Z"/><path class="cls-1" d="M377.34,226.73l.26-.1Z"/><path class="cls-1" d="M346.12,235.38a.29.29,0,0,0-.1-.12A.17.17,0,0,0,346.12,235.38Z"/><path class="cls-1" d="M74.67,232.31s0,0,0-.06S74.61,232.27,74.67,232.31Z"/><path class="cls-1" d="M66.34,224l.13.09a.7.7,0,0,0,.16-.13Z"/><path class="cls-1" d="M298,227.06h0C298.33,227.07,298.19,227.06,298,227.06Z"/><path class="cls-1" d="M215.26,238.51c.94.33-1.53.41-.11.77C215,239.14,216.43,238.73,215.26,238.51Z"/><path class="cls-1" d="M379.54,227.73l-.39.08A1.85,1.85,0,0,0,379.54,227.73Z"/><path class="cls-1" d="M215.15,239.28h0l.15,0Z"/><path class="cls-1" d="M276.63,227.31a.63.63,0,0,0,.23.13S276.8,227.36,276.63,227.31Z"/><path class="cls-1" d="M292.54,227.23l-.39-.07A2.51,2.51,0,0,0,292.54,227.23Z"/><path class="cls-1" d="M268.58,229.13a1.42,1.42,0,0,0-.57.09l.1,0A.66.66,0,0,1,268.58,229.13Z"/><path class="cls-1" d="M260.28,231.2l.17,0,.25-.09Z"/><path class="cls-1" d="M99.85,239.74a1.26,1.26,0,0,1-.37-.35C99.59,239.65,98.32,239.65,99.85,239.74Z"/><path class="cls-1" d="M379.75,227.52a.31.31,0,0,1-.21.21l.27-.08C379.82,227.6,379.82,227.54,379.75,227.52Z"/><path class="cls-1" d="M268.83,232l-1.31.22C267.89,232.19,268.36,232.1,268.83,232Z"/><path class="cls-1" d="M159.7,230.66l-.3.05A.54.54,0,0,0,159.7,230.66Z"/><path class="cls-1" d="M263.72,233.21a2.61,2.61,0,0,0-.79-.05s-.1.08-.12.13Z"/><path class="cls-1" d="M99.48,239.38h0Z"/><path class="cls-1" d="M90.36,238.86c1.29.3.71-.32,1-.53,1.56.18.64.49,1.12.83,1,.07,1.81-.26,2.52-.12,0,.08.18.13,0,.21,1.08-.22,3,.38,4.29,0a.41.41,0,0,1,.15.13.74.74,0,0,1-.13-.66c.58,0,1.09-.22,1.29.11-.35,0-.39.08-.57.17l.62-.09c.51.49-.84.09-.87.42a21.06,21.06,0,0,1,3.5-.18c.18.46-2.13,0-.93.49L101,239.4c1,.76-.85-.11.09.7,1.87.23,2.11-.11,4,.07.43-.24-.13-.37.29-.6,2.63-.42,2.08,1.11,4,.5.5-.3.67-.86,2.06-.61l-.46.51c1.8,0,1-.76,2.89-.53-.32.22-1.4.25-1.13.29,1.24.32.85-.33,1.78-.38l.22.43a27.53,27.53,0,0,0,3-.46l3.11-.57c-.1.15-.45.33.06.4,2.64-.55,5.68-.8,8.29-1.16.29-.19.59-.39.87-.61.23,0,.46.06.24.2,1-.13,0-.25.42-.52s.79,0,.47.22a28.07,28.07,0,0,1,6.53-2.33l-.3.23c1.41-.32,1.29-1.26,2.66-1.35l-.22.14c3-.86,6.15-2.13,8.55-2.05.33-.62,3-.33,3.07-1.08a26.51,26.51,0,0,0,3.77.32c.65,0,.93-.58,1.74-.71l0,.4,1.08-.46.61.45.75-.13c-.3,0-.65-.15-.61-.27,1.19-.23,2.91.17,2.93.41l2.8-.25c-.07.16-.54.2-.91.29,1.51-.36.25.43,1.63.1-.18-.1.11-.23.15-.3a10.48,10.48,0,0,0,3.33.5l-.25.24c1,.16,2.07.37,3.18.51s2.22.45,3.34.72c-.77-.33-.47-.74.21-.62l.16.47c.49-.13-.65-.34.31-.4.83.31.43.63-.09.61l1.06.18c0,.14-.24.13-.34.26.49-.11,1.61.93,2.34.71l0,.14c2.21.78,3.27,1,5.09,1.68.17-.33.85,0,1.5-.06a32.87,32.87,0,0,0,4.38,2c1.22.23.44-.17,1-.2,0,.34,1.67.82.72.78a27.85,27.85,0,0,0,5.26,1.1c-.25-.2-.55-.33-.36-.4.47.06,1,.4.92.53h-.13a21,21,0,0,1,4.75,1.14,11.67,11.67,0,0,0,4.38.62h-.14c.83,0,1.66-.12,2.49-.17,1.12.12-.7.2.12.46a14.78,14.78,0,0,1,3.38,0,13.38,13.38,0,0,0,3-.06c1.71,1.05,6-.17,8.29.27l-.15-.22c.57-.26.72.08,1.15.11-.07-.18-.65-.16-.29-.31,4.93-.65,10.24-.66,15.33-1.27,1.85-.24.84-1.34,3.25-1.21l-.58.54c3.61-1.19,7.59-1.44,11.11-3.09-.18.16-.15.28-.5.4.9,0,2.71-.95,2.64-1.18.54-.16.2.17.57.17.78-.08,1.68-1,2.17-.82.08,0-.18.16-.3.23.42-.31,2.21-.67,1.65-.87,1.33-.24,2.43-.89,3.52-1,.58-.57,2.28-.39,2.36-1,0,.58,2.41-.09,3.19-.53-.24.23.77,0,.49.34.26-.06.51-.12.73-.19l-.35,0a2,2,0,0,0,.46-.07l.1,0,.19-.06a2.15,2.15,0,0,0,.3-.14c.16-.09.22-.19.14-.29,1.88.37,3.48-1.15,4.62-.41a62.58,62.58,0,0,1,8.07-1.54c-.05.57-2.87.29-2.7.9,2.43-.49,3.82-1,6.26-1,.63.06-.35.27-.56.38,2.45-.3,4.72.1,6.93,0,0,.06-.25.1-.48.13.43,0,1,.15,1-.12l-.43.05c-.33-.22.12-.39.66-.53a5.1,5.1,0,0,0,1.23-.3c-.81.67,2.15.43.87,1.25.29,0,.66-.1.62-.28.41.09.53.21.08.36,1.56.06,1.05-.28,2.44-.08,0,.13-.31.14-.47.27a5,5,0,0,1,2.65,0c-.09.06,0,.18-.32.12,2,.3,3.57,0,5.74.65-.77.41.71.33.73.83l1.21.12-.42-.33a18.45,18.45,0,0,1,2.89.45l-.82,0,2,.36-1.06-.44c1.1,0,0-.62,1.38-.17-.3,0,1,.24,1.51.65h0a3.86,3.86,0,0,1,1.85.24c.17.2-.28.48-.17.61.6-.27,2.46.46,3.2.2-.24,0-.31.29-.25.35l.5-.21c.46.21.52.28.4.46,1.44.39-.33-.71,1.34-.06-.14,0-.09.06-.38.05,1.7.53,3.4.55,5,1,.38.58-1.42-.18-1,.34,2.34.41,4.92.38,7.16.86l-.41-.13c.41-.61,1.63.59,2.83.42-.29,0-.42.33-.33.26,1.54.35,3.24.13,5.62.12l-.31.15c.93.21,2.45.12,3.46.22.3-.18.87-.15.52-.4a6.93,6.93,0,0,0,2.29.21,9.82,9.82,0,0,0,2.17-.34,13.86,13.86,0,0,1,4.16-.63c-.32.08-.74.32-.48.27.76-.23,1.52-.44,2.26-.68-.25-.23-.34-.1-.88-.22a4.55,4.55,0,0,1,1.4-.69c-.95.48.13.47.62.5-.1-.07,0-.21,0-.29,1.32.17,0-.62,1.71-.76l0,.18a8.48,8.48,0,0,1,1.68-.83c.37.24-.57.37-.52.65.89-.32,1.53-1.21,2.44-1.2-.34.23-.87.44-1.22.66a3.47,3.47,0,0,0,1.74-.26l-.07,0,1.56-.4-.42.05c.77-1.26,2.16-1,3.41-2.15-1.22,1.08-.12.39-.08.8.41,0,1-.15.9,0,.58-.56,1.24-.22,2-1,.09.1.75-.26.7.09.87-.41-.29-.13-.26-.3a6.46,6.46,0,0,1,2.41-.83,8,8,0,0,0,2.87-1c1.7-.7,1.92-1.22,3.54-1.83.61.08-.36.53-.36.55a6.83,6.83,0,0,0,2.45-.51c-.15.14.05.2.34.28.67-.17.37-.56,1.31-.54a2.73,2.73,0,0,1-.59.63c.77-.29,1.55-.6,2.38-.85.25.18-.46.4-.74.59.93-.24,2.43-.56,2.68-1l-.63,0c.35-.07.22.27,0,.37-.77.39-1.19.05-1.25-.07l.59-.16c-.73-.62-2.43.42-3.62.67l.4-.64-1.15.7c-.29-.08-.54-.34.05-.54-.93-.08-.73.34-1.54.21-.1,0-.07-.06,0-.1-.28.12-.55.21-.82.34.14-.15-.23-.34.31-.38-1.6.08-2.34,1-3,.78l.12-.06c-2,.75-.11.42-1.52,1.34l-1.33-.6-.08.44c-.22,0-.65.16-.62,0-.71.51.19.12-.19.51-1.13,0-2.72,1.16-3.17.65-.26.41,1.05-.13,0,.45-.54-.51-1.19.59-2.22.65.16-.43,1.09-.6.06-.53-.34.76-1.82.57-2.55,1,.14.46-1.6.84-2.83,1.47,0-.16-2.53.63-3.79.87v-.08c-.09.52-1.38.79-2.28,1.15,0-.28.1-.44.56-.7l-.85.25a1.91,1.91,0,0,1-1,.52l.13-.39c-1.15.26-2.24,1-3.8.92-.05.34,1.36.73-.24,1.18a.36.36,0,0,1,.22-.59,1.76,1.76,0,0,1-.76.18l.6-.39c-.71,0-.33.3-.89.36,0-.26-.43-.12-.37-.34.13,0,.49,0,.69-.09a7.85,7.85,0,0,1-1,0,2.08,2.08,0,0,1-.7-.21c.07.15,0,.35-.42.41-1.19.1-.43-.28-1.13-.36-.28.2-1,.07-1.05.45-.34,0-.42-.18-.55-.28-.61.17-2.88,0-2.19.44l.16,0-.1,0h0a8.48,8.48,0,0,1-3.13-.1,31.18,31.18,0,0,0-3.1-.38l0-.13c-1.22,0-2.68-.25-3.57-.14-.36-.06-.8-.37-.62-.49a5.47,5.47,0,0,1-2.33-.39c.95-.05-.28-.26,1,0a5.56,5.56,0,0,0-2.72-.49c.5-.24-.8-.59-1.38-.62l.78.41a13.94,13.94,0,0,1-1.74-.39l.4-.35c-2.29-1-4.53-.11-6.17-1.39-.7.14,1.26.51.61.72a16.77,16.77,0,0,1-2.45-1.27c-1.46-.59-1.56.28-3.11-.25.17.2.27.64-1,.51-1.1-.31-1.23-.94-.5-.9.27,0,.39.12.37.17.37,0,.86.07.45-.19l-.18.12c-.51-.28-2.05-.62-1.63-.78-.88,0-.42.16.19.38-1.38-.54-2.24-.49-3.68-1,.21.13.39.35.16.3-2.13-.63-1,.09-2.5-.14-.79-.39.41-.49-1.11-.59-.89-.31-.12-.43.26-.49a9.85,9.85,0,0,1-3.29-.83h.75a7.67,7.67,0,0,1-1.16-.12l.36.37c-.41-.12-.77-.17-.75-.3-.47.14.26.56-.65.7-.54-.24-1.74-.08-1.88-.52,1.76.4-.14-.43,1.38-.27a4,4,0,0,1-1.08-.17c-.05,0,.07-.07.19-.08-1.66-.59-.84.36-2.62.14.25-.2-.36-.47-.66-.46.72.09.3.42-.37.52-1.12-.29-1.25,0-1.85,0l.68.13c-.25.22-.82.15-1.61.16-.06-.18.72-.07.45-.17a2.4,2.4,0,0,1-1.48-.12,4.06,4.06,0,0,0-1.75-.16c-.57-.17-.05-.43-.55-.55-1.4.26-1.52-.31-3,0,.43.29.5.22-.52.55l2.4-.29-1.53.49c.72,0,1.52-.26,1.95-.18-.73.24-.65.18-.3.43-1-.44-2,.32-3.09,0v-.77c-1.75-.25-3,.59-5.25.63l.73.06c-.27.33-1.36.18-2.06.4,0-.26-.42-.3-.75-.42.07.18-1.61.19-1.74.73l-1-.19c-1.79.13-1.9,1-3.61,1.24.46-.37-.34-.41.77-.8-.57.09-1.09.14-1.07.31a.92.92,0,0,0-.42.07l-.29.1-.16.06-.08,0h.12l-.2,0a2.1,2.1,0,0,1-1,.23c-.22.16-.24.43-.87.55-.08,0,0-.13,0-.13s-.94.39-.33.54c-1.91-.4-4.78,1.23-6.43,1l-3.68,1.34c.05-.09,0-.12.18-.16-1.56.27-.68,1-2.44,1.33-1-.08.81-.52.23-.48-.51-.72-2,.86-3.25.74l.25-.14c-.9,0-2,1-3.42,1.24,0,0,.06-.09,0-.13a14.6,14.6,0,0,1-4.09,1.62c.37-.42.6-.31.27-.58-.62.17.29.5-.95.83-.44-.1-1.38-.08-1.56-.41l1.18-.24c-.69-.34-1.52.31-2.16.33l0-.21c-1.8.38-1.74.88-3.71,1.15l.22.12c-1,.66-.94-.15-2,.38l-.39-.46a34.18,34.18,0,0,1-3.69,1.07,19.25,19.25,0,0,1,3-1.19,9.3,9.3,0,0,0-2.72.64,2.46,2.46,0,0,1,.91-.21,7.87,7.87,0,0,1-3.34,1c.15-1-3.69.12-4.78-.57-2.45.55-4.93.18-7.81.29,1,.77-.84,0-.65.81a2.59,2.59,0,0,1-1,0l-2-.49c-.48-.23.65-.17.59-.34-1.47-.07-.61-.34-1.58-.56.19.29-.52.42-1.35.24.39.14.77.31,1.17.42-2.08.33-1.74-.76-3.82-.47l.67-.2c-.53,0-1.51,0-2.47-.06a6.12,6.12,0,0,0-2.5.2c-.17-.12-.39-.36.08-.36-1.25-.17-2.64-.27-4-.39a10.09,10.09,0,0,1-3.5-.74l.23-.15c-.47,0-.88.16-1.41-.17,0-.07.24-.14,0-.2a4.65,4.65,0,0,1-1.87-.31l.58-.05c-2.29-.93-3.78-.64-5.8-1.2.2-.53-1.58-1.39-2.47-1.81l.06-.07a46.09,46.09,0,0,0-7.53-1.94c-1.43-1.16-5.53-1.87-8.24-2.62.41.18-.14.43-.63.39-.63-.19-1.83.2-1.67-.31l.23,0c-.43-.55-1.79-.6-2.84-.67l-.21.68a7.27,7.27,0,0,0-2.27-.45,11.51,11.51,0,0,0-2.49.07c-1.62.17-3.08.32-3.85-.07-.64.24-1.45.31-2.08.54v-.37c-.92,0-1.6.1-2.34.19a22.54,22.54,0,0,0-2.62.46l.4-.34c-1.26.23-1.39,1.32-2.51,1.6l-.46-.45c-2.16.49-4.45.71-6.37,1.85,0-.09,0-.26.36-.39-1,.3-3.88.92-3.29,1.5-.18-.44-2.12.68-3.15,1.23l.06-.39a4.69,4.69,0,0,1-2.06,1.38c-.32,0-.35-.2.09-.24-1.08.14-.71.57-2,.73l.41-.35a2.37,2.37,0,0,0-1.48.77c-.64.3-2.07.37-2.3.09a1.63,1.63,0,0,1-1.3.65c-.11-.11.11-.23.22-.28-1.86.08-2.64.92-4,.72a.28.28,0,0,0-.24-.18c1.46-.17,2.62-.38,2.51-.34-.06-.32-1.22-.17-.38-.79a9.75,9.75,0,0,1-3.58,1.17.44.44,0,0,1-.16-.1l.11-.05a2.3,2.3,0,0,0-.72.14,6.18,6.18,0,0,0-1,0c-.16-.26-1.36,0-2,0,.08.36-.7.38.05.61-.1,0,.1-.06.5-.11a1.2,1.2,0,0,0,.24-.06l0,0,1.46-.16a2.22,2.22,0,0,1-1.59.29c-.29.26-.6.53-.78.66-.86-.42-2.44-.63-2.67-.92-1.79.32-4.25.33-5.38,1-.52.1-.6-.18-.79-.29a3.88,3.88,0,0,0,.81-.17c-1,.21-3,.07-3.31.54-1.29-.25.74-.42-1-.39l.24-.14a12.58,12.58,0,0,0-4.65-.06,9.17,9.17,0,0,1-4.89-.56c.26.1.38.15.43.23-2.16-.55-4.4-.91-6.61-1.46a21.54,21.54,0,0,1-6.24-2.42,3.74,3.74,0,0,0-2.11-.49l-.08-.47L78.69,232c-1.81-.55-2.36-2.31-4.63-3l.11.39c-.68-.48-2.3-1.33-2-1.51a.54.54,0,0,1-.57-.23l.1-.18c-.63-.3-1.24-.62-1.86-.94-1.16-1.1.68-.48-1.08-2-.7-.47-2.23-1.15-2.08-.84s.58.69.47.86l-.67-.45c-.5.35-1.4.39-.17,2l1.31.62.17.51-.93-.73a1.87,1.87,0,0,0,1.3.89.89.89,0,0,0,.27.61c.48.13,1,.26,1.44.37,0,.29-.77,0-.1.67.68.16-.19-.79.77-.31.39.6.1.68.88.93,0,.19-.19.18-.49.06.68.25,1.59,1,2.07.89.41.67,2.06,1.15,1.71,1.6a6.22,6.22,0,0,1,1.87.51c-1.36.05,2.11,1.14,1.52,1.64,1-.16,3,1.09,4.55,1.32a.7.7,0,0,1-.4,0,8.66,8.66,0,0,1,1.44.92c.29-.44,1.59-.08,2.38-.17.86.78-.8.37-.63.91.08-.4,1.9.17,1.65-.27.69.51.63.33.92.85.3-.56.76.1,1.51-.12,1.07.59.16.66,1.46.76C91.54,238.89,90.36,238.86,90.36,238.86Zm30.4-.23h0l-.62.1Zm2.52-.35-1.1.13c-.1-.11,0-.25.23-.28C122.28,238.23,122.89,238.23,123.28,238.28Zm-5.58-1.86c.38-.09.52,0,.58,0a6.64,6.64,0,0,0-.68.11l0,.05A.41.41,0,0,1,117.7,236.42Z"/><path class="cls-1" d="M117,237l-.16,0a1.05,1.05,0,0,0,.24.06l.13-.13Z"/><path class="cls-1" d="M340.78,236h0a.22.22,0,0,1,.11.05A.16.16,0,0,1,340.78,236Z"/><polygon class="cls-1" points="156.97 230.94 156.96 230.85 156.75 230.94 156.97 230.94"/><path class="cls-1" d="M354.67,235.52a.37.37,0,0,0,.2,0S354.77,235.53,354.67,235.52Z"/><path class="cls-1" d="M360.43,233.67l.84-.18A7.21,7.21,0,0,0,360.43,233.67Z"/><path class="cls-1" d="M364.8,232.17a.45.45,0,0,0,0-.18h0Z"/><path class="cls-1" d="M292.68,229.68h-.18C292.09,229.72,292.37,229.72,292.68,229.68Z"/><path class="cls-1" d="M314.11,232.58c-.24,0-.48,0-.72,0C313.76,232.7,314.05,232.78,314.11,232.58Z"/><path class="cls-1" d="M269,232h0l-.14,0Z"/><path class="cls-1" d="M312.4,232.36a3,3,0,0,0,1,.23A3.75,3.75,0,0,0,312.4,232.36Z"/><path class="cls-1" d="M383.79,227.12l.22,0a0,0,0,0,1,0-.06Z"/><path class="cls-1" d="M384,227l.23-.08C384.15,227,384.06,227,384,227Z"/><path class="cls-1" d="M384.76,226.79l-.5.17C384.44,226.93,384.66,226.91,384.76,226.79Z"/><path class="cls-1" d="M377.85,228l0,.14A.16.16,0,0,0,377.85,228Z"/><path class="cls-1" d="M376.08,228.45a11.9,11.9,0,0,0,1.7-.2l0-.12c-.12.13-.46.12-.82.12A1.56,1.56,0,0,0,376.08,228.45Z"/><path class="cls-1" d="M368.24,229.17l1.5-.43c-.3,0-.7-.1,0-.37C367.7,228.64,370.18,228.53,368.24,229.17Z"/><path class="cls-1" d="M363.64,230.69c.76-.36-.08-.18-.07-.28C363.13,230.73,363,230.8,363.64,230.69Z"/><path class="cls-1" d="M330.12,234.66l.13-.31C329.62,234.29,330.23,234.48,330.12,234.66Z"/><polygon class="cls-1" points="323.26 235.04 323.83 235.38 324.19 235.14 323.26 235.04"/><polygon class="cls-1" points="319.95 231.88 320.24 231.9 319.17 231.77 319.95 231.88"/><path class="cls-1" d="M261.65,230.47l.3.34C262.36,230.62,262.33,230.16,261.65,230.47Z"/><path class="cls-1" d="M237.51,237.19a1.7,1.7,0,0,0-1.42.07A10.36,10.36,0,0,0,237.51,237.19Z"/><polygon class="cls-1" points="163.61 227.59 164.14 227.47 163.15 227.55 163.61 227.59"/></svg>