<svg id="圖層_1" data-name="圖層 1" xmlns="http://www.w3.org/2000/svg" viewBox="0 0 799 481"><defs><style>.cls-1{fill:#202020;}</style></defs><title>vi8</title><path class="cls-1" d="M693.11,151.82c.11.17.36.08.33-.38l-.42-.34Z"/><path class="cls-1" d="M693.94,148.71c-.21-.55-.59-1.17-1-.81.42.53.25.66.75,1.24,0,.47-.14.81-.3.73.11.17-.1.72.16,1a2.57,2.57,0,0,0,.08-2.18C693.75,148.5,693.86,148.67,693.94,148.71Z"/><path class="cls-1" d="M681.11,105.33l.12.27A1,1,0,0,0,681.11,105.33Z"/><path class="cls-1" d="M660.56,85.76c.19.1.29.11.32.09C660.69,85.77,660.53,85.7,660.56,85.76Z"/><path class="cls-1" d="M656.53,82.94l.24.16A.4.4,0,0,0,656.53,82.94Z"/><path class="cls-1" d="M681.11,105.33a7.6,7.6,0,0,0-.31-.71C680.66,104.65,680.94,105,681.11,105.33Z"/><path class="cls-1" d="M692.59,142.52a1.13,1.13,0,0,0,.15.39l-.08-.37Z"/><path class="cls-1" d="M687.52,116.17l.09.22a1.33,1.33,0,0,0,.24.1Z"/><path class="cls-1" d="M691.05,125.19c0-.22-.42-.18-.6-.21a.68.68,0,0,1,.38.38A.45.45,0,0,0,691.05,125.19Z"/><path class="cls-1" d="M693.81,140.23l.09.27C693.87,140.43,693.84,140.31,693.81,140.23Z"/><path class="cls-1" d="M684.45,110a.23.23,0,0,0,.07-.14S684.46,109.88,684.45,110Z"/><path class="cls-1" d="M522.28,36.08s0,0,0-.06S522.21,36.11,522.28,36.08Z"/><path class="cls-1" d="M511.66,39.45l.12-.1a1.07,1.07,0,0,0-.07-.19Z"/><path class="cls-1" d="M648.53,78.77l0,0C648.8,78.84,648.68,78.79,648.53,78.77Z"/><path class="cls-1" d="M627.51,86.91c-.33.42-.27,0-.27-.36s0-.65-.42,0C627,86.45,626.87,88,627.51,86.91Z"/><path class="cls-1" d="M692.61,142.27l0-.38A1.69,1.69,0,0,0,692.61,142.27Z"/><path class="cls-1" d="M626.82,86.55h0l-.09.13Z"/><path class="cls-1" d="M628.34,73.92a.58.58,0,0,0,.2.17S628.49,74,628.34,73.92Z"/><path class="cls-1" d="M643.31,77.67l-.35-.16A1.7,1.7,0,0,0,643.31,77.67Z"/><path class="cls-1" d="M620.25,74.19a1.25,1.25,0,0,0-.57,0l.09,0A.68.68,0,0,1,620.25,74.19Z"/><path class="cls-1" d="M611.92,75.8h.18l.25-.12Z"/><path class="cls-1" d="M545.75,29.45a1.22,1.22,0,0,1-.41-.28C545.49,29.41,544.33,29.64,545.75,29.45Z"/><path class="cls-1" d="M692.79,142.49a.26.26,0,0,1-.18-.22l0,.27C692.71,142.55,692.76,142.56,692.79,142.49Z"/><path class="cls-1" d="M620.1,77.08l-1.24,0A11.05,11.05,0,0,0,620.1,77.08Z"/><path class="cls-1" d="M601.26,41.18l-.27-.12A.46.46,0,0,0,601.26,41.18Z"/><path class="cls-1" d="M615.29,77.77a1.68,1.68,0,0,0-.73-.08.45.45,0,0,0-.11.13C614.73,77.8,615,77.77,615.29,77.77Z"/><path class="cls-1" d="M545.33,29.17h0Z"/><path class="cls-1" d="M537.21,31.52c1.18-.26.45-.59.64-.91,1.39-.46.73.19,1.27.33a19.28,19.28,0,0,1,2.13-1c.06.07.2.07.07.2.88-.55,2.8-.48,3.85-1.1.09,0,.14.06.16.1a.81.81,0,0,1-.25-.63c.54-.07,1-.42,1.23-.13-.34,0-.36.15-.5.27l.56-.2c.57.38-.77.24-.73.57a12.64,12.64,0,0,1,3.24-.73c.22.41-2,.32-.81.6h-1.34c1.08.57-.81,0,.2.67,1.74-.09,1.92-.4,3.66-.42.37-.27-.16-.35.22-.62,2.45-.58,2,1,3.76.39.47-.29.66-.85,2-.53l-.45.49c1.69.08,1-.7,2.75-.31-.32.18-1.34.12-1.08.19,1.13.42.82-.25,1.71-.22l.16.45c1.8,0,3.81-.15,5.82,0-.13.12-.48.23,0,.4a30.16,30.16,0,0,1,7.67,1.43l1-.2c.21,0,.36.24.11.27.9.31.1-.23.57-.29s.66.36.3.4c1.69,0,4.81.35,6.39,1.25l-.36,0c1.28.51,1.71-.33,2.83.39h-.26c2.8,1,6,1.85,7.86,3.31.63-.36,2.56,1.43,3.06.83a22.44,22.44,0,0,0,2.82,2.33c.54.33,1,.06,1.77.39l-.18.35,1.13.19c.08.23.16.46.23.7l.66.32c-.23-.18-.42-.49-.32-.57,1.06.49,2.19,1.77,2.08,2l2.38,1.33c-.14.09-.55-.13-.9-.26,1.41.53,0,.47,1.22,1-.08-.18.22-.12.3-.17a12.88,12.88,0,0,0,2.39,2.24l-.34.06c.71.69,1.52,1.36,2.28,2.13l1.19,1.13c.39.39.75.82,1.12,1.24-.43-.69.05-.87.52-.4l-.15.48c.48.15-.33-.63.49-.17.51.67,0,.74-.42.46l.78.68c-.06.12-.27,0-.43,0,.48.15.73,1.64,1.46,1.84l-.07.12c1.34,1.78,2,2.57,3,4.11.33-.16.63.5,1.16.83.58,1.24,1,2.69,1.8,4.13.66,1,.42.17.84.54-.25.22.44,1.69-.12,1,.84,1.76,1.08,2.24,2.18,4.47.05-.3,0-.6.15-.49.21.4.21,1,0,1l-.07-.1a11.29,11.29,0,0,1,1.07,4.36,13.82,13.82,0,0,0,.64,4l0-.11c.2.72.38,1.45.52,2.19,0,1-.26-.6-.45.15a6.45,6.45,0,0,1,.07,3c-.15.85-.39,1.61-.49,2.56A12.19,12.19,0,0,0,623,88.52a5.75,5.75,0,0,1-2.64,2.39l.22.12c-.26.49-.58.23-.91.39.14.12.58-.12.38.15a12.51,12.51,0,0,1-6.18,2.33,11.1,11.1,0,0,1-3.18-.17,4.72,4.72,0,0,1-2.31-1.12,1.53,1.53,0,0,0-1-.37.6.6,0,0,1-.47-.25,1.68,1.68,0,0,1-.31-.95c.2.12.4.22.59.31a5.63,5.63,0,0,1-.83-2.07,10,10,0,0,1-.12-2.39,16.61,16.61,0,0,1,1.1-4.57c0,.21.11.26,0,.52a3.85,3.85,0,0,0,.77-1.12c.22-.43.44-.8.34-.9.32-.32.23.08.5,0a2.2,2.2,0,0,0,.75-.74c.23-.29.5-.51.72-.48s-.1.19-.18.27a3.23,3.23,0,0,1,.88-.63c.35-.19.59-.36.33-.43a14,14,0,0,1,3.1-1.08c.53-.57,2.12-.28,2.23-.86,0,.29.57.33,1.22.25a7.84,7.84,0,0,0,1.82-.41c-.26.2.71.12.41.39.91,0,1.75-.18,1.58-.47a4.79,4.79,0,0,0,2.48.1c.76-.08,1.45-.13,1.9.34a43.68,43.68,0,0,1,7.86.41c-.2.52-2.75-.43-2.74.19,2.37.16,3.83-.08,6.1.63.57.23-.4.16-.62.21,2.37.3,4.42,1.25,6.53,1.6,0,.05-.26,0-.48,0,.41.1.9.38.94.12l-.41-.07c-.52-.58,1.83-.21,2-.37-.92.48,1.93.89.53,1.41.27,0,.64.06.64-.13.36.2.45.34,0,.38,1.44.41,1,0,2.32.46-.06.12-.33.06-.52.15a4.9,4.9,0,0,1,2.48.63c-.09,0,0,.19-.33,0,1.82.77,3.36.8,5.18,2-.83.2.57.5.44,1l1.08.44-.29-.43c.88.52,1.86.63,2.52,1.24-.25-.08-.49-.16-.75-.22l1.68.91-.83-.72c1,.33.22-.58,1.32.25-.27-.1.88.54,1.16,1.09h0a3.63,3.63,0,0,1,1.6.83c.08.24-.44.35-.39.51.66-.07,2,1.3,2.78,1.32-.23,0-.39.16-.37.24l.54,0c.31.38.33.47.15.58,1.08.93,0-.77,1.18.49-.12-.06-.1,0-.35-.11,1.26,1.14,2.67,1.93,3.73,3.1,0,.66-1.08-.83-1-.17.86.71,1.79,1.41,2.7,2.13A16,16,0,0,1,675,99.54l-.22-.34c.71-.23.8,1.46,1.75,2.08-.21-.17-.52,0-.41,0,.91,1.17,2,2.28,3.53,4l-.31-.12c.41.78,1.2,2,1.66,2.81.3.14.57.61.61.2a10.57,10.57,0,0,0,1.94,3.76,8.61,8.61,0,0,1,1.73,3.57c-.14-.27-.47-.59-.36-.37.39.63.73,1.28,1.07,1.94.21-.29,0-.34.07-.87a3.2,3.2,0,0,1,.88,1.22c-.58-.84-.43.2-.41.66.05-.11.2,0,.27-.08,0,1.27.66-.07.92,1.55l-.17,0a8,8,0,0,1,.87,1.58c-.23.37-.38-.54-.66-.47.34.83,1.28,1.42,1.2,2.31-.21-.33-.39-.84-.63-1.17a3.81,3.81,0,0,0,.21,1.68v-.07l.32,1.5,0-.4c1.23.77.86,2.12,1.86,3.4-1-1.25-.38-.14-.79-.14,0,.4.06,1-.09.87.49.6.06,1.21.77,2.06-.11.07.18.74-.16.66.32.87.16-.26.33-.23.76,1.3.27,3.38,1.23,5.28.55,1.7,1,2,1.47,3.57-.13.59-.52-.39-.52-.39a6.63,6.63,0,0,0,.29,2.41c-.12-.16-.2,0-.31.29.09.67.5.41.39,1.32a2.23,2.23,0,0,1-.56-.63c.18.78.47,1.55.63,2.37-.2.24-.36-.48-.52-.75.16.91.32,2.38.67,2.66l.11-.6c0,.34-.29.18-.37-.06-.3-.79.07-1.16.19-1.21l.11.59c.72-.65-.25-2.38-.32-3.56l.58.45-.57-1.18c.11-.27.39-.48.54.1.17-.89-.27-.73-.08-1.5,0-.09.07-.06.1,0l-.27-.81c.13.15.36-.19.35.33.1-1.55-.77-2.34-.47-3l.05.12c-.55-2-.41-.14-1.17-1.58l.75-1.24-.43-.12c0-.21-.1-.63.08-.59-.45-.73-.14.17-.5-.23.13-1.1-.82-2.74-.28-3.12-.39-.29,0,1-.46,0,.57-.48-.42-1.21-.4-2.2.42.18.49,1.1.53.1-.74-.39-.42-1.82-.76-2.56-.44.1-.75-1.6-1.33-2.82.21,0-.65-2.46-1-3.7h.08c-.5,0-1-1.26-1.43-2.09.28-.08.45,0,.77.45l-.36-.81a2.12,2.12,0,0,1-.69-.86l.41.06c-.49-1.08-1.42-2-1.88-3.44-.33.08-.28,1.5-1.19.18.13-.14.38-.33.63,0a2,2,0,0,1-.42-.65c.2.14.38.28.56.43-.19-.68-.39-.2-.63-.7.23-.11,0-.44.18-.47s.14.47.34.61a4.12,4.12,0,0,1-.47-1.61c-.1.12-.3.17-.55-.22-.6-1,.06-.5-.17-1.17-.28-.17-.52-.91-.86-.72-.19-.29-.07-.44-.06-.61-.47-.43-1.6-2.38-1.56-1.58l.06.15-.06-.08h0a16.9,16.9,0,0,1-1.83-2.48,12.52,12.52,0,0,0-1.79-2.49l.1-.08a23,23,0,0,0-2.53-2.42c-.25-.25-.41-.75-.19-.75a5.92,5.92,0,0,1-1.64-1.65c.8.49-.08-.37.77.55a4.88,4.88,0,0,0-2-1.87c.53.07-.36-.94-.87-1.22.16.24.32.48.47.73a15.43,15.43,0,0,1-1.31-1.17l.51-.12a7,7,0,0,0-2.66-2,5.26,5.26,0,0,1-2.24-1.86c-.69-.13.95,1,.27.89-.86-.69-1.44-1.9-1.74-2.08-1.15-1-1.53-.29-2.79-1.28.09.23,0,.68-1,.18-.91-.62-.83-1.26-.17-1,.24.13.32.24.29.28.33.14.77.33.48,0l-.2,0c-.39-.42-1.72-1.21-1.28-1.24-.81-.29-.44,0,.06.42-1.14-.89-1.93-1.13-3.17-1.94.17.18.27.44.07.33-1.83-1.16-1-.18-2.31-.79-.64-.57.52-.37-.9-.83-.74-.53,0-.45.39-.41a10.66,10.66,0,0,1-2.9-1.59l.7.17a6.32,6.32,0,0,1-1.07-.39L651,80c-.37-.22-.69-.36-.63-.48-.48,0,.1.6-.79.52-.45-.35-1.62-.46-1.65-.91,1.57.76,0-.46,1.37,0a3.55,3.55,0,0,1-1-.4c0-.06.09,0,.2,0-1.43-1-.87.12-2.5-.47.28-.14-.23-.54-.52-.59.66.24.19.47-.47.42-1-.54-1.19-.25-1.73-.46l.6.29c-.28.14-.8,0-1.55-.22,0-.19.7.1.46-.06-.92.11-1.72-1-3-1-.5-.3.06-.43-.39-.66-1.37,0-1.34-.66-2.77-.77.32.41.41.33-.63.42.78.08,1.54.22,2.31.32l-1.55.08c.68.17,1.48.17,1.87.32-.75.07-.66,0-.4.34-.81-.67-1.89-.2-2.89-.72l.19-.74c-1.57-.68-3-.2-5.09-.69l.67.22c-.33.26-1.33-.13-2-.11.1-.25-.33-.38-.61-.57,0,.2-1.59-.17-1.83.32l-.94-.39c-1.76-.24-2,.65-3.7.55.51-.29-.26-.46.87-.65-.56,0-1.08,0-1.08.13-.34-.14-1.55.38-2.09.19-.23.14-.28.41-.91.44-.08,0,0-.12,0-.12s-1,.25-.39.49a6.28,6.28,0,0,0-3.27.16c-.58.12-1.14.29-1.66.42a6,6,0,0,1-1.43.18,19.2,19.2,0,0,0-3.46,1.93c0-.1-.06-.1.14-.2a1.31,1.31,0,0,0-.92,1c-.09.32-.23.59-.91,1.18-.94.42.49-.87,0-.55-.38-.18-.81.24-1.15.87a10,10,0,0,1-1.14,1.86l.08-.3c-.7.78-.61,2.32-.9,3.8,0,0-.06-.08-.12,0,.24,1.12.28,3.06.69,4.46-.4-.39-.25-.63-.56-.3.15.64.49-.26.82,1-.08.44.07,1.39-.19,1.65a11.06,11.06,0,0,1-.43-1.22c-.27.77.53,1.61.83,2.23l-.22,0a4,4,0,0,0,1.55,1.53c.52.26,1,.55,2,1l-.14-.24c.61,0,.81.1,1,.28a1,1,0,0,0,1,.24l.25.57a19.32,19.32,0,0,0,3.87-.65,7.81,7.81,0,0,1-3.21.92,5.77,5.77,0,0,0,2.91-.37,2.13,2.13,0,0,1-1,.19,17.63,17.63,0,0,1,3.32-1.19c0,.51.93.32,2,0l1.56-.62A2.82,2.82,0,0,1,621,94.5c1-.86,2.09-1.57,3.14-2.5a10.65,10.65,0,0,0,2.7-3.52c-1.17.66.39-.84-.44-1,.2-.67.31-.91.38-1l.52-1,.46-1c.33-.46,0,.69.21.67.39-1.54.46-.59.84-1.61-.3.18-.32-.6-.15-1.48l-.48,1.22a3.92,3.92,0,0,1,.26-2,2.85,2.85,0,0,0,.09-2,5.72,5.72,0,0,1,.28.68c-.14-1.12-.35-4.12-1.22-5,0-.21.22-.5.36,0-.39-2.62-2.08-5.38-2.42-7.36l.25.12c-.22-.43-.62-.65-.67-1.27.09,0,.25.1.18-.11a5.93,5.93,0,0,1-.94-1.66l.41.41c-.76-2.4-2.06-3.26-3.14-5,.51-.27-.27-2.07-.7-3l.09,0c-1.44-2.54-3-3.93-4.88-5.9A10.81,10.81,0,0,0,614,48.06c-.5-.59-1.08-1.16-1.6-1.74L611,44.66c.23.36-.36.28-.75,0-.39-.51-1.53-.87-1.12-1.19l.16.15c0-.7-1.13-1.41-1.91-2.07l-.55.43a6.18,6.18,0,0,0-1.54-1.62,12.84,12.84,0,0,0-2-1.32c-1.36-.8-2.64-1.42-3-2.16-.63-.19-1.31-.58-2-.72l.21-.3c-.76-.46-1.32-.81-2-1.14s-1.33-.64-2.33-1.07l.51,0c-1.11-.56-1.86.33-2.89-.1l-.1-.64c-1-.42-1.95-.89-2.93-1.34a10.62,10.62,0,0,0-3.08-.86.43.43,0,0,1,.5-.11c-.94-.33-3.61-1.51-3.47-.67.11-.47-2.1-.66-3.27-.7l.26-.3a5.11,5.11,0,0,1-2.45.15c-.3-.11-.21-.34.18-.16-1-.41-.88.16-2.1-.3l.52-.13a2.2,2.2,0,0,0-1.65,0c-.7,0-2-.47-2.13-.81a1.65,1.65,0,0,1-1.43.14c-.07-.13.17-.17.3-.19-1.78-.51-2.75,0-3.95-.47a.3.3,0,0,0-.19-.24,21.46,21.46,0,0,1,2.49.38c.05-.33-1.11-.56-.12-.88a12.35,12.35,0,0,1-3.77.19.57.57,0,0,1-.14-.13l.12,0a2,2,0,0,0-.73,0,5.3,5.3,0,0,0-.93-.19c-.12-.28-1.34-.26-1.93-.31,0,.37-.74.26,0,.6-.09,0,.11,0,.5,0a1,1,0,0,0,.26,0l0,0,1.46.09a2.14,2.14,0,0,1-1.6,0c-.32.21-.66.43-.86.53-.76-.56-2.29-.91-2.49-1.23-1.8.12-4.25,0-5.36.74-.51.09-.59-.18-.78-.29a4.73,4.73,0,0,0,.8-.17c-1,.17-3,.17-3.24.69-1.29-.12.69-.5-1.07-.28l.23-.17c-3.57-.49-5.46,1.76-9.37,1.48.27,0,.41,0,.47.08-4.4.36-8.67,2.36-13,3.12-1.21.26-1.23.62-1.85,1.09l-.39-.27c-.35.29-.69.57-1,.87-1.55,1-3.29.29-5.13,1.83l.38.11c-.78.29-2.29,1.25-2.3.93a.54.54,0,0,1-.47.38l-.11-.17c-.56.4-1.1.82-1.65,1.23-1.45.61-.16-.84-2.2.23-.72.48-1.82,1.72-1.48,1.68s.83-.33.95-.16l-.62.47c.18.59,0,1.41,1.82.85l1-1,.51,0-1,.54c.67-.05.9-.46,1.21-.82a.83.83,0,0,0,.63,0l.87-1.1c.25.14-.29.68.53.4.41-.5-.76-.21,0-.81.69,0,.62.25,1.18-.28.16.09.06.25-.17.44.5-.47,1.52-.81,1.69-1.25.72,0,2-1,2.14-.43a4.77,4.77,0,0,1,1.43-1.11c-.76,1,2.09-.8,2.09,0,.53-.85,2.63-1.27,3.88-2-.06.08-.18.22-.31.23a5.4,5.4,0,0,1,1.59-.15c-.06-.51,1.11-1,1.68-1.48,1.08.18-.42.74,0,1.1-.16-.39,1.54-.86,1.13-1.09.8.09.66,0,1.15.28,0-.65.64-.3,1.16-.82,1.14.06.41.52,1.53.06C538.19,31.06,537.21,31.52,537.21,31.52Zm28.24-2.66h0l-.59,0Zm2.4.28c-.29-.05-.65-.1-1-.14-.07-.14,0-.25.28-.22C567,28.85,567.51,29,567.85,29.14Zm-4.88-3c.39,0,.52.06.57.14h-.69l-.05,0A.4.4,0,0,1,563,26.1Z"/><path class="cls-1" d="M562.23,26.52a.76.76,0,0,1-.16,0,1.15,1.15,0,0,0,.23.1l.14-.1Z"/><path class="cls-1" d="M681.25,105.65l0-.05a.74.74,0,0,1,0,.12S681.25,105.68,681.25,105.65Z"/><polygon class="cls-1" points="598.92 39.93 598.97 39.85 598.75 39.82 598.92 39.93"/><path class="cls-1" d="M686.53,118a.31.31,0,0,0,0,.19S686.53,118.12,686.53,118Z"/><path class="cls-1" d="M688.54,123.41l.14.81A6,6,0,0,0,688.54,123.41Z"/><path class="cls-1" d="M689.73,127.66a.33.33,0,0,0,.17,0h0Z"/><path class="cls-1" d="M642.85,80.08l-.17,0C642.29,80,642.55,80,642.85,80.08Z"/><path class="cls-1" d="M662,88.28c-.22-.07-.44-.14-.65-.23C661.61,88.28,661.85,88.44,662,88.28Z"/><path class="cls-1" d="M620.24,77.07h0l-.14,0Z"/><path class="cls-1" d="M660.49,87.53a2.53,2.53,0,0,0,.83.52A4.45,4.45,0,0,0,660.49,87.53Z"/><path class="cls-1" d="M692.82,146.43v.21l.06,0Z"/><path class="cls-1" d="M692.87,146.66l0,.24C692.92,146.79,692.91,146.69,692.87,146.66Z"/><path class="cls-1" d="M693,147.39l-.11-.49A.72.72,0,0,0,693,147.39Z"/><path class="cls-1" d="M692.51,140.62l-.14-.05A.22.22,0,0,0,692.51,140.62Z"/><path class="cls-1" d="M692.23,138.88a7.73,7.73,0,0,0,0,1.65l.11,0C692.15,140.33,692.51,139.24,692.23,138.88Z"/><path class="cls-1" d="M692.35,131.24l.24,1.49c.08-.28.19-.67.37,0C692.94,130.77,692.75,133.18,692.35,131.24Z"/><path class="cls-1" d="M691.3,126.65c.3.77.19-.06.28-.05C691.31,126.14,691.24,126,691.3,126.65Z"/><path class="cls-1" d="M674.86,97.17l.3-.17C674.69,96.57,675.06,97.08,674.86,97.17Z"/><polygon class="cls-1" points="669.02 93.97 669.34 94.52 669.75 94.48 669.02 93.97"/><path class="cls-1" d="M667.54,89.73l.25.14c-.3-.2-.61-.38-.92-.55C667.1,89.46,667.33,89.58,667.54,89.73Z"/><path class="cls-1" d="M613.29,75l.3.33C614,75.15,614,74.68,613.29,75Z"/><path class="cls-1" d="M607.86,95.81a1.72,1.72,0,0,0,1.43.66C608.69,96.25,608.16,95.93,607.86,95.81Z"/><polygon class="cls-1" points="606.12 40.82 606.61 41.01 605.77 40.53 606.12 40.82"/><path class="cls-1" d="M676.92,148.35c-.07.09-.15.33-.07.32l.21-.38Z"/><path class="cls-1" d="M677.06,149.28a1.94,1.94,0,0,0,.5-.83c-.24.34-.2.18-.47.59-.09,0-.06-.18,0-.32-.07.09-.07-.13-.21.1s.06.4.28.2A.89.89,0,0,1,677.06,149.28Z"/><path class="cls-1" d="M683,153.11l0-.07A.08.08,0,0,0,683,153.11Z"/><path class="cls-1" d="M686.45,155.74s-.07,0-.09,0S686.43,155.78,686.45,155.74Z"/><path class="cls-1" d="M686.74,156.57l0,0S686.71,156.59,686.74,156.57Z"/><path class="cls-1" d="M683,153.11l0,.17C683.12,153.17,683.05,153.16,683,153.11Z"/><path class="cls-1" d="M678.38,148.74a.33.33,0,0,0-.11.08l.08,0Z"/><path class="cls-1" d="M681.19,152.45l0,0-.11.14Z"/><path class="cls-1" d="M679.88,151.82a2.24,2.24,0,0,0,.28-.43c-.08.13-.14.18-.18.19S679.92,151.72,679.88,151.82Z"/><path class="cls-1" d="M678.07,150.22l-.06,0Z"/><path class="cls-1" d="M682.06,153l-.06.12Z"/><path class="cls-1" d="M709,143.06l0,.05S709,143.05,709,143.06Z"/><polygon class="cls-1" points="711.44 143.38 711.44 143.41 711.55 143.58 711.44 143.38"/><path class="cls-1" d="M687.47,157.76h0C687.42,157.76,687.44,157.77,687.47,157.76Z"/><path class="cls-1" d="M697.53,161.89c-.35,0-.17-.59-.6-.54C697.06,161.4,697.24,162,697.53,161.89Z"/><path class="cls-1" d="M678.39,148.8l.06,0A.07.07,0,0,0,678.39,148.8Z"/><path class="cls-1" d="M696.93,161.35Z"/><path class="cls-1" d="M689.87,159.64a.55.55,0,0,0,.09-.14A.68.68,0,0,0,689.87,159.64Z"/><path class="cls-1" d="M688.54,157.71v.08A.1.1,0,0,0,688.54,157.71Z"/><path class="cls-1" d="M691.07,160.12s0,.08,0,.08l0,0S691.05,160.18,691.07,160.12Z"/><path class="cls-1" d="M691.91,161l0-.07h0Z"/><path class="cls-1" d="M706.08,145.82l.27.2C706.16,145.84,706.24,145.64,706.08,145.82Z"/><path class="cls-1" d="M678.29,148.93a.42.42,0,0,1,.1-.13h0A.69.69,0,0,0,678.29,148.93Z"/><path class="cls-1" d="M693.18,158.18l.1.19A.35.35,0,0,0,693.18,158.18Z"/><path class="cls-1" d="M699.79,152.76v-.07S699.76,152.72,699.79,152.76Z"/><path class="cls-1" d="M693.75,158.8a.66.66,0,0,0-.11.26l.09-.05Z"/><path class="cls-1" d="M706.35,146Z"/><path class="cls-1" d="M706.78,144.46c-.16.13.24.41.39.64-.08.26-.31-.19-.54-.31,0,.19.19.59.1.65s-.1-.06-.15-.15c.14.38-.32.33-.13.8l-.1-.07a3.45,3.45,0,0,1,.47.46c-.06.07.09.33-.15.13.05,0,0-.13-.08-.22l0,.16c-.36-.27,0-.2-.24-.44,0,.23.07.65-.11.65-.33-.3.13-.33-.27-.49l.27,0c-.6-.39.12-.06-.49-.49-.3.1-.08.38-.37.48.12.22.26.25.39.47,0,.58-1-.58-.8,0,.15.26.52.68.16.61l-.29-.4c-.23.16.39.62-.05.58-.1-.17,0-.27,0-.28-.41-.14.1.29,0,.39l-.33-.29c-.16.26-.16.7-.32,1-.08-.1-.14-.24-.29-.28-.12.45-.63.6-1.1.71l.18.37s-.17-.07-.2-.15c-.21,0,.17.17.23.32s-.24-.06-.28-.18c0,.41,0,1-.49,1l0-.12c-.26.07.42.71,0,.63l0-.08c-.44.25-.52.87-1.19.79.38.41-.49.22.08.72-.46,0-.52-.17-1,0-.09.06.27.42.26.57l-.32-.25.22.4-.43-.23v.16a.39.39,0,0,1,.29.11c0,.25-.49.19-.66.07v.56c-.13-.1-.13-.2-.17-.31.18.44-.36-.21-.2.19.09,0,.18.15.25.2a.37.37,0,0,0-.44.35l-.2-.19c-.25.23-.32.63-.53.94.18,0,.55.26.53.38l-.37-.21c.17.21.19,0,.38.3-.12.09-.45-.2-.52-.34l0,.22c-.11-.06-.14-.13-.27-.23.18.2-.51,0-.19.34l-.11-.06a7,7,0,0,0-.34.79c.3.21.17.26.36.5-.22.12-.6.16-.71.41.06.26.23.21.37.4-.28-.16-.39.08-.52-.16a1.56,1.56,0,0,0-.14.87c.14,0,.22,0,.3.1s-.2.07-.34,0l0,0c.2.63-1.38.42-.94,1.1l0,0,.14.51c-.13.12-.17-.21-.41-.19.15.31.06.44-.05.55s-.12,0,0,.17c-.4-.28-.39-.28-.36-.19s.06.26-.12-.08l.13.26c.11.29-.08-.13-.11-.2.09.23.11.24.17.41,0,.41-.19.23-.24-.3a2.12,2.12,0,0,1,0-.37c0-.08,0,1.86-.07.93l.05-.61c0,.35-.1.26-.13.21s0-.12-.22,0c.07-.08.14-.19.15-.18.16-.28,0-.06-.22.11,0,0,.15-.17.24-.27s-.41.13-.22-.13a.13.13,0,0,1,.13,0c-.17,0-.22-.31-.44,0,0-.28-.39-.2-.35-.46-.37.18-.1-.41-.54-.05.44-.38.09-.6-.2-.51.16-.09.05-.21.26-.34-.12-.1-.29-.13-.49.1.3-.69-.8,0-.28-.76a7,7,0,0,1-1.39-.41c.41-.42.37.26.78-.19-.45-.1-1,.12-1.14-.25,0-.13.21-.15.3-.2-.44-.09-.52-.54-1-.53a.26.26,0,0,1,.15-.07c-.06,0-.06-.17-.23,0h.1c-.17.36-.73.43-.87.58.58-.5-.13-.37.63-1a.53.53,0,0,0-.3.21c0-.08,0-.17.22-.28-.28,0-.4.22-.56.07.08-.1.15-.11.26-.21-.24.12-.48.24-.56,0s.11-.14.15-.11c-.28-.16-.85.19-1-.21.43-.38,0-.22.31-.61H688l-.08.24c-.13-.11-.46.08-.47-.14l.21-.08-.29-.12,0,.26c-.28.09-.35.49-.44.25.06,0-.12-.1,0-.37h0c-.16.08-.32.16-.35,0s.34-.42.38-.51c-.3.28-.38-.14-.71.15a1.15,1.15,0,0,0,.26-.31l-.25.23c0-.13,0-.18.15-.34-.15-.18-.3.54-.36.17,0,0,0,0,.11-.07-.14-.27-.54-.13-.65-.41.21-.44.24,0,.41-.36-.34-.14-1,.07-1.17-.21l0,.08c-.42.54,0-.43-.36-.25.07,0,.26-.29.21-.23-.14-.23-.51-.13-.92-.14l.13-.12c0-.21-.26-.28-.35-.42-.13.12-.19.06-.28.3.11-1.1-1,0-1-.91,0,0,.18-.07.15-.09l-.39,0c-.12.28,0,.18-.1.42s-.27.2-.35.16c.23-.09.23-.42.25-.6,0,.09-.1.16-.14.25.1-.56-.32.51-.36.07l.09-.13c-.12,0-.3.17-.37.08.13-.32.17-.09.31-.34-.14-.05-.56.45-.51.09.1-.06.18,0,.28-.08.06-.42,0-.34-.06-.44h0l-.13-.27v.12c-.58.72-.4,0-.89.4.47-.39.19-.27.38-.61,0-.13,0-.28,0-.36-.24.23-.06-.31-.41,0,.05-.12-.1-.07.06-.34-.18,0-.06.21-.15.35-.39.28-.24-.73-.8-.33-.36.11-.59.47-.91.56a.57.57,0,0,1,.25-.39c0-.23-.16-.24-.34-.16a.64.64,0,0,0,.1-.33c-.11,0-.25.38-.3.16a2.94,2.94,0,0,1,.3-.42c-.16.05-.37.22-.54.27.06-.22.21-.28.31-.39a.71.71,0,0,0-.61.33l0,.15c-.05,0,.1-.29.16-.33.22-.2.12.19.07.31l-.11,0c-.22.72.38.05.54.16l-.29.46.36-.33c0,.15-.13.43-.24.47,0,.29.19-.13.17.19a.16.16,0,0,1,0,.08l.19-.09c-.07.09-.14.35-.18.25.08.37.51-.22.42.19l0,0c.38,0,.2-.34.62-.66l-.27.95.2-.34s.07.08,0,.22c.22-.19,0-.17.23-.36,0,.39.47,0,.22.63.18-.24,0-.28.21-.39-.26.63.23,0,.22.33-.2.29-.24.07-.25.41.35-.48.19.25.35.2.23-.41.33-.05.59-.1-.09.14.22.4.31.65l0,.06c.26-.39.39-.22.56-.23a.89.89,0,0,1-.34.4l.11.07a.36.36,0,0,1,.28-.17l-.2.29c.16.07.52-.18.6.14.18-.28.3-.89.62-1-.08.16-.22.43-.32.46s.14-.09.14,0l-.23.21c0,.17.17-.19.23-.12-.13.21,0,.18-.15.35,0,0,0-.13-.09,0a.55.55,0,0,1,0,.45c.06-.12.17-.29.25-.28s-.11.29-.08.45c.12-.13.13.09.33-.24,0,0,0,.19-.08.29.17-.1.4.18.52-.22v0h0c.45-.16.42.52.76.55l-.07.11c.23,0,.38.14.64,0,0,0,0,.26-.13.38.17,0,.27-.12.32.17-.24.11-.07.19-.21,0,.08.19,0,.38.36.2-.24.23-.13.42,0,.39l0-.27a.34.34,0,0,1,.21.16l-.28.33c0,.64,1-.35.76.53.25-.19,0-.29.24-.52.1.14-.12.74-.08.77,0,.32.55-.38.64-.11.07-.14.29-.49.52-.49.1.15-.22.64-.38.67s0-.06,0-.1a.22.22,0,0,0-.22.19l.11-.11c0,.18.16.31,0,.47a.2.2,0,0,0,.17-.28c0,.3.26.21.34.46,0-.09.11-.25.14-.23.13.35.29-.14.51,0,0,.26-.39.41-.09.39,0,.21-.24.33-.36.4.35-.11.18.38.23.49l-.16,0a.18.18,0,0,1,.17,0l.15-.27c0,.08.05.11,0,.21.18-.11.29-.43.56-.55,0,.17.3,0,.06.36-.11-.27-.24.33-.45.24.06,0,.1,0,.11.11a.11.11,0,0,1-.09.06c-.05.44.38-.27.57-.1-.17.15-.23.37-.17.36s.21-.32.4-.4c0,.25.22,0,.27.09l0-.12c.18-.16.22-.08.36-.06-.11.14-.16,0-.18.11.36-.22-.06.5.26.42-.05.17-.29.32-.3.45.34-.08-.06.38.26.34.16-.27.1-.22.41-.34l-.39-.08.46-.18c-.07-.07-.29,0-.3-.08.24-.12.19-.07.32-.29-.21.44.39,0,.3.34l-.52.55c-.05.42.59,0,.69.38l0-.17c.24-.19.17.1.33.09a1.4,1.4,0,0,0-.28.43c.13-.14.15.18.53-.16l-.14.34c.09.28.73-.3.85-.06-.26.14-.31.35-.57.37.06.06.08.14.21,0-.08.15.41-.07.29.15.1,0,.3-.23.35-.14a.44.44,0,0,1-.09.08c.09-.08.23,0,.38-.26-.41.73.53.5.18,1.12a1.69,1.69,0,0,1,.51.31c-.06,0-.1.08-.1,0,0,.33.65-.37.65,0-.16.44-.27,0-.31.22-.27.32-.17.4,0,.46s.32.09.27.43h-.07c0,.46.49.13.64.44a.46.46,0,0,0,0,.14.66.66,0,0,1,.76-.14c-.12.41-.12.14-.16.67.09.05.11-.79.26-.75a13.44,13.44,0,0,1,.07,1.36l-.17-.22c0,.86.22.31.29.56l0,.33c.28.31.27-.65.5-.22l0-.35c.06-.86.15.75.21.14l.06.55.07.58c0-.07,0-.18,0-.3s0-.33,0-.51c0-.36.06-.71.09-.9a14,14,0,0,1-.06,2.1,2.32,2.32,0,0,0,.18-1.12c0,.15,0,.46-.06.37a5,5,0,0,1,.1-1.68c.17.84.27.76.38.59s.23-.41.48,0a1.42,1.42,0,0,1,.35-1,2.59,2.59,0,0,0,.54-.82c-.68-.37.07-.22-.54-.76,0-.16,0-.19.1-.17a2.82,2.82,0,0,0,.6-.13c.25,0,.07.24.22.32.24-.32.37,0,.69-.12-.27-.11-.33-.25-.18-.31l-.4,0c-.23-.46.71.08.48-.38l.17.2c-.06-.21.27-.5-.22-.94.1,0,.3.09.32.18.27-.27-.16-1.05.33-1.11l.15.13c0-.09-.25-.29,0-.27s.15.13.18.1-.2-.33-.05-.35l.14.18c.4-.18-.17-.76-.11-1.09a.93.93,0,0,0,.95.1l.07,0c.29-.31,0-.86,0-1.32.64.15.68-.54,1.21-.64a.67.67,0,0,1-.36-.36c.15,0-.16-.45.25-.12l0,0c.45.25.46,0,.56-.1l-.54-.43c1,.29.33-1,1.17-.65-.07-.18,0-.27-.07-.45l.28.23a.93.93,0,0,0,.49-.52l.16.22c.13-.12-.67-.85-.58-1l.45.31c.19-.26.78-.18.6-.74.06.06.18.17.16.22s.65-.19.06-.64c.37.32.25-.22.2-.49l.25.26c-.24-.42-.33-.51-.29-.75.06,0,.24.17.13.15.25,0-.17-.32.11-.33l.12.21c.13-.11,0-.18-.1-.43s.28-.17.53,0c-.13-.15-.26-.4-.12-.41a.36.36,0,0,1,.14.19c.37,0,0-.59.37-.48a.48.48,0,0,0,.18.12c-.16.16-.3.27-.3.24.24.23.4.14.64.56-.09-.27-.32-.83-.09-.85l.1.07,0,0s0-.06,0-.12a.31.31,0,0,0,.18,0c.21.18.24,0,.32-.09-.27-.25-.14-.29-.43-.43,0,0,0,0,0,.1s0,0,0,.05v0l-.14.18c-.09-.18-.14-.34.07-.27l-.33-.5c.45.27.81.3,1.05.49,0-.33.35-.54,0-1.15,0-.11.2.08.3.14s0,.11,0,.19c0-.23.28-.36,0-.73.29,0,.23.39.36.15l.08.13c.9.2-.22-1.48.88-1.15a.35.35,0,0,1-.16-.08c.78-.13.75-1.23,1.7-1.13.23,0,0-.26,0-.52l.29.28-.14-.47c0-.43,1,.43.85-.27l-.2-.18c.13,0,.21-.37.38-.12,0,0-.14-.24,0-.16l.13.16,0-.47c.28,0,.47.66.76.49a1.14,1.14,0,0,0-.19-.77c-.05,0-.18,0-.3-.19l0-.16c-.34-.49-.62-1.06-1.14-1.19l.06.42-.24-.19.14-.12c-.25-.16-.16.07-.11.25a.76.76,0,0,0-.27-.2l.19.58c-.17-.17-.22-.42-.41-.44.09.27.4.36.39.6-.25-.15-.37-.35-.31-.09a.43.43,0,0,1-.16-.29c0,.21-.17.24,0,.52-.3-.19-.22.3-.58-.15.07.13.15.46.09.54-.3-.63-.31.2-.74-.39.29.55-.19.52-.14.93,0-.05-.07-.14,0-.13-.13.05-.28-.07-.42-.1.32.39.24.61.36.92-.44-.26-.32-.51-.66-.83.27.3.06.49.32.71a1.42,1.42,0,0,1-.5-.31c.41.49,0,.15.17.51-.34-.11-.43-.41-.44-.14C706.8,144.74,706.78,144.46,706.78,144.46Zm-2.56,4h0l0-.08Zm-.26.28a.4.4,0,0,0,.12-.11c.1.08.18.18.15.2S704.07,148.76,704,148.73Zm2.36,1.18c0,.07-.07,0-.13,0a.19.19,0,0,0,0-.1l0,0Z"/><path class="cls-1" d="M706.05,149.5v0l-.08,0,.07.09Z"/><path class="cls-1" d="M683,153h0l0,0Z"/><polygon class="cls-1" points="699.92 152.31 699.99 152.36 699.95 152.29 699.92 152.31"/><path class="cls-1" d="M681.82,150.9a.16.16,0,0,0,0-.09S681.83,150.86,681.82,150.9Z"/><path class="cls-1" d="M681.06,150.4l-.06-.18A.74.74,0,0,0,681.06,150.4Z"/><path class="cls-1" d="M680.51,149.92l-.08.13h0Z"/><path class="cls-1" d="M690.1,155.85h0C690.23,155.85,690.18,155.84,690.1,155.85Z"/><path class="cls-1" d="M687,154.4a.89.89,0,0,1,.19-.07C687.13,154.27,687.09,154.24,687,154.4Z"/><polygon class="cls-1" points="693.16 158.16 693.16 158.16 693.18 158.18 693.16 158.16"/><path class="cls-1" d="M687.28,154.43c0-.1,0-.12-.12-.1S687.2,154.44,687.28,154.43Z"/><path class="cls-1" d="M677.81,148.45l0,0,0,0Z"/><path class="cls-1" d="M677.76,148.48l0,0S677.74,148.51,677.76,148.48Z"/><path class="cls-1" d="M677.6,148.55l.11-.05S677.66,148.47,677.6,148.55Z"/><path class="cls-1" d="M678.6,149l.06-.12Z"/><path class="cls-1" d="M678.88,149.07s0-.32-.16-.29l-.06.09C678.79,148.72,678.72,149.25,678.88,149.07Z"/><path class="cls-1" d="M679.22,151l-.16-.2c0,.15-.06.34-.17.33C679,151.67,679,150.86,679.22,151Z"/><path class="cls-1" d="M679.76,151.55c-.14,0-.09.18-.13.25C679.76,151.72,679.79,151.7,679.76,151.55Z"/><path class="cls-1" d="M684.2,154.14l-.2.27C684.11,154.42,684.08,154.31,684.2,154.14Z"/><polygon class="cls-1" points="685.99 153.29 686.02 153.07 685.82 153.29 685.99 153.29"/><polygon class="cls-1" points="685.1 155.56 685.04 155.57 685.24 155.57 685.1 155.56"/><path class="cls-1" d="M691.52,161.08l.28-.29C691.71,160.79,691.36,161.09,691.52,161.08Z"/><path class="cls-1" d="M695,165c0,.46.18.9.2.57S695,165,695,165Z"/><polygon class="cls-1" points="701.88 155.1 701.95 155.25 701.94 155.07 701.88 155.1"/></svg>