<svg id="圖層_1" data-name="圖層 1" xmlns="http://www.w3.org/2000/svg" viewBox="0 0 799 481"><defs><style>.cls-1{fill:#202020;}</style></defs><title>vi9</title><path class="cls-1" d="M588.66,208.14c.53-.11.23-.37-1.22-.31l-1,.43Z"/><path class="cls-1" d="M578.92,207.44c-1.7.24-3.65.66-2.54,1,1.67-.45,2.08-.29,3.89-.81,1.45-.07,2.53.1,2.29.27a24.84,24.84,0,0,0,3-.2,23.81,23.81,0,0,0-6.76,0C578.28,207.64,578.8,207.52,578.92,207.44Z"/><path class="cls-1" d="M440.2,232.28l.86-.31C440.82,232,440.53,232.15,440.2,232.28Z"/><path class="cls-1" d="M390.46,295.62a3,3,0,0,0-.43-.92C390.27,295.29,390.48,295.77,390.46,295.62Z"/><path class="cls-1" d="M397.84,309l-.55-.71A3.91,3.91,0,0,0,397.84,309Z"/><path class="cls-1" d="M440.2,232.28l-2.21.82C437.9,233.29,439.14,232.71,440.2,232.28Z"/><path class="cls-1" d="M559.47,209.2a9.76,9.76,0,0,0,1.26-.18l-1.19.11A.23.23,0,0,1,559.47,209.2Z"/><path class="cls-1" d="M476.82,219.57l.69-.17a5.31,5.31,0,0,0,.53-.32Z"/><path class="cls-1" d="M505.88,213.2a1.63,1.63,0,0,0-1.05.7,4.7,4.7,0,0,1,1.4-.5C506.22,213.33,506.12,213.26,505.88,213.2Z"/><path class="cls-1" d="M552.74,208.16l.83-.11Z"/><path class="cls-1" d="M456.38,225.63a.53.53,0,0,0-.3,0S456.21,225.64,456.38,225.63Z"/><path class="cls-1" d="M548.71,196.32s0,0,0-.07C548.54,196.3,548.49,196.33,548.71,196.32Z"/><path class="cls-1" d="M514.4,198.33l.47-.09a.4.4,0,0,0,.07-.22Z"/><path class="cls-1" d="M418.94,327.06l-.1-.07C418.2,326.64,418.56,326.85,418.94,327.06Z"/><path class="cls-1" d="M665.79,357.17c-2.87.14,4.53-1.16.22-.82C666.43,356.42,662.24,357.52,665.79,357.17Z"/><path class="cls-1" d="M558.7,209.2l-1.21.08C558,209.25,558.41,209.23,558.7,209.2Z"/><path class="cls-1" d="M666,356.35h0l-.44,0Z"/><path class="cls-1" d="M478,350.26a3.4,3.4,0,0,0-.59-.31S477.55,350.07,478,350.26Z"/><path class="cls-1" d="M433.6,334.12l1,.55Z"/><path class="cls-1" d="M502.05,355.05a11.33,11.33,0,0,0,1.68.33l-.25-.09A5.41,5.41,0,0,1,502.05,355.05Z"/><path class="cls-1" d="M527.24,358.94l-.46-.13-.8-.08Z"/><path class="cls-1" d="M625.7,196.69a5.59,5.59,0,0,1-1.14-.41C624.93,196.57,621.21,196.39,625.7,196.69Z"/><path class="cls-1" d="M559.44,209a1.58,1.58,0,0,1-.74.2l.84-.07C559.61,209.08,559.62,209,559.44,209Z"/><path class="cls-1" d="M503.59,352.42l4,.76C506.43,353,505,352.67,503.59,352.42Z"/><path class="cls-1" d="M784.22,264.61l-.28-.85A4.44,4.44,0,0,0,784.22,264.61Z"/><path class="cls-1" d="M519.34,355a15.85,15.85,0,0,0,2.21.57,3.18,3.18,0,0,0,.47,0Z"/><path class="cls-1" d="M624.55,196.28h0Z"/><path class="cls-1" d="M598,195.78c3.83.13,1.81-.41,2.64-.66,4.58,0,2.1.42,3.65.71,2.87,0,5.08-.32,7.21-.2.15.09.57.14.07.21a56.43,56.43,0,0,1,6.07.11,56.45,56.45,0,0,0,6.45.18,1.54,1.54,0,0,1,.45.15c-.55-.28-.62-.53-.49-.69,1.72.11,3.22-.08,3.84.28a5,5,0,0,0-1.65.1h1.81c1.58.57-2.47,0-2.5.31,3.52.07,7.64.15,10.32.5.52.49-6.3-.43-2.75.29l-4.14-.55c3.12,1-2.52-.28.34.73,5.44.64,6.13.3,11.56,1,1.25-.1-.37-.4.88-.51,7.79.47,6,1.73,11.7,1.93a14.2,14.2,0,0,1,6.15.28l-1.45.3c5.25.79,3.1-.25,8.55.94-1,0-4.15-.5-3.37-.32,3.5,1,2.56.13,5.3.57l.49.52,8.74,1.37c3,.47,6.06,1.09,9.14,1.7-.37,0-1.45,0,0,.4,7.77,1.54,16.47,3.83,23.73,6.05l2.89.41c.65.18,1.15.51.44.37,2.78,1,.21-.18,1.61.08,1.61.46,2,.86,1,.65a42.77,42.77,0,0,1,4.33,1.27c1.61.6,3.35,1.29,5.08,2a86.74,86.74,0,0,1,9.27,4.54l-1-.38c3.78,2,4.69,1.46,8.08,3.6l-.71-.29c4.11,2.21,8.48,4.48,12.52,6.74,2,1.19,3.9,2.3,5.63,3.48.85.61,1.66,1.21,2.45,1.79a21.47,21.47,0,0,1,2.15,1.75,6.66,6.66,0,0,1,1.7,1.06,28.53,28.53,0,0,1,2.4,2c1.59,1.49,3.15,2.87,3.59,2.85A40.28,40.28,0,0,1,775,247.2c.63,1,1.6,2.13,3.46,5.26.56.79,1,1.38,1.48,2a13.07,13.07,0,0,1,1.62,2.35l-.33.23c.57.93,1.16,1.86,1.73,2.82l.14,1.81c.27.7.61,1.38.83,2.1-.21-.88-.46-1.86-.29-1.78.17.41.35.84.5,1.3s.25.94.38,1.41a20.67,20.67,0,0,1,.58,2.76,11.88,11.88,0,0,1,.23,3.09,76.81,76.81,0,0,1,1.2,8.34,20,20,0,0,1-.5-2.69c.72,4.47-.34.83.24,4.94.08-.56.24.3.32.39-.12,1-.1,2.78-.21,4.55a36.83,36.83,0,0,1-.76,5.39l-.12-.69A40.48,40.48,0,0,1,776.34,308c1.7-1.83,1.71-1.09.41.52l-.87.33c-.7,1.16,1.57-1.49,0,.75-1.85,1.89-1.55.95-.63-.23-.67.82-1.4,1.59-2.11,2.39-.22,0,.26-.54.28-.79-.72,1.13-4.24,3.46-5.44,5l-.22,0c-2.73,2.2-4.79,3.72-6.75,5.1s-3.82,2.62-6.3,4.09c.09.38-1.9,1.45-3.27,2.53-3.78,2-8.13,3.82-12.8,5.93-3.23,1.61-.84.71-2.25,1.55-.37-.18-5.09,1.8-2.73.57-2.83,1.2-4.66,1.92-6.68,2.72s-4.23,1.69-7.88,3.07c.84-.14,1.76-.4,1.33-.13-1.32.52-3.1.9-3,.68l.35-.15a96.9,96.9,0,0,1-13.73,3.94c-4.72,1.08-9.24,2-12.55,3.14l.37-.12c-2.32.66-4.65,1.31-7,1.93-3.27.65,1.9-.66-.55-.34-7.54,2.15-12.13,2.33-18.41,3.75-5.06-.12-17.49,2.66-24.26,2.7l.41.19a12.76,12.76,0,0,1-3.39.16c.2.16,1.9,0,.84.25-14.64,1.79-30.36,2-45.44,2-5.52,0-3.13,1.24-10.1.65l2-.42c-11.16.47-22.79-.51-33.7-.86a7,7,0,0,1,1.75-.1c-2.28-.45-8.5-.66-8.56-.42-1.69-.17-.37-.26-1.4-.48-2.29-.39-5.82-.14-7-.59-.2-.07.66,0,1.08,0-1.51,0-7-.79-5.58-.28-4-.62-7.8-.79-11-1.44-2.17.11-6.91-1.2-7.67-.76.38-.52-7-1.59-9.6-1.82.89,0-2.18-.58-1.14-.64-2.9-.54-5.57-.95-5.13-.56-5.19-1.74-10.82-1.73-13.6-3.32a246.81,246.81,0,0,1-24-6c.44-.42,8.34,2.55,8.2,1.84-7.22-1.92-11.5-2.77-18.4-5.5-1.77-.75,1.1.16,1.75.28-7.1-2.35-13.4-5.35-19.49-8a7,7,0,0,1,1.34.47c-1.19-.54-2.68-1.42-2.67-1.12l1.17.51c1.7,1.3-5-1.62-5.29-1.59,2.3.41-5.67-3.34-2.11-2.47-.77-.37-1.76-.81-1.68-.56-1.08-.69-1.37-1-.16-.5-2.05-1.11-2.73-1.44-3.37-1.73a18.75,18.75,0,0,1-3-1.74c.08-.1.82.32,1.27.44a32.47,32.47,0,0,1-6.66-4.2c.22.06-.06-.26.8.38-4.86-3.68-8.63-6.07-12.82-11.37.85.58.52.11,0-.57s-1.18-1.62-1.1-1.9c-.73-.93-1.48-1.86-2.13-2.85.19.44.37.9.58,1.33a32.22,32.22,0,0,1-4.23-7.47c.37.69.7,1.39,1.12,2.05a33.93,33.93,0,0,1-2.16-5.43c.23,1.08.55,2.14.88,3.21-.66-1.45-.77-1.33-.89-1.33s-.25-.14-.77-2.19a24.73,24.73,0,0,1-.59-4.78h0c-.07-.39-.15-.78-.22-1.18s-.1-.82-.14-1.27a15.28,15.28,0,0,1,.08-3.05c.21-.58.49.53.63.14a8.8,8.8,0,0,1,0-1.82,24.16,24.16,0,0,1,.41-2.62c.35-1.86,1-3.69,1.13-4.69-.13.65.1.77.22.59,0-.44.08-.89.16-1.32.67-1.31.8-1.48.89-1.18,1-1.94.7-1.7.48-1.54s-.44.22,1-2a9.54,9.54,0,0,1-.41,1,51.44,51.44,0,0,1,9.09-11.86c.67-.34,0,.44-.75,1.19s-1.36,1.51-.67,1A77.21,77.21,0,0,1,418,245.36l-1.09.65c.41-1.11,4.43-2.46,7.25-4.42-.71.45-.76.88-.61.69,4.08-2.21,8.25-4.71,14.6-7.82l-.72.53c2.56-1,6.65-2.82,9.45-3.81.75-.49,2.35-1.06,1.29-.94,8.87-2.33,16.32-6.3,24.39-7.69-.93.26-2.19.77-1.44.56,2.2-.68,4.41-1.33,6.63-2-.61-.16-.93.06-2.39.21a24.89,24.89,0,0,1,4.32-1.45c-3,1,.15.45,1.49.28-.24,0,.18-.24.05-.3,3.64-.33.44-.75,5.34-1.53l-.22.21c1.78-.49,3.4-1.08,5.36-1.45.88.17-1.89.58-1.95.88,2.72-.62,5.26-1.8,7.82-2-1.15.33-2.82.67-4,1a32.63,32.63,0,0,0,5.1-.66l-.2,0,4.69-.71-1.21.11c3.28-1.52,7-1.44,11.56-2.75-4.45,1.26-.7.43-1,.88,1.21-.09,3-.25,2.54-.06,2.15-.64,3.71-.32,6.76-1.2.16.1,2.36-.31,1.91.07,2.85-.49-.71-.13-.49-.31,4.38-1,10.48-.81,16.81-2,5.49-.76,6.48-1.27,11.6-1.87,1.75.08-1.38.57-1.38.57a65,65,0,0,0,7.53-.51c-.52.15,0,.2.84.29,2.12-.14,1.39-.53,4.19-.5a11.27,11.27,0,0,1-2.08.62c2.48-.26,4.94-.59,7.51-.82.7.19-1.54.4-2.44.59,2.89-.25,7.51-.49,8.39-.86l-1.86-.06c1-.06.55.27-.23.36-2.48.36-3.59,0-3.74-.11l1.84-.15c-1.92-.69-7.39.42-11.09.59l1.51-.62-3.77.67c-.81-.09-1.39-.36.44-.55-2.67-.09-2.34.33-4.64.2-.25,0-.14-.07.09-.1l-2.58.35c.5-.15-.46-.35,1.14-.39-4.69,0-7.48,1-9.26.76l.38-.07c-6.43.8-.59.44-5.37,1.39l-3.35-.62-.59.46c-.67.06-2,.19-1.76,0-2.44.55.44.12-1,.54-3.24,0-8.77,1.29-9.57.77-1.11.45,3.07-.19-.3.48-1.06-.52-3.91.67-6.86.83.84-.48,3.62-.73.67-.58-1.66.84-5.68.78-8.1,1.32,0,.48-5.28,1.13-9.33,2.11.23-.22-7.72,1.31-11.53,2.07l.09-.11c-.62.64-4.52,1.47-7.31,2.3,0-.3.52-.54,2-1.05l-2.65.68a19,19,0,0,1-3.09,1.11L475,220c-3.52,1-7,2.36-11.5,3.52-.15.39,3.82-.23-.83,1.45-.23-.11-.5-.35.72-.8a18.9,18.9,0,0,1-2.24.78l1.8-.89c-2.08.51-1,.58-2.62,1.08-.05-.26-1.26.21-1.09,0,.41-.16,1.45-.37,2-.66a40.32,40.32,0,0,1-4.89,1.21c.21.08.11.32-1.21.81-3.43,1.23-1.28.13-3.32.72-.78.46-3,1.12-2.94,1.49a4.26,4.26,0,0,1-1.67.33c-1.71.82-8.15,3.37-6,2.93l.46-.16-.28.14h0c-5.53,2.75-11.8,5.07-17.08,8.23l-.06-.11a85.59,85.59,0,0,0-9,5.93c-.89.62-2.23,1.27-1.94.88-2.22,1.73-2.41,2-5.69,4.38,2.05-2-.91.43,2.16-1.94a31,31,0,0,0-6.38,5.49c.37-.58-.2-.18-1,.53a25.73,25.73,0,0,0-2.38,2.47c.63-.6,1.3-1.14,2-1.7-.68.71-1.32,1.37-1.92,2s-1.2,1.29-1.76,2l.28-1a31,31,0,0,0-5.89,8.59c-1.41,2.9-2.4,5.68-3.59,8.39-.12,1,.19,0,.56-1s.83-2,.67-1.09a40.68,40.68,0,0,0-2.36,8,12.83,12.83,0,0,0,.17,4.74c.14.57.28,1.14.41,1.89s.29,1.65.56,2.88c0-.33.08-.66.26-.46a12.14,12.14,0,0,1,1.06,2.68c.21.84.44,1.5.55,2a6.15,6.15,0,0,1,.16,1.07c0,.39-.35.16-.77-.87-.3-.79-.39-1.19-.33-1.17-.39-1.06-.86-2.49-.63-1.1l.27.4a13.1,13.1,0,0,0,.48,1.68c.19.66.45,1.35.69,1.95.44,1.21.84,2.05.47,1.6,1.32,2.33.71.91-.06-.89a30.09,30.09,0,0,0,2.67,5.13c.93,1.51,2,2.94,3.37,4.8-.39-.63-.65-1.28-.21-.7,2,2.69,2.65,3.14,3,3.42a13,13,0,0,1,2.23,1.93c1.69,1.95-1.09-.21,2.39,2.76,2,2,.18.7-.74.05,3.3,2.59,5.87,5.17,7.79,6.61l-1.85-1.21c1.11.72,2,1.38,2.87,2-.29-.32-.57-.65-.85-1,1,.8,1.92,1.41,1.83,1.5,1.21.59-.55-1,1.77.26,1.34,1.09,4.47,2.66,4.77,3.31-4.5-3,.29.68-3.61-1.7.76.45,1.68,1,2.75,1.73.14.14-.2,0-.52-.19,4.26,3,2.26.86,6.91,3.46-.7-.11.89,1,1.69,1.33-1.9-1-.74-.81,1.09-.06a38,38,0,0,0,5,2.33l-1.8-.95a32.75,32.75,0,0,1,4.43,1.78c.11.25-2-.78-1.27-.36,2.55.74,5.26,2.84,8.77,4,1.52.78,0,.46,1.34,1.11a30.5,30.5,0,0,1,4,1.58,26.32,26.32,0,0,0,4.19,1.59c-1.07-.72-1.3-.7,1.67,0-2.26-.71-4.52-1.45-6.76-2.23,1.48.4,2.95.8,4.44,1.16-2-.71-4.32-1.39-5.5-1.89,2.12.54,1.88.52,1-.08,2.58,1.48,5.53,1.79,8.64,3.17l-.35.69c4.74,2,8.74,2.46,15.06,4.45l-2-.71c.94-.05,3.94,1.08,6.05,1.5-.26.2,1,.64,1.86,1-.06-.21,4.7,1.22,5.4.85l2.8,1c5.19,1.33,6.11.64,11.12,1.75-1.57,0,.68.61-2.74.12,1.69.34,3.19.7,3.25.53.95.35,4.73.58,6.24,1.08a9.32,9.32,0,0,1,2.9.16c.2.09,0,.13,0,.13s3,.33,1.39-.23c5.07,1.71,14.57,2.24,19,3.46,3.72.4,8.21.8,11.59,1.13-.22.05,0,.12-.66,0,4.64.69,2.93-.43,8.21.29,2.68.64-2.83,0-1.16.29.67.9,6.42.42,10,1.13h-.87c2.71.46,6.69.11,11.16.37,0,0-.22.06,0,.13,3.08-.28,8.88-.23,13.18-.26-1.34.3-2,.13-1.15.48,1.93,0-.55-.53,3.3-.56,1.25.2,4,.39,4.39.74l-3.63,0c1.86.5,4.71,0,6.62.12l-.24.2c5.57-.07,5.65-.58,11.63-.64l-.62-.14c3.26-.57,2.75.23,6-.24l1,.48c2.16-.19,7.55-.76,11.4-1.08-2.17.5-6.68.91-9.48,1.22a68.41,68.41,0,0,0,8.37-.66,18.88,18.88,0,0,1-2.79.24,80.92,80.92,0,0,1,10.29-1.18c-.34.53,2.44.39,5.69.18a60.65,60.65,0,0,1,8.56-.33c7.48-1.09,14.92-1.46,23.63-2.82-3.2-.3,2.54-.4,1.89-1.11a22.15,22.15,0,0,1,3-.46c2.07-.18,4.14-.36,6.2-.58,1.49,0-1.89.52-1.67.66,4.43-.73,1.91,0,4.88-.33-.65-.16,1.46-.69,4-1.07l-3.61.33a27.79,27.79,0,0,1,5.77-1,24.93,24.93,0,0,0,5.8-1.1l-1.91.67c3.16-.78,11.71-2.66,14.63-4.11.58-.05,1.37,0,0,.38,3.77-.94,7.89-2.25,11.79-3.57s7.55-2.63,10.47-3.44l-.5.37a29,29,0,0,1,4-1.61c-.06.11-.48.38.15.17s3.5-1.66,5.33-2.27l-1.45.81c7.17-2.54,10.59-4.91,16.24-7.81.23.53,5.68-2,8.31-3.44l-.05.12a80.92,80.92,0,0,0,10-6.57,107.24,107.24,0,0,0,8.67-7.48,42.4,42.4,0,0,0,8.22-8.33,48.13,48.13,0,0,0,4-6.14,49.61,49.61,0,0,0,2.88-6.32c-.25.6-.35.51-.31.1a10.28,10.28,0,0,1,.32-1.89c.67-1.9.62-5.43,1.06-5.06l-.08.71a11,11,0,0,0,.64-3.75c0-1.59,0-3.33-.08-4.89l-.7-.48a42.55,42.55,0,0,0-1.66-14.16c-.37-1.17-.66-2.33-1.07-3.4s-.77-2.09-1.11-3-.77-1.76-1.06-2.52-.51-1.43-.7-2c-.57-.83-1.14-1.78-1.72-2.73s-1.31-1.79-1.93-2.56l.36-.12a36.11,36.11,0,0,0-2.21-3l-1-1.32c-.35-.42-.74-.81-1.12-1.22-.76-.8-1.53-1.66-2.46-2.57L770,237.86l1.2.74a11.88,11.88,0,0,0-3.62-2.33,24.72,24.72,0,0,1-3.55-2l-.56-1c-2.69-1.92-5.52-3.65-8.33-5.38a83.78,83.78,0,0,0-8.68-4.47c.13,0,.37-.07,1.32.41-2.69-1.48-10.4-5.77-9.74-4.59.15-.48-6-3-9.32-4.29l.65-.09a48,48,0,0,1-6.89-2.29c-.89-.43-.68-.61.48,0a10.8,10.8,0,0,0-2.85-1.06,24,24,0,0,1-3.4-1l1.49.23a16.67,16.67,0,0,0-4.88-1.07c-2.08-.44-6.15-1.74-6.56-2.17a14,14,0,0,1-4.24-.67c-.24-.19.48-.09.85,0-5.42-1.57-8.24-1.53-11.93-2.75-.05-.13-.28-.25-.59-.35,4.35,1,7.86,1.85,7.52,1.8.08-.32-3.43-1.2-.52-1a112.32,112.32,0,0,1-11.23-1.93,2.25,2.25,0,0,1-.44-.21l.37,0a21.36,21.36,0,0,0-2.19-.42c-1.09-.29-1.79-.48-2.84-.71-.35-.39-4-1-5.82-1.3.08.38-2.24-.11-.12.59-.27-.08.35,0,1.53.23.27,0,.58.09.76.1h-.12l2,.36,2.41.51a24.26,24.26,0,0,1-4.84-.84c-1,.06-2,.11-2.59.12-1.16-.48-2.9-1-4.43-1.46a19,19,0,0,1-3.14-1c-5.47-.73-12.87-1.77-16.38-1.56a5.78,5.78,0,0,1-2.33-.58c.91,0,2,.16,2.47.14-3.13-.21-9.22-1-10-.6-3.89-.65,2.25-.23-3.15-.69l.75-.07a83.24,83.24,0,0,0-14.1-1c-2.25,0-4.52-.05-7-.19s-5.07-.29-8-.68a5.72,5.72,0,0,1,1.39.24c-13.44-1.12-27.73-.48-41-.86a29.8,29.8,0,0,0-6.47.62l-.83-.36c-1.31.2-2.62.37-3.92.59-5.55.69-9.73-.49-16.74.79l.93.18c-2.53.16-8,.82-7.6.52a4.29,4.29,0,0,1-1.81.34l-.09-.19-6.17,1c-2.41.19-2.25,0-2.36-.19s-.5-.3-4,.18c-2.6.46-7.32,1.66-6.32,1.65a8,8,0,0,1,2.8-.07l-2.35.45c-.34.66-2,1.53,3.81,1.11l4-.95,1.34.1-3.4.51a15.06,15.06,0,0,0,4.5-.78,6.08,6.08,0,0,0,1.74.12l3.92-1c.51.18-1.73.66,1,.49,1.83-.47-1.85-.32,1.22-.84,2,.05,1.43.33,3.68-.15.34.13-.14.26-1,.44,2-.4,5.38-.54,6.4-1,2.06.16,6.87-.67,6.71-.06a45.21,45.21,0,0,1,5.43-.78c-3.38.89,7-.39,6.15.44a34,34,0,0,1,6.08-.61c2.53-.13,5.31-.22,7.55-.39a5,5,0,0,1-1.14.13c2.53,0,3.27.19,4.9.29.32-.49,4.26-.7,6.39-1,3.1.52-1.89.57-.92,1-.15-.41,5.39-.35,4.34-.7,2.37.32,2,.16,3.26.6.43-.63,2.21-.11,4.18-.44,3.43.42.87.62,4.65.54C601.36,195.66,598,195.78,598,195.78Zm89,9.12h0l-1.81-.37Zm7.37,1.68-3.19-.75c-.23-.18.08-.24.82-.06A12.24,12.24,0,0,0,694.42,206.58Zm-15.09-5.92a4.54,4.54,0,0,1,1.72.46c-.56-.12-1.21-.25-2.07-.38l-.15,0A1.46,1.46,0,0,1,679.33,200.66Z"/><path class="cls-1" d="M677.12,200.74l-.49-.07.69.21.44,0Z"/><path class="cls-1" d="M441.21,231.91l-.15.06.33-.08Z"/><path class="cls-1" d="M781.16,257.08l.08-.05c-.11-.18-.22-.37-.34-.54A6.21,6.21,0,0,1,781.16,257.08Z"/><path class="cls-1" d="M481.12,220.18a2.12,2.12,0,0,0,.55,0A4.21,4.21,0,0,0,481.12,220.18Z"/><path class="cls-1" d="M498.65,216.38l2.52-.36C500.08,216.16,499.28,216.28,498.65,216.38Z"/><path class="cls-1" d="M512.26,214.13a.58.58,0,0,0,.24-.19h0Z"/><path class="cls-1" d="M433.79,331.52l.49.21C435.43,332.21,434.66,331.87,433.79,331.52Z"/><path class="cls-1" d="M390,287.65c.12.67.31,1.32.46,2C390.27,288.54,390.19,287.66,390,287.65Z"/><path class="cls-1" d="M503.15,352.33h0l.45.08Z"/><path class="cls-1" d="M391.1,292.56c-.14-.55-.21-1.07-.33-1.54s-.23-.92-.32-1.36a13.63,13.63,0,0,0,.26,1.46A10.09,10.09,0,0,0,391.1,292.56Z"/><path class="cls-1" d="M571.75,208.69h.67s0,0,.08-.06Z"/><path class="cls-1" d="M572.5,208.62l.73-.07A3.21,3.21,0,0,0,572.5,208.62Z"/><path class="cls-1" d="M574.78,208.42l-1.55.13A6.4,6.4,0,0,0,574.78,208.42Z"/><path class="cls-1" d="M553.51,209.44l-.2.15C553.42,209.55,553.49,209.5,553.51,209.44Z"/><path class="cls-1" d="M548,209.89c1.32-.08,3.33,0,5.16-.19l.17-.11C552.46,209.85,549.21,209.57,548,209.89Z"/><path class="cls-1" d="M524.73,210.7l4.65-.48c-.83,0-1.92-.09.18-.38C523.67,210.15,530.81,210,524.73,210.7Z"/><path class="cls-1" d="M510.39,212.61c2.46-.46-.07-.2.05-.29C508.89,212.71,508.52,212.81,510.39,212.61Z"/><path class="cls-1" d="M412.39,247.33v-.42C410.85,248.11,412.46,247,412.39,247.33Z"/><path class="cls-1" d="M398.92,262l1.35-1.28c.11-.29.22-.58.35-.86C400,260.6,399.49,261.33,398.92,262Z"/><path class="cls-1" d="M390.72,270.91l.31-.82c-.41,1-.84,2.07-1.15,3.15C390.12,272.45,390.41,271.68,390.72,270.91Z"/><path class="cls-1" d="M522.7,358.68l-.52-.49C520.87,358.09,520.53,358.51,522.7,358.68Z"/><path class="cls-1" d="M598.42,362.49a14.34,14.34,0,0,0,4.27,0C601,362.53,599.28,362.42,598.42,362.49Z"/><polygon class="cls-1" points="789.29 275.52 789.57 277.06 789.19 274.15 789.29 275.52"/></svg>