<svg id="圖層_1" data-name="圖層 1" xmlns="http://www.w3.org/2000/svg" viewBox="0 0 306 46"><title>wtm_logo_black</title><path d="M65.65,13.52h2.4l3.32,13.42.3,1.25h.11l.38-1.25,4.08-13.42h2.25l3.9,13.42.38,1.25h.1l3.6-14.67h2.4L84,31.79H81.7L77.82,18.57l-.41-1.43h-.1l-.43,1.43-4,13.22H70.6Z"/><path d="M92,31.28a6.45,6.45,0,0,1-2.39-2.5,7.61,7.61,0,0,1,0-7A6.39,6.39,0,0,1,92,19.29a6.91,6.91,0,0,1,6.89,0,6.36,6.36,0,0,1,2.38,2.5,7.53,7.53,0,0,1,0,7,6.43,6.43,0,0,1-2.38,2.5,6.91,6.91,0,0,1-6.89,0Zm5.68-1.65a4.41,4.41,0,0,0,1.65-1.72,5.28,5.28,0,0,0,.63-2.63,5.24,5.24,0,0,0-.63-2.62,4.43,4.43,0,0,0-6.13-1.73,4.35,4.35,0,0,0-1.67,1.73,5.24,5.24,0,0,0-.63,2.62,5.28,5.28,0,0,0,.63,2.63,4.32,4.32,0,0,0,1.67,1.72,4.48,4.48,0,0,0,4.48,0Z"/><path d="M104.41,18.78h2.06v1.91h.11A4.46,4.46,0,0,1,108.26,19a4.61,4.61,0,0,1,2.37-.66,4.45,4.45,0,0,1,2.49.69,3.87,3.87,0,0,1,1.52,1.83,5.4,5.4,0,0,1,1.82-1.83,5,5,0,0,1,2.64-.69,4.13,4.13,0,0,1,3.38,1.36,5.63,5.63,0,0,1,1.14,3.72v8.34h-2.14v-8a3.86,3.86,0,0,0-.74-2.63,2.85,2.85,0,0,0-2.2-.82,3,3,0,0,0-1.76.56,3.84,3.84,0,0,0-1.24,1.51,4.82,4.82,0,0,0-.44,2v7.35h-2.17v-8a3.9,3.9,0,0,0-.74-2.65,2.8,2.8,0,0,0-2.17-.82,2.88,2.88,0,0,0-1.76.58A3.84,3.84,0,0,0,107,22.44a4.9,4.9,0,0,0-.44,2v7.3h-2.17Z"/><path d="M129.18,31.3a6.09,6.09,0,0,1-2.31-2.46,7.45,7.45,0,0,1-.83-3.53,7.72,7.72,0,0,1,.78-3.47A6.31,6.31,0,0,1,129,19.31a5.87,5.87,0,0,1,3.32-.94,6.22,6.22,0,0,1,3.31.85,5.66,5.66,0,0,1,2.16,2.36,7.64,7.64,0,0,1,.75,3.45,2.21,2.21,0,0,1-.08.66H128.21a5.07,5.07,0,0,0,.72,2.5,4.09,4.09,0,0,0,1.62,1.53,4.38,4.38,0,0,0,2,.51,4.23,4.23,0,0,0,3.85-2.34l1.84.89a6.56,6.56,0,0,1-2.28,2.5,6.39,6.39,0,0,1-3.49.92A6.31,6.31,0,0,1,129.18,31.3Zm7.09-7.4a4.21,4.21,0,0,0-.45-1.63,3.68,3.68,0,0,0-1.29-1.38,4.1,4.1,0,0,0-2.21-.56,3.66,3.66,0,0,0-2.59,1,4.65,4.65,0,0,0-1.39,2.58Z"/><path d="M141.1,18.78h2.06v1.91h.1A4.39,4.39,0,0,1,145,19a5,5,0,0,1,2.5-.67,4.6,4.6,0,0,1,3.59,1.36,5.36,5.36,0,0,1,1.24,3.72v8.34h-2.17v-8a3.46,3.46,0,0,0-.87-2.63,3.35,3.35,0,0,0-2.37-.82,3.2,3.2,0,0,0-1.88.59,4,4,0,0,0-1.29,1.54,4.69,4.69,0,0,0-.46,2v7.32H141.1Z"/><path d="M164.49,15.59h-5.13V13.52h12.4v2.07h-5.1v16.2h-2.17Z"/><path d="M174.47,31.3a6.09,6.09,0,0,1-2.31-2.46,7.45,7.45,0,0,1-.83-3.53,7.72,7.72,0,0,1,.78-3.47,6.29,6.29,0,0,1,2.2-2.53,5.89,5.89,0,0,1,3.32-.94,6.26,6.26,0,0,1,3.32.85,5.71,5.71,0,0,1,2.15,2.36,7.52,7.52,0,0,1,.76,3.45,2.59,2.59,0,0,1-.08.66H173.5a5.18,5.18,0,0,0,.71,2.5,4.23,4.23,0,0,0,1.62,1.53,4.42,4.42,0,0,0,2.06.51,4.24,4.24,0,0,0,3.85-2.34l1.84.89a6.58,6.58,0,0,1-2.29,2.5,6.36,6.36,0,0,1-3.48.92A6.28,6.28,0,0,1,174.47,31.3Zm7.09-7.4a4.23,4.23,0,0,0-.46-1.63,3.53,3.53,0,0,0-1.29-1.38,4,4,0,0,0-2.2-.56,3.64,3.64,0,0,0-2.59,1,4.65,4.65,0,0,0-1.39,2.58Z"/><path d="M189,31.29a6.34,6.34,0,0,1-2.35-2.47,7.88,7.88,0,0,1,0-7.08A6.24,6.24,0,0,1,189,19.26a6.55,6.55,0,0,1,3.39-.89,6.19,6.19,0,0,1,3.56,1A5.43,5.43,0,0,1,198,22l-2,.81A3.78,3.78,0,0,0,194.61,21a4.12,4.12,0,0,0-2.31-.63,3.93,3.93,0,0,0-2.14.63,4.64,4.64,0,0,0-1.6,1.74,5.85,5.85,0,0,0,0,5.16,4.6,4.6,0,0,0,1.6,1.75,4,4,0,0,0,2.14.62,4.24,4.24,0,0,0,2.37-.64,3.7,3.7,0,0,0,1.48-1.81l1.94.82A5.68,5.68,0,0,1,196,31.2a6.12,6.12,0,0,1-3.56,1A6.47,6.47,0,0,1,189,31.29Z"/><path d="M200.44,13.52h2.17v5.39l-.1,1.78h.1a4.25,4.25,0,0,1,1.7-1.66,5,5,0,0,1,2.53-.66,4.62,4.62,0,0,1,3.63,1.39,5.34,5.34,0,0,1,1.25,3.69v8.34h-2.17v-8a3.46,3.46,0,0,0-.89-2.61,3.27,3.27,0,0,0-2.33-.84,3.13,3.13,0,0,0-1.87.62,4.52,4.52,0,0,0-1.85,3.59v7.25h-2.17Z"/><path d="M214.83,18.78h2.07v1.91h.1A4.46,4.46,0,0,1,218.68,19a4.62,4.62,0,0,1,2.38-.66,4.42,4.42,0,0,1,2.48.69,3.81,3.81,0,0,1,1.52,1.83,5.34,5.34,0,0,1,1.83-1.83,5,5,0,0,1,2.64-.69,4.15,4.15,0,0,1,3.38,1.36A5.68,5.68,0,0,1,234,23.45v8.34H231.9v-8a3.86,3.86,0,0,0-.74-2.63,2.84,2.84,0,0,0-2.2-.82,3,3,0,0,0-1.76.56A3.82,3.82,0,0,0,226,22.4a4.68,4.68,0,0,0-.45,2v7.35h-2.17v-8a3.85,3.85,0,0,0-.74-2.65,2.78,2.78,0,0,0-2.17-.82,2.9,2.9,0,0,0-1.76.58,3.82,3.82,0,0,0-1.23,1.53,4.76,4.76,0,0,0-.45,2v7.3h-2.17Z"/><path d="M238.63,31.64a4.27,4.27,0,0,1-1.73-1.55,4.1,4.1,0,0,1-.61-2.23,3.82,3.82,0,0,1,1.55-3.23,6.43,6.43,0,0,1,3.93-1.16,8.86,8.86,0,0,1,2.18.26,5.68,5.68,0,0,1,1.55.58v-.79a2.91,2.91,0,0,0-1-2.33,3.79,3.79,0,0,0-2.58-.88,4.32,4.32,0,0,0-2,.47,3.67,3.67,0,0,0-1.45,1.31l-1.63-1.22A5.23,5.23,0,0,1,238.9,19a6.67,6.67,0,0,1,3-.66,6,6,0,0,1,4.18,1.39,4.89,4.89,0,0,1,1.51,3.79v8.24H245.5V29.93h-.1a4.67,4.67,0,0,1-1.69,1.6,4.8,4.8,0,0,1-2.52.67A5.7,5.7,0,0,1,238.63,31.64Zm4.8-1.92a4.25,4.25,0,0,0,1.51-1.5,4,4,0,0,0,.56-2.07,5.41,5.41,0,0,0-1.51-.66,6.8,6.8,0,0,0-1.89-.26,4.21,4.21,0,0,0-2.69.74,2.37,2.37,0,0,0-.9,1.92,2.13,2.13,0,0,0,.81,1.73,3.21,3.21,0,0,0,2.07.66A3.87,3.87,0,0,0,243.43,29.72Z"/><path d="M250.57,13.52h2.17V25l6.13-6.22h2.75v.1L256.52,24l5.23,7.66v.1h-2.58L255,25.54l-2.25,2.24v4h-2.17Z"/><path d="M265.53,31.3a6.09,6.09,0,0,1-2.31-2.46,7.33,7.33,0,0,1-.83-3.53,7.72,7.72,0,0,1,.78-3.47,6.22,6.22,0,0,1,2.2-2.53,5.87,5.87,0,0,1,3.32-.94,6.28,6.28,0,0,1,3.32.85,5.71,5.71,0,0,1,2.15,2.36,7.64,7.64,0,0,1,.75,3.45,2.62,2.62,0,0,1-.07.66H264.56a5.07,5.07,0,0,0,.71,2.5,4.16,4.16,0,0,0,1.62,1.53,4.38,4.38,0,0,0,2.05.51,4.25,4.25,0,0,0,3.86-2.34l1.83.89a6.56,6.56,0,0,1-2.28,2.5,6.36,6.36,0,0,1-3.48.92A6.28,6.28,0,0,1,265.53,31.3Zm7.09-7.4a4.41,4.41,0,0,0-.46-1.63,3.53,3.53,0,0,0-1.29-1.38,4.07,4.07,0,0,0-2.21-.56,3.66,3.66,0,0,0-2.59,1,4.72,4.72,0,0,0-1.39,2.58Z"/><path d="M277.44,18.78h2.07v2.09h.1a3.57,3.57,0,0,1,1.48-1.79,4.17,4.17,0,0,1,2.29-.71,3.78,3.78,0,0,1,1.54.28V21a4.11,4.11,0,0,0-1.84-.41,3,3,0,0,0-1.74.54,4,4,0,0,0-1.26,1.44,4.26,4.26,0,0,0-.47,2v7.29h-2.17Z"/><path d="M287.54,31.22a5.43,5.43,0,0,1-2-2.52l1.94-.87a4,4,0,0,0,1.44,1.82,3.76,3.76,0,0,0,2.11.63,4.17,4.17,0,0,0,2.09-.49,1.57,1.57,0,0,0,.87-1.42,1.54,1.54,0,0,0-.69-1.31,6.22,6.22,0,0,0-2.17-.86l-1.58-.41a5.52,5.52,0,0,1-2.55-1.3,3.05,3.05,0,0,1-1-2.37,3.11,3.11,0,0,1,.68-2,4.25,4.25,0,0,1,1.8-1.31,6.25,6.25,0,0,1,2.42-.46,6.12,6.12,0,0,1,3,.74,4.17,4.17,0,0,1,1.9,2.06L294,22a3.15,3.15,0,0,0-3.08-1.73,3.43,3.43,0,0,0-1.88.5,1.44,1.44,0,0,0-.8,1.26,1.41,1.41,0,0,0,.56,1.16,4.41,4.41,0,0,0,1.68.73l1.89.48a6.09,6.09,0,0,1,2.88,1.44,3.16,3.16,0,0,1,1,2.34,3.35,3.35,0,0,1-.69,2.1,4.4,4.4,0,0,1-1.86,1.39,6.62,6.62,0,0,1-2.6.49A6,6,0,0,1,287.54,31.22Z"/><path d="M15.73,42.75H5.45A.75.75,0,0,1,4.69,42V5.8a.76.76,0,0,1,.76-.75H15.73a.75.75,0,0,1,.75.75V9a.74.74,0,0,1-.75.75H10.16a.76.76,0,0,0-.76.76V37.26a.75.75,0,0,0,.76.75h5.57a.75.75,0,0,1,.75.76V42A.74.74,0,0,1,15.73,42.75Z"/><path d="M38.6,5.05H48.84a.75.75,0,0,1,.75.75V42a.74.74,0,0,1-.75.75H38.6a.75.75,0,0,1-.75-.75V38.8A.76.76,0,0,1,38.6,38h5.55a.76.76,0,0,0,.75-.75V10.54a.76.76,0,0,0-.75-.75H38.6A.76.76,0,0,1,37.85,9V5.8A.76.76,0,0,1,38.6,5.05Z"/><path d="M33.14,23.5l-1.86-2.75a1.48,1.48,0,0,1-.16.46v0l-3.53,5.33L33.2,35a1.08,1.08,0,0,0,1.06.64h4.82a1.14,1.14,0,0,0,1.13-1.14V34L33.14,23.5Z"/><path d="M40.21,13.25a1.14,1.14,0,0,0-1.13-1.13H34.27a1.14,1.14,0,0,0-1.13,1.13v9.41l7.07,10.46Z"/><path d="M21.33,13.25a1.13,1.13,0,0,0-1.13-1.13H15.4a1.13,1.13,0,0,0-1.13,1.13v20l7.06-10.43Z"/><path d="M30.66,19.81a2.7,2.7,0,0,0-.18-.25,1.21,1.21,0,0,0-.87-.37H25a1.3,1.3,0,0,0-1.09.65l-2.46,3.62-7.18,10.6v.49a.85.85,0,0,0,.1.43,1.16,1.16,0,0,0,1.11.71h4.84A1.29,1.29,0,0,0,21.41,35l5.88-8.9h0L30.71,21A1.18,1.18,0,0,0,30.66,19.81Z"/></svg>