<svg id="圖層_1" data-name="圖層 1" xmlns="http://www.w3.org/2000/svg" viewBox="0 0 68 65"><defs><style>.cls-1{fill:#fff;}</style></defs><title>人物2</title><path class="cls-1" d="M28.07,43.87H22.33a.42.42,0,0,1-.42-.42V23.27a.42.42,0,0,1,.42-.42h5.74a.42.42,0,0,1,.42.42v1.78a.42.42,0,0,1-.42.42H25a.42.42,0,0,0-.42.42V40.81a.42.42,0,0,0,.42.42h3.11a.42.42,0,0,1,.42.42v1.8A.42.42,0,0,1,28.07,43.87Z"/><path class="cls-1" d="M40.83,22.85h5.71a.41.41,0,0,1,.41.42V43.45a.41.41,0,0,1-.41.42H40.83a.42.42,0,0,1-.42-.42V41.67a.42.42,0,0,1,.42-.43h3.09a.42.42,0,0,0,.42-.42V25.91a.42.42,0,0,0-.42-.42H40.83a.42.42,0,0,1-.42-.42v-1.8A.41.41,0,0,1,40.83,22.85Z"/><path class="cls-1" d="M37.78,33.14l-1-1.54a.62.62,0,0,1-.09.26h0l-2,3,3.13,4.73a.62.62,0,0,0,.59.36h2.69a.63.63,0,0,0,.63-.63V39l-3.94-5.83Z"/><path class="cls-1" d="M41.72,27.42a.63.63,0,0,0-.63-.63H38.41a.64.64,0,0,0-.63.63v5.25l3.94,5.83Z"/><path class="cls-1" d="M31.2,27.42a.64.64,0,0,0-.64-.63H27.88a.63.63,0,0,0-.63.63V38.56l3.95-5.82Z"/><path class="cls-1" d="M36.39,31.08l-.09-.14a.66.66,0,0,0-.49-.21H33.24a.73.73,0,0,0-.61.37l-1.37,2-4,5.9v.28a.48.48,0,0,0,.06.24.65.65,0,0,0,.62.39h2.7a.72.72,0,0,0,.61-.36l3.28-5h0l1.9-2.88A.64.64,0,0,0,36.39,31.08Z"/></svg>