<svg id="圖層_1" data-name="圖層 1" xmlns="http://www.w3.org/2000/svg" xmlns:xlink="http://www.w3.org/1999/xlink" viewBox="0 0 294 341"><defs><style>.cls-1{fill:#60c28d;}.cls-2{fill:url(#linear-gradient);}.cls-3{font-size:14.69px;font-family:PingFangTC-Medium-B5pc-H, PingFang TC;}.cls-3,.cls-4{fill:#fff;}</style><linearGradient id="linear-gradient" x1="24.27" y1="185.65" x2="256.15" y2="185.65" gradientUnits="userSpaceOnUse"><stop offset="0.08" stop-color="#7f8bef"/><stop offset="0.36" stop-color="#4780e7"/><stop offset="0.42" stop-color="#4987e7"/><stop offset="0.52" stop-color="#4d9ae9"/><stop offset="0.63" stop-color="#55b9eb"/><stop offset="0.63" stop-color="#55baeb"/><stop offset="0.71" stop-color="#4ec1df"/><stop offset="0.85" stop-color="#3bd4be"/><stop offset="0.91" stop-color="#31dead"/></linearGradient></defs><title>人物4</title><path class="cls-1" d="M272.91,57.88l-97.07,260h2.4l97.08-260Z"/><circle class="cls-2" cx="140.36" cy="185.65" r="122.08"/><text class="cls-3" transform="translate(53.79 152.78) rotate(-68.04)">I</text><text class="cls-3" transform="translate(55.04 149.46) rotate(-64.36)">n</text><text class="cls-3" transform="translate(58.66 142.03) rotate(-60.21)">t</text><text class="cls-3" transform="translate(61.14 137.57) rotate(-56.13)">e</text><text class="cls-3" transform="matrix(0.62, -0.79, 0.79, 0.62, 65.71, 130.85)">r</text><text class="cls-3" transform="translate(68.91 126.65) rotate(-47.82)">n</text><text class="cls-3" transform="translate(74.42 120.56) rotate(-42.8)">a</text><text class="cls-3" transform="translate(80.46 115.04) rotate(-38.71)">t</text><text class="cls-3" transform="translate(84.49 111.82) rotate(-35.93)">i</text><text class="cls-3" transform="matrix(0.85, -0.53, 0.53, 0.85, 87.52, 109.52)">o</text><text class="cls-3" transform="translate(94.76 104.97) rotate(-26.9)">n</text><text class="cls-3" transform="matrix(0.93, -0.37, 0.37, 0.93, 102.1, 101.24)">a</text><text class="cls-3" transform="matrix(0.95, -0.31, 0.31, 0.95, 109.74, 98.26)">l</text><text class="cls-3" transform="translate(113.11 97.13) rotate(-15.56)"> </text><text class="cls-3" transform="translate(117.51 95.66) rotate(-9.88)">W</text><text class="cls-3" transform="translate(130.96 93.46) rotate(-3.06)">o</text><text class="cls-3" transform="matrix(1, 0.06, -0.06, 1, 139.44, 92.87)">m</text><text class="cls-3" transform="matrix(0.99, 0.17, -0.17, 0.99, 151.99, 93.72)">e</text><text class="cls-3" transform="translate(159.96 95.07) rotate(14.79)">n</text><text class="cls-3" transform="matrix(0.95, 0.32, -0.32, 0.95, 167.93, 97.22)">’</text><text class="cls-3" transform="matrix(0.92, 0.39, -0.39, 0.92, 172.84, 98.87)">s</text><text class="cls-3" transform="matrix(0.89, 0.45, -0.45, 0.89, 179.69, 101.8)"> </text><text class="cls-3" transform="translate(183.95 103.81) rotate(31.35)">D</text><text class="cls-3" transform="translate(192.7 109.19) rotate(37.02)">a</text><text class="cls-3" transform="matrix(0.75, 0.67, -0.67, 0.75, 199.19, 114.09)">y</text><text class="cls-3" transform="translate(204.74 119.1) rotate(45.56)"> </text><text class="cls-3" transform="matrix(0.65, 0.76, -0.76, 0.65, 208.09, 122.41)">2</text><text class="cls-3" transform="matrix(0.57, 0.82, -0.82, 0.57, 213.64, 128.92)">0</text><text class="cls-3" transform="translate(218.58 135.94) rotate(60.23)">2</text><text class="cls-3" transform="matrix(0.41, 0.91, -0.91, 0.41, 222.85, 143.39)">2</text><path class="cls-4" d="M134,295h-5.74a.42.42,0,0,1-.42-.42V274.43a.42.42,0,0,1,.42-.42H134a.42.42,0,0,1,.42.42v1.78a.42.42,0,0,1-.42.42h-3.11a.42.42,0,0,0-.42.42V292a.42.42,0,0,0,.42.42H134a.42.42,0,0,1,.42.42v1.8A.42.42,0,0,1,134,295Z"/><path class="cls-4" d="M146.75,274h5.71a.41.41,0,0,1,.42.42v20.18a.42.42,0,0,1-.42.42h-5.71a.41.41,0,0,1-.41-.42v-1.78a.42.42,0,0,1,.41-.43h3.1a.42.42,0,0,0,.42-.42V277.07a.42.42,0,0,0-.42-.42h-3.1a.41.41,0,0,1-.41-.42v-1.8A.41.41,0,0,1,146.75,274Z"/><path class="cls-4" d="M143.71,284.3l-1-1.54a1.14,1.14,0,0,1-.09.26h0l-2,3,3.13,4.73a.62.62,0,0,0,.59.36H147a.63.63,0,0,0,.63-.63v-.33l-3.94-5.83Z"/><path class="cls-4" d="M147.65,278.58A.63.63,0,0,0,147,278h-2.68a.63.63,0,0,0-.63.63v5.25l3.94,5.83Z"/><path class="cls-4" d="M137.12,278.58a.63.63,0,0,0-.63-.63h-2.68a.63.63,0,0,0-.63.63v11.14l3.94-5.82Z"/><path class="cls-4" d="M142.32,282.24a.71.71,0,0,0-.1-.14.63.63,0,0,0-.48-.21h-2.57a.72.72,0,0,0-.61.37l-1.37,2-4,5.9v.28a.48.48,0,0,0,.06.24.65.65,0,0,0,.62.39h2.7a.72.72,0,0,0,.61-.36l3.28-5h0l1.9-2.88A.64.64,0,0,0,142.32,282.24Z"/></svg>