<svg id="圖層_1" data-name="圖層 1" xmlns="http://www.w3.org/2000/svg" viewBox="0 0 1165 204"><defs><style>.cls-1{fill:#828dbe;}.cls-2{fill:#47e1b6;}</style></defs><title>筆刷3</title><polyline class="cls-1" points="-129.87 645.66 -381.32 497.54 -622.76 355.28 -764.88 269.57 -614.55 54.43 3.98 533.94"/><path class="cls-2" d="M1137.57,158.94c2.93-4.33-.14-1.7-2.31-1.67Z"/><path class="cls-2" d="M1135.26,157.27l-1.64-1.19A1.53,1.53,0,0,0,1135.26,157.27Z"/><path class="cls-2" d="M1119.06,149.56c4.9-2.84,8.24,3.66,12.21-1.55C1128.19,143.51,1121.63,143.34,1119.06,149.56Z"/><polygon class="cls-2" points="1124.01 154.82 1125.31 151.78 1120.62 155.83 1124.01 154.82"/><polygon class="cls-2" points="1125.71 158.37 1125.52 157.08 1119.35 158.93 1125.71 158.37"/><path class="cls-2" d="M1106.26,144l4.18.07c2.66,5.24-3.84,5.26-2.07,8.79,4.91,1.15,3.87-8.66,9.7-5.74.51-4.21-9.9-2.35-7.37-8.55C1106,135.32,1109.54,142.35,1106.26,144Z"/><path class="cls-2" d="M861.39,143.73a6,6,0,0,0-.51-.68C861,143.78,861.22,144.31,861.39,143.73Z"/><path class="cls-2" d="M795,142.46a8.81,8.81,0,0,0-2.58-1.57,5.59,5.59,0,0,0,.92,1.88Z"/><path class="cls-2" d="M903.89,135.47a15,15,0,0,0,2.43,1.9A2.81,2.81,0,0,0,903.89,135.47Z"/><path class="cls-2" d="M482.86,82.61a6.93,6.93,0,0,0,.42-1.91l-.12-.16-.8,1.76Z"/><path class="cls-2" d="M720.29,146.92a8.09,8.09,0,0,0-3,.46C719,147.62,719.84,147.4,720.29,146.92Z"/><path class="cls-2" d="M927.71,137.55a7.69,7.69,0,0,0-1-.15,5.39,5.39,0,0,0,1.15.81l-.11-.65Z"/><path class="cls-2" d="M815.75,153.25a5.31,5.31,0,0,0-2.32-1A4.82,4.82,0,0,0,815.75,153.25Z"/><path class="cls-2" d="M1046.64,124.21a2.42,2.42,0,0,0-3,.06C1044.16,125.37,1045.05,125.71,1046.64,124.21Z"/><path class="cls-2" d="M1022.78,120.8a.23.23,0,0,1,.14,0C1022.91,120,1022.81,120.14,1022.78,120.8Z"/><path class="cls-2" d="M1007.68,117.8a1.78,1.78,0,0,1,.29-.12C1007.88,117.09,1007.81,117,1007.68,117.8Z"/><path class="cls-2" d="M1043.61,124.27c-1.5-2.93-.65-11.31-4.78-2.69l.29,1.31c-1.16-2.34-4,.8-5.83.81a12.49,12.49,0,0,0,.26,2.31,20.21,20.21,0,0,1,3.68,1.63C1039,129.93,1041.18,125.84,1043.61,124.27Z"/><path class="cls-2" d="M861.8,142.06c.07,1.71,1.73,1,0,0Z"/><path class="cls-2" d="M882.8,137.17c-.65-.19-1.3-.36-2-.49A2.07,2.07,0,0,0,882.8,137.17Z"/><path class="cls-2" d="M958.84,148.11c-.11-.16-.21-.24-.31-.41C958.3,148.63,958.61,148.52,958.84,148.11Z"/><path class="cls-2" d="M879,136.43a12.58,12.58,0,0,1,1.83.25A1.54,1.54,0,0,0,879,136.43Z"/><path class="cls-2" d="M936.58,140.36c-.1-.1-.19-.25-.28-.28A.46.46,0,0,0,936.58,140.36Z"/><path class="cls-2" d="M164.18,49.45c1.56-.8,2.51,1.61,4,2.32,3.24-6.12-6.85-.07-2.1-5.54A6.22,6.22,0,0,0,162.39,48l2.17,5.72C167.43,51.42,162.59,51.77,164.18,49.45Z"/><path class="cls-2" d="M463.92,70l.65.54c-.37-2.64.07-3.44-2.44-4.92-2.31,3.93.88,10-3.07,14.33a3,3,0,0,1,2.86.39C460.48,76.72,462.14,73.05,463.92,70Z"/><path class="cls-2" d="M461.92,80.35a1.5,1.5,0,0,1,.1.3,9.2,9.2,0,0,0,.51,1.44,2.43,2.43,0,0,1,1.49.69A4.73,4.73,0,0,0,461.92,80.35Z"/><path class="cls-2" d="M216.12,51.54c.64.19,1.22.36,1.74.54C217,51,216.5,51,216.12,51.54Z"/><path class="cls-2" d="M730.42,74.26a20.15,20.15,0,0,0,2.23-1.65A3,3,0,0,0,730.42,74.26Z"/><path class="cls-2" d="M500.53,77a5.52,5.52,0,0,0,1.81,1c.39-.06.71-.18,1.18-.22Z"/><path class="cls-2" d="M376.75,128.72c1.44-6.5-1,.5-3.53-3.34l-2.48,3.44C372.93,129.88,375,128.86,376.75,128.72Z"/><path class="cls-2" d="M162.22,47.54a3.92,3.92,0,0,1,0,.59l.19-.16Z"/><path class="cls-2" d="M305.24,129.14a14.1,14.1,0,0,0-1.16-.9A2.1,2.1,0,0,0,305.24,129.14Z"/><path class="cls-2" d="M476.25,83.61c3.09.22,6.17.46,9.26.72l-2.65-1.72C481.46,85.78,477.68,79.73,476.25,83.61Z"/><path class="cls-2" d="M415.9,133.47l.71,4c9.38-8.26,19.53,4.21,27.16-7.42,10.71,14.29,7.7-12.24,17.53.56l-.28-2c16.78,1.64,34,4.79,51,6.74,8.49,1,16.92,1.63,25.21,1.81a132.75,132.75,0,0,0,24.36-1.54l-.2,2.78c25.18,3.51,50.12,4.79,75,5.57,12.46.47,24.91.92,37.36,1.55,6.23.32,12.46.68,18.69,1.16s12.47,1.11,18.7,1.84c4.86-2.23,2.48-8.57,6.74-11.38,1.73.37,5.71.32,5.48,3.74-3.53,1.63-1.84,4.8-3.09,6.06,5.66.05,12.63,4.53,18,.72l-3.87-4.72c2.09-1.71,5.07-.24,6.83.12-.92,2.2,1.28,7.21-.33,8.17,11.44-10.17,7.9,5.37,17.15,1.74,2.51-9.23,14.3-16,22.23-22.1l3.67,2.75c-5.14-.48-.47,6.85-6.8,5.88,5.09,3.13,10.36-.5,15.27,1.41-.78-2.43-.27-5.48,1.84-6.38,3,1.54,2.86,6.25,6.34,7l-3.73,2.64c2,3.71,4.46-.74,6.69-1.12.37,4,5.57,5.17,4.26,9.45,5.21-4.93,6.63-1.77,12-4.7-5-4.6,1.82-5,1.51-8.35l-6.13,1c8.22,3.37-2.81.46-2.76,7.19-3.71-3.44,6.42-10.52-.33-10.07,8.25-2.7,9.67.44,18.31-4.36-5,.82,1.33-4.27-1.13-6.54,6.27.3,1.34,2.48,2.88,6.94,3.41.11,4.32,4,7.89-.63,5.32,2.5-1.28,4.94,1.25,7.9-2.45,4.42-14.79-7-14.61,7.78-2.88-.09-6.87,5.22-11,4.55,3.43,2.25,8.15,7.53,12.9,4.58l1-8.26c3.4.1,4.6-5.46,7-4.51-1.52,2.28.5,6,3.29,5.54-.67-1.25-1.78-1.07-1.35-2.49,5.1-.17,6.32-5.75,12.47-6.77-4.76-2.59-5.55-5.16-9.87-9.16,1.79-5.69,3.36-.56,6.15-1-.48.76-1.06.86-.37,2.09l3.17-2.53c6,3.06-1.55,8.31,3.28,11.59,3.06,5.19,5.07-2.27,7.51.74-.12-.54-.25-1.12-.38-1.52a4.72,4.72,0,0,1,1.3.53,2.66,2.66,0,0,1,0-.4c3.35-.54,6.82.26,8.17-4,.16,2,2.92-.29,4.12-1.53,2-1.55,6.88-6.24,8.91,1-.07,0-.14,0-.2,0,4,1.23,7,3.74,5.83,6l6.39,2.41-1.28,5.56c6.12-.91,5.87-4.26,10.59-9.65,3.93,3.8,11.69,1.93,14.76.14a3.64,3.64,0,0,0,2.39.21l-2.25-2.48c4.64.75,4.41-2.29,7.49-1.95-.58-.6-.63-.93,1,.15a13.93,13.93,0,0,1,1.72.63c-.22.58-.9.4-1.56,0l.35,1.94c3,6.41,6.11-2.73,9.86-.17a3.12,3.12,0,0,1-1.5.38c2.07,1.77,4.33,10.1,5.83,5.37.44.68,1.35-.2,2.26-1.31l1.54,1a7.08,7.08,0,0,1-1.51-1.06c1.21-1.48,2.43-3.36,2.41-2.15L952.7,144c1,.95,2.54.43,3.83-.21l.68,2.45c2.12-.1,2,1.31,1.63,1.91,6.13,9,11.69-2.68,18.52,5.4,2-3.68-1-5.9-.91-8,1.62-2.82,6.46-4.85,9-6.65,2.74,5.85,12.65,12.13,9.78,19.62,6.28,1.58-1.27-5.06,2.32-7.25l.69.42c-2.07-1.23-3.4-4.16-4.21-7.31.12-4.26,6-4.6,7.55-3.14l-2.12,5.76c6.23-1.17,6.36-10.28,11-15.66,4.38,3.08.79,8,.95,13.51,1.74-.25,3.46-.45,5.19-.68l-.72,4.46c3.4-.66,4.83-4.69,9-2.21-3.91,3.66,6,5.25.57,10.16,2.2,1.89,4.39-6.6,4.62-.44,2.52-4.45-1.79-2.76-2.78-4.44.07-3.49,1.57-4.09,3.45-4s4.15,1,5.78.38c-.37,3.56-2.7,3.79.36,6.76,1.18-2.54,3.77-4.22,5.15-.61.8-4.43,4.1-.2,6,.44-2-1.28-4.66-5.08-2.51-8.67,2.06-1.47,3.72-2.1,7.56-.73l-2.33-2.6c4.68-5.84,4.81,5.8,9.88,4.63-2.49,2.29-3.72,2.05-6.06,5a67.24,67.24,0,0,1,11.29-5.48l2.65,7.26c1.14-3.13,4.35,1.2,5.26-3.21,4.28,4-5,4.49-6.16,7.63,5.5,4.19,6.42-6.34,10.87,1.63l-2.81,3.71c1.87.7,6.29-.86,6.08,1.27.32-1.48-.78-1.11-2-1.35,3.09-8.61,10.33-4.17,11.63-13.45l-2.58-1.19c4.53-.84,8.91-6.33,11.4-2.41,1.79,3.48-3.14,5.77-5.12,7.8,3.76,1.46,5.46-9.29,10-7.31-2.12-2-.91-5.17,1.13-7.15-2.59-1.23-7.93-4.23-7.78-.19l.79,1.1c-.79,2.29-2.47,2.83-3.47,3.85-3.72-.83-.82-4.5-1.18-6.43-5.89-2.84-2.51,9-8.1,7.43l-.36-1.93c-3.24,1.77-7.51,1.23-9.42,6.67-1.25-6.41-6.87,1-8.85-3.05,2.1-13.07,9.42,2.86,14.11-3.54-2.42-3.27,3-5.83,4.91-8.51L1076.19,139c-.37-1.92-1.83-9-4.5-4.6l.68.45c-4,.69-4.09,6.22-7,3.82-.26-1.28,1.14-3.15,1.56-4-2.76-1.77-3.07,2.46-5.29,3.27-2.76-1.74,2.53-5,.31-7-4.44,4.35-5.27-2.24-8.35-2.52-.11,7.57-13.78,7.92-8.5,15.56l-8,3.77c-1.56-4.24,6.77-9.47,5.9-16l5.7,1.29c.37-4.67-2.93-3.71-6.55-3s-7.54,1.34-8.57-4.13c-3-.91-2.47.51-7.56-5l-.36,8.4c-2.71-2.39-3-7-2.85-8.57a9.86,9.86,0,0,1-5-.86,4.3,4.3,0,0,1,2.57-2.41c-1.55-4.94-2.5-3.35-3.68-1-1.57,1.88-3.4,1.32-5.3,1l2.2-2.8c-1.28.51-2.84,1.18-3.2,2.65a4.06,4.06,0,0,0-2.37.38c.29,1.51.81,6.51,3.18,9.06-6.51-4.3-12.27-3.41-17.32-11.06.57-2.35,3.53-5,2.82-5.37-2.86-1.63-6.75,2.07-7,5.69a6,6,0,0,1-1.72.11c-.28-2.14-.69-4.43-2.07-5a2.79,2.79,0,0,0-1.68-1.94c-1.92,6.4-7.26,2.34-8.93,5.16a8.37,8.37,0,0,0,4.69,1c-3,4-5.87,8.77-7.27,5,5.07-3.57-3.9-7.46,3.15-8.38-3.68-9-3.3,5.63-8,2L965,110.27c1.12-4.71,5.62-1.68,5.09-3.58l-2.36.3c2.75-3.27,11,.19,17.07-4.42-3.42-1.4-6.86-2.72-10.29-4.09a36.17,36.17,0,0,1-10.88,1c-3.68-.1-7.39-.51-11-.77-7.33-.54-14.48-.33-20.75,4.25a3.05,3.05,0,0,0,.5-.08,13.68,13.68,0,0,0-.82,3.12l-.37-1.25-2.65,3.34c-2-4.77-6.72-6.17-10.4-10.18,2.23,3.24,2.23,3.24,2.09,6.85-1,4.74-1.65,6.73-5.23,4.55.32-3.4,2.65-3.06.15-6.07a2.88,2.88,0,0,1-2,4.33c-1.89-2.43-5.39-3.28-5.07-6.7,1.08-.83,1.75.43,2.37,1,1.08-.81-3.69-3.5-.46-6l-4,.57c-1.95-3.08,2-4.32,1.26-6.25-6.67,1.66-10.76,9.15-16.78,10.87.45-1.78,1.28-9.38,1-7.18-4.24-2.73-10.39,7.32-15.51,7.44,1-2.18,2.77-1.09,4.41-2-15.23-4.42-27.9-5.74-41.8-14.27l-4.49,7.48L830.78,87c-14.87-6.34-27.08-2.41-41.84-1.2-4.57.12-2.27-5.67-4.22-8-9.9-1.69-13.05,6.94-22.67,7.93,1.5-2.29,4.26-8.85.19-9.5-.94,2.19-1.71,5.7-4.18,4.1l1.49-2.3c-2.08-3.7-4.62-.56-9.39-2.46-8.65-.47-17.31,4.48-25,12.61-7.56-1.35,1.41-8.37.08-10.17,5.18,3.26,3.85-1.11,5.21-3.73-3,2-6.55,3.11-7.61-2.59-4,0-5.78-.33-10,3.15,2.11-1.75,3.59,1.39,1.56,3.79-3.11-2.19-11.52-.66-10.58-7.61-18.9,0-39.87-2.7-60.05-3.71-3.62,3.39,2.5,1.56.47,4-5.22,4.39-3.75-2.66-7.93.85l1.86-3.72c-5.86-.9-12.52,5.8-18.42,9,1.2-4.29-4.47-3.86.41-6.18-2.83.57-5.12-19.06-7.5-15.2l2.13,18.28c-.26,1.77-4.1.46-3.78,1.68-2.23-3.71-5-8.08-6.68-8.16-.57-4.63,3.62-3.4,5.93-3.17.77-7.62-7.56-5.33-3.81-12.15-5.05,1,.5,4-2.63,6.61l-4.26-1.87L602.78,60c-3.75,2.08-5.3,7.83-9.91,3.29l-5.4,7.2c-.2-6.06-3.6-1.29-6.11-2.82l1.81-3.77c-3.44,0-4.71-1.07-6.75-3.39,2.2-5.2,3,1.43,4.13-3.55l-3.69-2c-.15,3.42-2.68,6-.09,8.18-3.81,6.2-6,11.4-14.7,10.46-3.68-6,4.5-5,3.14-10.83-9-2.92-11.84,14.66-17.11,13.7-6.66-2.72-6.52,2.69-13.4,2.74,2.36-3.89-4.61-4.45-5.71-8.29l2.89-4c-2.14,1.15-4.08-.49-3.34-3.37.16,5.4-9.13,4.68-14,7.06l.64,4.62c-3.76,1.39-9,4.08-12.87,2.74-5.89,1.25-4.72,5.37-9.4,10.19-2.32-4.25-1.87-9.13-.85-14.12,1.47,2.41,4.17,1.14,6.68,2.66,7.52-3.66,13.66-13.12,20.94-10.59,3.66-11-5,1.09-8.45-3,.13-.66.4-.86.68-1a1.42,1.42,0,0,1-.88-.36c2.69-1.26,7.07-2.86,8-8.52-4.48,1-3.66,11-9,6-4.19,2.95-7.17-6-9.61-6.82-2.87,4.06-3.33,13-9.93,11l3.15-6.13c-7.55-.43-3.88,9-10.86,8.44,2.43.84-2.59,6,2.07,6.39-2.41,3.22-7.51,3.7-11.24,1.77-1,.92-.28,2.12-.54,4.23,4,4.47,6.78-4,10,2.35l3.16-6.6c3.81,2.59,4,8,1.52,10.56,1.11-.23,2.11-1.12,2.87.09.29,10.15-4.55-3.79-6.21,4.74l2.78-.62c1,6.63-6.63,5.5-10.16,5-3.9-3.21-7.53-4.45-7.64-9.22l5.46-1.88c-2.67-3.89-7,2-10.09,1.73a3.41,3.41,0,0,0-.83-1.51,3.5,3.5,0,0,1,.21,1.33,3.27,3.27,0,0,1-1.7-2c-2.75-.33-6.88,2.45-9.39.85l.18,4.26.42-2.38c2.52.24,5.85,3,3.84,6.08-5.77,2.77-6.65-5.45-7.89-9.2,1.51-6.48,5.54.24,8.51-1.9-1.54-6.49-5.77-.85-11.51-5.3,2.56-7,6.81.32,8.31-6.16C450.3,67,448.9,72,444,70c.74-3.26,5.61-3.41,5.42-7.63l-3.14-2.12c7.88-.16-1.12-8.84,5.08-10.37-2.81-3-4.22,5.64-8.21,1,1.06,3.11,4.18,8.83.15,11.47l-4.39-2.22c-1.77-3.48,4.87-7.38,2.05-10.36l-4.74,2.26c.09,2.11,2.3,3.24.81,6.1-2.63-2.36-4.65,8-7.91,11-2.52-.25-4.52-.72-5.34-3.21-6.54,6.09-14.6,5.69-20.6,11.48,4.1-4.14,0-7.22-2.3-10.46,4.62-.78,4.82-7.4,4.6-11.65-2.83.64-4.82,7.41-3.46,9.66-4.62-2.82-3.34,4.52-7.35,0-2.62-2.35,1.48-6.5.62-9-5.07-.42-1.56,8-7,6.32.32-.87.83-1.13.42-2.37-2.94-1.46-6.21,1.58-6.91,4.84-3-8.7-8.92.72-8.14-7.63-7.23,2.13,1,4.59-.49,7.5-3,3.67-8.39.54-10.06-.82,1.77-.16,3.44-2.42,5.12-1.1l-1.4-5.84c-8.88-4.29-5.9,13.09-14.44,7.91,4.49-3,1.54-4.39,3.82-8.47-1.36,1.44-8.1-.3-4.08,4.22a25.58,25.58,0,0,1-7.69-2.72c-2.92,2.2-6.06,3.76-7.79,7.54-4.53-.67-7.83-4.85-10-7.43-9.6,4.06-18.35-3.13-28.45,1.26l.74.36c-7.8-1.14,3.39,7.76-4.71,7.5,1.14-7.14-4.82-4.85-7.42-8.65-9.93-3.71-17.22,5-26.36.29.07-1.5.67-3.28,2.44-3.46-7-2.24-12.64-.81-19-1.18l.27-.87c-10.12-5.77-19.31,1.19-29.77,2.92.84-.9,1.05-3.59,1.71-4.54-5.29-1.61-13.74-2.54-17.4,4-6.32-7-4.13,2.18-12.25-4.56-.48-1.25.79-1.18,1.32-1.45C183.8,47.2,181,48,177,47.15c-8.81,4.64-10.88,13.79-21.19,11.2-.66-9.7,6.28-2.52,6.41-10.22-2,1.73-3.78,3.75-6.64,1.49,1.65-3.82.34-2.39,1.46-5.95-2.2-2.51-8.59,10.26-8.56,9.34-.09,1.88.67,2.88,2.69,2.57-2.3,6-10.08.67-15,3.16,1.62.14,6.73,1.95,4.9,6.56-6.7-1.93-8.76,7.43-13.34,11.37-6.21-4.28,4.38-8.23,3.1-15-1.07-2.46-3.64-7.84-1.1-10.54-5.56-1.36-9.44,4.53-14.34,6.1l.1-1.92c-6.88.89-14,9.47-19.89,5.76l3.11,2.12c-1.1,1.18-4.58.71-6.4,4.68.13-3.21-4.43-6-2.65-8.64C86.8,69.53,74.13,65.83,71,75.6c-1.9-2.51-.55-6.7,0-9,4.36.77,5.89,2.76,8.06-1.38-3.61.23-6.32-2.32-5.83-4.67-3.45,6.45-12,9.18-13.61,15.59C56.81,73,54.24,71.32,55,66,44,69.63,61,82.16,48.47,82.5c-5.85-5,5.34-7.15-2.56-8.64L47.33,73c-6.1-13.47-3.68,9.87-10.1,9.64-1.1-7.42,4.3-5.47-.3-10.64-5.83,2.08-8,13.18-14,11l.81-3.19c-3.74.71-11.1-.56-14.82.16-.23-1.46.33-1.27,1-1.7-7-2.58-2.76,3.9-8.62-1L-.14,80.86c3,2.47,8.58,5.92,12,1.56-3.45,4.36,6,9.22,4.41,15.61l.62-2.57c9.76,10.6,21.87,11.55,33.87,15.26,7.27-7.86,12.84,2.71,20.73-2.76,1-8.72,1.46-1.78,8.32-3.7-3.63,1.18-.26,6.62,2.07,7.74a9.42,9.42,0,0,1,4.54-4c1.47,2.94,10.33,9.72,13.37,3.73,4.26,2.68-.92,2.82-1.79,4.64,1.81,4.42,3.34-3.57,4.8-.62a2.63,2.63,0,0,1-.47,1.39c6.41-.53,10.29,1.71,17,2.67.38-8.54,6.51-3.33,9.42-6.43-.91,2.78,3.82,3.13,5.75,4.71l3.47-6.4c3.46-5.45,5,3.71,9.53.71l-1.13-1.51c3.32-2.61,12.21,2.35,15.55,6.9,15.36-8.48,27.38-6.25,39.57-2.5s24.57,9.12,40.84,6.84c2.12-2.58-1.55-4.32.1-8.13,3.31-1,4.07-.63,7.08-.75-2.66-2.29-2.23.55-1.89-1.82L243,113.86c-.22-.63.28-.89-.16-2.1-1.55.78-3.37,2.49-5.36,2,2.85-2.22,3.65-8.52,7.56-6.13-.3.87-.8,1.14-1.83,1.69,3.22.49,3.38-2.52,5.81-.86,3,1.4,2.24-.54,2.62,2.19l9.2,3.39c4.61-7.55,10.25-.35,11.73.37-1,5.64-6.1,1.68-8.38,7.25l3.3,4.12.22-4.51,4.71,1.27-.27.87c.57-1.76,1.15-3.51,2.35-1.94.2.62.66,1.86.13,2.12l3.39-2.46c-2,4.66,2.94,1.41,2.43,6.79,10.95,2.79,14-7.16,23.61.27-1.55-2.56,3.14-8.5,6.11-7.49,1.7,1.33,2.12,2.56,1,4.61l3.92-2.74c4.79,8.44,9.61,3.11,16.73,6.09l-.4,2.38c2.68-2.78,5.56-5,9.53-4l-.79,4.73c4.81,3.41,3.86-9.92,9.19-6.8.05-5.11-3.3-7.78-3.75-12.64,1.19,5.22,7,6.08,5.67,2.36,5.4-2,3.72.19,4.16,1.43l3.2-3.06c3.77.3,1.09,6.71-.35,9.61,3.61-5.44,7.37-1.51,11.34-.58L368,124.37l5.23,1c3.49-3.91,8.29-4.09,12.67-1.89l-3.2,6.65c3,3.58,1.65-2.29,2.49-3.41,5-3.17,5.92,1.43,8.42,5.28C401.61,125.18,408.94,143.4,415.9,133.47Zm541.5,11.24-.6-1.09C958.58,142.68,959.64,141.71,957.4,144.71Zm-42.53-6.93c5.45-2.05,3.46.94,3.65,2.83-4.88-2.39-7.94-.56-12.2-3.24a15.23,15.23,0,0,1,.64,4.36c-1.75-.52-3.39-2.17-3.64-5.63C906.26,129.59,916.68,141.92,914.87,137.78Zm101.22-20.24a16.1,16.1,0,0,1-.85,1.39h0Zm-26.68,2.06a4.44,4.44,0,0,0-1.38-3C988.25,118.44,988.5,120,989.41,119.6Zm-50.32-14.89c-.87-2.93-3.68-2.4-5.73-2A16.71,16.71,0,0,0,939.09,104.71ZM614.48,81.16c1.62-1,4.72-3.65,2.15-5.85-1.42,2.34-3.67-2-5,1.64a1.33,1.33,0,0,1-.25-.34C612.85,79,614,81,614.48,81.16ZM461,97.25c.37-2.76,1.62-5.73,1-7.85.12.09.29.15.43.24-.36-1-.66-1.74-.34-2.34-1.22-.59-2.5-1.3-3.4-.52C458,95.79,455.28,97.15,461,97.25Z"/><path class="cls-2" d="M513.37,62c-.6.12-1.06,0-1.43.16A6.45,6.45,0,0,0,513.37,62Z"/><path class="cls-2" d="M458.91,86.82c-.13.56,1.3,1.51,3.06,2.58C461.64,88.27,460.8,87.34,458.91,86.82Z"/><path class="cls-2" d="M1093.1,163.24l-1.66.56,2.32,3.29c5.52-1.85,6.66-5.6,8.88-9.7-5.33,3.07-7.54.45-13.44.38Z"/><path class="cls-2" d="M1097.19,133.36c-.24-1.28-.84-4.51-1.53-5l-1.33,2.5Z"/><path class="cls-2" d="M1040,108.61l4.4,3.22C1046.35,109.74,1041.48,104.59,1040,108.61Z"/><path class="cls-2" d="M1052.51,159.21l3-2.5c-1.74-2.79-4.76-3.06-5.85.09C1052.94,155.6,1050.07,158.73,1052.51,159.21Z"/><path class="cls-2" d="M1027.14,105.86c-2.38,5.1-4.44-3.17-6.25,1.71C1022.4,106.3,1026,111.17,1027.14,105.86Z"/><path class="cls-2" d="M1022.06,157.18c.63,5.29,3.82,1.23,6.57,2.92C1026.18,159.68,1023.64,153.79,1022.06,157.18Z"/><path class="cls-2" d="M999,117c.81-3.79,2.8-3.21,4.93-2-.94,1.07-1.7,2.77-2.8,3.22,4.22-2.4,4.39-1.76,7.68-3.08-2.61-3.14-6.9-5.59-5.71-10.28C1000.33,108.1,996.76,113.05,999,117Z"/><path class="cls-2" d="M1014.86,156.62c2.22,1.9,3.1,5.67,6.08,5.86-.06-2.75-.4-6.78-3.94-6.72l2-4.25C1016.29,147.71,1019.24,157.62,1014.86,156.62Z"/><path class="cls-2" d="M986.61,104.65l1.24,2.28c4-3.07,8.35-.63,11.18-6C994.69,100.61,989,102.25,986.61,104.65Z"/><path class="cls-2" d="M1004.07,146.44l-1.43,6.16c3.31,1.4.08-2.13,1.54-3.42.84,1,2.23,1.84,3.14.77C1003.25,150.27,1007.85,144.88,1004.07,146.44Z"/><path class="cls-2" d="M991.7,151.59l-4.81,2,2.46,7.32C994.86,159.3,990.17,157.1,991.7,151.59Z"/><path class="cls-2" d="M986.86,146.65l-.32-1.27-7.95,8.29C983.08,150.36,983.24,151,986.86,146.65Z"/><path class="cls-2" d="M910.19,95.88c-1.05,2.6,2.57,6.39,1.19,3.21C912.38,96.93,907.44,92.89,910.19,95.88Z"/><path class="cls-2" d="M920.82,147.9c-1.68-2.24-8.34.9-11.26,2.45C913,149.41,920.86,151.59,920.82,147.9Z"/><path class="cls-2" d="M908.37,151c.24-.14.68-.36,1.19-.61A2.53,2.53,0,0,0,908.37,151Z"/><path class="cls-2" d="M791.93,154a1.39,1.39,0,0,0-.89.64C791.35,154.39,791.61,154.24,791.93,154Z"/><path class="cls-2" d="M794.81,152.64c1.79,1,5.62-.26,6.51-3.12-3.05,1.11-5.71,1.72-9.39,4.47C793.24,153.77,794.65,155.94,794.81,152.64Z"/><path class="cls-2" d="M768.44,149.1c1.52-1.61,3.33-.57,3.07-3.24C770.83,144.63,767.67,147.2,768.44,149.1Z"/><path class="cls-2" d="M594,58.35c-2.51-1.56-4.08-.56-3.59,3.42C593.26,61.87,591.81,59.43,594,58.35Z"/><polygon class="cls-2" points="587.01 62.43 586.76 60.46 585.22 57.37 587.01 62.43"/><path class="cls-2" d="M569.48,55.82a3.43,3.43,0,0,1,1.16-1.66C569.61,54.65,568.72,55.16,569.48,55.82Z"/><path class="cls-2" d="M571.16,53.93a2.13,2.13,0,0,0-.52.23Z"/><path class="cls-2" d="M572.27,55.24l.31-2.09a5.32,5.32,0,0,1-1.42.78C571.65,53.82,572.15,54.12,572.27,55.24Z"/><path class="cls-2" d="M564.17,54.85,567.28,61c3.67-2.78-3.87-3.27-.08-9.49Z"/><path class="cls-2" d="M552.25,56c-3.16-2.11-8.26,7.1-9.78-.07-9.35,3.28,1.59,11.91-9,14.13,9.75,4.1,5.65-13.43,14.29-9.08C543.67,56.34,550.75,57.59,552.25,56Z"/><path class="cls-2" d="M553.26,68c.69-3.53-3.41-4-4.8-1.74C549.64,66.67,551.47,71.74,553.26,68Z"/><polygon class="cls-2" points="534.15 58.3 531.46 55.45 530.62 57.7 534.15 58.3"/><path class="cls-2" d="M523.55,56.45l2.91-4C525.49,54,521.4,53.53,523.55,56.45Z"/><path class="cls-2" d="M508.91,50.72c-2.52-1.5-5.22,7.93.29,6.07L508,56.37C508.36,54.91,505.56,51.44,508.91,50.72Z"/><path class="cls-2" d="M474,64.37c1.76.26,3.9-.88,3.6-2.87l-4.92,1.78Z"/><path class="cls-2" d="M473.94,87.54c1.43,5.84,4.55-.33,7.7,1.7C478,88,478.49,87.22,473.94,87.54Z"/><path class="cls-2" d="M468.77,56c1.39-2.34,3.36-.74,4.57-.32C472.86,52.34,469.49,53.08,468.77,56Z"/><path class="cls-2" d="M461,57.71c-1.51-2.39.45-3.23-.7-4.86-3.32-2.73-6.91-2.49-8.95.64.83,2.5,1.84,9.23.34,12.1,5.49-1.87,8.62-12.51,11-4.18l4.88-9.94C463.23,49.7,464,58.42,461,57.71Z"/><path class="cls-2" d="M471.29,77.23l-2.79-3.47c.47,3.3-1.75,3.81-3.33,4.83C465.68,86,469.61,77.62,471.29,77.23Z"/><polygon class="cls-2" points="430.69 61.2 424.48 62.74 426.47 63.2 430.69 61.2"/><polygon class="cls-2" points="426.8 58.73 426.7 56.59 421.87 60.39 426.8 58.73"/><polygon class="cls-2" points="420.4 56.06 421.12 56.41 424.81 54.64 420.4 56.06"/><path class="cls-2" d="M407.55,54.32l1.06,3.13c1.59-.78,4.63,2.79,4.44-1.43C411.65,57.41,408.42,56.82,407.55,54.32Z"/><path class="cls-2" d="M363.46,132.45c1.14-2,.52-3.87-.11-5.74L361.5,132C362,131.72,363.06,131.22,363.46,132.45Z"/><path class="cls-2" d="M356.24,123.73l-4.64,6c5.21,1,6-3.73,10.59-4.6-1.9-1.94-4.67,2.34-7.08.65Z"/><path class="cls-2" d="M265.39,118.19c.42-3.89-.61-3.35,2.77-5.87-4.63,2.41-8.6,1.57-13.91,2.16.9,2.45-3.06,6.69-1,5.64l5.91-2.35-.89,2.66C262.39,123.41,261,116.08,265.39,118.19Z"/><path class="cls-2" d="M26.46,80.75c.49-1.9-.29-3.59-1.06-5.27C21.92,77.71,27.16,80.32,26.46,80.75Z"/></svg>