<svg id="圖層_1" data-name="圖層 1" xmlns="http://www.w3.org/2000/svg" viewBox="0 0 1359 645"><defs><style>.cls-1{fill:#848dbf;}.cls-2{fill:#828dbe;}</style></defs><title>筆刷1</title><path class="cls-1" d="M1356.16,456.53c3.47-4.11-.22-1.74-2.86-2Z"/><path class="cls-1" d="M1353.3,454.57l-2-1.39A2.12,2.12,0,0,0,1353.3,454.57Z"/><path class="cls-1" d="M1333.44,444.92c5.94-2.26,10.08,4.63,14.84-.2C1344.49,439.81,1336.58,439,1333.44,444.92Z"/><polygon class="cls-1" points="1339.51 450.84 1341.07 447.89 1335.37 451.49 1339.51 450.84"/><polygon class="cls-1" points="1341.64 454.63 1341.39 453.3 1333.83 454.48 1341.64 454.63"/><path class="cls-1" d="M1317.92,437.69l5.07.61c3.2,5.65-4.73,4.84-2.6,8.64,6,1.8,4.79-8.29,11.86-4.58.63-4.21-12-3.64-8.87-9.6C1317.68,428.84,1321.93,436.4,1317.92,437.69Z"/><path class="cls-1" d="M1018.07,383.34a6.23,6.23,0,0,0-.49-.8C1017.63,383.29,1017.76,383.87,1018.07,383.34Z"/><path class="cls-1" d="M937.45,363.56a12.42,12.42,0,0,0-2.85-2.29,5.81,5.81,0,0,0,.76,2.11Z"/><path class="cls-1" d="M1071.34,386.62a19.07,19.07,0,0,0,2.65,2.53A3.71,3.71,0,0,0,1071.34,386.62Z"/><path class="cls-1" d="M573.47,209.37a6,6,0,0,0,1-1.72c0-.05-.07-.11-.1-.19L573,208.9Z"/><path class="cls-1" d="M845.69,346.23a12.1,12.1,0,0,0-3.78-.44C844,346.53,845.05,346.57,845.69,346.23Z"/><path class="cls-1" d="M1100.09,394.87a11.94,11.94,0,0,0-1.18-.41,6.61,6.61,0,0,0,1.28,1.1l0-.68Z"/><path class="cls-1" d="M960.72,380a8,8,0,0,0-2.64-1.64A7.07,7.07,0,0,0,960.72,380Z"/><path class="cls-1" d="M1246.58,408.15a3.5,3.5,0,0,0-3.67-.51C1243.49,408.86,1244.54,409.37,1246.58,408.15Z"/><path class="cls-1" d="M1218,400.13a.36.36,0,0,1,.18,0C1218.27,399.34,1218.13,399.47,1218,400.13Z"/><path class="cls-1" d="M1200.08,394a1.59,1.59,0,0,1,.37-.06C1200.4,393.34,1200.33,393.19,1200.08,394Z"/><path class="cls-1" d="M1242.91,407.64c-1.58-3.21.17-11.46-5.55-3.58l.24,1.37c-1.2-2.57-4.95.06-7.14-.3a11.92,11.92,0,0,0,.11,2.38,30.65,30.65,0,0,1,4.33,2.33C1236.9,412.47,1239.85,408.78,1242.91,407.64Z"/><path class="cls-1" d="M1018.87,381.81c-.22,1.7,1.93,1.45,0,0Z"/><path class="cls-1" d="M1045.32,382.68c-.76-.36-1.52-.71-2.32-1A3.1,3.1,0,0,0,1045.32,382.68Z"/><path class="cls-1" d="M1136.71,413.13a4.2,4.2,0,0,1-.33-.49C1136,413.52,1136.36,413.49,1136.71,413.13Z"/><path class="cls-1" d="M1040.81,380.92a20.93,20.93,0,0,1,2.19.75A2.32,2.32,0,0,0,1040.81,380.92Z"/><path class="cls-1" d="M1110.52,399.9c-.11-.13-.2-.3-.31-.35A.56.56,0,0,0,1110.52,399.9Z"/><path class="cls-1" d="M203.52,65.4c2.09-.19,2.47,2.46,4,3.69,5.71-4.62-8.06-2.61-.78-6.05a8.58,8.58,0,0,0-4.89.29l.81,6.24C206.76,68.48,200.94,67,203.52,65.4Z"/><path class="cls-1" d="M554,190.87l.64.74c.22-2.68.95-3.31-1.68-5.57-3.75,3-1.48,10-7.29,12.84a4.59,4.59,0,0,1,3.32,1.33C548.15,196.22,551.07,193.22,554,190.87Z"/><path class="cls-1" d="M549,200.21a2.48,2.48,0,0,1,0,.33,7.17,7.17,0,0,0,.25,1.56,3.51,3.51,0,0,1,1.61,1.17A5.35,5.35,0,0,0,549,200.21Z"/><path class="cls-1" d="M264.25,86.63c.7.42,1.34.79,1.91,1.16C265.48,86.42,264.86,86.26,264.25,86.63Z"/><path class="cls-1" d="M872.81,278a22,22,0,0,0,3-1A3.55,3.55,0,0,0,872.81,278Z"/><path class="cls-1" d="M596.05,209.69a7.49,7.49,0,0,0,1.93,1.53c.48.07.9.06,1.46.17Z"/><path class="cls-1" d="M434.06,218c3.47-5.77-1.35.13-3.36-4.43L426.79,216C429.14,217.83,431.9,217.55,434.06,218Z"/><path class="cls-1" d="M201.8,62.85a3.73,3.73,0,0,1-.2.56c.09,0,.15-.06.26-.08Z"/><path class="cls-1" d="M348,193.17c-.39-.48-.74-.88-1.13-1.28A2.62,2.62,0,0,0,348,193.17Z"/><path class="cls-1" d="M565.3,208.15l10.91,3.74-2.74-2.52C571,212,568,204.86,565.3,208.15Z"/><path class="cls-1" d="M480,236.06l-.18,4.1c13.44-4.72,22.49,10.71,34.69,2,9.28,17.42,12.41-9.25,21,6.43l.17-2c39.61,14.56,80.21,34.61,119.84,39.7l-.89,2.64c59.3,23.15,120.13,35.64,179.65,56.13,6.37-.75,4.78-7.66,10.53-9.16,2,.88,6.88,2,5.9,5.3-4.62.55-3.22,4.16-5,5,6.87,1.72,14.45,8.19,21.7,6l-3.76-5.78c2.9-1.06,6.22,1.27,8.28,2.13-1.56,1.89.11,7.46-2,7.93,16-6.63,8.56,7.56,20.55,6.68,4.89-8.34,20.57-11.6,31.37-15.31l3.93,3.75c-6.16-1.94-1.9,6.6-9.41,3.83C921.9,360,929,358,934.6,361.27c-.48-2.61.72-5.47,3.46-5.75,3.33,2.37,2.28,7,6.38,8.73l-5.05,1.54c1.79,4.24,5.57.53,8.36.79-.3,4,5.82,6.64,3.42,10.48,7.27-3.38,8.41.12,15.54-1.25-5.17-5.92,3.16-4.45,3.4-7.8l-7.66-.71c9.38,5.62-3.5-.34-4.7,6.31-3.87-4.42,9.78-8.57,1.48-10,10.55-.35,11.69,3.14,23.08.82-6.26-.6,2.41-3.83-.16-6.76,7.55,2,1.17,2.82,2.22,7.65,4.13,1.06,4.51,5.16,9.7,1.57,6,3.95-2.46,4.51.08,8.14-3.79,3.67-16.7-11.06-19.21,3.59-3.49-.9-9.35,3.21-14.22,1.4,3.76,3.17,8.55,9.7,14.88,8.12l2.7-7.86c4.13,1.05,6.62-4.09,9.34-2.49-2.26,1.82-.48,6,3,6.38-.59-1.42-2-1.55-1.2-2.83,6.25,1.26,8.74-3.9,16.41-3.19-5.32-3.88-5.82-6.64-10.33-11.79,3.2-5.12,4.17.39,7.65.71-.72.61-1.45.55-.82,1.95l4.3-1.61c6.69,4.67-3.39,7.78,1.9,12.34,2.8,6,6.59-.84,9,2.8-.06-.58-.12-1.19-.2-1.61a6.25,6.25,0,0,1,1.49.88,2,2,0,0,1,.07-.4c4.18.39,8.27,2.13,10.66-1.69-.16,2,3.61.5,5.29-.39,2.71-1,9.46-4.31,10.69,3.39-.1,0-.17-.05-.26,0,4.66,2.3,7.84,5.57,6.1,7.49l7.4,4.09-2.5,5.15c7.65.74,7.9-2.64,14.56-6.72,4.18,4.8,14,5,18,4a5.7,5.7,0,0,0,2.89.82l-2.36-3c5.56,1.95,5.75-1.12,9.47,0-.62-.74-.63-1.08,1.18.41a20,20,0,0,1,2,1.05c-.36.52-1.17.18-1.91-.36l.12,2c2.74,7.13,7.9-1.15,12.09,2.33a4.41,4.41,0,0,1-1.88,0c2.26,2.28,3.79,11.14,6.34,6.8.44.79,1.68.14,3-.74l1.74,1.42a10.26,10.26,0,0,1-1.71-1.43c1.71-1.17,3.47-2.74,3.28-1.54l6.61,3.08c1.07,1.18,3.06,1.05,4.73.73l.48,2.61c2.63.43,2.24,1.77,1.75,2.3,6.35,10.48,14.73.14,22.11,9.79,3-3.2-.43-6.09-.12-8.2,2.36-2.43,8.55-3.36,11.88-4.58,2.62,6.47,14.12,15,9.76,21.84,7.61,2.95-1-5.35,3.67-6.75l.81.57c-2.42-1.69-3.74-4.89-4.37-8.23.64-4.21,7.87-3.29,9.62-1.49l-3.23,5.3c7.79.19,8.93-8.9,15.16-13.29,5,4,.14,8.23-.23,13.74l6.45.4-1.32,4.32c4.25,0,6.39-3.71,11.27-.36-5.15,2.87,6.87,6.49-.2,10.32,2.56,2.36,6-5.72,5.75.5,3.49-4-2-3.12-3.06-5,.8-7,7.56-1.16,11.68-1.78-.74,3.52-3.63,3.3-.09,6.88,1.66-2.33,5-3.52,6.41.38,1.32-4.31,5.07.61,7.39,1.6-2.44-1.67-5.38-6-2.47-9.21,2.63-1.08,4.7-1.39,9.32.65l-2.68-3c6.12-5.05,5.51,6.69,11.83,6.42-3.2,1.86-4.7,1.4-7.76,3.91a88,88,0,0,1,14.19-3.51l2.89,7.76c1.56-3,5.32,1.94,6.64-2.37,5.09,4.72-6.4,3.71-8,6.69,6.63,5.15,8.2-5.35,13.39,3.44l-3.63,3.3c2.31,1,7.82.18,7.5,2.29.45-1.45-.94-1.24-2.43-1.7,4.11-8.18,12.92-2.64,14.75-11.83l-3.13-1.59c5.6-.17,11.06-5.11,14-.78,2.12,3.79-4,5.39-6.43,7.16,4.6,2,6.87-8.59,12.31-6-2.56-2.35-1-5.35,1.49-7.09-3.13-1.59-9.49-5.4-9.43-1.29l.93,1.23c-1,2.21-3.07,2.52-4.31,3.4-4.51-1.38-.87-4.67-1.25-6.67-7.07-3.71-3.33,8.72-10.12,6.34l-.37-2c-4,1.29-9.2,0-11.78,5.23-1.24-6.68-8.48-.09-10.73-4.52,3.24-12.84,11.42,4.42,17.44-1.3-2.81-3.69,3.91-5.4,6.3-7.82l-13,2c-.38-2-1.78-9.33-5.26-5.36l.81.57c-5,.05-5.32,5.61-8.7,2.69-.25-1.34,1.57-3,2.13-3.76-3.25-2.25-3.88,2-6.64,2.38-3.25-2.24,3.39-4.63.82-7-5.67,3.61-6.25-3.17-10-4-.65,7.65-17.36,5.4-11.49,14.09L1233,430.1c-1.57-4.56,9-8.23,8.49-15l6.83,2.38c1.59-9.28-16.26,1.41-17.79-10-3.57-1.52-3,0-8.68-6.57l-1.24,8.34c-3.06-2.93-2.91-7.64-2.63-9.15a14.87,14.87,0,0,1-6-1.87,4.62,4.62,0,0,1,3.36-1.89c-1.37-5.26-2.67-3.84-4.35-1.78-2.08,1.56-4.24.61-6.49-.16l3-2.34c-1.58.24-3.55.58-4.14,2a5.69,5.69,0,0,0-2.9-.12c.18,1.57.25,6.68,2.87,9.74-7.44-5.71-14.55-6-19.74-14.79,1-2.22,4.86-4.17,4-4.73-3.24-2.26-8.38.57-9.11,4.13a9,9,0,0,1-2.09-.27c-.08-2.2-.28-4.57-1.88-5.45a3.25,3.25,0,0,0-1.78-2.3c-3.14,6-9.07.68-11.45,3.1a12.63,12.63,0,0,0,5.53,2.11c-4.19,3.34-8.26,7.37-9.46,3.29,6.61-2.38-3.72-8.34,4.92-7.61-3.24-9.77-4.73,4.84-9.89.15l-2.93-4.36c2-4.42,7-.37,6.64-2.38l-2.89-.25c3.76-2.63,13.28,2.77,21.14-.48l-11.83-6.42c-17.56.62-35.45-11.74-52-5.77a5.79,5.79,0,0,0,.61,0,11.13,11.13,0,0,0-1.47,2.89l-.26-1.34-3.73,2.66c-1.72-5.24-7.13-7.83-10.91-12.74,2.16,3.78,2.16,3.78,1.4,7.32-2,4.43-3.08,6.24-7.06,3.16,1-3.28,3.71-2.35,1.18-6,1.22,2.13-1,4-3.1,3.78-1.89-2.89-6-4.63-5-7.94,1.44-.53,2,.89,2.69,1.62,1.45-.52-3.87-4.42.44-6l-4.87-.46c-1.83-3.56,3.1-3.77,2.57-5.85-8.3-.1-14.51,6.23-22.09,6.35a64.53,64.53,0,0,0,2.45-6.83c-4.63-3.82-13.81,4.46-20,3.21,1.55-1.89,3.54-.34,5.69-.83-17.63-8.42-32.71-13.19-47.91-25.46l-6.8,6.13-3-6.38c-16.77-10.37-32.25-9.8-50.27-12.86-5.55-1.18-1.64-6.22-3.54-9.11-11.59-4.48-17.07,3.11-28.88,1.34,2.26-1.83,6.88-7.48,2.12-9.28-1.57,1.89-3.21,5.12-5.87,2.84l2.27-1.83c-1.78-4.22-5.46-1.87-10.83-5.08-10.31-3-21.73-.67-32.71,5-8.84-3.54,3.42-7.79,2.19-9.95,5.56,4.71,4.85,0,7-2.13-4,1.09-8.53,1.14-8.64-4.76-4.81-1.12-6.87-2-12.64.17,2.9-1.09,4,2.41,1.09,4.17-3.29-3.05-13.74-4-11.15-10.54-22.75-5.52-47.32-14.58-71.35-21.6-5.09,2.22,2.65,2.28-.31,4-7.24,2.7-3.92-3.75-9.72-1.61l3.06-3.06c-6.82-2.68-16.31,1.81-24.11,3.12,2.39-3.82-4.51-5.15,1.87-5.91-3.52-.31-1.85-20.16-5.57-17.13l-1.57,18.48c-.71,1.65-5-.82-4.92.47-1.84-4.31-4.16-9.42-6.16-10,.36-4.69,5.1-2.2,7.82-1.27,2.65-7.19-7.84-7.52-1.8-13-6.27-.6-.31,4-4.66,5.64L719.38,222l3.22,3.67c-5,.87-8.14,6-12.63.15l-8.14,5.33c1.16-6-4-2.39-6.66-4.67l3-3.1c-4.13-1.06-5.4-2.53-7.3-5.43,3.85-4.37,3.31,2.35,5.77-2.16l-3.95-3.07c-1,3.28-4.61,5-2,7.94-6,4.82-9.84,9.2-20.08,5.52-3-7,6.57-3.42,6.31-9.54-10.07-5.68-17.64,10.51-23.75,7.9-7.35-4.75-8.46.56-16.74-1.58,3.76-3-4.45-5.82-4.84-9.91l4.43-3c-2.84.43-4.77-1.8-3.18-4.35-1.12,5.3-12.06,1.58-18.43,2.32l-.37,4.69c-4.84.12-11.78,1-16.09-1.53-7.37-.7-7,3.67-13.79,6.83-1.74-4.88,0-9.46,2.47-14,1.17,2.82,4.72,2.47,7.35,4.76,9.93-1.11,19.58-8.3,27.67-3.48,7.05-9.5-6.28-.57-9.38-5.62a1.13,1.13,0,0,1,1-.72,2,2,0,0,1-1-.63c3.53-.35,9.16-.48,11.67-5.66-5.58-.51-7,9.47-12.17,2.91-5.74,1.49-7.11-8.1-9.81-9.73-4.43,3-7.18,11.51-14.59,7.44l5.29-4.91c-8.92-2.87-6.88,7.46-15.09,4.65,2.7,1.6-4.61,5,.88,6.86-3.7,2.35-9.92,1.11-13.9-2-1.45.56-.86,2-1.7,3.92,3.72,5.67,9.12-1.62,11.39,5.59l5.43-5.37c3.92,3.75,2.81,9.07-.8,10.73,1.39.14,2.8-.4,3.42,1-2.18,9.93-4.52-5.15-8.64,2.58l3.49.31c-.5,6.71-9.34,3.18-13.43,1.45-3.87-4.41-7.91-6.83-6.84-11.48h7c-2.21-4.66-8.85-.37-12.52-1.69a3.35,3.35,0,0,0-.61-1.74,2.93,2.93,0,0,1-.09,1.35,3.7,3.7,0,0,1-1.52-2.52c-3.21-1.23-8.87.08-11.47-2.31l-.86,4.18,1.11-2.16c3,1.08,6.25,4.82,3.05,7.17-7.62.75-6.59-7.5-7.12-11.53,3.46-5.77,6.58,2.07,10.67,1-.18-6.79-6.68-2.74-12.42-9,4.86-5.92,8.08,2.58,11.52-3.19-5.28-2.88-8.22,1.48-13.61-2,1.71-2.91,7.57-1.44,8.43-5.58l-3.21-3.09c9.45,2.46.93-8.92,8.72-8.34-2.59-3.83-6.48,4.05-10.06-1.73.46,3.36,2.72,9.92-2.76,11.14L526.56,173c-1.21-3.95,7.72-5.51,5.12-9.33l-6.24.61c-.43,2.07,1.91,3.9-.6,6.17-2.53-3.16-7.63,6.18-12.31,8-2.95-1.08-5.2-2.22-5.54-4.9-9.38,3.65-18.9.51-27.6,4,6-2.59,1.92-6.95,0-10.87,5.73.82,7.71-5.49,8.57-9.67-3.54-.34-7.71,5.51-6.68,8.15-4.76-4.3-5.18,3.21-8.76-2.55-2.49-3.16,3.5-5.76,3.13-8.47-5.92-2.13-4,7.19-10.05,3.7.61-.74,1.28-.81,1.13-2.14-3.12-2.41-7.82-.6-9.54,2.31-1.22-9.4-10.83-2.35-7.65-10.13-9.17-.46-.07,4.77-2.61,7.05-4.57,2.49-10.13-2.4-11.75-4.29,2.15.47,4.75-1.13,6.4.73l-.09-6.12c-9.39-7.21-10.58,10.55-19.34,2.59,6.16-1.29,3-3.68,6.86-6.81-2,.91-9.55-3.11-6,2.63a37.24,37.24,0,0,1-8.41-5.28c-4.07,1.09-8.25,1.5-11.35,4.53-5.21-2.22-8-7.39-9.81-10.61-12.56.57-20.91-9.5-34.15-8.87l.78.61c-8.94-3.87,1.83,8.65-7.72,5.51,3.37-6.43-4.35-6.36-6.36-10.93-10.72-7.11-21.91-1.25-31.37-9.16a3.32,3.32,0,0,1,3.9-2.42c-7.64-4.68-14.74-5.36-22.11-8l.58-.74c-10.29-9.19-23.21-5.87-36.13-8,1.27-.55,2.32-3,3.38-3.72-5.78-3.45-15.47-7.5-21.77-2.62-5.37-9-5.54.54-13.1-8.89-.18-1.37,1.3-.84,2-.9-4-3.69-7.55-4-12-6.26-11.81,1.13-17.09,9.12-28.46,2.76,2.22-9.47,8.19,0,10.72-7.31-2.93.9-5.62,2.15-8.3-1.08,3.12-3,1.14-2.15,3.56-5.11-1.81-3.22-13.3,6.51-13,5.64-.68,1.75-.1,3,2.38,3.47-4.58,4.84-12.1-3.19-18.7-2.69,1.86.74,7.34,4.4,3.73,8.09C164,67.35,158.63,75.46,152,77.46c-6-6.43,7.76-6.15,8.38-13.07-.49-2.74-1.83-8.83,2-10.43-6.12-3.4-12.54.73-18.82.35l.72-1.78c-8.39-1.74-19.56,3.63-25.28-2.16l3,3.21c-1.67.69-5.62-1.1-9,2,1.18-3-3.3-7.36-.35-9.21-6.62,8.68-20.37.27-27.28,8.28-1.43-3.11,1.53-6.54,2.87-8.57,4.9,2.42,6,4.9,9.95,1.82-4.33-1.18-6.7-4.65-5.36-6.68-6.15,4.77-17.09,4-21.11,9.48-2.2-4-4.68-6.57-2-11.31-14.11-.87,1.71,17.64-13.12,13-5.26-7,8.65-4.64-.18-9.17l2-.27c-2.74-15.13-7.58,7.87-15.08,5.1,1.16-7.43,6.87-3.45,3.16-10.16-7.53-.34-13.82,9.26-20.11,4.85l2-2.69c-4.64-.8-12.88-4.91-17.51-5.71.22-1.47.81-1.07,1.78-1.19C5.11,27.9,8,35.7,2.73,28.72l-3,2.86c2.64,3.49,8.13,9,13.65,6.22-5.52,2.75,4,11.06,0,16.47L15,52.1C23,66,37,71.67,50,79.94c11.18-4.54,14.34,7.59,25.49,5.5,4-7.85,2.31-1.12,11.06-.27-4.68-.29-2.45,6.17,0,8.14,2.26-1.66,4.46-1.84,6.66-2,.79,3.36,9.14,13.23,14.67,8.75,4.2,4.2-2,2.31-3.61,3.7.74,4.89,5.11-2.09,5.9,1.28a2.25,2.25,0,0,1-1,1.13c7.79,2,11.71,5.59,19.38,9.08,3.16-8,8.8-.67,13.25-2.5-2,2.28,3.56,4.43,5.35,6.66l6.14-4.75c5.82-3.86,4.79,5.43,11.12,4.32l-.88-1.87c4.76-1.21,13.79,6.91,16.39,12.5,41.86-4.63,54.46,26.46,94.76,34.06,3.29-1.69-.59-4.7,2.51-7.73,4.24.26,5,.88,8.68,1.87-2.52-3.16-2.84-.29-1.74-2.43l-6.22.61c-.08-.68.6-.74.43-2.07-2.08.19-4.76,1.15-7,0,4.06-1.07,6.85-6.8,10.83-3.08-.61.72-1.3.8-2.68.94,3.7,1.66,4.78-1.17,7.19,1.31,3.13,2.43,2.83.3,2.48,3.06l10,6.61c7.7-5.52,12.36,3.4,13.93,4.62-2.84,5-7.79-.57-12.12,3.9l2.76,5.17,1.56-4.25,5.28,2.91-.57.74c1.19-1.49,2.39-3,3.38-1,.06.67.25,2-.45,2.08l4.76-1.15c-3.71,3.76,3.13,2.42,1,7.39,12.35,6.61,18.85-1.83,28.27,8.75-1.14-3,6.16-7,9.43-5,1.66,1.89,1.83,3.22-.08,4.79l5.47-1.22c3.38,9.84,10.67,6.4,18.4,11.77l-1.14,2.14c4-1.72,8.06-2.81,12.58-.52l-2.26,4.28c4.85,5,7.37-8.19,12.92-3.31,1.46-4.9-1.83-8.65-1-13.47,0,5.43,6.69,8.28,6.16,4.26,7,0,4.41,1.48,4.59,2.83l4.68-1.82c4.44,1.61-.51,6.84-3,9.13,5.81-4,9.26,1.13,13.78,3.42l-2.61,1.6,6,2.81c5.26-2.56,11.08-1.1,15.76,2.53l-5.62,5.31c2.68,4.49,2.59-1.64,3.9-2.43,6.83-1.35,6.75,3.41,8.74,8C464.93,223.15,469,243.25,480,236.06ZM1135.4,409.39l-.57-1.22C1137.13,407.66,1138.57,407,1135.4,409.39Zm-51-17.61c7-.61,4.08,1.83,4,3.75-5.58-3.63-9.61-2.62-14.38-6.38a12.82,12.82,0,0,1,.07,4.48,6.23,6.23,0,0,1-3.53-6.54C1075.18,381.45,1085.91,396.34,1084.36,391.78Zm125.91,3.74a14.93,14.93,0,0,1-1.17,1.21h0Zm-32.51-3.68a4.51,4.51,0,0,0-1.31-3.32C1176.49,390.42,1176.61,392,1177.76,391.84ZM1119,365.16c-.59-3.12-4.07-3.3-6.61-3.39A25,25,0,0,0,1119,365.16ZM731.86,249.92c2.17-.47,6.48-2.11,3.9-5-2.24,1.84-4-3.06-6.34.06a2.41,2.41,0,0,1-.22-.4C730.38,247.3,731.35,249.62,731.86,249.92ZM543.6,216.27c1.14-2.55,3.38-5,3.12-7.28.13.13.31.24.46.37-.19-1-.35-1.9.18-2.37-1.31-1-2.67-2.09-4-1.65C540.28,213.83,536.73,214.25,543.6,216.27Z"/><path class="cls-1" d="M615.1,199.34c-.75-.09-1.28-.32-1.76-.32A9.68,9.68,0,0,0,615.1,199.34Z"/><path class="cls-1" d="M543.71,205.47c-.3.5,1.18,1.89,3,3.52C546.62,207.79,545.84,206.6,543.71,205.47Z"/><path class="cls-1" d="M1301.43,455.29l-2.06.32,2.81,3.69c6.88-1,8.33-4.69,11.12-8.56-6.61,2.39-9.29-.64-16.55-1.58Z"/><path class="cls-1" d="M1307.17,425.62c-.25-1.33-.87-4.68-1.69-5.24l-1.69,2.34Z"/><path class="cls-1" d="M1239.9,391.27l5,4C1247.4,393.56,1242,387.5,1239.9,391.27Z"/><path class="cls-1" d="M1251.3,444.46l3.88-2c-2-3.12-5.69-3.94-7.25-1C1252.06,440.9,1248.29,443.54,1251.3,444.46Z"/><path class="cls-1" d="M1224.76,386c-3.37,4.64-5-4-7.67.49C1219,385.54,1222.89,391.13,1224.76,386Z"/><path class="cls-1" d="M1213.71,436.47c.31,5.44,4.63,2,7.89,4.29C1218.59,439.84,1216,433.39,1213.71,436.47Z"/><path class="cls-1" d="M1189.7,391.37c1.42-3.61,3.75-2.62,6.18-.93-1.25.87-2.37,2.41-3.75,2.62,5.38-1.5,5.51-.83,9.64-1.45-2.81-3.69-7.7-7-5.72-11.47C1192.33,382.78,1187.43,386.93,1189.7,391.37Z"/><path class="cls-1" d="M1204.85,434.41c2.56,2.36,3.32,6.33,7,7.15.17-2.78.12-6.89-4.27-7.57l2.82-3.86C1207.46,425.77,1210.18,436.32,1204.85,434.41Z"/><path class="cls-1" d="M1176.24,376.3l1.2,2.55c5.26-2.16,10.13,1.21,14.17-3.54C1186.45,374.05,1179.43,374.45,1176.24,376.3Z"/><path class="cls-1" d="M1192.57,421.88l-2.42,5.86c3.94,2.12.32-2.12,2.25-3.09.94,1.23,2.57,2.33,3.8,1.46C1191.15,425.54,1197.38,421.14,1192.57,421.88Z"/><path class="cls-1" d="M1176.75,424.31l-6.17.93,2.19,7.89C1179.77,432.76,1174.22,429.47,1176.75,424.31Z"/><path class="cls-1" d="M1171.37,418.26l-.25-1.34-10.8,6.45C1166.27,421.1,1166.39,421.76,1171.37,418.26Z"/><path class="cls-1" d="M1085.53,349.11c-1.7,2.31,2,7,.9,3.47C1088,350.72,1082.71,345.44,1085.53,349.11Z"/><path class="cls-1" d="M1090,403.36c-1.69-2.66-10.35-1.29-14.19-.52C1080.15,402.79,1089.51,407,1090,403.36Z"/><path class="cls-1" d="M1074.28,403.13c.31-.07.89-.18,1.56-.29A3.32,3.32,0,0,0,1074.28,403.13Z"/><path class="cls-1" d="M931.53,374a1.68,1.68,0,0,0-1.21.38C930.74,374.25,931.09,374.18,931.53,374Z"/><path class="cls-1" d="M935.3,373.52c2,1.55,6.9,1.34,8.52-1.22-3.92.24-7.28.09-12.29,1.72C933.17,374.18,934.47,376.72,935.3,373.52Z"/><path class="cls-1" d="M903.86,362.44c2.16-1.14,4.17.4,4.37-2.29C907.64,358.74,903.3,360.35,903.86,362.44Z"/><path class="cls-1" d="M712.41,221.36c-2.65-2.29-4.76-1.81-5.09,2.22C710.77,224.57,709.58,221.75,712.41,221.36Z"/><polygon class="cls-1" points="703.14 223.17 703.3 221.17 702.17 217.68 703.14 223.17"/><path class="cls-1" d="M683.71,211.2a3.39,3.39,0,0,1,1.77-1.25C684.13,210.1,683,210.31,683.71,211.2Z"/><path class="cls-1" d="M686.16,209.9a2.3,2.3,0,0,0-.68,0C685.7,209.92,686,209.92,686.16,209.9Z"/><path class="cls-1" d="M687.18,211.52l.86-1.94a7.84,7.84,0,0,1-1.88.32C686.77,209.94,687.29,210.39,687.18,211.52Z"/><path class="cls-1" d="M677.58,208.58l2.27,7c5-1.54-3.87-4.4,2.13-9.26Z"/><path class="cls-1" d="M663.06,205.89c-3.28-3-11.59,4.3-11.69-3.15-12,.22-1,12.09-14.2,10.85,10.71,7.1,10-11.25,19.29-4.28C652.7,203.55,660.87,207,663.06,205.89Z"/><path class="cls-1" d="M661.42,217.88c1.66-3.21-3.13-5-5.34-3.21C657.38,215.48,658.38,221,661.42,217.88Z"/><polygon class="cls-1" points="640.84 202.43 638.31 198.79 636.77 200.71 640.84 202.43"/><path class="cls-1" d="M628.62,197.21l4.45-3C631.53,195.47,626.77,193.68,628.62,197.21Z"/><path class="cls-1" d="M612.54,186.91c-2.64-2.27-8.19,6-1.14,6l-1.36-.8C610.85,190.79,608.36,186.52,612.54,186.91Z"/><path class="cls-1" d="M567.47,188.77c2,.85,4.88.44,5-1.58l-6.32.09Z"/><path class="cls-1" d="M561.55,211.18c.24,6.13,5.53,1.2,8.79,4.21C566.33,213,567.08,212.38,561.55,211.18Z"/><path class="cls-1" d="M563.3,178.89c2.25-1.8,4.21.4,5.54,1.21C569.1,176.73,564.89,176.34,563.3,178.89Z"/><path class="cls-1" d="M553.55,178c-1.2-2.81,1.36-3,.4-4.93-3.27-3.74-7.61-4.7-10.83-2.34.34,2.68-.17,9.53-2.69,11.81,7,0,13.48-9.24,14.2-.39l8.33-8C558.29,171,556.94,179.66,553.55,178Z"/><path class="cls-1" d="M561,200.31,558.49,196c-.27,3.35-3,3.1-5.2,3.56C552,206.93,558.86,200.13,561,200.31Z"/><polygon class="cls-1" points="516.52 171.31 508.7 170.71 510.96 171.83 516.52 171.31"/><polygon class="cls-1" points="512.52 167.62 512.95 165.52 506.21 167.55 512.52 167.62"/><polygon class="cls-1" points="505.59 162.86 506.36 163.45 511.21 162.99 505.59 162.86"/><path class="cls-1" d="M490.75,156.83l.43,3.37c2.1-.21,4.78,4.26,5.66.13C494.82,161.2,491.12,159.53,490.75,156.83Z"/><path class="cls-1" d="M417.06,217c1.93-1.56,1.67-3.54,1.42-5.56l-3.66,4.42C415.53,215.76,416.91,215.64,417.06,217Z"/><path class="cls-1" d="M410.75,206l-7.21,4.12c6,2.81,8.25-1.47,14-.7-1.75-2.54-6.25.61-8.68-1.86Z"/><path class="cls-1" d="M303.31,168.34c1.62-3.57.24-3.42,5-4.61-6.24.62-10.74-1.65-17.25-3,.36,2.67-5.61,5.28-2.87,5l7.75-.07-1.84,2.21C298.2,172.23,298.62,164.7,303.31,168.34Z"/><path class="cls-1" d="M31.12,42c1.21-1.6.86-3.5.5-5.39C26.79,37.33,32.09,41.87,31.12,42Z"/><polyline class="cls-2" points="214.71 111.66 499.99 221.29 802.82 296.62 944.75 333.99 1130.27 390.74 1192.57 409.8 1120.86 606.96 129.91 334.55"/></svg>