<svg id="圖層_1" data-name="圖層 1" xmlns="http://www.w3.org/2000/svg" viewBox="0 0 876 689"><defs><style>.cls-1{fill:#848dbf;}.cls-2{fill:#828dbe;}</style></defs><title>筆刷2</title><path class="cls-1" d="M6.26,175.91c-2.7-.06-3.84-1.78-5-3.33s-2.35-2.7-5.41-1.66a6.34,6.34,0,0,0,3,6C.83,177.92,3.5,177.78,6.26,175.91Z"/><path class="cls-1" d="M5.45,169.19,2.68,171c2-.29,3.94-.57,6-.93C7.54,169.8,6.51,169.49,5.45,169.19Z"/><path class="cls-1" d="M6.23,165.46l-.61,1.14c1.94.53,3.8,1.12,5.78,1.57l-1.32-.64-1.28-.69Z"/><path class="cls-1" d="M13.09,186.76l-3.21-2.12c.89-5.63,5.94-2.45,6.55-6.21-3.13-3.34-7.89,5.2-10.77-.08-2.79,3.18,6.38,6.84.93,10.68C8.46,194.12,9.59,186.53,13.09,186.76Z"/><path class="cls-1" d="M203.84,300.63a6.54,6.54,0,0,0,0,.81C204.14,300.75,204.28,300.21,203.84,300.63Z"/><path class="cls-1" d="M254.94,331.71a7.39,7.39,0,0,0,1.21,2.52,6,6,0,0,0,.24-2Z"/><path class="cls-1" d="M166.46,288.08a13.05,13.05,0,0,0-.89-2.73A2.55,2.55,0,0,0,166.46,288.08Z"/><path class="cls-1" d="M473.53,518.8a7.78,7.78,0,0,0-1.23,1.52s0,.11,0,.19l1.47-1.23Z"/><path class="cls-1" d="M315.69,361a6.77,6.77,0,0,0,2.61.93C317.07,361,316.29,360.76,315.69,361Z"/><path class="cls-1" d="M149,275.3a7,7,0,0,0,.69.59,4.63,4.63,0,0,0-.46-1.22l-.26.6Z"/><path class="cls-1" d="M244.23,313.23a4.29,4.29,0,0,0,1.29,1.89A4.05,4.05,0,0,0,244.23,313.23Z"/><path class="cls-1" d="M49.07,231.4a2.06,2.06,0,0,0,2.39,1.37C51.62,231.58,51.11,230.88,49.07,231.4Z"/><path class="cls-1" d="M65.94,245.33a.19.19,0,0,1-.12-.05C65.4,246,65.55,245.87,65.94,245.33Z"/><path class="cls-1" d="M76.14,254.88a2.53,2.53,0,0,1-.3,0C75.59,255.39,75.59,255.53,76.14,254.88Z"/><path class="cls-1" d="M51.46,232.77c-.4,3.16-5.58,9.84,2.3,4.49l.47-1.23c-.34,2.49,3.62,1.15,5,2a13.8,13.8,0,0,0,1-2.07,17.09,17.09,0,0,1-2-3C58.05,230.18,54.21,232.58,51.46,232.77Z"/><path class="cls-1" d="M202.65,301.86c.85-1.49-.82-1.64,0,0Z"/><path class="cls-1" d="M183.74,296.4a17.83,17.83,0,0,0,1.29,1.32C184.76,297.1,184.5,296.5,183.74,296.4Z"/><path class="cls-1" d="M130.42,251.93a4.1,4.1,0,0,1,0,.5C131.12,251.74,130.82,251.69,130.42,251.93Z"/><path class="cls-1" d="M186.32,298.78a11.91,11.91,0,0,1-1.29-1.06C185.25,298.28,185.53,298.8,186.32,298.78Z"/><path class="cls-1" d="M143.62,268.8c0,.14,0,.31.07.37A.47.47,0,0,0,143.62,268.8Z"/><path class="cls-1" d="M721,674.48c-1.63.16-1.47-2.4-2.44-3.61-5.16,4.43,5.73,2.6-.43,5.87a5.52,5.52,0,0,0,3.79-.24l.44-6C719.06,671.47,723.26,672.94,721,674.48Z"/><path class="cls-1" d="M482.94,537.92l-.27-.75c-.93,2.5-1.65,3-.31,5.39,3.68-2.51,3.93-9.27,9.09-11.42-.8.07-1.57-.6-2.12-1.54C488.81,533.42,485.78,536,482.94,537.92Z"/><path class="cls-1" d="M489.33,529.6a2.85,2.85,0,0,1,.06-.32,9.17,9.17,0,0,0,.26-1.49,2,2,0,0,1-.88-1.24A4.64,4.64,0,0,0,489.33,529.6Z"/><path class="cls-1" d="M678.28,653.21c-.46-.42-.88-.79-1.24-1.16C677.3,653.39,677.73,653.56,678.28,653.21Z"/><path class="cls-1" d="M271.31,419.36a18.41,18.41,0,0,0-2.59.43A2.8,2.8,0,0,0,271.31,419.36Z"/><path class="cls-1" d="M456.62,516.44a4.87,4.87,0,0,0-1-1.61c-.34-.11-.66-.14-1.05-.3Z"/><path class="cls-1" d="M580,521.15c-4.06,5.24,1,0,1.35,4.4l3.53-2.09C583.62,521.65,581.51,521.72,580,521.15Z"/><path class="cls-1" d="M721.9,677a5.12,5.12,0,0,1,.25-.53c-.07,0-.13.05-.22.07Z"/><path class="cls-1" d="M637.87,548.84c.18.47.35.87.54,1.26A1.91,1.91,0,0,0,637.87,548.84Z"/><path class="cls-1" d="M479.32,520.68l-7.13-4.49,1.34,2.61C476.14,516.57,476.36,523.52,479.32,520.68Z"/><path class="cls-1" d="M550.74,501.24,552,497.4c-11.23,3.46-13.67-11.69-25.12-4.45-2-17-11.85,7.78-13.79-7.64l-.7,1.88c-6.29-4.24-12.52-8.81-18.77-13.4l-9.38-6.86c-3.11-2.3-6.24-4.59-9.38-6.79A198,198,0,0,0,455.64,448a113.71,113.71,0,0,0-20.1-8.9l1.49-2.35q-6.86-5.17-13.88-9.92c-4.68-3.2-9.36-6.34-14.11-9.37-9.48-6.06-19.15-11.74-28.73-17.56-19.25-11.46-38.49-22.91-56.67-36.29-4.92-.2-6.22,6.33-11,6.89-1.18-1.09-4.33-2.8-2.44-5.65,3.59.14,3.85-3.34,5.46-3.88-4.42-2.53-7.64-9.46-13.74-8.51l.67,5.78c-2.5.55-4.1-2-5.3-3.1,1.82-1.5,2.63-6.8,4.37-6.92-14.07,3.69-3.47-8.12-12.53-9.08-6.64,6.85-19.34,7.48-28.68,9.19l-1.46-4c3.77,2.72,3.84-5.65,8.32-2-2.41-4.95-8.34-4.24-11.19-8.08-.64,2.44-2.6,4.84-4.7,4.65-1.55-2.67,1-6.67-1.36-8.89l4.27-.6c.31-4.1-3.86-1.35-5.8-2,1.75-3.58-1.72-6.9,1.5-10-6.6,1.89-6.1-1.41-11.81-1.36,1.48,6.18-4,3.48-5.48,6.45l5.3,1.9c-4.68-6.58,2.43.89,5.86-4.92,1.14,4.59-10.44,6.15-4.92,8.77-7.87-1.36-7.31-4.75-16.54-4.55,4.34,1.59-3.24,3-2.5,6.11-4.73-3.12.23-2.73,1.34-7.25-2.6-1.65-1.27-5.4-6.48-3.05-2.84-4.56,3.57-3.63,3.14-7.31,4.2-2.67,7.87,12.73,15.39,0,2.19,1.39,8-1.34,10.87,1.08-1.51-3.48-2.43-10.12-7.64-9.75l-5,6.62c-2.58-1.62-6.41,2.58-7.76.69,2.36-1.26,2.7-5.33.31-6.22-.12,1.37.83,1.72-.24,2.73-4.05-2.16-7.9,2.05-13.22.12,2.35,4.37,1.63,6.92,2.92,12.3-4.35,4-2.91-1.05-5.32-1.93.76-.42,1.27-.25,1.37-1.61l-3.79.72c-3.06-5.33,5.54-6.39,3.49-11.38.34-5.83-5.12-.4-5.44-4.08-.18.52-.39,1.07-.49,1.47a3.71,3.71,0,0,1-.74-1.05,2.7,2.7,0,0,1-.21.35c-2.88-1.09-5.16-3.36-8.43-.37.93-1.77-2.43-1.09-4-.59-2.37.41-8.65,2.15-6.43-4.92.09,0,.1.07.17.07-2.48-2.86-3.43-6.38-1.38-7.77l-3.68-5,3.93-4.12c-5.23-2.07-6.8.89-13.31,3.27-1.05-5-8.1-7-11.44-6.91a3.06,3.06,0,0,0-1.73-1.29l.42,3.16c-3.2-2.81-4.62-.14-6.84-1.85.13.78,0,1.08-.69-.59a11.85,11.85,0,0,1-1-1.32c.48-.39.92.07,1.23.69l.76-1.81c1-6.83-6.2-.53-7.76-4.43a2.71,2.71,0,0,1,1.37.37c-.67-2.45,2-10.55-1.69-7.23,0-.78-1.15-.46-2.46.07l-.65-1.6a6.52,6.52,0,0,1,.62,1.6c-1.74.69-3.69,1.72-3,.7-1.16-1.34-2.32-2.66-3.45-4-.26-1.26-1.74-1.55-3.08-1.61l.79-2.39c-1.7-.92-.83-2-.25-2.38,0-10.47-10.53-3.16-11.57-13.11-3.54,2.18-2.39,5.4-3.55,7.17-2.79,1.64-7.66,1.14-10.58,1.46,1-6.23-3.35-16.13,2.88-21.1-4.08-4.21-1.71,4.85-5.69,5l-.32-.67c1,2,.46,5.06-.6,8.1-2.36,3.52-7.15,1.12-7.59-.83l4.74-3.88c-5.51-1.87-10.48,5.74-17,8.13-1.77-4.64,3.68-7.15,6.48-11.83l-4.4-1.84,3-3.42c-3-1-6.28,1.71-8.2-2.31,5-1.27-1.83-7.16,5-8.8-.69-2.6-7,3.51-3.85-1.75-4.36,2.58-.06,3.12-.19,5-3.86,5.8-6-.76-9.17-1.22,2.21-2.83,4.13-1.94,3.36-5.86-2.28,1.59-5.2,1.79-4.32-1.88-3,3.35-3.29-1.76-4.44-3.17.91,2,.88,6.44-2.72,8.44-2.39.28-4,0-6.31-2.87l.44,3.24c-6.83,2.75-.67-7.06-5.28-8.4,3.19-.77,4,0,7.44-1.37a54.47,54.47,0,0,1-11.76-.67l1.88-7.3c-2.6,2.09-2.75-3-5.87.24-1.18-5.29,6.38-1.41,9-3.52-2-6-8.47,2.32-7.6-6.36l4.22-1.79A10.11,10.11,0,0,0,44.86,183c-1-.58-1.74-1.21-1.08-2-1.06,1.08,0,1.29.78,2.07-7.09,5.7-10.26-1.37-16.39,5.7l1.35,2.21c-4-1.45-10.46,1-10.23-3.42.53-3.72,5.66-3.26,8.32-4-2.11-3-9.39,5.07-11.84,1.31.54,2.69-2.14,4.68-4.86,5.35,1.37,2.24,3.89,7.3,6,3.89v-1.29c1.89-1.52,3.5-1.17,4.85-1.53,2.45,2.46-1.84,4.12-2.63,5.89,3.06,5.17,6.92-6.26,10.42-2.31l-.78,1.77c3.47.09,6.56,2.49,11-1.14-2.52,5.92,5.93,2.33,5.26,6.65-4.35,5-5.82,3.27-7.08.73s-2.3-5.9-5.9-4.33c.12,3.84-5.55,3.46-8.49,4.77,3.44.69,6.9,1.31,10.32,1.95-.75,1.77-3.42,8.33,1,5.94l-.29-.7c3.56,1.31,6.58-3.29,7.52.09-.49,1.2-2.59,2.11-3.37,2.6,1.19,2.79,3.71-.59,5.88-.23,1.24,2.72-4.7,3.05-4,5.68,5.84-1.6,2.94,4.3,5.23,6,4.2-6.33,15-.21,15-9.11l8.29.59c-1.07,4.3-10.36,4.8-13.22,10.74L52.26,223c-2.8,3.75.29,4.5,3.52,5.55s6.64,2.35,4.52,7.42c1.88,2.17,2.2.72,3.21,7.75l4.78-6.9c.84,3.27-1.45,7.3-2.35,8.53a8.17,8.17,0,0,1,3.47,3.07,4.25,4.25,0,0,1-3.3.83c-1.43,4.88.17,4,2.33,2.59,2.22-.85,3.34.5,4.63,1.67l-3.21,1.35c1.27.15,2.85.31,3.92-.76a3.45,3.45,0,0,0,2.06.77c.58-1.41,2.84-5.86,2.34-9.1,2.81,6.64,7.83,8.49,7.65,17.33-1.7,1.72-5.4,2.53-5.06,3.21,1.36,2.72,6.36,1.42,8.48-1.53a5.08,5.08,0,0,1,1.39.71c-.92,1.94-1.83,4.07-1,5.19a2.59,2.59,0,0,0,.28,2.41c4.93-4.53,6.94,1.37,9.74-.23a6.89,6.89,0,0,0-3.11-3c4.52-2,9.25-4.69,8.33-.85-5.86.66-.93,8.11-6.92,5.61-1.89,9.27,5.57-3.22,7.29,2l.24,4.46c-3.38,3.46-5.28-1.19-5.88.66l2,.84c-3.89,1.49-8.5-5.3-15.7-4.18l5.88,8.22c6.59,1.63,11.78,6.2,17.25,10s11.14,7,18.46,6.05a3.07,3.07,0,0,0-.42-.17,15.1,15.1,0,0,0,2.29-2.26l-.38,1.23,3.85-1.59a12.84,12.84,0,0,0,.71,6.71,38.29,38.29,0,0,1,2,6.75c0-3.77,0-3.77,2-6.76,3.32-3.53,4.85-4.94,6.5-1.43-2.05,2.73-3.69,1.36-3.32,5.06a3,3,0,0,1,3.84-2.75c.19,2.93,2.48,5.28.42,8-1.28.19-1.14-1.18-1.32-2-1.27.18,1,4.68-2.8,5.28l3.4,1.36c-.1,3.53-3.82,2.76-4.29,4.72,6.09,1.72,13.23-2.74,18.84-1.38-1.3,1.3-5.94,7.37-4.56,5.63,1.89,4.28,12-1.42,16.08.84-1.9,1.41-2.75-.35-4.53-.31,4.81,5.39,9.53,9.85,13.84,14.69a67.82,67.82,0,0,1,11.55,16.8l7.4-4.33-.23,6.28a35.26,35.26,0,0,0,6.89,7.53,43.86,43.86,0,0,0,7.91,5c5.53,2.76,11.52,4.72,17.63,7.59,3.66,2-1.11,5.92-.77,8.86,7,5.9,13.88-.12,22,3.33-2.35,1.31-7.86,5.72-5,8.11,1.86-1.48,4.25-4.16,5.4-1.67l-2.35,1.31c-.21,4.13,3.38,2.56,6.22,6.34,6.6,4.32,16,3.87,26.18.28,5.33,4.53-5.3,6.62-5.15,8.76-2.48-5.12-3.61-.75-6,.91,3.4-.4,6.77.22,4.77,5.63,3.2,1.74,4.43,2.86,9.49,1.72-2.55.57-2.16-2.8.65-4,.69,1.64,2.9,3.06,4.4,4.78s2.35,3.68.24,6.49c7.57,4.13,15.17,9.12,22.84,14.32q5.73,3.92,11.59,7.77c3.89,2.56,7.8,5.08,11.72,7.48,4.55-1.38-1.24-2.44,1.56-3.67,6.32-1.56,1.7,4,6.75,2.74l-3.3,2.43c4.23,3.38,12.8.46,19.09.17-3,3.23,1.72,5.3-3.32,5.23,2.54.71-5.13,18.86-1.34,16.52l7.14-16.91c1.06-1.43,3.51,1.37,3.84.17,0,4.2.09,9.22,1.41,10-1.78,4.3-4.55,1.42-6.29.22-4.31,6.33,3.49,7.93-2.82,12.27,4.54,1.33,1.52-3.67,5.32-4.65l2.51,3.48-1.25-3.79c4-.21,8-4.57,9.54,1.39l7.79-4c-2.76,5.41,2.27,2.69,3.55,5.1l-3.27,2.53c2.78,1.45,3.28,3,3.81,5.86-4.27,3.63-1.77-2.55-5,1.35l2,3.3c1.76-2.93,5-4.1,4-7.14,6-3.8,10.27-7.44,16.82-2.88.07,6.87-6,2.44-7.69,8.16,5.84,6.42,16.5-7.81,20.27-4.71,4.05,5.24,6.53.37,12.1,3.21-3.74,2.43,1.6,5.88.66,9.73L426.66,512c2.27-.11,3,2.16,1.1,4.38,2.42-4.82,9.56-.24,14.57-.28l1.66-4.36c3.68.38,9.15.22,11.63,3.05C461,516.18,462,512,468,509.71c-.11,4.72-2.75,8.85-5.9,12.84-.07-2.74-2.85-2.74-4.17-5.12-7.79.11-17.15,5.81-21.83.5-8.13,8.14,4.56,1.17,5.41,6.2-.42.53-.73.6-1,.57a1.24,1.24,0,0,1,.54.69c-2.77,0-7-.49-10.48,4.09,4.07,1.06,8.12-8.13,10-1.46,4.77-.83,3,8.32,4.57,10.09,4.24-2.39,8.78-10.09,13.21-5.59l-5.42,4.1c5.93,3.52,7.35-6.34,12.74-3-1.57-1.75,4.91-4.26,1.3-6.51,3.47-1.86,7.79-.13,9.9,3.14,1.25-.39,1.21-1.75,2.39-3.52-1.17-5.65-7.32.7-7-6.27l-5.63,4.54c-1.88-3.88.5-8.75,3.69-10-1-.25-2.22.13-2.27-1.26,4.5-9.09,1.9,5.23,7.22-1.63l-2.52-.6c2.31-6.24,7.91-2.14,10.48-.16,1.64,4.48,4,7.1,1.86,11.37l-5.26-.63c.33,4.57,6.53,1.14,8.91,2.71a3.43,3.43,0,0,0,0,1.68,4,4,0,0,1,.44-1.26,3.22,3.22,0,0,1,.44,2.5c2,1.47,6.68.68,8,3.14l1.81-3.86L498,529c-1.92-1.25-3.36-5-.3-7,5.95-.11,2.87,7.55,2.16,11.38-4.21,5.14-4.39-2.48-7.78-1.8-1.75,6.39,4.28,3.12,6.89,9.43-5.3,5.16-5.38-3.08-9.58,2.05,3.19,3.14,6.62-.71,9.72,3-2.09,2.59-6.12.72-7.91,4.55l1.59,3.17c-6.5-3.1-3.16,8.31-8.92,7.11.92,3.82,6-3.26,7.18,2.47.56-3.2.65-9.56,5.13-10.25l2.56,3.79c-.15,3.81-7.35,4.54-6.42,8.35l4.9-.05c.89-1.92-.39-3.83,2.13-5.76,1.07,3.18,7.45-5.19,11.48-6.55,1.93,1.26,3.32,2.52,2.86,5.08,8-2.66,14.43.94,21.93-1.78-5.21,2-3.28,6.43-2.85,10.26-4.13-1.18-7.28,4.64-9,8.52,2.61.58,7.29-4.65,7.2-7.22,2.5,4.4,4.76-2.66,6,3,1.08,3.17-4.13,5.2-4.56,7.79,3.95,2.44,4.88-6.51,8.58-2.78-.66.65-1.19.68-1.41,2,1.75,2.5,5.77,1.12,7.81-1.51-1.46,9,7.59,3,3.22,10.13,6.88,1,1.25-4.51,3.76-6.51,4.1-2.08,7.09,2.89,7.86,4.77-1.52-.57-3.9.79-4.68-1.07l-1.45,5.8c5.36,7.41,10.65-9.36,15.33-1.29-5,.86-3.21,3.32-6.88,6.05,1.75-.73,6.5,3.54,5.21-2.13a22.15,22.15,0,0,1,5.1,5.53c3.35-.8,6.62-.94,9.69-3.64,3.4,2.43,4.29,7.48,4.94,10.62,9.69.08,13.74,10.09,24,10.12l-.46-.61c5.92,4.12.57-8.35,7.1-4.9-4,6,1.86,6.31,2.39,10.72,6.66,7.19,16.45,2,22,9.9-.7,1.33-1.94,2.71-3.49,2.18,4.85,4.75,10.11,5.71,15.2,8.46l-.59.69c6,9.06,16.63,6.2,26.06,8.56-1.08.51-2.36,2.88-3.29,3.5,3.75,3.45,10.4,7.62,16.15,2.95,2.48,8.7,4.34-.47,8.44,8.69-.1,1.32-1.14.79-1.7.84,2.42,3.6,5.09,3.95,8.15,6.17,4.63-.49,8.3-2.66,11.74-3.92a12,12,0,0,1,5.12-.9,9.69,9.69,0,0,1,5.42,2.3c-3.25,9.14-6.31.06-9.45,7.09,2.4-.86,4.68-2.09,6.21,1-2.89,2.91-1.22,2.08-3.58,4.94.9,3.11,11.31-6.33,10.92-5.5.81-1.7.56-2.9-1.27-3.34,4.3-4.7,8.77,3,13.91,2.49-1.31-.71-4.93-4.21-1.59-7.81,4.9,4.19,10.24-3.71,15.59-5.71,3.57,6.17-6.83,6-8.37,12.74,0,2.66.06,8.56-3.12,10.13,4.2,3.25,9.71-.75,14.49-.56l-.81,1.74c6.23,1.52,15.52-4,19.11,1.54l-1.86-3.05c1.38-.71,4.16.94,7.17-2.11-1.3,2.92,1.55,7.07-1,8.94,3.1-4.29,7-4.48,10.89-4.6s7.86-.29,11-4.32c.72,3-2,6.43-3.22,8.45-3.46-2.16-4-4.51-7.41-1.37,3.18,1,4.58,4.24,3.31,6.27,5.3-4.87,13.57-4.62,17.24-10.09,1.22,3.81,2.83,6.2.28,10.93,10.65.25.67-17.11,11.39-13.26,3.23,6.59-7.05,4.9-.85,8.94l-1.52.36c.49,14.62,6.57-8,12-5.71-1.62,7.31-5.59,3.78-3.43,10.08,5.74-.12,11.42-9.87,15.77-6l-1.78,2.75c3.45.49,9.33,4,12.76,4.47-.28,1.45-.69,1.1-1.44,1.28,5.2,4.64,3.65-2.81,7.06,3.69l2.48-3c-1.73-3.26-5.4-8.26-9.8-5.22,4.39-3.05-2-10.55,1.46-16.09l-1.39,2.23a34.54,34.54,0,0,0-10.17-14.58c-2.07-1.85-4.29-3.46-6.51-5.17s-4.47-3.41-6.64-5.26c-8.85,4.95-9.78-6.68-18.34-4.12-4,7.81-1.86,1.2-8.32.78,3.48.06,2.62-6.06,1.1-7.9a8.62,8.62,0,0,1-5.22,2.14c-.16-3.24-5-12.55-9.73-8-2.53-3.94,1.81-2.3,3.21-3.7.15-4.71-4.09,2.18-4.2-1.06a2.73,2.73,0,0,1,.91-1.12c-5.5-1.71-7.9-5-13.08-8.17-3.58,7.82-6.64.83-10.23,2.67,1.81-2.24-2-4.23-2.93-6.37l-5.33,4.69c-5,3.81-2.68-5.18-7.59-4l.35,1.8c-3.77,1.23-9.17-6.47-10.13-11.81-16,2.26-25-4.16-33.47-12s-16.3-17.45-30.54-21.36c-2.8,1.56-.53,4.5-3.48,7.35-3.13-.32-3.59-.94-6.09-2,1.21,3.1,2.05.36.78,2.38,1.58-.13,3.18-.29,4.78-.45-.08.65-.6.69-.75,2,1.6-.14,3.8-1,5.25.12-3.26,1-6.54,6.39-8.76,2.77.61-.68,1.14-.74,2.21-.85-2.44-1.64-3.83,1-5.1-1.42-1.83-2.41-2.05-.37-1.21-3l-6-6.61c-6.94,5.06-8.5-3.61-9.4-4.8,3.23-4.72,5.7.76,9.9-3.39l-.93-5-2.09,4-3.3-2.92.59-.68c-1.21,1.38-2.43,2.74-2.74.87.1-.64.26-1.93.8-2l-3.81,1c3.61-3.47-1.79-2.39.93-7.06-3.86-3.31-7.47-3-10.67-3.24s-6.05-.87-8.32-6.09c.15,2.91-6.21,6.43-8.17,4.37-.8-1.87-.61-3.13,1.18-4.55l-4.36.93c-.18-9.48-6.43-6.49-10.88-11.92l1.36-2c-3.37,1.43-6.66,2.26-9.45-.15l2.73-3.93c-2.37-5-7.49,7.38-10.41,2.47-2.3,4.56-.78,8.28-2.55,12.82,1.33-5.15-2.94-8.21-3.54-4.37-5.26-.35-2.92-1.64-2.73-2.93l-4,1.48c-2.91-1.77,2.11-6.45,4.56-8.48-5.33,3.45-6.62-1.56-9.41-4l2.35-1.38-3.76-3c-4.56,2.1-8.51.33-11-3.39l5.56-4.66c-.82-4.41-2.35,1.39-3.53,2-5.42.84-4.13-3.64-4.39-8.08C558.45,514.35,560.82,495.19,550.74,501.24Zm-421-245.76-.12,1.2C127.73,256.65,126.39,257,129.73,255.48Zm29.4,25.59c-5.35-.77-2.21-2.38-1.36-4.07,2.55,4.26,5.9,4.12,7.8,8.35a17,17,0,0,1,1.81-4c1.09,1.24,1.49,3.4-.14,6.46C161.52,292,159.89,276.73,159.13,281.07ZM69.42,251.2c.46-.28.94-.55,1.4-.77h0Zm22,10.64a4.47,4.47,0,0,0-.53,3.19C91.65,263.36,92.28,262,91.37,261.84Zm31.36,36c-.88,2.89,1.6,3.75,3.41,4.35A14,14,0,0,0,122.73,297.79ZM367.15,464.23c-1.78.17-5.54,1.16-4.55,4.19,2.27-1.44,2,3.31,4.77.7a2.23,2.23,0,0,1,0,.4C367.41,466.83,367.44,464.57,367.15,464.23ZM497.87,515c-1.57,2.28-3.94,4.39-4.39,6.56-.06-.13-.17-.25-.23-.39-.16,1-.28,1.82-.82,2.21.71,1,1.42,2.21,2.5,1.89C499.67,517.55,502.43,517.47,497.87,515Z"/><path class="cls-1" d="M439.26,524.23c.53.15.86.42,1.23.47A5.38,5.38,0,0,0,439.26,524.23Z"/><path class="cls-1" d="M494.74,525.12c.37-.44-.35-1.88-1.26-3.57A3.62,3.62,0,0,0,494.74,525.12Z"/><path class="cls-1" d="M34,177.15l1.59.32.05-3.8c-5.29-1-8.28,1.5-12.31,3.83,5.89,0,6.12,3.17,10.65,6Z"/><path class="cls-1" d="M14.31,199.94c-.52,1.18-1.83,4.15-1.53,4.86l2.43-1.43Z"/><path class="cls-1" d="M45.89,247.62q-.89-2.35-1.73-4.76C41.51,243.71,42.56,250.35,45.89,247.62Z"/><path class="cls-1" d="M63.31,199.32,59.6,200c-.13,3.12,2.1,4.73,4.65,2.59C61,202.15,65,200.83,63.31,199.32Z"/><path class="cls-1" d="M54.52,255.89c4.59-3.19,1.78,4.74,5.82,1.46C58.47,257.72,58.24,251.94,54.52,255.89Z"/><path class="cls-1" d="M86,215.05c2.34-4.74-2.32-2.8-3.57-5.48C84.12,211,82.93,217.17,86,215.05Z"/><path class="cls-1" d="M82.49,259.54c-2.65,2.83-3.9,1.43-4.91-.6,1.3-.47,2.81-1.55,3.91-1.42-4.59.08-4.38-.54-7.67-.94.37,3.84,2.43,7.89-1,11.28C76.73,266.43,82.15,263.93,82.49,259.54Z"/><path class="cls-1" d="M91.3,218.84c-.72-2.61.62-6.2-1.6-7.73-1.43,2.34-3.32,5.88-.53,7.47l-3.8,2.67C85.41,225.68,88.42,216,91.3,218.84Z"/><path class="cls-1" d="M85.57,275.78l.25-2.51C81,274,79,269.89,73.9,273.1,77.12,275.4,82.42,276.68,85.57,275.78Z"/><path class="cls-1" d="M94.25,232.42l4.41-4.53c-1.85-2.7-1.19,1.76-3,2.17-.1-1.27-.77-2.58-2-2.09C96.94,229.57,90.46,232,94.25,232.42Z"/><path class="cls-1" d="M106.68,233.77l4.82.52,2-7.32C108.36,225.8,110.82,229.84,106.68,233.77Z"/><path class="cls-1" d="M107.79,240.2l-.42,1.22,10.6-3.3C112.7,238.84,112.92,238.23,107.79,240.2Z"/><path class="cls-1" d="M140.63,318.72c2.19-1.72,1.36-6.6.76-3.27C139.47,316.81,141.2,322.53,140.63,318.72Z"/><path class="cls-1" d="M159.86,269.75c.08,2.71,7,3.08,10.06,3.11C166.77,272.11,161.76,266.63,159.86,269.75Z"/><path class="cls-1" d="M171.17,272.9c-.26,0-.72,0-1.25,0A2.24,2.24,0,0,0,171.17,272.9Z"/><path class="cls-1" d="M263.21,323.2a1.32,1.32,0,0,0,1-.16C263.87,323.11,263.59,323.12,263.21,323.2Z"/><path class="cls-1" d="M260.28,323.06c-.85-1.71-4.52-2.29-6.68-.23,3,.39,5.35,1.06,9.61.37C262.08,322.79,262.1,320.3,260.28,323.06Z"/><path class="cls-1" d="M279,337.88c-2,.71-2.9-1-4.05,1.42C274.9,340.67,278.68,339.85,279,337.88Z"/><path class="cls-1" d="M372.6,493c1.26,2.45,3,2.26,4.53-1.44C374.85,490.25,374.85,493,372.6,493Z"/><polygon class="cls-1" points="380.13 492.47 379.38 494.31 379.14 497.68 380.13 492.47"/><path class="cls-1" d="M391.07,505.8a3.51,3.51,0,0,1-1.73,1C390.41,506.77,391.36,506.71,391.07,505.8Z"/><path class="cls-1" d="M388.81,506.73a1.53,1.53,0,0,0,.53,0Z"/><path class="cls-1" d="M388.54,505.11l-1.24,1.7a5.1,5.1,0,0,1,1.51-.08C388.36,506.63,388.11,506.15,388.54,505.11Z"/><path class="cls-1" d="M394.89,508.93l.44-6.75c-4.29.86,1.55,4.53-4.47,8.37Z"/><path class="cls-1" d="M405,513.07c1.55,3.21,10-2.69,7.86,4.24,9.12,1,4.37-11.16,14-8.65-5.92-7.72-10.95,9.48-15.84,2C412.1,516.42,407,512.28,405,513.07Z"/><path class="cls-1" d="M409.91,502.09c-2.24,2.8.82,5,3,3.58C412.21,504.77,413.15,499.53,409.91,502.09Z"/><polygon class="cls-1" points="420.74 518.69 421.57 522.34 423.31 520.72 420.74 518.69"/><path class="cls-1" d="M428.42,524.83l-4.24,2.29C425.7,526.15,428.77,528.32,428.42,524.83Z"/><path class="cls-1" d="M437.54,536.12c1.33,2.39,7.93-4.78,2.61-5.49l.79.89C440,532.65,440.57,536.91,437.54,536.12Z"/><path class="cls-1" d="M472.17,538.66a2.72,2.72,0,0,0-4.24,1l4.8.5Z"/><path class="cls-1" d="M483,518.17c1.57-5.77-3.81-1.62-5.4-4.72C479.93,516.06,479.19,516.55,483,518.17Z"/><path class="cls-1" d="M472.53,548.33c-2.21,1.48-3.07-.77-3.85-1.66C467.53,549.81,470.61,550.58,472.53,548.33Z"/><path class="cls-1" d="M479.64,550.08c.12,2.76-1.85,2.67-1.68,4.6,1.45,3.8,4.49,5.07,7.59,3.12.48-2.55,2.75-8.94,5.29-10.87-5.32-.6-12.79,7.56-10.85-.85l-8.55,6.76C474.1,556.23,477.55,548.19,479.64,550.08Z"/><path class="cls-1" d="M480.35,528.42l.64,4.25c1.15-3.12,3.17-2.64,4.91-2.88C488.92,523,481.88,528.78,480.35,528.42Z"/><polygon class="cls-1" points="505.87 559.44 511.62 560.65 510.21 559.41 505.87 559.44"/><polygon class="cls-1" points="507.9 563.25 507.01 565.2 512.66 563.83 507.9 563.25"/><polygon class="cls-1" points="511.88 568.31 511.45 567.69 507.65 567.73 511.88 568.31"/><path class="cls-1" d="M521.56,575.12l.55-3.21c-1.65,0-2.51-4.37-4.27-.54C519.61,570.7,522,572.55,521.56,575.12Z"/><path class="cls-1" d="M592.39,523.08c-1.83,1.38-2.14,3.26-2.46,5.19l3.83-4C593.22,524.31,592.16,524.34,592.39,523.08Z"/><path class="cls-1" d="M594.33,533.75l6.38-3.52c-3.74-3-6.5,1-10.57-.06.67,2.49,4.8-.25,6,2.21Z"/><path class="cls-1" d="M665.5,574c-2,3.36-.92,3.26-4.74,4.25,4.79-.41,7.66,1.88,12.22,3.39.3-2.57,5.3-4.9,3.2-4.73l-5.78-.14,1.84-2.07C670.14,570.39,668.2,577.57,665.5,574Z"/><polyline class="cls-2" points="756.13 645.66 504.68 497.54 263.24 355.28 121.13 269.57 271.45 54.43 889.98 533.94"/></svg>