<svg id="圖層_1" data-name="圖層 1" xmlns="http://www.w3.org/2000/svg" viewBox="0 0 1214 396"><defs><style>.cls-1{fill:#47e1b6;}.cls-2{fill:#47e1b5;}</style></defs><title>筆刷4</title><path class="cls-1" d="M1176.45,308.24c1.57-5-.61-1.59-2.68-1Z"/><path class="cls-1" d="M1173.77,307.26l-1.89-.7A1.51,1.51,0,0,0,1173.77,307.26Z"/><path class="cls-1" d="M1156.2,304.23c3.93-4,8.85,1.29,11.21-4.78C1163.28,296,1157.05,297.59,1156.2,304.23Z"/><polygon class="cls-1" points="1162.33 307.98 1162.76 304.69 1159.35 309.87 1162.33 307.98"/><polygon class="cls-1" points="1164.93 310.93 1164.39 309.74 1158.95 313.2 1164.93 310.93"/><path class="cls-1" d="M1142.55,302.16l4-1c3.87,4.39-2.36,6.07.23,9,5-.14,1.53-9.36,7.85-8-.6-4.2-10.07.25-9.2-6.38C1140.12,293.81,1145.27,299.69,1142.55,302.16Z"/><path class="cls-1" d="M899.38,338.45a6.18,6.18,0,0,0-.57-.63C899,338.53,899.25,339.05,899.38,338.45Z"/><path class="cls-1" d="M832.46,341.67a9,9,0,0,0-2.7-1.43,5.86,5.86,0,0,0,1,1.83Z"/><path class="cls-1" d="M941.33,326.55a14.28,14.28,0,0,0,2.62,1.66A2.86,2.86,0,0,0,941.33,326.55Z"/><path class="cls-1" d="M518.83,284.74a7.2,7.2,0,0,0,.48-1.89l-.1-.16-.87,1.72Z"/><path class="cls-1" d="M757.24,349.54a8.43,8.43,0,0,0-3,.57C756,350.29,756.81,350,757.24,349.54Z"/><path class="cls-1" d="M965.39,326.26a7.11,7.11,0,0,0-1-.05,4.89,4.89,0,0,0,1.23.68l-.18-.63Z"/><path class="cls-1" d="M854.08,351.18a5.42,5.42,0,0,0-2.41-.86A4.87,4.87,0,0,0,854.08,351.18Z"/><path class="cls-1" d="M1080.86,295.79a2.36,2.36,0,0,0-2.92.62C1078.68,297.4,1079.6,297.56,1080.86,295.79Z"/><path class="cls-1" d="M1057.12,296.69a.25.25,0,0,1,.14,0C1057.12,295.87,1057.05,296,1057.12,296.69Z"/><path class="cls-1" d="M1041.94,296.17a1.91,1.91,0,0,1,.27-.16C1042,295.44,1041.94,295.32,1041.94,296.17Z"/><path class="cls-1" d="M1077.94,296.41c-2-2.58-2.67-11-5.11-1.73l.52,1.23c-1.55-2.08-3.76,1.57-5.52,1.87a13.3,13.3,0,0,0,.66,2.23,22,22,0,0,1,3.88.92C1074.54,302.84,1075.88,298.42,1077.94,296.41Z"/><path class="cls-1" d="M899.66,336.76c.2,1.7,1.82.86,0,0Z"/><path class="cls-1" d="M920.33,330.16a18.89,18.89,0,0,0-2-.31A2.11,2.11,0,0,0,920.33,330.16Z"/><path class="cls-1" d="M997.85,333.1c-.13-.15-.25-.22-.37-.38C997.37,333.68,997.67,333.53,997.85,333.1Z"/><path class="cls-1" d="M916.45,329.75a12.89,12.89,0,0,1,1.86.1A1.57,1.57,0,0,0,916.45,329.75Z"/><path class="cls-1" d="M974.59,328c-.11-.09-.22-.22-.32-.24A.48.48,0,0,0,974.59,328Z"/><path class="cls-1" d="M207.75,223.3c1.63-.56,2.16,2,3.48,2.89,4.08-5.57-6.57-1.1-1.15-5.79a6,6,0,0,0-3.82,1.17l1.18,6C210.57,225.73,205.85,225.35,207.75,223.3Z"/><path class="cls-1" d="M500.53,271.33l.62.57c-.25-2.66.22-3.44-2.2-5-2.47,3.83.43,10.07-3.7,14.18a3,3,0,0,1,2.83.52C496.8,277.88,498.63,274.29,500.53,271.33Z"/><path class="cls-1" d="M498.08,281.57a1.73,1.73,0,0,1,.08.31,9.07,9.07,0,0,0,.44,1.46,2.41,2.41,0,0,1,1.46.75A4.75,4.75,0,0,0,498.08,281.57Z"/><path class="cls-1" d="M257.66,232.62c.6.27,1.14.51,1.63.75C258.6,232.16,258.1,232.13,257.66,232.62Z"/><path class="cls-1" d="M764.78,276.56a20.38,20.38,0,0,0,2.14-1.73A3,3,0,0,0,764.78,276.56Z"/><path class="cls-1" d="M536.61,279.78a5.26,5.26,0,0,0,1.77,1,9.4,9.4,0,0,1,1.18-.19Z"/><path class="cls-1" d="M409.9,324.91c1.9-6.38-1.06.43-3.33-3.58l-2.75,3.24C406,325.81,408.11,324.93,409.9,324.91Z"/><path class="cls-1" d="M206.17,221.12c0,.2-.06.38-.11.58a1.67,1.67,0,0,0,.2-.13Z"/><path class="cls-1" d="M337.73,319.35a12.47,12.47,0,0,0-1.08-1A2.14,2.14,0,0,0,337.73,319.35Z"/><path class="cls-1" d="M512.2,285.47l9.19,1.09-2.56-1.82C517.3,287.87,513.78,281.64,512.2,285.47Z"/><path class="cls-1" d="M449.14,332.21l.49,4c9.94-7.64,19.55,5.33,27.87-5.87,10.14,14.79,8.36-11.87,17.69,1.37l-.19-2c33.71,5,69.27,14.77,101.46,10.07l-.24,2.78c12.73,2,25.42,3.25,38.08,4.17s25.31,1.28,37.93,1.66l37.88,1c12.63.38,25.27,1,37.95,2.07,4.84-2.4,2.22-8.65,6.42-11.61,1.76.31,5.78.11,5.67,3.54-3.51,1.76-1.69,4.86-2.91,6.16,5.72-.16,13,4.06,18.2.06L771.33,345c2-1.79,5.12-.43,6.9-.14-.83,2.23,1.61,7.16,0,8.18,11.13-10.62,8.23,5,17.44,1,2.11-9.31,13.67-16.7,21.3-23.21l3.84,2.55c-5.19-.2-.1,6.86-6.53,6.23,5.31,2.86,10.41-1,15.46.6-.92-2.38-.59-5.46,1.48-6.47,3.1,1.37,3.25,6.1,6.81,6.67l-3.61,2.85c2.29,3.6,4.45-1,6.67-1.51.62,4,5.94,4.81,4.89,9.16,5-5.24,6.58-2.15,11.84-5.45-5.29-4.24,1.5-5.14,1-8.43l-6.1,1.42c8.49,2.85-2.8.63-2.32,7.35-3.95-3.2,5.79-10.9-1-10,8.12-3.19,9.76-.2,18.1-5.58-5,1.16,1-4.35-1.58-6.45,6.29-.13,1.51,2.38,3.37,6.73,3.43-.13,4.61,3.7,7.86-1.19,5.52,2.13-.93,5,1.83,7.8-2.16,4.59-15.36-6-14.16,8.79-2.9.1-6.58,5.68-10.76,5.28,3.61,2,8.74,6.95,13.34,3.68l.4-8.3c3.44-.14,4.26-5.77,6.72-5-1.36,2.38.93,5.92,3.71,5.29-.76-1.19-1.87-.94-1.54-2.38,5.13-.53,5.94-6.18,12-7.63-5-2.25-6-4.75-10.58-8.45,1.37-5.8,3.32-.79,6.09-1.44-.43.79-1,.93-.22,2.1l3-2.74c6.21,2.63-.93,8.42,4.17,11.32,3.48,4.95,4.93-2.64,7.61.18-.17-.53-.34-1.1-.5-1.48a4.39,4.39,0,0,1,1.35.42,2.35,2.35,0,0,1,0-.4c3.33-.79,6.88-.25,7.89-4.59.32,2,2.91-.52,4-1.86,1.87-1.73,6.36-6.82,9,.21-.07.06-.14,0-.21,0,4.12.88,7.31,3.11,6.39,5.45l6.65,1.81-.78,5.66c6.1-1.47,5.53-4.79,9.75-10.59,4.32,3.41,11.95.78,14.84-1.29a3.73,3.73,0,0,0,2.42,0l-2.52-2.25c4.74.29,4.18-2.69,7.31-2.71-.65-.53-.74-.85,1,.05a14,14,0,0,1,1.79.42c-.16.6-.86.51-1.56.21l.56,1.89c3.75,6,5.83-3.4,9.86-1.28a3.11,3.11,0,0,1-1.45.54c2.26,1.53,5.5,9.56,6.46,4.67.53.62,1.33-.36,2.12-1.58l1.67.86a7.61,7.61,0,0,1-1.65-.87c1-1.62,2-3.64,2.17-2.43l5.81,1c1.1.82,2.6.12,3.81-.68l1,2.36c2.12-.35,2.13,1.05,1.88,1.7,7.36,8.17,11.38-4.15,19.34,2.93,1.51-3.93-1.78-5.69-2-7.8,1.23-3,5.77-5.74,8-7.89,3.54,5.4,14.42,10.12,12.71,18,6.56.57-2.06-4.81,1.21-7.53l.75.3c-2.27-.89-4-3.56-5.33-6.56-.51-4.21,5.26-5.48,7-4.28l-1.21,6c6-2.14,4.72-11.16,8.43-17.2,4.82,2.35,2.09,7.82,3.14,13.19l5-1.53,0,4.51c3.27-1.22,4-5.43,8.56-3.69-3.25,4.27,6.85,4.17,2.36,9.91,2.54,1.5,3.19-7.22,4.53-1.23,1.71-4.83-2.29-2.37-3.57-3.88-1.1-6.9,5.51-3.36,8.51-5.21.29,3.57-2,4.24,1.62,6.57.7-2.72,2.94-4.85,5-1.57,0-4.51,4-1,6.06-.72-2.29-.85-5.61-4.1-4.17-8,1.74-1.83,3.25-2.76,7.29-2.21l-2.8-2.07c3.43-6.67,5.86,4.7,10.63,2.53-2,2.74-3.25,2.76-5,6.08a69.8,69.8,0,0,1,10-7.65l4.14,6.53c.45-3.31,4.55.23,4.48-4.28,5.07,3-4,5.48-4.41,8.79,6.37,2.89,4.93-7.58,11.1-.77l-1.94,4.23c2,.27,6-2.19,6.31-.09,0-1.51-1-.89-2.29-.87,1.09-9,9.2-6.51,8.28-15.81l-2.79-.54c4.22-1.9,7.13-8.28,10.46-5.07,2.58,2.94-1.63,6.35-3.08,8.8,4,.5,3-10.3,7.85-9.51-2.54-1.45-2.13-4.77-.67-7.2-2.78-.54-8.58-2.2-7.49,1.69l1,.88c-.21,2.42-1.7,3.35-2.43,4.57-3.78.09-1.84-4.17-2.63-6-6.31-1.34-.34,9.33-6.1,9.16l-.79-1.79c-2.73,2.45-7,2.83-7.67,8.56-2.62-6-6.49,2.49-9.32-1.06-.73-13.22,9.82.75,13-6.52-3.07-2.66,1.62-6.34,2.83-9.36l-9.44,5.85c-.79-1.8-3.68-8.35-5.34-3.51l.75.29c-3.75,1.55-2.65,7-5.95,5.2-.53-1.2.45-3.32.68-4.22-3-1.17-2.46,3-4.46,4.27-3-1.14,1.43-5.44-1.11-6.87-3.43,5.15-5.54-1.14-8.57-.78,1.39,7.49-11.93,10.4-5.3,16.91l-7.23,5.22c-2.32-3.87,4.9-10.58,2.81-16.87l5.79.19c-1.06-9.32-12.06,6.28-16-4.11-3.09-.38-2.33.92-8.22-3.69l1.08,8.33c-3.06-1.89-4.08-6.43-4.23-8a9.54,9.54,0,0,1-5,0,4.3,4.3,0,0,1,2.11-2.8c-2.32-4.61-3-2.88-3.75-.41-1.22,2.11-3.1,1.84-5,1.77l1.69-3.11c-1.16.71-2.57,1.61-2.69,3.12a3.91,3.91,0,0,0-2.25.75c.52,1.44,1.8,6.3,4.53,8.45-7.06-3.25-12.57-1.41-18.63-8.26.22-2.41,2.73-5.43,2-5.73-3-1.19-6.27,3-6,6.66a5.94,5.94,0,0,1-1.66.35c-.58-2.06-1.3-4.28-2.73-4.64a2.72,2.72,0,0,0-1.9-1.67c-1,6.64-6.78,3.29-8,6.31a8.25,8.25,0,0,0,4.72.41c-2.42,4.41-4.59,9.45-6.46,5.9,4.5-4.2-4.81-6.9,2-8.72-4.77-8.4-2.49,6-7.54,3l-3.26-3.32c.5-4.81,5.28-2.39,4.52-4.2l-2.26.6c2.26-3.61,10.8-1.2,16-6.62l-10.54-2.7c-13.28,5.71-29.82-.92-41.16,9.6a2.85,2.85,0,0,0,.48-.13,13.78,13.78,0,0,0-.47,3.19l-.5-1.2-2.25,3.62c-2.51-4.53-7.26-5.48-11.27-9.1,2.51,3,2.51,3,2.74,6.61-.55,4.82-1,6.86-4.72,5,0-3.42,2.32-3.31-.44-6.05a2.89,2.89,0,0,1-1.53,4.5c-2.1-2.24-5.64-2.75-5.65-6.18,1-.92,1.77.26,2.43.78,1-.91-4-3.13-1-5.91l-3.84.94c-2.2-2.89,1.54-4.49.66-6.34-6.39,2.26-9.74,10.1-15.54,12.37.29-1.82.45-9.46.36-7.25-4.41-2.34-9.63,8.21-14.7,8.77.78-2.25,2.65-1.32,4.2-2.41-15.42-3.11-28.08-3.56-42.41-11.09l-3.93,7.77-3.67-5.29a45.68,45.68,0,0,0-21-2.06c-6.66.75-13.26,2.43-20.54,3.41-4.53.37-2.55-5.54-4.61-7.81-9.87-1.17-12.55,7.67-22,9.08,1.38-2.36,3.8-9-.25-9.51-.83,2.24-1.44,5.79-4,4.3l1.38-2.36c-2.22-3.61-4.59-.36-9.39-2-8.58-.14-17,5.12-24.34,13.53-7.56-1.06,1.11-8.41-.27-10.16,5.24,3.06,3.77-1.26,5-3.92-2.91,2.12-6.39,3.36-7.63-2.3-3.95.2-5.72-.1-9.76,3.49,2-1.81,3.6,1.28,1.66,3.74-3.15-2.09-11.44-.31-10.7-7.28-18.7.53-39.51-1.74-59.49-2.53-3.55,3.43,2.49,1.53.51,4-5.14,4.45-3.75-2.63-7.86.91l1.81-3.74c-5.8-.87-12.36,5.87-18.21,9.11,1.17-4.3-4.45-3.84.39-6.18-2.81.58-5.1-19-7.44-15.16l2.11,18.27c-.25,1.77-4.07.47-3.74,1.69-2.22-3.69-4.95-8.08-6.62-8.16-.55-4.63,3.59-3.38,5.87-3.16.77-7.6-7.45-5.35-3.74-12.16-5,1,.48,4-2.61,6.61l-4.2-1.89,3.16,2.76c-3.71,2.08-5.27,7.82-9.81,3.27l-5.4,7.16c-.15-6.06-3.56-1.32-6-2.88l1.83-3.75c-3.4,0-4.65-1.13-6.64-3.46,2.23-5.19,3,1.46,4.11-3.51l-3.61-2c-.19,3.41-2.73,5.95-.18,8.18-3.85,6.15-6.07,11.33-14.72,10.29-3.55-6.08,4.54-4.93,3.28-10.79-8.84-3-12,14.51-17.21,13.44-6.56-2.84-6.53,2.57-13.37,2.48,2.43-3.83-4.48-4.58-5.48-8.45l3-3.94c-2.15,1.09-4-.6-3.22-3.46,0,5.4-9.17,4.43-14,6.67l.49,4.64c-3.78,1.28-9.07,3.82-12.88,2.38-5.9,1.05-4.88,5.2-9.71,9.86-2.16-4.34-1.53-9.2-.34-14.15,1.37,2.46,4.1,1.29,6.55,2.9,7.61-3.41,14-12.72,21.11-10,3.93-10.9-5,1-8.28-3.19.15-.66.42-.86.7-.95a1.34,1.34,0,0,1-.86-.38c2.71-1.19,7.09-2.66,8.19-8.29-4.45.84-4,10.87-9,5.74-4.25,2.82-6.9-6.13-9.27-7.09-3,4-3.74,12.85-10.21,10.63l3.34-6c-7.44-.69-4.17,8.86-11.06,8.05,2.37.92-2.81,5.93,1.8,6.45-2.52,3.15-7.62,3.4-11.24,1.31-1.05.88-.36,2.1-.71,4.2,3.84,4.64,6.9-3.7,9.86,2.78l3.39-6.49c3.69,2.72,3.69,8.15,1.12,10.61,1.11-.19,2.14-1.05,2.85.19-.08,10.15-4.39-3.95-6.37,4.51L523,291c.71,6.64-6.83,5.27-10.33,4.54-3.76-3.38-7.34-4.78-7.24-9.55l5.52-1.63c-2.49-4-7,1.71-10.13,1.28a3.31,3.31,0,0,0-.75-1.55,3.76,3.76,0,0,1,.15,1.34,3.26,3.26,0,0,1-1.61-2.09c-2.72-.46-7,2.14-9.39.43l0,4.26.53-2.36c2.5.36,5.69,3.22,3.54,6.25-5.89,2.51-6.38-5.75-7.43-9.54,1.82-6.4,5.51.48,8.56-1.52-1.22-6.56-5.69-1.1-11.19-5.82,2.89-6.85,6.76.63,8.56-5.77-4.6-1.57-6.23,3.37-11,1.15.9-3.21,5.73-3.12,5.76-7.35l-3-2.27c7.81.22-.65-8.86,5.54-10.12-2.62-3.1-4.45,5.44-8.15.63.88,3.17,3.68,9-.44,11.46l-4.23-2.45c-1.56-3.56,5.2-7.11,2.57-10.23l-4.8,2c0,2.11,2.1,3.36.48,6.13-2.47-2.49-5,7.75-8.43,10.59-2.49-.37-4.44-1-5.12-3.51-6.82,5.69-14.79,4.79-21.12,10.21,4.33-3.88.47-7.2-1.62-10.57,4.63-.5,5.24-7.1,5.29-11.35-2.83.47-5.24,7.11-4,9.43-4.4-3.09-3.6,4.31-7.28-.48-2.44-2.52,1.89-6.39,1.2-9-5-.76-2.07,7.88-7.36,5.83.37-.85.89-1.08.57-2.34-2.81-1.66-6.24,1.15-7.17,4.36-2.33-8.88-8.88.11-7.5-8.18-7.29,1.58.64,4.66-1,7.45-3.25,3.43-8.34-.11-9.89-1.59,1.77,0,3.59-2.15,5.15-.7l-.95-5.94c-8.43-5-6.83,12.61-14.88,6.79,4.68-2.62,1.88-4.26,4.44-8.15-1.46,1.33-8-.92-4.36,3.89a25.29,25.29,0,0,1-7.38-3.29c-3.06,2-6.29,3.26-8.32,6.88-4.42-1.05-7.33-5.5-9.22-8.24-9.83,3.24-17.8-4.79-28.17-1.34l.7.43c-7.59-1.86,2.61,8-5.38,7,1.81-7-4.29-5.28-6.48-9.3-9.39-4.69-17.5,3.39-26-2.39.24-1.47,1-3.18,2.77-3.17-6.62-3-12.31-2.17-18.44-3.27l.37-.84c-9.23-6.87-19-1.05-29.43-.6.94-.79,1.49-3.43,2.25-4.3-4.94-2.24-13-4.33-17.44,1.67-5.16-7.77-4.31,1.57-11.22-6.23-.28-1.31.94-1.06,1.49-1.26-3.51-2.86-6.34-2.48-10.08-3.87-9.14,3.24-12.64,12.09-22.17,7.82,1-9.68,6.45-1.43,7.82-9.05-2.23,1.42-4.23,3.1-6.61.4,2.21-3.49.72-2.3,2.37-5.63-1.67-2.84-9.91,8.7-9.73,7.8-.41,1.83.15,2.95,2.15,3-3.24,5.55-9.82-1-15,.54,1.53.43,6.13,3.11,3.56,7.33-6.12-3.09-9.78,5.75-15,8.81-5.23-5.32,5.77-7.31,5.76-14.2-.58-2.61-2-8.36.87-10.57-5.05-2.28-9.82,2.74-14.82,3.37l.47-1.87c-6.72-.35-15.29,6.56-20.11,1.71l2.53,2.71c-1.3.92-4.52-.26-7.11,3.24.81-3.1-2.94-6.74-.67-9-4.9,9.45-16.15,3-21.45,11.84-1.23-2.89,1-6.64,2.06-8.8,4,1.72,5,4,8,.44-3.48-.57-5.47-3.65-4.46-5.83-4.75,5.53-13.48,6.13-16.62,12-1.84-3.68-3.86-5.88-1.81-10.86-5.63.41-5.25,4.67-4.93,8.53s.57,7.24-5.44,5.78c-4.29-6.3,6.9-5.53-.21-9l1.57-.49c-2.27-14.57-6,8.59-12.13,6.68,1-7.42,5.54-4.15,2.56-10.33-6,.46-11.17,10.49-16.23,6.76l1.67-2.84a32.81,32.81,0,0,1-7-2,34.91,34.91,0,0,0-7-2.08c.21-1.46.68-1.12,1.46-1.33-5.82-4.5-3.77,2.92-7.76-3.5l-2.52,3.05c2,3.21,6.31,8.15,10.86,5-4.56,3.16,3,10.57-.37,16.23l1.34-2.27C59.47,242.78,64,247.05,69,250.63s10.67,6.25,16.09,9.67c4.57-2.81,7.56-1.4,10.57.35s6,3.8,10.57,2.11c3-8.22,1.86-1.39,9.08-1.7-3.85.33-1.78,6.4.3,8a9.57,9.57,0,0,1,5.39-2.84c.77,3.24,8.18,11.78,12.48,6.58,3.68,3.54-1.51,2.55-2.77,4.15.89,4.7,4.09-2.78,4.93.43a2.56,2.56,0,0,1-.76,1.26c6.52.91,10,3.78,16.52,6.06,2-8.32,7.16-2,10.67-4.5-1.43,2.56,3.25,3.78,4.9,5.68l4.63-5.66c4.42-4.74,4.35,4.59,9.42,2.42l-.87-1.69c3.76-2,11.8,4.43,14.45,9.48,16.8-6,28.41-2,40.18,3.43s23.6,12.32,40.27,12c2.43-2.31-1.06-4.47,1.05-8.06,3.44-.6,4.15-.15,7.19.08-2.41-2.59-2.31.29-1.7-2l-4.91,1.85c-.15-.65.39-.84.09-2.1-1.65.6-3.68,2.08-5.62,1.4,3.12-1.86,4.64-8,8.29-5.19-.4.82-.94,1-2,1.45,3.18.88,3.68-2.1,5.92-.16,2.81,1.73,2.3-.29,2.38,2.48L294.6,300c5.43-7,10.31.78,11.73,1.63-1.61,5.5-6.3,1.06-9.18,6.32l2.89,4.48.69-4.47,4.61,1.74-.36.84c.75-1.7,1.52-3.38,2.57-1.7.14.64.47,1.92-.09,2.13l3.66-2.12c-2.47,4.44,2.82,1.71,1.76,7,10.78,3.89,14.8-5.79,23.77,2.53-1.32-2.69,4-8.15,6.84-6.87,1.59,1.49,1.9,2.74.6,4.68l4.19-2.35c4.07,8.88,9.4,4,16.31,7.55l-.6,2.33c2.94-2.53,6-4.46,9.95-3.2l-1.19,4.66c4.59,3.78,4.71-9.59,9.83-6.06.45-5.09-2.7-8-2.77-12.89.78,5.29,6.51,6.6,5.51,2.8,5.58-1.58,3.72.47,4.07,1.75l3.45-2.81c3.76.6.58,6.78-1.09,9.56,4.05-5.15,7.53-.94,11.46.3l-1.83,2.13,5.19,1.41c3.81-3.65,8.65-3.5,12.9-1l-3.67,6.41c2.81,3.78,1.81-2.17,2.74-3.23,5.23-2.82,5.87,1.84,8.15,5.85C435.21,323.05,441.49,341.69,449.14,332.21ZM996,329.9l-.73-1C996.89,327.73,997.84,326.65,996,329.9Zm-43.42-2.11c5.25-2.58,3.57.59,4,2.45-5.14-1.89-8,.22-12.55-2a15.49,15.49,0,0,1,1.07,4.28c-1.82-.34-3.62-1.84-4.21-5.26C943.12,320.49,954.78,331.72,952.55,327.79Zm97.54-33.2c-.18.51-.38,1-.6,1.51h0Zm-25.73,6.14a4.46,4.46,0,0,0-1.79-2.78C1023.05,299.75,1023.51,301.23,1024.36,300.73Zm-51.26-8.39c-1.17-2.81-3.88-2-5.84-1.32A16.33,16.33,0,0,0,973.1,292.34Zm-323.22-6.63c1.61-1,4.68-3.68,2.12-5.86-1.41,2.34-3.64-2-4.92,1.66a1.33,1.33,0,0,1-.25-.34C648.25,283.54,649.43,285.54,649.88,285.71Zm-153.47,12.7c.5-2.73,1.87-5.64,1.3-7.79.12.09.29.15.42.25-.31-1-.58-1.77-.23-2.35-1.19-.64-2.44-1.41-3.37-.67C493.4,296.81,490.67,298.05,496.41,298.41Z"/><path class="cls-1" d="M549.83,265.18c-.59.1-1.05,0-1.42.12A6,6,0,0,0,549.83,265.18Z"/><path class="cls-1" d="M494.78,287.9c-.16.56,1.23,1.57,2.93,2.72C497.44,289.47,496.64,288.5,494.78,287.9Z"/><path class="cls-1" d="M1134.47,324l-1.5.94,3.08,2.64c5-3.12,5.17-7,6.31-11.58-4.43,4.32-7.24,2.27-13,3.62Z"/><path class="cls-1" d="M1131.33,294c-.53-1.19-1.85-4.18-2.61-4.46l-.69,2.75Z"/><path class="cls-1" d="M1071.65,281.72l4.79,2.33C1077.92,281.63,1072.35,277.49,1071.65,281.72Z"/><path class="cls-1" d="M1093.42,329l2.48-3.05c-2.3-2.38-5.33-2-5.79,1.28C1093.12,325.33,1090.89,329,1093.42,329Z"/><path class="cls-1" d="M1058.85,281.23c-1.44,5.43-4.78-2.38-5.73,2.74C1054.36,282.46,1058.66,286.65,1058.85,281.23Z"/><path class="cls-1" d="M1062.64,332.67c1.57,5.11,4,.57,7.1,1.76C1067.21,334.45,1063.62,329.06,1062.64,332.67Z"/><path class="cls-1" d="M1033.38,296.73c.23-3.87,2.24-3.61,4.51-2.72-.76,1.21-1.24,3-2.25,3.62,3.75-3,4-2.43,7-4.25-3-2.69-7.57-4.44-7.1-9.26C1033.34,287.75,1030.59,293.17,1033.38,296.73Z"/><path class="cls-1" d="M1055.33,333.34c2.55,1.49,4.09,5.06,7.13,4.74-.55-2.69-1.6-6.61-5.13-6l1.23-4.51C1055.25,324.31,1059.89,333.58,1055.33,333.34Z"/><path class="cls-1" d="M1019.52,286.34l1.52,2.08c3.51-3.63,8-1.85,10-7.59C1026.78,281.16,1021.52,283.62,1019.52,286.34Z"/><path class="cls-1" d="M1042.88,325l-.45,6.31c3.54.86-.26-2.11,1-3.62,1,.9,2.53,1.47,3.27.27C1042.67,328.93,1046.4,322.89,1042.88,325Z"/><path class="cls-1" d="M1031.31,332l-4.52,2.73,3.57,6.87C1035.66,339.2,1030.6,337.71,1031.31,332Z"/><path class="cls-1" d="M1025.73,327.85l-.51-1.21-6.77,9.37C1022.49,332.08,1022.74,332.67,1025.73,327.85Z"/><path class="cls-1" d="M943.8,286.54c-.78,2.7,3.14,6.11,1.48,3.08C946.06,287.38,940.82,283.83,943.8,286.54Z"/><path class="cls-1" d="M959.57,337.27c-1.92-2.06-8.29,1.72-11.09,3.55C951.8,339.54,960,340.94,959.57,337.27Z"/><path class="cls-1" d="M947.34,341.54c.23-.16.65-.43,1.14-.72A2.44,2.44,0,0,0,947.34,341.54Z"/><path class="cls-1" d="M830.05,353.34a1.46,1.46,0,0,0-.87.7C829.48,353.77,829.74,353.61,830.05,353.34Z"/><path class="cls-1" d="M832.89,351.84c1.86,1,5.66-.59,6.38-3.49-3,1.3-5.66,2.06-9.22,5C831.37,353.05,832.91,355.15,832.89,351.84Z"/><path class="cls-1" d="M806,349.71c1.45-1.68,3.34-.75,2.94-3.39C808.21,345.12,805.16,347.86,806,349.71Z"/><path class="cls-1" d="M629.59,262.88c-2.47-1.57-4-.57-3.57,3.41C628.88,266.4,627.46,264,629.59,262.88Z"/><polygon class="cls-1" points="622.69 266.92 622.46 264.94 620.96 261.84 622.69 266.92"/><path class="cls-1" d="M605.44,260.12a3.37,3.37,0,0,1,1.17-1.65C605.58,259,604.7,259.44,605.44,260.12Z"/><path class="cls-1" d="M607.13,258.25a1.93,1.93,0,0,0-.52.22Z"/><path class="cls-1" d="M608.21,259.57l.32-2.09a5.63,5.63,0,0,1-1.4.77C607.61,258.14,608.09,258.45,608.21,259.57Z"/><path class="cls-1" d="M600.21,259.09l3,6.2c3.67-2.74-3.78-3.31.06-9.49Z"/><path class="cls-1" d="M588.42,260c-3.08-2.16-8.31,7-9.66-.25-9.32,3.09,1.31,12-9.26,13.93,9.59,4.32,5.9-13.31,14.35-8.78C579.93,260.25,586.9,261.64,588.42,260Z"/><path class="cls-1" d="M589.2,272.05c.74-3.51-3.3-4.11-4.73-1.83C585.63,270.7,587.35,275.8,589.2,272.05Z"/><polygon class="cls-1" points="570.48 262.01 567.89 259.09 567.01 261.31 570.48 262.01"/><path class="cls-1" d="M560.06,259.87l3-3.93C562,257.49,558,256.89,560.06,259.87Z"/><path class="cls-1" d="M545.78,253.75c-2.44-1.57-5.42,7.78.09,6.07l-1.19-.45C545.1,257.92,542.45,254.37,545.78,253.75Z"/><path class="cls-1" d="M510.79,266.14c1.74.34,3.9-.71,3.68-2.71L509.53,265Z"/><path class="cls-1" d="M509.74,289.29c1.18,5.9,4.55-.13,7.6,2C513.8,289.92,514.29,289.16,509.74,289.29Z"/><path class="cls-1" d="M506,257.51c1.47-2.28,3.36-.59,4.53-.11C510.14,254.06,506.79,254.66,506,257.51Z"/><path class="cls-1" d="M498.15,258.91c-1.38-2.45.6-3.2-.46-4.88-3.15-2.87-6.7-2.79-8.86.25.69,2.53,1.36,9.3-.26,12.1,5.54-1.63,9.12-12.12,11.09-3.7l5.26-9.72C500.77,251,501.08,259.75,498.15,258.91Z"/><path class="cls-1" d="M507.53,278.87l-2.62-3.59c.32,3.32-1.91,3.72-3.52,4.68C501.57,287.37,505.85,279.18,507.53,278.87Z"/><polygon class="cls-1" points="468.05 260.93 461.81 262.12 463.76 262.7 468.05 260.93"/><polygon class="cls-1" points="464.34 258.25 464.36 256.11 459.37 259.62 464.34 258.25"/><polygon class="cls-1" points="458.17 255.2 458.86 255.59 462.6 254.05 458.17 255.2"/><path class="cls-1" d="M445.59,252.7l.85,3.18c1.61-.68,4.41,3.06,4.47-1.16C449.45,256,446.29,255.24,445.59,252.7Z"/><path class="cls-1" d="M396.21,327.62c1.31-1.95.81-3.81.31-5.73L394.26,327C394.81,326.78,395.9,326.36,396.21,327.62Z"/><path class="cls-1" d="M389.58,318.36,384.45,324c5.17,1.42,6.36-3.25,11-3.75-1.77-2.09-4.89,2-7.19.09Z"/><path class="cls-1" d="M298.71,304.53c.83-3.82-.26-3.39,3.41-5.52-4.91,1.88-8.81.6-14.19.59.63,2.53-3.82,6.31-1.66,5.49l6.2-1.67L291.29,306C295.13,309.39,294.49,302,298.71,304.53Z"/><path class="cls-1" d="M69.61,224.85c1-1.69.73-3.52.47-5.35C66.17,220.68,70.39,224.63,69.61,224.85Z"/><polygon class="cls-2" points="53.43 84.05 1162.58 71.95 1131.83 351.18 883.86 312.47 623.33 315.66 146.63 253.81 65.94 236.3 42.35 208.31 53.43 84.05"/></svg>